<svg xmlns="http://www.w3.org/2000/svg" xmlns:xlink="http://www.w3.org/1999/xlink" width="40" zoomAndPan="magnify" viewBox="0 0 30 30.000001" height="40" preserveAspectRatio="xMidYMid meet" version="1.0"><defs><filter x="0%" y="0%" width="100%" height="100%" id="c54a4db3f1"><feColorMatrix values="0 0 0 0 1 0 0 0 0 1 0 0 0 0 1 0 0 0 1 0" color-interpolation-filters="sRGB"/></filter><g/><clipPath id="eaa989ace8"><path d="M 2.523438 0.625 L 27.476562 0.625 L 27.476562 28.40625 L 2.523438 28.40625 Z M 2.523438 0.625 " clip-rule="nonzero"/></clipPath><clipPath id="2a9e8c3dd6"><path d="M 17.007812 1.167969 L 25.46875 6.089844 C 26.710938 6.8125 27.476562 8.144531 27.476562 9.582031 L 27.476562 19.453125 C 27.476562 20.890625 26.710938 22.21875 25.46875 22.941406 L 17.007812 27.863281 C 15.765625 28.585938 14.234375 28.585938 12.992188 27.863281 L 4.53125 22.941406 C 3.289062 22.21875 2.523438 20.890625 2.523438 19.453125 L 2.523438 9.582031 C 2.523438 8.144531 3.289062 6.8125 4.53125 6.089844 L 12.992188 1.167969 C 14.234375 0.445312 15.765625 0.445312 17.007812 1.167969 Z M 17.007812 1.167969 " clip-rule="nonzero"/></clipPath><linearGradient x1="-7.258985" gradientTransform="matrix(0.0974594, 0, 0, 0.0974594, 2.525201, -0.0000164516)" y1="13.687016" x2="263.258472" gradientUnits="userSpaceOnUse" y2="284.203482" id="5b3276af34"><stop stop-opacity="1" stop-color="rgb(99.998474%, 99.998474%, 99.998474%)" offset="0"/><stop stop-opacity="1" stop-color="rgb(99.983215%, 99.848938%, 99.977112%)" offset="0.015625"/><stop stop-opacity="1" stop-color="rgb(99.952698%, 99.54834%, 99.935913%)" offset="0.03125"/><stop stop-opacity="1" stop-color="rgb(99.920654%, 99.249268%, 99.893188%)" offset="0.046875"/><stop stop-opacity="1" stop-color="rgb(99.890137%, 98.948669%, 99.85199%)" offset="0.0625"/><stop stop-opacity="1" stop-color="rgb(99.858093%, 98.648071%, 99.809265%)" offset="0.078125"/><stop stop-opacity="1" stop-color="rgb(99.827576%, 98.348999%, 99.766541%)" offset="0.09375"/><stop stop-opacity="1" stop-color="rgb(99.795532%, 98.048401%, 99.725342%)" offset="0.109375"/><stop stop-opacity="1" stop-color="rgb(99.765015%, 97.749329%, 99.682617%)" offset="0.125"/><stop stop-opacity="1" stop-color="rgb(99.732971%, 97.44873%, 99.639893%)" offset="0.140625"/><stop stop-opacity="1" stop-color="rgb(99.702454%, 97.148132%, 99.598694%)" offset="0.15625"/><stop stop-opacity="1" stop-color="rgb(99.67041%, 96.84906%, 99.555969%)" offset="0.171875"/><stop stop-opacity="1" stop-color="rgb(99.639893%, 96.548462%, 99.513245%)" offset="0.1875"/><stop stop-opacity="1" stop-color="rgb(99.607849%, 96.24939%, 99.472046%)" offset="0.203125"/><stop stop-opacity="1" stop-color="rgb(99.577332%, 95.948792%, 99.429321%)" offset="0.21875"/><stop stop-opacity="1" stop-color="rgb(99.545288%, 95.648193%, 99.386597%)" offset="0.234375"/><stop stop-opacity="1" stop-color="rgb(99.514771%, 95.349121%, 99.345398%)" offset="0.25"/><stop stop-opacity="1" stop-color="rgb(99.482727%, 95.048523%, 99.302673%)" offset="0.265625"/><stop stop-opacity="1" stop-color="rgb(99.452209%, 94.749451%, 99.259949%)" offset="0.28125"/><stop stop-opacity="1" stop-color="rgb(99.420166%, 94.448853%, 99.21875%)" offset="0.296875"/><stop stop-opacity="1" stop-color="rgb(99.389648%, 94.148254%, 99.176025%)" offset="0.3125"/><stop stop-opacity="1" stop-color="rgb(99.357605%, 93.849182%, 99.134827%)" offset="0.328125"/><stop stop-opacity="1" stop-color="rgb(99.327087%, 93.548584%, 99.092102%)" offset="0.34375"/><stop stop-opacity="1" stop-color="rgb(99.295044%, 93.249512%, 99.049377%)" offset="0.359375"/><stop stop-opacity="1" stop-color="rgb(99.264526%, 92.948914%, 99.008179%)" offset="0.375"/><stop stop-opacity="1" stop-color="rgb(99.234009%, 92.648315%, 98.965454%)" offset="0.390625"/><stop stop-opacity="1" stop-color="rgb(99.201965%, 92.349243%, 98.922729%)" offset="0.40625"/><stop stop-opacity="1" stop-color="rgb(99.171448%, 92.048645%, 98.881531%)" offset="0.421875"/><stop stop-opacity="1" stop-color="rgb(99.139404%, 91.748047%, 98.838806%)" offset="0.4375"/><stop stop-opacity="1" stop-color="rgb(99.108887%, 91.448975%, 98.796082%)" offset="0.453125"/><stop stop-opacity="1" stop-color="rgb(99.076843%, 91.148376%, 98.754883%)" offset="0.46875"/><stop stop-opacity="1" stop-color="rgb(99.046326%, 90.849304%, 98.712158%)" offset="0.473169"/><stop stop-opacity="1" stop-color="rgb(99.031067%, 90.699768%, 98.690796%)" offset="0.484375"/><stop stop-opacity="1" stop-color="rgb(99.014282%, 90.548706%, 98.669434%)" offset="0.5"/><stop stop-opacity="1" stop-color="rgb(98.983765%, 90.248108%, 98.628235%)" offset="0.515625"/><stop stop-opacity="1" stop-color="rgb(98.951721%, 89.949036%, 98.58551%)" offset="0.526831"/><stop stop-opacity="1" stop-color="rgb(98.936462%, 89.7995%, 98.564148%)" offset="0.53125"/><stop stop-opacity="1" stop-color="rgb(98.921204%, 89.648438%, 98.542786%)" offset="0.546875"/><stop stop-opacity="1" stop-color="rgb(98.88916%, 89.349365%, 98.501587%)" offset="0.5625"/><stop stop-opacity="1" stop-color="rgb(98.858643%, 89.048767%, 98.458862%)" offset="0.578125"/><stop stop-opacity="1" stop-color="rgb(98.826599%, 88.748169%, 98.417664%)" offset="0.59375"/><stop stop-opacity="1" stop-color="rgb(98.796082%, 88.449097%, 98.374939%)" offset="0.609375"/><stop stop-opacity="1" stop-color="rgb(98.764038%, 88.148499%, 98.332214%)" offset="0.625"/><stop stop-opacity="1" stop-color="rgb(98.733521%, 87.849426%, 98.291016%)" offset="0.640625"/><stop stop-opacity="1" stop-color="rgb(98.701477%, 87.548828%, 98.248291%)" offset="0.65625"/><stop stop-opacity="1" stop-color="rgb(98.670959%, 87.24823%, 98.205566%)" offset="0.671875"/><stop stop-opacity="1" stop-color="rgb(98.638916%, 86.949158%, 98.164368%)" offset="0.6875"/><stop stop-opacity="1" stop-color="rgb(98.608398%, 86.64856%, 98.121643%)" offset="0.703125"/><stop stop-opacity="1" stop-color="rgb(98.576355%, 86.349487%, 98.078918%)" offset="0.71875"/><stop stop-opacity="1" stop-color="rgb(98.545837%, 86.048889%, 98.03772%)" offset="0.734375"/><stop stop-opacity="1" stop-color="rgb(98.513794%, 85.748291%, 97.994995%)" offset="0.75"/><stop stop-opacity="1" stop-color="rgb(98.483276%, 85.449219%, 97.952271%)" offset="0.765625"/><stop stop-opacity="1" stop-color="rgb(98.452759%, 85.148621%, 97.911072%)" offset="0.78125"/><stop stop-opacity="1" stop-color="rgb(98.420715%, 84.849548%, 97.868347%)" offset="0.796875"/><stop stop-opacity="1" stop-color="rgb(98.390198%, 84.54895%, 97.825623%)" offset="0.8125"/><stop stop-opacity="1" stop-color="rgb(98.358154%, 84.248352%, 97.784424%)" offset="0.828125"/><stop stop-opacity="1" stop-color="rgb(98.327637%, 83.94928%, 97.741699%)" offset="0.84375"/><stop stop-opacity="1" stop-color="rgb(98.295593%, 83.648682%, 97.7005%)" offset="0.859375"/><stop stop-opacity="1" stop-color="rgb(98.265076%, 83.348083%, 97.657776%)" offset="0.875"/><stop stop-opacity="1" stop-color="rgb(98.233032%, 83.049011%, 97.615051%)" offset="0.890625"/><stop stop-opacity="1" stop-color="rgb(98.202515%, 82.748413%, 97.573853%)" offset="0.90625"/><stop stop-opacity="1" stop-color="rgb(98.170471%, 82.449341%, 97.531128%)" offset="0.921875"/><stop stop-opacity="1" stop-color="rgb(98.139954%, 82.148743%, 97.488403%)" offset="0.9375"/><stop stop-opacity="1" stop-color="rgb(98.10791%, 81.848145%, 97.447205%)" offset="0.953125"/><stop stop-opacity="1" stop-color="rgb(98.077393%, 81.549072%, 97.40448%)" offset="0.96875"/><stop stop-opacity="1" stop-color="rgb(98.045349%, 81.248474%, 97.361755%)" offset="0.984375"/><stop stop-opacity="1" stop-color="rgb(98.014832%, 80.949402%, 97.320557%)" offset="1"/></linearGradient><clipPath id="18f0ea445b"><path d="M 2.523438 0.453125 L 27.203125 0.453125 L 27.203125 28.578125 L 2.523438 28.578125 Z M 2.523438 0.453125 " clip-rule="nonzero"/></clipPath><clipPath id="7b5243c6bf"><path d="M 17.007812 1.167969 L 25.46875 6.089844 C 26.710938 6.8125 27.476562 8.144531 27.476562 9.582031 L 27.476562 19.453125 C 27.476562 20.890625 26.710938 22.21875 25.46875 22.941406 L 17.007812 27.863281 C 15.765625 28.585938 14.234375 28.585938 12.992188 27.863281 L 4.53125 22.941406 C 3.289062 22.21875 2.523438 20.890625 2.523438 19.453125 L 2.523438 9.582031 C 2.523438 8.144531 3.289062 6.8125 4.53125 6.089844 L 12.992188 1.167969 C 14.234375 0.445312 15.765625 0.445312 17.007812 1.167969 Z M 17.007812 1.167969 " clip-rule="nonzero"/></clipPath><mask id="db92907f40"><g filter="url(#c54a4db3f1)"><rect x="-3" width="36" fill="#000000" y="-3" height="36.000001" fill-opacity="0.45"/></g></mask><clipPath id="1016bb1d71"><path d="M 6 2 L 19 2 L 19 20 L 6 20 Z M 6 2 " clip-rule="nonzero"/></clipPath><clipPath id="e5e9e0a0f8"><path d="M 10.664062 24.019531 L -0.164062 9.460938 L 13.230469 -0.5 L 24.058594 14.058594 Z M 10.664062 24.019531 " clip-rule="nonzero"/></clipPath><clipPath id="21d52c21fc"><path d="M -0.292969 9.289062 L 10.535156 23.847656 L 23.929688 13.886719 L 13.101562 -0.671875 Z M -0.292969 9.289062 " clip-rule="nonzero"/></clipPath><clipPath id="17dffc1d43"><rect x="0" width="23" y="0" height="24"/></clipPath></defs><g clip-path="url(#eaa989ace8)"><g clip-path="url(#2a9e8c3dd6)"><path fill="url(#5b3276af34)" d="M 2.523438 0.625 L 2.523438 28.40625 L 27.476562 28.40625 L 27.476562 0.625 Z M 2.523438 0.625 " fill-rule="nonzero"/></g></g><g clip-path="url(#18f0ea445b)"><g clip-path="url(#7b5243c6bf)"><path stroke-linecap="butt" transform="matrix(0.725806, 0, 0, 0.725806, 2.525201, 0.00000193548)" fill="none" stroke-linejoin="miter" d="M 19.95382 1.609199 L 31.611112 8.390449 C 33.32257 9.386109 34.377432 11.221352 34.377432 13.201907 L 34.377432 26.802081 C 34.377432 28.782636 33.32257 30.612498 31.611112 31.608157 L 19.95382 38.389407 C 18.242362 39.385067 16.13264 39.385067 14.421181 38.389407 L 2.76389 31.608157 C 1.052431 30.612498 -0.00242987 28.782636 -0.00242987 26.802081 L -0.00242987 13.201907 C -0.00242987 11.221352 1.052431 9.386109 2.76389 8.390449 L 14.421181 1.609199 C 16.13264 0.613539 18.242362 0.613539 19.95382 1.609199 Z M 19.95382 1.609199 " stroke="#ab5cbf" stroke-width="4" stroke-opacity="1" stroke-miterlimit="4"/></g></g><g mask="url(#db92907f40)"><g transform="matrix(1, 0, 0, 1, 3, 4)"><g clip-path="url(#17dffc1d43)"><g clip-path="url(#1016bb1d71)"><g clip-path="url(#e5e9e0a0f8)"><g clip-path="url(#21d52c21fc)"><path fill="#ab5cbf" d="M 16.8125 19.441406 L 18.6875 13.460938 L 12.410156 13.523438 L 13.441406 14.914062 C 13.492188 14.976562 13.480469 15.070312 13.414062 15.117188 L 12.625 15.703125 C 11.976562 16.1875 11.054688 16.046875 10.570312 15.398438 C 10.085938 14.746094 10.21875 13.824219 10.867188 13.34375 L 13.460938 11.417969 C 14.515625 10.632812 15.203125 9.480469 15.390625 8.175781 C 16.03125 3.855469 11.039062 0.867188 7.550781 3.472656 L 6.371094 4.347656 L 8.449219 7.144531 C 8.449219 7.144531 9.628906 6.265625 9.628906 6.265625 C 11.234375 5.175781 12.890625 7.402344 11.382812 8.625 C 11.382812 8.625 8.792969 10.550781 8.792969 10.550781 C 3.710938 14.667969 9.296875 22.183594 14.703125 18.5 L 15.492188 17.914062 C 15.558594 17.863281 15.648438 17.878906 15.699219 17.945312 Z M 16.8125 19.441406 " fill-opacity="1" fill-rule="nonzero"/></g></g></g></g></g></g><g fill="#ab5cbf" fill-opacity="1"><g transform="translate(6.717259, 18.939743)"><g><path d="M 0.1875 0 L 1.203125 -10.609375 L 4.796875 -10.609375 L 5.8125 0 L 3.796875 0 L 3.65625 -1.71875 L 2.375 -1.71875 L 2.25 0 Z M 2.53125 -3.40625 L 3.5 -3.40625 L 3.03125 -8.796875 L 2.921875 -8.796875 Z M 2.53125 -3.40625 "/></g></g></g><g fill="#ab5cbf" fill-opacity="1"><g transform="translate(17.71064, 20.668779)"><g><path d="M 0.46875 -10.609375 L 3.390625 -10.609375 C 4.148438 -10.609375 4.71875 -10.394531 5.09375 -9.96875 C 5.476562 -9.550781 5.671875 -8.929688 5.671875 -8.109375 L 5.703125 -3.140625 C 5.710938 -2.097656 5.53125 -1.3125 5.15625 -0.78125 C 4.789062 -0.257812 4.179688 0 3.328125 0 L 0.46875 0 Z M 2.96875 -1.875 C 3.363281 -1.875 3.5625 -2.0625 3.5625 -2.4375 L 3.5625 -7.90625 C 3.5625 -8.144531 3.539062 -8.320312 3.5 -8.4375 C 3.457031 -8.5625 3.382812 -8.644531 3.28125 -8.6875 C 3.1875 -8.726562 3.039062 -8.75 2.84375 -8.75 L 2.609375 -8.75 L 2.609375 -1.875 Z M 2.96875 -1.875 "/></g></g></g></svg>