<svg xmlns="http://www.w3.org/2000/svg" xmlns:xlink="http://www.w3.org/1999/xlink" width="500" zoomAndPan="magnify" viewBox="0 0 375 374.999991" height="500" preserveAspectRatio="xMidYMid meet" version="1.0"><defs><filter x="0%" y="0%" width="100%" height="100%" id="f81c96397f"><feColorMatrix values="0 0 0 0 1 0 0 0 0 1 0 0 0 0 1 0 0 0 1 0" color-interpolation-filters="sRGB"/></filter><g/><clipPath id="21c290e0ee"><path d="M 26.367188 8.089844 L 348.632812 8.089844 L 348.632812 366.90625 L 26.367188 366.90625 Z M 26.367188 8.089844 " clip-rule="nonzero"/></clipPath><clipPath id="9a2482b3bb"><path d="M 213.429688 15.085938 L 322.703125 78.664062 C 338.757812 88.003906 348.632812 105.175781 348.632812 123.75 L 348.632812 251.25 C 348.632812 269.824219 338.757812 286.996094 322.703125 296.335938 L 213.429688 359.914062 C 197.402344 369.238281 177.597656 369.238281 161.570312 359.914062 L 52.296875 296.335938 C 36.242188 286.996094 26.367188 269.824219 26.367188 251.25 L 26.367188 123.75 C 26.367188 105.175781 36.242188 88.003906 52.296875 78.664062 L 161.570312 15.085938 C 177.597656 5.761719 197.402344 5.761719 213.429688 15.085938 Z M 213.429688 15.085938 " clip-rule="nonzero"/></clipPath><linearGradient x1="-7.258984" gradientTransform="matrix(1.25885, 0, 0, 1.25885, 26.367192, -0.00024)" y1="13.687016" x2="263.258471" gradientUnits="userSpaceOnUse" y2="284.203481" id="dafa6c8d75"><stop stop-opacity="1" stop-color="rgb(99.998474%, 99.998474%, 99.998474%)" offset="0"/><stop stop-opacity="1" stop-color="rgb(99.983215%, 99.848938%, 99.977112%)" offset="0.015625"/><stop stop-opacity="1" stop-color="rgb(99.952698%, 99.54834%, 99.935913%)" offset="0.03125"/><stop stop-opacity="1" stop-color="rgb(99.920654%, 99.249268%, 99.893188%)" offset="0.046875"/><stop stop-opacity="1" stop-color="rgb(99.890137%, 98.948669%, 99.85199%)" offset="0.0625"/><stop stop-opacity="1" stop-color="rgb(99.858093%, 98.648071%, 99.809265%)" offset="0.078125"/><stop stop-opacity="1" stop-color="rgb(99.827576%, 98.348999%, 99.766541%)" offset="0.09375"/><stop stop-opacity="1" stop-color="rgb(99.795532%, 98.048401%, 99.725342%)" offset="0.109375"/><stop stop-opacity="1" stop-color="rgb(99.765015%, 97.749329%, 99.682617%)" offset="0.125"/><stop stop-opacity="1" stop-color="rgb(99.732971%, 97.44873%, 99.639893%)" offset="0.140625"/><stop stop-opacity="1" stop-color="rgb(99.702454%, 97.148132%, 99.598694%)" offset="0.15625"/><stop stop-opacity="1" stop-color="rgb(99.67041%, 96.84906%, 99.555969%)" offset="0.171875"/><stop stop-opacity="1" stop-color="rgb(99.639893%, 96.548462%, 99.513245%)" offset="0.1875"/><stop stop-opacity="1" stop-color="rgb(99.607849%, 96.24939%, 99.472046%)" offset="0.203125"/><stop stop-opacity="1" stop-color="rgb(99.577332%, 95.948792%, 99.429321%)" offset="0.21875"/><stop stop-opacity="1" stop-color="rgb(99.545288%, 95.648193%, 99.386597%)" offset="0.234375"/><stop stop-opacity="1" stop-color="rgb(99.514771%, 95.349121%, 99.345398%)" offset="0.25"/><stop stop-opacity="1" stop-color="rgb(99.482727%, 95.048523%, 99.302673%)" offset="0.265625"/><stop stop-opacity="1" stop-color="rgb(99.452209%, 94.749451%, 99.259949%)" offset="0.28125"/><stop stop-opacity="1" stop-color="rgb(99.420166%, 94.448853%, 99.21875%)" offset="0.296875"/><stop stop-opacity="1" stop-color="rgb(99.389648%, 94.148254%, 99.176025%)" offset="0.3125"/><stop stop-opacity="1" stop-color="rgb(99.357605%, 93.849182%, 99.134827%)" offset="0.328125"/><stop stop-opacity="1" stop-color="rgb(99.327087%, 93.548584%, 99.092102%)" offset="0.34375"/><stop stop-opacity="1" stop-color="rgb(99.295044%, 93.249512%, 99.049377%)" offset="0.359375"/><stop stop-opacity="1" stop-color="rgb(99.264526%, 92.948914%, 99.008179%)" offset="0.375"/><stop stop-opacity="1" stop-color="rgb(99.234009%, 92.648315%, 98.965454%)" offset="0.390625"/><stop stop-opacity="1" stop-color="rgb(99.201965%, 92.349243%, 98.922729%)" offset="0.40625"/><stop stop-opacity="1" stop-color="rgb(99.171448%, 92.048645%, 98.881531%)" offset="0.421875"/><stop stop-opacity="1" stop-color="rgb(99.139404%, 91.748047%, 98.838806%)" offset="0.4375"/><stop stop-opacity="1" stop-color="rgb(99.108887%, 91.448975%, 98.796082%)" offset="0.453125"/><stop stop-opacity="1" stop-color="rgb(99.076843%, 91.148376%, 98.754883%)" offset="0.46875"/><stop stop-opacity="1" stop-color="rgb(99.046326%, 90.849304%, 98.712158%)" offset="0.473169"/><stop stop-opacity="1" stop-color="rgb(99.031067%, 90.699768%, 98.690796%)" offset="0.484375"/><stop stop-opacity="1" stop-color="rgb(99.014282%, 90.548706%, 98.669434%)" offset="0.5"/><stop stop-opacity="1" stop-color="rgb(98.983765%, 90.248108%, 98.628235%)" offset="0.515625"/><stop stop-opacity="1" stop-color="rgb(98.951721%, 89.949036%, 98.58551%)" offset="0.526831"/><stop stop-opacity="1" stop-color="rgb(98.936462%, 89.7995%, 98.564148%)" offset="0.53125"/><stop stop-opacity="1" stop-color="rgb(98.921204%, 89.648438%, 98.542786%)" offset="0.546875"/><stop stop-opacity="1" stop-color="rgb(98.88916%, 89.349365%, 98.501587%)" offset="0.5625"/><stop stop-opacity="1" stop-color="rgb(98.858643%, 89.048767%, 98.458862%)" offset="0.578125"/><stop stop-opacity="1" stop-color="rgb(98.826599%, 88.748169%, 98.417664%)" offset="0.59375"/><stop stop-opacity="1" stop-color="rgb(98.796082%, 88.449097%, 98.374939%)" offset="0.609375"/><stop stop-opacity="1" stop-color="rgb(98.764038%, 88.148499%, 98.332214%)" offset="0.625"/><stop stop-opacity="1" stop-color="rgb(98.733521%, 87.849426%, 98.291016%)" offset="0.640625"/><stop stop-opacity="1" stop-color="rgb(98.701477%, 87.548828%, 98.248291%)" offset="0.65625"/><stop stop-opacity="1" stop-color="rgb(98.670959%, 87.24823%, 98.205566%)" offset="0.671875"/><stop stop-opacity="1" stop-color="rgb(98.638916%, 86.949158%, 98.164368%)" offset="0.6875"/><stop stop-opacity="1" stop-color="rgb(98.608398%, 86.64856%, 98.121643%)" offset="0.703125"/><stop stop-opacity="1" stop-color="rgb(98.576355%, 86.349487%, 98.078918%)" offset="0.71875"/><stop stop-opacity="1" stop-color="rgb(98.545837%, 86.048889%, 98.03772%)" offset="0.734375"/><stop stop-opacity="1" stop-color="rgb(98.513794%, 85.748291%, 97.994995%)" offset="0.75"/><stop stop-opacity="1" stop-color="rgb(98.483276%, 85.449219%, 97.952271%)" offset="0.765625"/><stop stop-opacity="1" stop-color="rgb(98.452759%, 85.148621%, 97.911072%)" offset="0.78125"/><stop stop-opacity="1" stop-color="rgb(98.420715%, 84.849548%, 97.868347%)" offset="0.796875"/><stop stop-opacity="1" stop-color="rgb(98.390198%, 84.54895%, 97.825623%)" offset="0.8125"/><stop stop-opacity="1" stop-color="rgb(98.358154%, 84.248352%, 97.784424%)" offset="0.828125"/><stop stop-opacity="1" stop-color="rgb(98.327637%, 83.94928%, 97.741699%)" offset="0.84375"/><stop stop-opacity="1" stop-color="rgb(98.295593%, 83.648682%, 97.7005%)" offset="0.859375"/><stop stop-opacity="1" stop-color="rgb(98.265076%, 83.348083%, 97.657776%)" offset="0.875"/><stop stop-opacity="1" stop-color="rgb(98.233032%, 83.049011%, 97.615051%)" offset="0.890625"/><stop stop-opacity="1" stop-color="rgb(98.202515%, 82.748413%, 97.573853%)" offset="0.90625"/><stop stop-opacity="1" stop-color="rgb(98.170471%, 82.449341%, 97.531128%)" offset="0.921875"/><stop stop-opacity="1" stop-color="rgb(98.139954%, 82.148743%, 97.488403%)" offset="0.9375"/><stop stop-opacity="1" stop-color="rgb(98.10791%, 81.848145%, 97.447205%)" offset="0.953125"/><stop stop-opacity="1" stop-color="rgb(98.077393%, 81.549072%, 97.40448%)" offset="0.96875"/><stop stop-opacity="1" stop-color="rgb(98.045349%, 81.248474%, 97.361755%)" offset="0.984375"/><stop stop-opacity="1" stop-color="rgb(98.014832%, 80.949402%, 97.320557%)" offset="1"/></linearGradient><clipPath id="bec3b14e55"><path d="M 26.367188 8 L 348.632812 8 L 348.632812 367 L 26.367188 367 Z M 26.367188 8 " clip-rule="nonzero"/></clipPath><clipPath id="5d254a566b"><path d="M 213.429688 15.085938 L 322.703125 78.664062 C 338.757812 88.003906 348.632812 105.175781 348.632812 123.75 L 348.632812 251.25 C 348.632812 269.824219 338.757812 286.996094 322.703125 296.335938 L 213.429688 359.914062 C 197.402344 369.238281 177.597656 369.238281 161.570312 359.914062 L 52.296875 296.335938 C 36.242188 286.996094 26.367188 269.824219 26.367188 251.25 L 26.367188 123.75 C 26.367188 105.175781 36.242188 88.003906 52.296875 78.664062 L 161.570312 15.085938 C 177.597656 5.761719 197.402344 5.761719 213.429688 15.085938 Z M 213.429688 15.085938 " clip-rule="nonzero"/></clipPath><mask id="90643ca9ca"><g filter="url(#f81c96397f)"><rect x="-37.5" width="450" fill="#000000" y="-37.499999" height="449.999989" fill-opacity="0.45"/></g></mask><clipPath id="61165772e6"><path d="M 69 25 L 229 25 L 229 246 L 69 246 Z M 69 25 " clip-rule="nonzero"/></clipPath><clipPath id="357c7d976a"><path d="M 125.269531 304 L -16.175781 113.835938 L 153.527344 -12.390625 L 294.972656 177.773438 Z M 125.269531 304 " clip-rule="nonzero"/></clipPath><clipPath id="56fcc564d0"><path d="M -16.308594 113.660156 L 125.136719 303.824219 L 294.839844 177.597656 L 153.394531 -12.566406 Z M -16.308594 113.660156 " clip-rule="nonzero"/></clipPath><clipPath id="144dc153a6"><rect x="0" width="278" y="0" height="292"/></clipPath></defs><g clip-path="url(#21c290e0ee)"><g clip-path="url(#9a2482b3bb)"><path fill="url(#dafa6c8d75)" d="M 26.367188 8.089844 L 26.367188 366.90625 L 348.632812 366.90625 L 348.632812 8.089844 Z M 26.367188 8.089844 " fill-rule="nonzero"/></g></g><g clip-path="url(#bec3b14e55)"><g clip-path="url(#5d254a566b)"><path stroke-linecap="butt" transform="matrix(0.75, 0, 0, 0.75, 26.36719, 0)" fill="none" stroke-linejoin="miter" d="M 249.416663 20.114583 L 395.11458 104.885417 C 416.52083 117.338542 429.687497 140.234375 429.687497 165 L 429.687497 335.000001 C 429.687497 359.765626 416.52083 382.661459 395.11458 395.114584 L 249.416663 479.885417 C 228.046872 492.317709 201.640622 492.317709 180.27083 479.885417 L 34.572913 395.114584 C 13.166663 382.661459 -0.00000361141 359.765626 -0.00000361141 335.000001 L -0.00000361141 165 C -0.00000361141 140.234375 13.166663 117.338542 34.572913 104.885417 L 180.27083 20.114583 C 201.640622 7.682292 228.046872 7.682292 249.416663 20.114583 Z M 249.416663 20.114583 " stroke="#ab5cbf" stroke-width="50" stroke-opacity="1" stroke-miterlimit="4"/></g></g><g mask="url(#90643ca9ca)"><g transform="matrix(1, 0, 0, 1, 45, 58)"><g clip-path="url(#144dc153a6)"><g clip-path="url(#61165772e6)"><g clip-path="url(#357c7d976a)"><g clip-path="url(#56fcc564d0)"><path fill="#ab5cbf" d="M 204.691406 244.8125 L 228.921875 167.578125 L 147.84375 168.386719 L 161.175781 186.3125 C 161.8125 187.167969 161.640625 188.332031 160.785156 188.96875 L 150.597656 196.550781 C 142.226562 202.773438 130.332031 200.992188 124.082031 192.585938 C 117.828125 184.183594 119.542969 172.277344 127.914062 166.054688 L 161.382812 141.15625 C 175.03125 131.003906 183.90625 116.144531 186.320312 99.273438 C 194.617188 43.480469 130.128906 4.855469 85.035156 38.511719 L 69.824219 49.824219 L 96.683594 85.9375 C 96.683594 85.9375 111.894531 74.625 111.894531 74.625 C 132.652344 60.511719 154.0625 89.296875 134.550781 105.082031 C 134.550781 105.082031 101.078125 129.980469 101.078125 129.980469 C 35.457031 183.179688 107.59375 280.234375 177.457031 232.660156 L 187.644531 225.082031 C 188.5 224.445312 189.667969 224.617188 190.304688 225.472656 Z M 204.691406 244.8125 " fill-opacity="1" fill-rule="nonzero"/></g></g></g></g></g></g><g fill="#ab5cbf" fill-opacity="1"><g transform="translate(80.514602, 244.638324)"><g><path d="M 2.390625 0 L 15.625 -136.96875 L 62.03125 -136.96875 L 75.109375 0 L 49.109375 0 L 47.203125 -22.15625 L 30.609375 -22.15625 L 29.015625 0 Z M 32.6875 -44.015625 L 45.125 -44.015625 L 39.0625 -113.6875 L 37.796875 -113.6875 Z M 32.6875 -44.015625 "/></g></g></g><g fill="#ab5cbf" fill-opacity="1"><g transform="translate(222.512435, 266.971798)"><g><path d="M 6.0625 -136.96875 L 43.84375 -136.96875 C 53.625 -136.96875 60.957031 -134.253906 65.84375 -128.828125 C 70.738281 -123.410156 73.238281 -115.390625 73.34375 -104.765625 L 73.671875 -40.65625 C 73.773438 -27.15625 71.429688 -17.003906 66.640625 -10.203125 C 61.859375 -3.398438 53.941406 0 42.890625 0 L 6.0625 0 Z M 38.421875 -24.234375 C 43.421875 -24.234375 45.921875 -26.679688 45.921875 -31.578125 L 45.921875 -102.203125 C 45.921875 -105.285156 45.679688 -107.597656 45.203125 -109.140625 C 44.722656 -110.679688 43.84375 -111.71875 42.5625 -112.25 C 41.289062 -112.78125 39.328125 -113.046875 36.671875 -113.046875 L 33.640625 -113.046875 L 33.640625 -24.234375 Z M 38.421875 -24.234375 "/></g></g></g></svg>