<svg xmlns="http://www.w3.org/2000/svg" xmlns:xlink="http://www.w3.org/1999/xlink" width="500" zoomAndPan="magnify" viewBox="0 0 375 374.999991" height="500" preserveAspectRatio="xMidYMid meet" version="1.2"><defs><clipPath id="3e231078e2"><path d="M 26.367188 8.089844 L 348.632812 8.089844 L 348.632812 366.90625 L 26.367188 366.90625 Z M 26.367188 8.089844 "/></clipPath><clipPath id="671d103eeb"><path d="M 213.429688 15.085938 L 322.703125 78.664062 C 338.757812 88.003906 348.632812 105.175781 348.632812 123.75 L 348.632812 251.25 C 348.632812 269.824219 338.757812 286.996094 322.703125 296.335938 L 213.429688 359.914062 C 197.402344 369.238281 177.597656 369.238281 161.570312 359.914062 L 52.296875 296.335938 C 36.242188 286.996094 26.367188 269.824219 26.367188 251.25 L 26.367188 123.75 C 26.367188 105.175781 36.242188 88.003906 52.296875 78.664062 L 161.570312 15.085938 C 177.597656 5.761719 197.402344 5.761719 213.429688 15.085938 Z M 213.429688 15.085938 "/></clipPath><linearGradient x1="-7.258984" gradientTransform="matrix(1.25885,0,0,1.25885,26.367192,-0.00024)" y1="13.687016" x2="263.258471" gradientUnits="userSpaceOnUse" y2="284.203481" id="b63c80090c"><stop style="stop-color:#ffffff;stop-opacity:1;" offset="0"/><stop style="stop-color:#ffffff;stop-opacity:1;" offset="0.0078125"/><stop style="stop-color:#fffffe;stop-opacity:1;" offset="0.015625"/><stop style="stop-color:#fffefe;stop-opacity:1;" offset="0.0234375"/><stop style="stop-color:#fffefd;stop-opacity:1;" offset="0.03125"/><stop style="stop-color:#fffefc;stop-opacity:1;" offset="0.0390625"/><stop style="stop-color:#fffefc;stop-opacity:1;" offset="0.046875"/><stop style="stop-color:#fffefb;stop-opacity:1;" offset="0.0546875"/><stop style="stop-color:#fffdfb;stop-opacity:1;" offset="0.0625"/><stop style="stop-color:#fffdfa;stop-opacity:1;" offset="0.0703125"/><stop style="stop-color:#fffdfa;stop-opacity:1;" offset="0.078125"/><stop style="stop-color:#fffdf9;stop-opacity:1;" offset="0.0859375"/><stop style="stop-color:#fffcf8;stop-opacity:1;" offset="0.09375"/><stop style="stop-color:#fffcf8;stop-opacity:1;" offset="0.101562"/><stop style="stop-color:#fffcf7;stop-opacity:1;" offset="0.109375"/><stop style="stop-color:#fffcf7;stop-opacity:1;" offset="0.117188"/><stop style="stop-color:#fffbf6;stop-opacity:1;" offset="0.125"/><stop style="stop-color:#fffbf6;stop-opacity:1;" offset="0.132812"/><stop style="stop-color:#fffbf5;stop-opacity:1;" offset="0.140625"/><stop style="stop-color:#fffbf4;stop-opacity:1;" offset="0.148438"/><stop style="stop-color:#fffbf4;stop-opacity:1;" offset="0.15625"/><stop style="stop-color:#fffaf3;stop-opacity:1;" offset="0.164062"/><stop style="stop-color:#fefaf3;stop-opacity:1;" offset="0.171875"/><stop style="stop-color:#fefaf2;stop-opacity:1;" offset="0.179688"/><stop style="stop-color:#fefaf2;stop-opacity:1;" offset="0.1875"/><stop style="stop-color:#fef9f1;stop-opacity:1;" offset="0.195312"/><stop style="stop-color:#fef9f0;stop-opacity:1;" offset="0.203125"/><stop style="stop-color:#fef9f0;stop-opacity:1;" offset="0.210938"/><stop style="stop-color:#fef9ef;stop-opacity:1;" offset="0.21875"/><stop style="stop-color:#fef9ef;stop-opacity:1;" offset="0.226562"/><stop style="stop-color:#fef8ee;stop-opacity:1;" offset="0.234375"/><stop style="stop-color:#fef8ee;stop-opacity:1;" offset="0.242188"/><stop style="stop-color:#fef8ed;stop-opacity:1;" offset="0.25"/><stop style="stop-color:#fef8ec;stop-opacity:1;" offset="0.257812"/><stop style="stop-color:#fef7ec;stop-opacity:1;" offset="0.265625"/><stop style="stop-color:#fef7eb;stop-opacity:1;" offset="0.273437"/><stop style="stop-color:#fef7eb;stop-opacity:1;" offset="0.28125"/><stop style="stop-color:#fef7ea;stop-opacity:1;" offset="0.289062"/><stop style="stop-color:#fef6ea;stop-opacity:1;" offset="0.296875"/><stop style="stop-color:#fef6e9;stop-opacity:1;" offset="0.304687"/><stop style="stop-color:#fef6e8;stop-opacity:1;" offset="0.3125"/><stop style="stop-color:#fef6e8;stop-opacity:1;" offset="0.320312"/><stop style="stop-color:#fef6e7;stop-opacity:1;" offset="0.328125"/><stop style="stop-color:#fef5e7;stop-opacity:1;" offset="0.335937"/><stop style="stop-color:#fef5e6;stop-opacity:1;" offset="0.34375"/><stop style="stop-color:#fef5e6;stop-opacity:1;" offset="0.351562"/><stop style="stop-color:#fef5e5;stop-opacity:1;" offset="0.359375"/><stop style="stop-color:#fef4e5;stop-opacity:1;" offset="0.367188"/><stop style="stop-color:#fef4e4;stop-opacity:1;" offset="0.375"/><stop style="stop-color:#fef4e3;stop-opacity:1;" offset="0.382812"/><stop style="stop-color:#fef4e3;stop-opacity:1;" offset="0.390625"/><stop style="stop-color:#fef4e2;stop-opacity:1;" offset="0.398437"/><stop style="stop-color:#fef3e2;stop-opacity:1;" offset="0.40625"/><stop style="stop-color:#fef3e1;stop-opacity:1;" offset="0.414062"/><stop style="stop-color:#fef3e1;stop-opacity:1;" offset="0.421875"/><stop style="stop-color:#fef3e0;stop-opacity:1;" offset="0.429687"/><stop style="stop-color:#fef2df;stop-opacity:1;" offset="0.4375"/><stop style="stop-color:#fef2df;stop-opacity:1;" offset="0.445312"/><stop style="stop-color:#fef2de;stop-opacity:1;" offset="0.453125"/><stop style="stop-color:#fef2de;stop-opacity:1;" offset="0.460937"/><stop style="stop-color:#fef1dd;stop-opacity:1;" offset="0.46875"/><stop style="stop-color:#fef1dd;stop-opacity:1;" offset="0.473169"/><stop style="stop-color:#fef1dc;stop-opacity:1;" offset="0.476562"/><stop style="stop-color:#fef1dc;stop-opacity:1;" offset="0.484375"/><stop style="stop-color:#fef1db;stop-opacity:1;" offset="0.492188"/><stop style="stop-color:#fdf1db;stop-opacity:1;" offset="0.5"/><stop style="stop-color:#fdf0da;stop-opacity:1;" offset="0.507813"/><stop style="stop-color:#fdf0da;stop-opacity:1;" offset="0.515625"/><stop style="stop-color:#fdf0d9;stop-opacity:1;" offset="0.523438"/><stop style="stop-color:#fdf0d9;stop-opacity:1;" offset="0.526831"/><stop style="stop-color:#fdf0d8;stop-opacity:1;" offset="0.53125"/><stop style="stop-color:#fdefd8;stop-opacity:1;" offset="0.539062"/><stop style="stop-color:#fdefd7;stop-opacity:1;" offset="0.546875"/><stop style="stop-color:#fdefd7;stop-opacity:1;" offset="0.554688"/><stop style="stop-color:#fdefd6;stop-opacity:1;" offset="0.5625"/><stop style="stop-color:#fdefd6;stop-opacity:1;" offset="0.570312"/><stop style="stop-color:#fdeed5;stop-opacity:1;" offset="0.578125"/><stop style="stop-color:#fdeed5;stop-opacity:1;" offset="0.585938"/><stop style="stop-color:#fdeed4;stop-opacity:1;" offset="0.59375"/><stop style="stop-color:#fdeed3;stop-opacity:1;" offset="0.601563"/><stop style="stop-color:#fdedd3;stop-opacity:1;" offset="0.609375"/><stop style="stop-color:#fdedd2;stop-opacity:1;" offset="0.617188"/><stop style="stop-color:#fdedd2;stop-opacity:1;" offset="0.625"/><stop style="stop-color:#fdedd1;stop-opacity:1;" offset="0.632812"/><stop style="stop-color:#fdecd1;stop-opacity:1;" offset="0.640625"/><stop style="stop-color:#fdecd0;stop-opacity:1;" offset="0.648437"/><stop style="stop-color:#fdeccf;stop-opacity:1;" offset="0.65625"/><stop style="stop-color:#fdeccf;stop-opacity:1;" offset="0.664062"/><stop style="stop-color:#fdecce;stop-opacity:1;" offset="0.671875"/><stop style="stop-color:#fdebce;stop-opacity:1;" offset="0.679688"/><stop style="stop-color:#fdebcd;stop-opacity:1;" offset="0.6875"/><stop style="stop-color:#fdebcd;stop-opacity:1;" offset="0.695312"/><stop style="stop-color:#fdebcc;stop-opacity:1;" offset="0.703125"/><stop style="stop-color:#fdeacb;stop-opacity:1;" offset="0.710938"/><stop style="stop-color:#fdeacb;stop-opacity:1;" offset="0.71875"/><stop style="stop-color:#fdeaca;stop-opacity:1;" offset="0.726562"/><stop style="stop-color:#fdeaca;stop-opacity:1;" offset="0.734375"/><stop style="stop-color:#fdeac9;stop-opacity:1;" offset="0.742187"/><stop style="stop-color:#fde9c9;stop-opacity:1;" offset="0.75"/><stop style="stop-color:#fde9c8;stop-opacity:1;" offset="0.757813"/><stop style="stop-color:#fde9c7;stop-opacity:1;" offset="0.765625"/><stop style="stop-color:#fde9c7;stop-opacity:1;" offset="0.773438"/><stop style="stop-color:#fde8c6;stop-opacity:1;" offset="0.78125"/><stop style="stop-color:#fde8c6;stop-opacity:1;" offset="0.789062"/><stop style="stop-color:#fde8c5;stop-opacity:1;" offset="0.796875"/><stop style="stop-color:#fde8c5;stop-opacity:1;" offset="0.804688"/><stop style="stop-color:#fde7c4;stop-opacity:1;" offset="0.8125"/><stop style="stop-color:#fce7c3;stop-opacity:1;" offset="0.820312"/><stop style="stop-color:#fce7c3;stop-opacity:1;" offset="0.828125"/><stop style="stop-color:#fce7c2;stop-opacity:1;" offset="0.835938"/><stop style="stop-color:#fce7c2;stop-opacity:1;" offset="0.84375"/><stop style="stop-color:#fce6c1;stop-opacity:1;" offset="0.851563"/><stop style="stop-color:#fce6c1;stop-opacity:1;" offset="0.859375"/><stop style="stop-color:#fce6c0;stop-opacity:1;" offset="0.867188"/><stop style="stop-color:#fce6bf;stop-opacity:1;" offset="0.875"/><stop style="stop-color:#fce5bf;stop-opacity:1;" offset="0.882812"/><stop style="stop-color:#fce5be;stop-opacity:1;" offset="0.890625"/><stop style="stop-color:#fce5be;stop-opacity:1;" offset="0.898437"/><stop style="stop-color:#fce5bd;stop-opacity:1;" offset="0.90625"/><stop style="stop-color:#fce5bd;stop-opacity:1;" offset="0.914062"/><stop style="stop-color:#fce4bc;stop-opacity:1;" offset="0.921875"/><stop style="stop-color:#fce4bb;stop-opacity:1;" offset="0.929688"/><stop style="stop-color:#fce4bb;stop-opacity:1;" offset="0.9375"/><stop style="stop-color:#fce4ba;stop-opacity:1;" offset="0.945312"/><stop style="stop-color:#fce3ba;stop-opacity:1;" offset="0.953125"/><stop style="stop-color:#fce3b9;stop-opacity:1;" offset="0.960938"/><stop style="stop-color:#fce3b9;stop-opacity:1;" offset="0.96875"/><stop style="stop-color:#fce3b8;stop-opacity:1;" offset="0.976562"/><stop style="stop-color:#fce2b7;stop-opacity:1;" offset="0.984375"/><stop style="stop-color:#fce2b7;stop-opacity:1;" offset="0.992187"/><stop style="stop-color:#fce2b6;stop-opacity:1;" offset="1"/></linearGradient><clipPath id="b00df2e413"><path d="M 26.367188 8 L 348.632812 8 L 348.632812 367 L 26.367188 367 Z M 26.367188 8 "/></clipPath><clipPath id="4d1fbb2ef0"><path d="M 213.429688 15.085938 L 322.703125 78.664062 C 338.757812 88.003906 348.632812 105.175781 348.632812 123.75 L 348.632812 251.25 C 348.632812 269.824219 338.757812 286.996094 322.703125 296.335938 L 213.429688 359.914062 C 197.402344 369.238281 177.597656 369.238281 161.570312 359.914062 L 52.296875 296.335938 C 36.242188 286.996094 26.367188 269.824219 26.367188 251.25 L 26.367188 123.75 C 26.367188 105.175781 36.242188 88.003906 52.296875 78.664062 L 161.570312 15.085938 C 177.597656 5.761719 197.402344 5.761719 213.429688 15.085938 Z M 213.429688 15.085938 "/></clipPath><filter x="0%" y="0%" width="100%" filterUnits="objectBoundingBox" id="d51cede9e6" height="100%"><feColorMatrix values="0 0 0 0 1 0 0 0 0 1 0 0 0 0 1 0 0 0 1 0" type="matrix" in="SourceGraphic"/></filter><clipPath id="4096562f68"><path d="M 27 5 L 127 5 L 127 116 L 27 116 Z M 27 5 "/></clipPath><clipPath id="f966d55b42"><path d="M 32.078125 3.273438 L 149.125 70.851562 L 121.878906 118.039062 L 4.832031 50.460938 Z M 32.078125 3.273438 "/></clipPath><clipPath id="2eee2c1a1e"><path d="M 115.371094 51.363281 L 38.046875 6.71875 C 35.914062 5.488281 33.285156 5.492188 31.15625 6.734375 C 29.03125 7.972656 27.730469 10.257812 27.75 12.71875 L 28.066406 51.929688 C 28.125 59.363281 32.117188 66.210938 38.554688 69.929688 L 115.878906 114.574219 C 118.011719 115.804688 120.640625 115.800781 122.765625 114.558594 C 124.894531 113.320312 126.195312 111.035156 126.175781 108.574219 L 125.859375 69.363281 C 125.796875 61.925781 121.808594 55.078125 115.371094 51.363281 Z M 115.371094 51.363281 "/></clipPath><clipPath id="128288dcb5"><rect x="0" width="154" y="0" height="121"/></clipPath><clipPath id="5c0078818e"><path d="M 26 5 L 128 5 L 128 116 L 26 116 Z M 26 5 "/></clipPath><clipPath id="b460de9853"><path d="M 4.675781 70.925781 L 122.171875 3.089844 L 149.476562 50.382812 L 31.980469 118.21875 Z M 4.675781 70.925781 "/></clipPath><clipPath id="c1ff302ce2"><path d="M 37.183594 52.15625 L 115.890625 6.714844 C 118.054688 5.464844 120.71875 5.457031 122.894531 6.691406 C 125.066406 7.921875 126.425781 10.214844 126.464844 12.714844 L 127.042969 51.234375 C 127.152344 58.640625 123.246094 65.527344 116.832031 69.230469 L 38.125 114.671875 C 35.960938 115.921875 33.296875 115.933594 31.121094 114.699219 C 28.949219 113.464844 27.589844 111.171875 27.550781 108.675781 L 26.972656 70.15625 C 26.863281 62.75 30.769531 55.859375 37.183594 52.15625 Z M 37.183594 52.15625 "/></clipPath><clipPath id="bcae579110"><rect x="0" width="154" y="0" height="121"/></clipPath><clipPath id="295de2e399"><path d="M 7 30 L 174 30 L 174 127 L 7 127 Z M 7 30 "/></clipPath><clipPath id="fd13cbc3c5"><path d="M 4.992188 75.941406 L 130.976562 3.15625 L 175.984375 81.058594 L 50.003906 153.84375 Z M 4.992188 75.941406 "/></clipPath><clipPath id="5c0d780e5b"><path d="M 79.292969 33.015625 L 11.125 72.402344 C 8.988281 73.632812 7.675781 75.917969 7.683594 78.382812 C 7.691406 80.847656 9.019531 83.121094 11.160156 84.339844 L 80.886719 124.039062 C 87.347656 127.714844 95.273438 127.6875 101.707031 123.972656 L 169.875 84.585938 C 172.011719 83.351562 173.324219 81.070312 173.316406 78.605469 C 173.308594 76.136719 171.980469 73.863281 169.839844 72.644531 L 100.113281 32.949219 C 93.652344 29.273438 85.730469 29.296875 79.292969 33.015625 Z M 79.292969 33.015625 "/></clipPath><clipPath id="e1ca40dfd4"><rect x="0" width="181" y="0" height="157"/></clipPath><clipPath id="1a50273732"><path d="M 7 16 L 80 16 L 80 61 L 7 61 Z M 7 16 "/></clipPath><clipPath id="65bc6782f7"><path d="M 4.582031 35.738281 L 60.5625 3.394531 L 82.324219 41.058594 L 26.339844 73.402344 Z M 4.582031 35.738281 "/></clipPath><clipPath id="a5fe4ebdec"><path d="M 32.71875 19.675781 L 10.660156 32.421875 C 8.523438 33.65625 7.210938 35.9375 7.21875 38.402344 C 7.226562 40.867188 8.554688 43.140625 10.695312 44.363281 L 33.464844 57.324219 C 39.925781 61 47.847656 60.976562 54.285156 57.257812 L 76.339844 44.511719 C 78.476562 43.28125 79.789062 41 79.78125 38.53125 C 79.773438 36.066406 78.445312 33.792969 76.304688 32.574219 L 53.535156 19.609375 C 47.078125 15.933594 39.152344 15.960938 32.71875 19.675781 Z M 32.71875 19.675781 "/></clipPath><clipPath id="ede2b209ed"><rect x="0" width="87" y="0" height="76"/></clipPath><clipPath id="7247a9b798"><path d="M 0.160156 17 L 20 17 L 20 73 L 0.160156 73 Z M 0.160156 17 "/></clipPath><clipPath id="7eaad728ec"><rect x="0" width="53" y="0" height="94"/></clipPath></defs><g id="eb5e8ee673"><g clip-rule="nonzero" clip-path="url(#3e231078e2)"><g clip-rule="nonzero" clip-path="url(#671d103eeb)"><path style=" stroke:none;fill-rule:nonzero;fill:url(#b63c80090c);" d="M 26.367188 8.089844 L 26.367188 366.90625 L 348.632812 366.90625 L 348.632812 8.089844 Z M 26.367188 8.089844 "/></g></g><g clip-rule="nonzero" clip-path="url(#b00df2e413)"><g clip-rule="nonzero" clip-path="url(#4d1fbb2ef0)"><path style="fill:none;stroke-width:50;stroke-linecap:butt;stroke-linejoin:miter;stroke:#c57d04;stroke-opacity:1;stroke-miterlimit:4;" d="M 249.416663 20.114583 L 395.11458 104.885417 C 416.52083 117.338542 429.687497 140.234375 429.687497 165 L 429.687497 335.000001 C 429.687497 359.765626 416.52083 382.661459 395.11458 395.114584 L 249.416663 479.885417 C 228.046872 492.317709 201.640622 492.317709 180.27083 479.885417 L 34.572913 395.114584 C 13.166663 382.661459 -0.00000361141 359.765626 -0.00000361141 335.000001 L -0.00000361141 165 C -0.00000361141 140.234375 13.166663 117.338542 34.572913 104.885417 L 180.27083 20.114583 C 201.640622 7.682292 228.046872 7.682292 249.416663 20.114583 Z M 249.416663 20.114583 " transform="matrix(0.75,0,0,0.75,26.36719,-0.000000000000063949)"/></g></g><g mask="url(#639a1983cd)" transform="matrix(1,0,0,1,57,190)"><g clip-path="url(#128288dcb5)"><g clip-rule="nonzero" clip-path="url(#4096562f68)"><g clip-rule="nonzero" clip-path="url(#f966d55b42)"><g clip-rule="nonzero" clip-path="url(#2eee2c1a1e)"><path style=" stroke:none;fill-rule:nonzero;fill:#c57d04;fill-opacity:1;" d="M 27.652344 0.71875 L 153.546875 73.40625 L 126.304688 120.59375 L 0.410156 47.90625 Z M 27.652344 0.71875 "/></g></g></g></g><mask id="639a1983cd"><g filter="url(#d51cede9e6)"><rect x="0" width="375" y="0" height="374.999991" style="fill:#000000;fill-opacity:0.65;stroke:none;"/></g></mask></g><g mask="url(#aaf2c63ed7)" transform="matrix(1,0,0,1,164,190)"><g clip-path="url(#bcae579110)"><g clip-rule="nonzero" clip-path="url(#5c0078818e)"><g clip-rule="nonzero" clip-path="url(#b460de9853)"><g clip-rule="nonzero" clip-path="url(#c1ff302ce2)"><path style=" stroke:none;fill-rule:nonzero;fill:#c57d04;fill-opacity:1;" d="M 0.425781 73.378906 L 126.234375 0.746094 L 153.539062 48.039062 L 27.730469 120.671875 Z M 0.425781 73.378906 "/></g></g></g></g><mask id="aaf2c63ed7"><g filter="url(#d51cede9e6)"><rect x="0" width="375" y="0" height="374.999991" style="fill:#000000;fill-opacity:0.65;stroke:none;"/></g></mask></g><g mask="url(#e7748d44ec)" transform="matrix(1,0,0,1,97,110)"><g clip-path="url(#e1ca40dfd4)"><g clip-rule="nonzero" clip-path="url(#295de2e399)"><g clip-rule="nonzero" clip-path="url(#fd13cbc3c5)"><g clip-rule="nonzero" clip-path="url(#5c0d780e5b)"><path style=" stroke:none;fill-rule:nonzero;fill:#c57d04;fill-opacity:1;" d="M 0.734375 78.402344 L 135.234375 0.695312 L 180.242188 78.59375 L 45.742188 156.304688 Z M 0.734375 78.402344 "/></g></g></g></g><mask id="e7748d44ec"><g filter="url(#d51cede9e6)"><rect x="0" width="375" y="0" height="374.999991" style="fill:#000000;fill-opacity:0.1;stroke:none;"/></g></mask></g><g mask="url(#96cc0f9735)" transform="matrix(1,0,0,1,144,177)"><g clip-path="url(#ede2b209ed)"><g clip-rule="nonzero" clip-path="url(#1a50273732)"><g clip-rule="nonzero" clip-path="url(#65bc6782f7)"><g clip-rule="nonzero" clip-path="url(#a5fe4ebdec)"><path style=" stroke:none;fill-rule:nonzero;fill:#c57d04;fill-opacity:1;" d="M 0.269531 38.425781 L 65.042969 1 L 86.71875 38.515625 L 21.945312 75.941406 Z M 0.269531 38.425781 "/></g></g></g></g><mask id="96cc0f9735"><g filter="url(#d51cede9e6)"><rect x="0" width="375" y="0" height="374.999991" style="fill:#000000;fill-opacity:0.2;stroke:none;"/></g></mask></g><g style="fill:#c57d04;fill-opacity:1;"><g transform="translate(90.264505, 178.870446)"><path style="stroke:none" d="M 1.34375 0 L 8.75 -76.765625 L 34.765625 -76.765625 L 42.09375 0 L 27.515625 0 L 26.453125 -12.421875 L 17.15625 -12.421875 L 16.265625 0 Z M 18.3125 -24.65625 L 25.28125 -24.65625 L 21.890625 -63.71875 L 21.171875 -63.71875 Z M 18.3125 -24.65625 "/></g></g><g style="fill:#c57d04;fill-opacity:1;"><g transform="translate(133.600543, 178.870446)"><path style="stroke:none" d="M 21.265625 0.71875 C 15.671875 0.71875 11.1875 -1.035156 7.8125 -4.546875 C 4.445312 -8.066406 2.765625 -12.894531 2.765625 -19.03125 L 2.765625 -54.421875 C 2.765625 -62.046875 4.285156 -67.789062 7.328125 -71.65625 C 10.367188 -75.53125 15.132812 -77.46875 21.625 -77.46875 C 27.28125 -77.46875 31.835938 -75.921875 35.296875 -72.828125 C 38.753906 -69.734375 40.484375 -65.265625 40.484375 -59.421875 L 40.484375 -46.203125 L 25.203125 -46.203125 L 25.203125 -57.546875 C 25.203125 -59.753906 24.929688 -61.273438 24.390625 -62.109375 C 23.859375 -62.941406 22.9375 -63.359375 21.625 -63.359375 C 20.25 -63.359375 19.304688 -62.878906 18.796875 -61.921875 C 18.296875 -60.972656 18.046875 -59.570312 18.046875 -57.71875 L 18.046875 -19.21875 C 18.046875 -17.1875 18.34375 -15.707031 18.9375 -14.78125 C 19.539062 -13.863281 20.4375 -13.40625 21.625 -13.40625 C 24.007812 -13.40625 25.203125 -15.34375 25.203125 -19.21875 L 25.203125 -33.0625 L 40.65625 -33.0625 L 40.65625 -18.59375 C 40.65625 -5.71875 34.191406 0.71875 21.265625 0.71875 Z M 21.265625 0.71875 "/></g></g><g style="fill:#c57d04;fill-opacity:1;"><g transform="translate(175.953705, 178.870446)"><path style="stroke:none" d="M 3.390625 0 L 3.390625 -76.765625 L 34.140625 -76.765625 L 34.140625 -61.921875 L 19.03125 -61.921875 L 19.03125 -47 L 33.515625 -47 L 33.515625 -32.53125 L 19.03125 -32.53125 L 19.03125 -14.921875 L 35.125 -14.921875 L 35.125 0 Z M 3.390625 0 "/></g></g><g mask="url(#f610fd2174)" transform="matrix(1,0,0,1,230,106)"><g clip-path="url(#7eaad728ec)"><g clip-rule="nonzero" clip-path="url(#7247a9b798)"><g style="fill:#c57d04;fill-opacity:1;"><g transform="translate(0.20162, 72.404138)"><path style="stroke:none" d="M 7.484375 -41.96875 C 6.765625 -41.082031 5.757812 -40.363281 4.46875 -39.8125 C 3.175781 -39.269531 1.941406 -39 0.765625 -39 L 0.765625 -47.6875 C 2.617188 -47.976562 4.460938 -48.710938 6.296875 -49.890625 C 8.140625 -51.078125 9.460938 -52.625 10.265625 -54.53125 L 19.015625 -54.53125 L 19.015625 0 L 7.484375 0 Z M 7.484375 -41.96875 "/></g></g></g><g style="fill:#c57d04;fill-opacity:1;"><g transform="translate(21.190029, 72.404138)"><path style="stroke:none" d="M 1.90625 -2.59375 C 1.90625 -5.09375 2.296875 -7.398438 3.078125 -9.515625 C 3.859375 -11.628906 4.816406 -13.53125 5.953125 -15.21875 C 7.097656 -16.90625 8.601562 -18.890625 10.46875 -21.171875 C 12.363281 -23.546875 13.867188 -25.554688 14.984375 -27.203125 C 16.109375 -28.847656 17.0625 -30.738281 17.84375 -32.875 C 18.625 -35.007812 19.015625 -37.320312 19.015625 -39.8125 C 19.015625 -41.289062 18.800781 -42.441406 18.375 -43.265625 C 17.957031 -44.097656 17.203125 -44.515625 16.109375 -44.515625 C 14.285156 -44.515625 13.375 -42.882812 13.375 -39.625 L 13.375 -32.96875 L 1.90625 -32.96875 L 1.78125 -36.328125 C 1.78125 -40.472656 2.203125 -43.875 3.046875 -46.53125 C 3.890625 -49.195312 5.367188 -51.226562 7.484375 -52.625 C 9.597656 -54.019531 12.515625 -54.71875 16.234375 -54.71875 C 20.796875 -54.71875 24.320312 -53.4375 26.8125 -50.875 C 29.3125 -48.320312 30.5625 -44.703125 30.5625 -40.015625 C 30.5625 -37.003906 30.148438 -34.285156 29.328125 -31.859375 C 28.503906 -29.429688 27.488281 -27.304688 26.28125 -25.484375 C 25.070312 -23.671875 23.476562 -21.535156 21.5 -19.078125 C 20.0625 -17.347656 18.863281 -15.804688 17.90625 -14.453125 C 16.957031 -13.097656 16.101562 -11.703125 15.34375 -10.265625 L 30.1875 -10.265625 L 30.1875 0 L 1.90625 0 Z M 1.90625 -2.59375 "/></g></g></g><mask id="f610fd2174"><g filter="url(#d51cede9e6)"><rect x="0" width="375" y="0" height="374.999991" style="fill:#000000;fill-opacity:0.8;stroke:none;"/></g></mask></g></g></svg>