<svg xmlns="http://www.w3.org/2000/svg" xmlns:xlink="http://www.w3.org/1999/xlink" width="40" zoomAndPan="magnify" viewBox="0 0 30 30.000001" height="40" preserveAspectRatio="xMidYMid meet" version="1.2"><defs><clipPath id="7914932e1f"><path d="M 2.523438 0.625 L 27.476562 0.625 L 27.476562 28.40625 L 2.523438 28.40625 Z M 2.523438 0.625 "/></clipPath><clipPath id="98fbe541a6"><path d="M 17.007812 1.167969 L 25.46875 6.089844 C 26.710938 6.8125 27.476562 8.144531 27.476562 9.582031 L 27.476562 19.453125 C 27.476562 20.890625 26.710938 22.21875 25.46875 22.941406 L 17.007812 27.863281 C 15.765625 28.585938 14.234375 28.585938 12.992188 27.863281 L 4.53125 22.941406 C 3.289062 22.21875 2.523438 20.890625 2.523438 19.453125 L 2.523438 9.582031 C 2.523438 8.144531 3.289062 6.8125 4.53125 6.089844 L 12.992188 1.167969 C 14.234375 0.445312 15.765625 0.445312 17.007812 1.167969 Z M 17.007812 1.167969 "/></clipPath><linearGradient x1="-7.258985" gradientTransform="matrix(0.0974594,0,0,0.0974594,2.525201,-0.0000164516)" y1="13.687016" x2="263.258472" gradientUnits="userSpaceOnUse" y2="284.203482" id="07213073bc"><stop style="stop-color:#ffffff;stop-opacity:1;" offset="0"/><stop style="stop-color:#ffffff;stop-opacity:1;" offset="0.015625"/><stop style="stop-color:#fefeff;stop-opacity:1;" offset="0.03125"/><stop style="stop-color:#fdfeff;stop-opacity:1;" offset="0.046875"/><stop style="stop-color:#fcfdff;stop-opacity:1;" offset="0.0625"/><stop style="stop-color:#fcfcff;stop-opacity:1;" offset="0.078125"/><stop style="stop-color:#fbfcff;stop-opacity:1;" offset="0.09375"/><stop style="stop-color:#fafbff;stop-opacity:1;" offset="0.109375"/><stop style="stop-color:#f9fbff;stop-opacity:1;" offset="0.125"/><stop style="stop-color:#f9faff;stop-opacity:1;" offset="0.140625"/><stop style="stop-color:#f8f9ff;stop-opacity:1;" offset="0.15625"/><stop style="stop-color:#f7f9fe;stop-opacity:1;" offset="0.171875"/><stop style="stop-color:#f7f8fe;stop-opacity:1;" offset="0.1875"/><stop style="stop-color:#f6f8fe;stop-opacity:1;" offset="0.203125"/><stop style="stop-color:#f5f7fe;stop-opacity:1;" offset="0.21875"/><stop style="stop-color:#f4f6fe;stop-opacity:1;" offset="0.234375"/><stop style="stop-color:#f4f6fe;stop-opacity:1;" offset="0.25"/><stop style="stop-color:#f3f5fe;stop-opacity:1;" offset="0.265625"/><stop style="stop-color:#f2f5fe;stop-opacity:1;" offset="0.28125"/><stop style="stop-color:#f1f4fe;stop-opacity:1;" offset="0.296875"/><stop style="stop-color:#f1f3fe;stop-opacity:1;" offset="0.3125"/><stop style="stop-color:#f0f3fe;stop-opacity:1;" offset="0.328125"/><stop style="stop-color:#eff2fe;stop-opacity:1;" offset="0.34375"/><stop style="stop-color:#eff2fe;stop-opacity:1;" offset="0.359375"/><stop style="stop-color:#eef1fe;stop-opacity:1;" offset="0.375"/><stop style="stop-color:#edf0fe;stop-opacity:1;" offset="0.390625"/><stop style="stop-color:#ecf0fe;stop-opacity:1;" offset="0.40625"/><stop style="stop-color:#eceffe;stop-opacity:1;" offset="0.421875"/><stop style="stop-color:#ebeffe;stop-opacity:1;" offset="0.4375"/><stop style="stop-color:#eaeefe;stop-opacity:1;" offset="0.453125"/><stop style="stop-color:#e9edfe;stop-opacity:1;" offset="0.46875"/><stop style="stop-color:#e9edfe;stop-opacity:1;" offset="0.473169"/><stop style="stop-color:#e8edfe;stop-opacity:1;" offset="0.484375"/><stop style="stop-color:#e8ecfd;stop-opacity:1;" offset="0.5"/><stop style="stop-color:#e7ecfd;stop-opacity:1;" offset="0.515625"/><stop style="stop-color:#e6ebfd;stop-opacity:1;" offset="0.526831"/><stop style="stop-color:#e6ebfd;stop-opacity:1;" offset="0.53125"/><stop style="stop-color:#e6ebfd;stop-opacity:1;" offset="0.546875"/><stop style="stop-color:#e5eafd;stop-opacity:1;" offset="0.5625"/><stop style="stop-color:#e4e9fd;stop-opacity:1;" offset="0.578125"/><stop style="stop-color:#e4e9fd;stop-opacity:1;" offset="0.59375"/><stop style="stop-color:#e3e8fd;stop-opacity:1;" offset="0.609375"/><stop style="stop-color:#e2e8fd;stop-opacity:1;" offset="0.625"/><stop style="stop-color:#e1e7fd;stop-opacity:1;" offset="0.640625"/><stop style="stop-color:#e1e6fd;stop-opacity:1;" offset="0.65625"/><stop style="stop-color:#e0e6fd;stop-opacity:1;" offset="0.671875"/><stop style="stop-color:#dfe5fd;stop-opacity:1;" offset="0.6875"/><stop style="stop-color:#dee5fd;stop-opacity:1;" offset="0.703125"/><stop style="stop-color:#dee4fd;stop-opacity:1;" offset="0.71875"/><stop style="stop-color:#dde3fd;stop-opacity:1;" offset="0.734375"/><stop style="stop-color:#dce3fd;stop-opacity:1;" offset="0.75"/><stop style="stop-color:#dbe2fd;stop-opacity:1;" offset="0.765625"/><stop style="stop-color:#dbe2fd;stop-opacity:1;" offset="0.78125"/><stop style="stop-color:#dae1fd;stop-opacity:1;" offset="0.796875"/><stop style="stop-color:#d9e0fd;stop-opacity:1;" offset="0.8125"/><stop style="stop-color:#d9e0fc;stop-opacity:1;" offset="0.828125"/><stop style="stop-color:#d8dffc;stop-opacity:1;" offset="0.84375"/><stop style="stop-color:#d7dffc;stop-opacity:1;" offset="0.859375"/><stop style="stop-color:#d6defc;stop-opacity:1;" offset="0.875"/><stop style="stop-color:#d6ddfc;stop-opacity:1;" offset="0.890625"/><stop style="stop-color:#d5ddfc;stop-opacity:1;" offset="0.90625"/><stop style="stop-color:#d4dcfc;stop-opacity:1;" offset="0.921875"/><stop style="stop-color:#d3dcfc;stop-opacity:1;" offset="0.9375"/><stop style="stop-color:#d3dbfc;stop-opacity:1;" offset="0.953125"/><stop style="stop-color:#d2dafc;stop-opacity:1;" offset="0.96875"/><stop style="stop-color:#d1dafc;stop-opacity:1;" offset="0.984375"/><stop style="stop-color:#d0d9fc;stop-opacity:1;" offset="1"/></linearGradient><clipPath id="e988ee61ad"><path d="M 2.523438 0.449219 L 27.203125 0.449219 L 27.203125 28.265625 L 2.523438 28.265625 Z M 2.523438 0.449219 "/></clipPath><clipPath id="27959d2f86"><path d="M 16.847656 1.15625 L 25.21875 6.023438 C 26.445312 6.738281 27.203125 8.054688 27.203125 9.476562 L 27.203125 19.238281 C 27.203125 20.660156 26.445312 21.976562 25.21875 22.691406 L 16.847656 27.558594 C 15.621094 28.273438 14.105469 28.273438 12.878906 27.558594 L 4.511719 22.691406 C 3.28125 21.976562 2.523438 20.660156 2.523438 19.238281 L 2.523438 9.476562 C 2.523438 8.054688 3.28125 6.738281 4.511719 6.023438 L 12.878906 1.15625 C 14.105469 0.441406 15.621094 0.441406 16.847656 1.15625 Z M 16.847656 1.15625 "/></clipPath><filter x="0%" y="0%" width="100%" filterUnits="objectBoundingBox" id="490ffcc0ed" height="100%"><feColorMatrix values="0 0 0 0 1 0 0 0 0 1 0 0 0 0 1 0 0 0 1 0" type="matrix" in="SourceGraphic"/></filter><clipPath id="9f9bd1fb8e"><path d="M 3 1 L 11 1 L 11 10 L 3 10 Z M 3 1 "/></clipPath><clipPath id="448c2bf3f1"><path d="M 3.378906 0.960938 L 12.4375 6.195312 L 10.328125 9.847656 L 1.269531 4.617188 Z M 3.378906 0.960938 "/></clipPath><clipPath id="90a900e894"><path d="M 9.824219 4.6875 L 3.839844 1.230469 C 3.675781 1.132812 3.472656 1.132812 3.304688 1.230469 C 3.140625 1.328125 3.039062 1.503906 3.042969 1.695312 L 3.066406 4.730469 C 3.070312 5.304688 3.378906 5.835938 3.878906 6.125 L 9.867188 9.578125 C 10.03125 9.675781 10.234375 9.675781 10.398438 9.578125 C 10.5625 9.480469 10.664062 9.304688 10.664062 9.113281 L 10.636719 6.078125 C 10.632812 5.503906 10.324219 4.972656 9.824219 4.6875 Z M 9.824219 4.6875 "/></clipPath><clipPath id="53242a4f54"><rect x="0" width="13" y="0" height="11"/></clipPath><clipPath id="7764dbd6f7"><path d="M 2 1 L 11 1 L 11 10 L 2 10 Z M 2 1 "/></clipPath><clipPath id="e5054bd25e"><path d="M 0.542969 6.199219 L 9.640625 0.949219 L 11.753906 4.609375 L 2.660156 9.859375 Z M 0.542969 6.199219 "/></clipPath><clipPath id="e93e8464fb"><path d="M 3.0625 4.746094 L 9.15625 1.230469 C 9.324219 1.132812 9.527344 1.132812 9.695312 1.226562 C 9.867188 1.324219 9.96875 1.5 9.972656 1.691406 L 10.019531 4.675781 C 10.027344 5.25 9.722656 5.78125 9.226562 6.070312 L 3.132812 9.585938 C 2.96875 9.683594 2.761719 9.683594 2.59375 9.589844 C 2.425781 9.492188 2.320312 9.316406 2.316406 9.121094 L 2.269531 6.140625 C 2.261719 5.566406 2.566406 5.035156 3.0625 4.746094 Z M 3.0625 4.746094 "/></clipPath><clipPath id="5d1c0a4fc5"><rect x="0" width="13" y="0" height="11"/></clipPath><clipPath id="e77bd534b5"><path d="M 1 2 L 15 2 L 15 11 L 1 11 Z M 1 2 "/></clipPath><clipPath id="1382da8331"><path d="M 1.378906 6.394531 L 11.132812 0.757812 L 14.617188 6.789062 L 4.863281 12.425781 Z M 1.378906 6.394531 "/></clipPath><clipPath id="f2da4d5752"><path d="M 7.132812 3.070312 L 1.855469 6.121094 C 1.691406 6.214844 1.589844 6.390625 1.589844 6.582031 C 1.589844 6.773438 1.691406 6.949219 1.859375 7.042969 L 7.257812 10.117188 C 7.757812 10.402344 8.371094 10.398438 8.867188 10.113281 L 14.144531 7.0625 C 14.3125 6.96875 14.414062 6.789062 14.410156 6.601562 C 14.410156 6.410156 14.308594 6.234375 14.140625 6.136719 L 8.746094 3.066406 C 8.246094 2.78125 7.628906 2.78125 7.132812 3.070312 Z M 7.132812 3.070312 "/></clipPath><clipPath id="28e00cfe6e"><rect x="0" width="16" y="0" height="13"/></clipPath><clipPath id="a4e661e70a"><path d="M 1 2 L 7 2 L 7 6 L 1 6 Z M 1 2 "/></clipPath><clipPath id="42d1a116f9"><path d="M 0.988281 3.46875 L 5.324219 0.964844 L 7.007812 3.878906 L 2.671875 6.382812 Z M 0.988281 3.46875 "/></clipPath><clipPath id="a571a68c5c"><path d="M 3.167969 2.222656 L 1.460938 3.210938 C 1.292969 3.304688 1.191406 3.484375 1.191406 3.671875 C 1.195312 3.863281 1.296875 4.039062 1.460938 4.136719 L 3.226562 5.136719 C 3.726562 5.421875 4.339844 5.421875 4.835938 5.132812 L 6.542969 4.148438 C 6.710938 4.050781 6.8125 3.875 6.808594 3.683594 C 6.808594 3.492188 6.707031 3.316406 6.542969 3.222656 L 4.777344 2.21875 C 4.277344 1.933594 3.664062 1.9375 3.167969 2.222656 Z M 3.167969 2.222656 "/></clipPath><clipPath id="b792d59fb0"><rect x="0" width="8" y="0" height="7"/></clipPath><clipPath id="ca37fd3f23"><path d="M 1 0.0585938 L 6 0.0585938 L 6 5 L 1 5 Z M 1 0.0585938 "/></clipPath><clipPath id="aeef2ffdf2"><path d="M 0.78125 1.652344 L 4.875 0.167969 L 6.359375 4.261719 L 2.265625 5.746094 Z M 0.78125 1.652344 "/></clipPath><clipPath id="5bbc880205"><path d="M 0.78125 1.652344 L 4.875 0.167969 L 6.359375 4.261719 L 2.265625 5.746094 Z M 0.78125 1.652344 "/></clipPath><clipPath id="bd3ffab3e3"><rect x="0" width="7" y="0" height="6"/></clipPath></defs><g id="29b3a131c0"><g clip-rule="nonzero" clip-path="url(#7914932e1f)"><g clip-rule="nonzero" clip-path="url(#98fbe541a6)"><path style=" stroke:none;fill-rule:nonzero;fill:url(#07213073bc);" d="M 2.523438 0.625 L 2.523438 28.40625 L 27.476562 28.40625 L 27.476562 0.625 Z M 2.523438 0.625 "/></g></g><g clip-rule="nonzero" clip-path="url(#e988ee61ad)"><g clip-rule="nonzero" clip-path="url(#27959d2f86)"><path style="fill:none;stroke-width:4;stroke-linecap:butt;stroke-linejoin:miter;stroke:#4261e5;stroke-opacity:1;stroke-miterlimit:4;" d="M 19.950805 1.610623 L 31.611519 8.390488 C 33.320089 9.386247 34.375702 11.219966 34.375702 13.200601 L 34.375702 26.798419 C 34.375702 28.779054 33.320089 30.612773 31.611519 31.608532 L 19.950805 38.388397 C 18.242236 39.384156 16.13101 39.384156 14.42244 38.388397 L 2.767167 31.608532 C 1.053156 30.612773 -0.00245667 28.779054 -0.00245667 26.798419 L -0.00245667 13.200601 C -0.00245667 11.219966 1.053156 9.386247 2.767167 8.390488 L 14.42244 1.610623 C 16.13101 0.614865 18.242236 0.614865 19.950805 1.610623 Z M 19.950805 1.610623 " transform="matrix(0.717889,0,0,0.717889,2.525201,0.00000193548)"/></g></g><g mask="url(#1c74243aeb)" transform="matrix(1,0,0,1,4,14)"><g clip-path="url(#53242a4f54)"><g clip-rule="nonzero" clip-path="url(#9f9bd1fb8e)"><g clip-rule="nonzero" clip-path="url(#448c2bf3f1)"><g clip-rule="nonzero" clip-path="url(#90a900e894)"><path style=" stroke:none;fill-rule:nonzero;fill:#4261e5;fill-opacity:1;" d="M 3.035156 0.765625 L 12.78125 6.390625 L 10.671875 10.046875 L 0.925781 4.417969 Z M 3.035156 0.765625 "/></g></g></g></g><mask id="1c74243aeb"><g filter="url(#490ffcc0ed)"><rect x="0" width="30" y="0" height="30.000001" style="fill:#000000;fill-opacity:0.65;stroke:none;"/></g></mask></g><g mask="url(#ce9b4c6b7d)" transform="matrix(1,0,0,1,13,14)"><g clip-path="url(#5d1c0a4fc5)"><g clip-rule="nonzero" clip-path="url(#7764dbd6f7)"><g clip-rule="nonzero" clip-path="url(#e5054bd25e)"><g clip-rule="nonzero" clip-path="url(#e93e8464fb)"><path style=" stroke:none;fill-rule:nonzero;fill:#4261e5;fill-opacity:1;" d="M 0.214844 6.390625 L 9.957031 0.765625 L 12.070312 4.429688 L 2.328125 10.050781 Z M 0.214844 6.390625 "/></g></g></g></g><mask id="ce9b4c6b7d"><g filter="url(#490ffcc0ed)"><rect x="0" width="30" y="0" height="30.000001" style="fill:#000000;fill-opacity:0.65;stroke:none;"/></g></mask></g><g mask="url(#153957a5c6)" transform="matrix(1,0,0,1,7,8)"><g clip-path="url(#28e00cfe6e)"><g clip-rule="nonzero" clip-path="url(#e77bd534b5)"><g clip-rule="nonzero" clip-path="url(#1382da8331)"><g clip-rule="nonzero" clip-path="url(#f2da4d5752)"><path style=" stroke:none;fill-rule:nonzero;fill:#4261e5;fill-opacity:1;" d="M 1.050781 6.585938 L 11.464844 0.566406 L 14.949219 6.597656 L 4.535156 12.617188 Z M 1.050781 6.585938 "/></g></g></g></g><mask id="153957a5c6"><g filter="url(#490ffcc0ed)"><rect x="0" width="30" y="0" height="30.000001" style="fill:#000000;fill-opacity:0.1;stroke:none;"/></g></mask></g><g mask="url(#4e42c4818c)" transform="matrix(1,0,0,1,11,13)"><g clip-path="url(#b792d59fb0)"><g clip-rule="nonzero" clip-path="url(#a4e661e70a)"><g clip-rule="nonzero" clip-path="url(#42d1a116f9)"><g clip-rule="nonzero" clip-path="url(#a571a68c5c)"><path style=" stroke:none;fill-rule:nonzero;fill:#4261e5;fill-opacity:1;" d="M 0.65625 3.675781 L 5.667969 0.777344 L 7.347656 3.683594 L 2.332031 6.578125 Z M 0.65625 3.675781 "/></g></g></g></g><mask id="4e42c4818c"><g filter="url(#490ffcc0ed)"><rect x="0" width="30" y="0" height="30.000001" style="fill:#000000;fill-opacity:0.2;stroke:none;"/></g></mask></g><g mask="url(#fffa8d5fc7)" transform="matrix(1,0,0,1,17,9)"><g clip-path="url(#bd3ffab3e3)"><g clip-rule="nonzero" clip-path="url(#ca37fd3f23)"><g clip-rule="nonzero" clip-path="url(#aeef2ffdf2)"><g clip-rule="nonzero" clip-path="url(#5bbc880205)"><path style=" stroke:none;fill-rule:nonzero;fill:#4261e5;fill-opacity:1;" d="M 3.367188 0.839844 C 3.058594 0.839844 2.769531 0.914062 2.507812 1.035156 C 2.203125 1.175781 2.085938 1.328125 2.085938 1.308594 C 1.640625 1.675781 1.347656 2.230469 1.347656 2.855469 C 1.347656 3.972656 2.25 4.878906 3.363281 4.878906 C 4.480469 4.882812 5.382812 3.976562 5.382812 2.863281 C 5.386719 1.746094 4.480469 0.839844 3.367188 0.839844 Z M 3.363281 4.679688 C 3.246094 4.675781 3.132812 4.664062 3.015625 4.640625 C 3.488281 4.511719 4.050781 4.1875 4.316406 3.664062 C 4.316406 3.664062 4.863281 2.769531 3.9375 1.964844 C 3.9375 1.964844 4.175781 2.335938 4.183594 2.714844 C 4.183594 2.714844 4.238281 3.207031 3.800781 3.515625 C 3.160156 3.96875 2.164062 3.765625 1.734375 3.644531 C 1.621094 3.40625 1.550781 3.140625 1.550781 2.855469 C 1.550781 2.4375 1.699219 2.054688 1.9375 1.746094 C 2.058594 2.316406 2.300781 2.796875 2.464844 2.972656 C 2.683594 3.210938 3.011719 3.464844 3.425781 3.359375 C 3.84375 3.257812 3.929688 2.800781 3.929688 2.800781 C 4.023438 2.414062 3.890625 1.953125 3.882812 1.941406 C 3.875 1.933594 3.8125 1.921875 3.8125 1.921875 C 3.878906 2.53125 3.71875 2.804688 3.71875 2.804688 C 3.484375 3.28125 3.140625 3.132812 3.140625 3.132812 C 2.757812 2.9375 2.777344 2.390625 2.777344 2.390625 C 2.765625 2.023438 2.90625 1.433594 3.171875 1.0625 C 3.238281 1.054688 3.300781 1.042969 3.367188 1.042969 C 3.605469 1.042969 3.832031 1.085938 4.054688 1.179688 C 3.828125 1.367188 3.480469 1.71875 3.480469 1.71875 C 2.917969 2.242188 3.027344 2.679688 3.027344 2.679688 C 3.117188 3.140625 3.394531 2.832031 3.394531 2.832031 C 3.6875 2.527344 3.667969 1.925781 3.667969 1.925781 C 3.550781 1.945312 3.472656 2.007812 3.472656 2.007812 C 3.460938 2.410156 3.222656 2.660156 3.222656 2.660156 C 3.128906 2.761719 3.0625 2.664062 3.0625 2.664062 C 3.015625 2.59375 3.113281 2.542969 3.113281 2.542969 C 3.25 2.421875 3.289062 2.222656 3.289062 2.144531 C 3.285156 2.070312 3.324219 2.046875 3.324219 2.046875 C 3.445312 1.957031 3.574219 1.878906 3.710938 1.8125 C 3.964844 1.683594 4.425781 1.660156 4.425781 1.660156 C 4.53125 1.664062 4.628906 1.660156 4.714844 1.652344 C 5.003906 1.976562 5.183594 2.398438 5.183594 2.863281 C 5.183594 3.867188 4.367188 4.679688 3.363281 4.679688 Z M 3.363281 4.679688 "/></g></g></g></g><mask id="fffa8d5fc7"><g filter="url(#490ffcc0ed)"><rect x="0" width="30" y="0" height="30.000001" style="fill:#000000;fill-opacity:0.8;stroke:none;"/></g></mask></g><g style="fill:#4261e5;fill-opacity:1;"><g transform="translate(7.47209, 13.848038)"><path style="stroke:none" d="M 0.109375 0 L 0.671875 -5.953125 L 2.6875 -5.953125 L 3.265625 0 L 2.125 0 L 2.046875 -0.96875 L 1.328125 -0.96875 L 1.265625 0 Z M 1.421875 -1.90625 L 1.953125 -1.90625 L 1.703125 -4.9375 L 1.640625 -4.9375 Z M 1.421875 -1.90625 "/></g></g><g style="fill:#4261e5;fill-opacity:1;"><g transform="translate(10.827139, 13.848038)"><path style="stroke:none" d="M 1.640625 0.0625 C 1.210938 0.0625 0.867188 -0.0703125 0.609375 -0.34375 C 0.347656 -0.625 0.21875 -1 0.21875 -1.46875 L 0.21875 -4.21875 C 0.21875 -4.800781 0.332031 -5.242188 0.5625 -5.546875 C 0.800781 -5.847656 1.171875 -6 1.671875 -6 C 2.109375 -6 2.460938 -5.878906 2.734375 -5.640625 C 3.003906 -5.398438 3.140625 -5.054688 3.140625 -4.609375 L 3.140625 -3.578125 L 1.953125 -3.578125 L 1.953125 -4.453125 C 1.953125 -4.628906 1.929688 -4.75 1.890625 -4.8125 C 1.847656 -4.875 1.773438 -4.90625 1.671875 -4.90625 C 1.566406 -4.90625 1.492188 -4.867188 1.453125 -4.796875 C 1.410156 -4.722656 1.390625 -4.613281 1.390625 -4.46875 L 1.390625 -1.484375 C 1.390625 -1.328125 1.410156 -1.210938 1.453125 -1.140625 C 1.503906 -1.066406 1.578125 -1.03125 1.671875 -1.03125 C 1.859375 -1.03125 1.953125 -1.179688 1.953125 -1.484375 L 1.953125 -2.5625 L 3.15625 -2.5625 L 3.15625 -1.4375 C 3.15625 -0.4375 2.648438 0.0625 1.640625 0.0625 Z M 1.640625 0.0625 "/></g></g><g style="fill:#4261e5;fill-opacity:1;"><g transform="translate(14.106094, 13.848038)"><path style="stroke:none" d="M 0.265625 0 L 0.265625 -5.953125 L 2.640625 -5.953125 L 2.640625 -4.796875 L 1.46875 -4.796875 L 1.46875 -3.640625 L 2.59375 -3.640625 L 2.59375 -2.515625 L 1.46875 -2.515625 L 1.46875 -1.15625 L 2.71875 -1.15625 L 2.71875 0 Z M 0.265625 0 "/></g></g></g></svg>