<svg xmlns="http://www.w3.org/2000/svg" xmlns:xlink="http://www.w3.org/1999/xlink" width="500" zoomAndPan="magnify" viewBox="0 0 375 374.999991" height="500" preserveAspectRatio="xMidYMid meet" version="1.2"><defs><clipPath id="3b5dbec73f"><path d="M 26.367188 8.089844 L 348.632812 8.089844 L 348.632812 366.90625 L 26.367188 366.90625 Z M 26.367188 8.089844 "/></clipPath><clipPath id="c574c78cf7"><path d="M 213.429688 15.085938 L 322.703125 78.664062 C 338.757812 88.003906 348.632812 105.175781 348.632812 123.75 L 348.632812 251.25 C 348.632812 269.824219 338.757812 286.996094 322.703125 296.335938 L 213.429688 359.914062 C 197.402344 369.238281 177.597656 369.238281 161.570312 359.914062 L 52.296875 296.335938 C 36.242188 286.996094 26.367188 269.824219 26.367188 251.25 L 26.367188 123.75 C 26.367188 105.175781 36.242188 88.003906 52.296875 78.664062 L 161.570312 15.085938 C 177.597656 5.761719 197.402344 5.761719 213.429688 15.085938 Z M 213.429688 15.085938 "/></clipPath><linearGradient x1="-7.258984" gradientTransform="matrix(1.25885,0,0,1.25885,26.367192,-0.00024)" y1="13.687016" x2="263.258471" gradientUnits="userSpaceOnUse" y2="284.203481" id="da1db5e9d0"><stop style="stop-color:#ffffff;stop-opacity:1;" offset="0"/><stop style="stop-color:#ffffff;stop-opacity:1;" offset="0.015625"/><stop style="stop-color:#fefeff;stop-opacity:1;" offset="0.03125"/><stop style="stop-color:#fdfdff;stop-opacity:1;" offset="0.046875"/><stop style="stop-color:#fcfcff;stop-opacity:1;" offset="0.0625"/><stop style="stop-color:#fbfbff;stop-opacity:1;" offset="0.078125"/><stop style="stop-color:#fbfaff;stop-opacity:1;" offset="0.09375"/><stop style="stop-color:#faf9ff;stop-opacity:1;" offset="0.109375"/><stop style="stop-color:#f9f8ff;stop-opacity:1;" offset="0.125"/><stop style="stop-color:#f8f7ff;stop-opacity:1;" offset="0.140625"/><stop style="stop-color:#f7f6ff;stop-opacity:1;" offset="0.15625"/><stop style="stop-color:#f6f5ff;stop-opacity:1;" offset="0.171875"/><stop style="stop-color:#f6f4ff;stop-opacity:1;" offset="0.1875"/><stop style="stop-color:#f5f3ff;stop-opacity:1;" offset="0.203125"/><stop style="stop-color:#f4f2ff;stop-opacity:1;" offset="0.21875"/><stop style="stop-color:#f3f1ff;stop-opacity:1;" offset="0.234375"/><stop style="stop-color:#f2f0ff;stop-opacity:1;" offset="0.25"/><stop style="stop-color:#f2f0ff;stop-opacity:1;" offset="0.265625"/><stop style="stop-color:#f1efff;stop-opacity:1;" offset="0.28125"/><stop style="stop-color:#f0eeff;stop-opacity:1;" offset="0.296875"/><stop style="stop-color:#efedff;stop-opacity:1;" offset="0.3125"/><stop style="stop-color:#eeecff;stop-opacity:1;" offset="0.328125"/><stop style="stop-color:#eeebff;stop-opacity:1;" offset="0.34375"/><stop style="stop-color:#edeaff;stop-opacity:1;" offset="0.359375"/><stop style="stop-color:#ece9ff;stop-opacity:1;" offset="0.375"/><stop style="stop-color:#ebe8ff;stop-opacity:1;" offset="0.390625"/><stop style="stop-color:#eae7ff;stop-opacity:1;" offset="0.40625"/><stop style="stop-color:#e9e6ff;stop-opacity:1;" offset="0.421875"/><stop style="stop-color:#e9e5ff;stop-opacity:1;" offset="0.4375"/><stop style="stop-color:#e8e4ff;stop-opacity:1;" offset="0.453125"/><stop style="stop-color:#e7e3ff;stop-opacity:1;" offset="0.46875"/><stop style="stop-color:#e6e2ff;stop-opacity:1;" offset="0.473169"/><stop style="stop-color:#e6e2ff;stop-opacity:1;" offset="0.484375"/><stop style="stop-color:#e5e2ff;stop-opacity:1;" offset="0.5"/><stop style="stop-color:#e5e1ff;stop-opacity:1;" offset="0.515625"/><stop style="stop-color:#e4e0ff;stop-opacity:1;" offset="0.526831"/><stop style="stop-color:#e3dfff;stop-opacity:1;" offset="0.53125"/><stop style="stop-color:#e3dfff;stop-opacity:1;" offset="0.546875"/><stop style="stop-color:#e2deff;stop-opacity:1;" offset="0.5625"/><stop style="stop-color:#e1ddff;stop-opacity:1;" offset="0.578125"/><stop style="stop-color:#e1dcff;stop-opacity:1;" offset="0.59375"/><stop style="stop-color:#e0dbff;stop-opacity:1;" offset="0.609375"/><stop style="stop-color:#dfdaff;stop-opacity:1;" offset="0.625"/><stop style="stop-color:#ded9ff;stop-opacity:1;" offset="0.640625"/><stop style="stop-color:#ddd8ff;stop-opacity:1;" offset="0.65625"/><stop style="stop-color:#dcd7ff;stop-opacity:1;" offset="0.671875"/><stop style="stop-color:#dcd6ff;stop-opacity:1;" offset="0.6875"/><stop style="stop-color:#dbd5ff;stop-opacity:1;" offset="0.703125"/><stop style="stop-color:#dad4ff;stop-opacity:1;" offset="0.71875"/><stop style="stop-color:#d9d3ff;stop-opacity:1;" offset="0.734375"/><stop style="stop-color:#d8d3ff;stop-opacity:1;" offset="0.75"/><stop style="stop-color:#d8d2ff;stop-opacity:1;" offset="0.765625"/><stop style="stop-color:#d7d1ff;stop-opacity:1;" offset="0.78125"/><stop style="stop-color:#d6d0ff;stop-opacity:1;" offset="0.796875"/><stop style="stop-color:#d5cfff;stop-opacity:1;" offset="0.8125"/><stop style="stop-color:#d4ceff;stop-opacity:1;" offset="0.828125"/><stop style="stop-color:#d4cdff;stop-opacity:1;" offset="0.84375"/><stop style="stop-color:#d3ccff;stop-opacity:1;" offset="0.859375"/><stop style="stop-color:#d2cbff;stop-opacity:1;" offset="0.875"/><stop style="stop-color:#d1caff;stop-opacity:1;" offset="0.890625"/><stop style="stop-color:#d0c9ff;stop-opacity:1;" offset="0.90625"/><stop style="stop-color:#cfc8ff;stop-opacity:1;" offset="0.921875"/><stop style="stop-color:#cfc7ff;stop-opacity:1;" offset="0.9375"/><stop style="stop-color:#cec6ff;stop-opacity:1;" offset="0.953125"/><stop style="stop-color:#cdc5ff;stop-opacity:1;" offset="0.96875"/><stop style="stop-color:#ccc4ff;stop-opacity:1;" offset="0.984375"/><stop style="stop-color:#cbc4ff;stop-opacity:1;" offset="1"/></linearGradient><clipPath id="b5b20a79f2"><path d="M 26.367188 8 L 348.632812 8 L 348.632812 367 L 26.367188 367 Z M 26.367188 8 "/></clipPath><clipPath id="229a0183a8"><path d="M 213.429688 15.085938 L 322.703125 78.664062 C 338.757812 88.003906 348.632812 105.175781 348.632812 123.75 L 348.632812 251.25 C 348.632812 269.824219 338.757812 286.996094 322.703125 296.335938 L 213.429688 359.914062 C 197.402344 369.238281 177.597656 369.238281 161.570312 359.914062 L 52.296875 296.335938 C 36.242188 286.996094 26.367188 269.824219 26.367188 251.25 L 26.367188 123.75 C 26.367188 105.175781 36.242188 88.003906 52.296875 78.664062 L 161.570312 15.085938 C 177.597656 5.761719 197.402344 5.761719 213.429688 15.085938 Z M 213.429688 15.085938 "/></clipPath><filter x="0%" y="0%" width="100%" filterUnits="objectBoundingBox" id="aec4b90769" height="100%"><feColorMatrix values="0 0 0 0 1 0 0 0 0 1 0 0 0 0 1 0 0 0 1 0" type="matrix" in="SourceGraphic"/></filter><clipPath id="6a0ec32796"><path d="M 27 5 L 127 5 L 127 116 L 27 116 Z M 27 5 "/></clipPath><clipPath id="b208fec033"><path d="M 32.078125 3.273438 L 149.125 70.851562 L 121.878906 118.039062 L 4.832031 50.460938 Z M 32.078125 3.273438 "/></clipPath><clipPath id="9265c8b374"><path d="M 115.371094 51.363281 L 38.046875 6.71875 C 35.914062 5.488281 33.285156 5.492188 31.15625 6.734375 C 29.03125 7.972656 27.730469 10.257812 27.75 12.71875 L 28.066406 51.929688 C 28.125 59.363281 32.117188 66.210938 38.554688 69.929688 L 115.878906 114.574219 C 118.011719 115.804688 120.640625 115.800781 122.765625 114.558594 C 124.894531 113.320312 126.195312 111.035156 126.175781 108.574219 L 125.859375 69.363281 C 125.796875 61.925781 121.808594 55.078125 115.371094 51.363281 Z M 115.371094 51.363281 "/></clipPath><clipPath id="7d94c28912"><rect x="0" width="154" y="0" height="121"/></clipPath><clipPath id="71852783c5"><path d="M 26 5 L 128 5 L 128 116 L 26 116 Z M 26 5 "/></clipPath><clipPath id="1015f8cb4f"><path d="M 4.675781 70.925781 L 122.171875 3.089844 L 149.476562 50.382812 L 31.980469 118.21875 Z M 4.675781 70.925781 "/></clipPath><clipPath id="e90a3d22d7"><path d="M 37.183594 52.15625 L 115.890625 6.714844 C 118.054688 5.464844 120.71875 5.457031 122.894531 6.691406 C 125.066406 7.921875 126.425781 10.214844 126.464844 12.714844 L 127.042969 51.234375 C 127.152344 58.640625 123.246094 65.527344 116.832031 69.230469 L 38.125 114.671875 C 35.960938 115.921875 33.296875 115.933594 31.121094 114.699219 C 28.949219 113.464844 27.589844 111.171875 27.550781 108.675781 L 26.972656 70.15625 C 26.863281 62.75 30.769531 55.859375 37.183594 52.15625 Z M 37.183594 52.15625 "/></clipPath><clipPath id="ff50280e33"><rect x="0" width="154" y="0" height="121"/></clipPath><clipPath id="7a0c2a7a46"><path d="M 7 30 L 174 30 L 174 127 L 7 127 Z M 7 30 "/></clipPath><clipPath id="1a8b2a012d"><path d="M 4.992188 75.941406 L 130.976562 3.15625 L 175.984375 81.058594 L 50.003906 153.84375 Z M 4.992188 75.941406 "/></clipPath><clipPath id="8325133475"><path d="M 79.292969 33.015625 L 11.125 72.402344 C 8.988281 73.632812 7.675781 75.917969 7.683594 78.382812 C 7.691406 80.847656 9.019531 83.121094 11.160156 84.339844 L 80.886719 124.039062 C 87.347656 127.714844 95.273438 127.6875 101.707031 123.972656 L 169.875 84.585938 C 172.011719 83.351562 173.324219 81.070312 173.316406 78.605469 C 173.308594 76.136719 171.980469 73.863281 169.839844 72.644531 L 100.113281 32.949219 C 93.652344 29.273438 85.730469 29.296875 79.292969 33.015625 Z M 79.292969 33.015625 "/></clipPath><clipPath id="dea50af6be"><rect x="0" width="181" y="0" height="157"/></clipPath><clipPath id="cbb9d8bebc"><path d="M 7 16 L 80 16 L 80 61 L 7 61 Z M 7 16 "/></clipPath><clipPath id="5ae49a44d5"><path d="M 4.582031 35.738281 L 60.5625 3.394531 L 82.324219 41.058594 L 26.339844 73.402344 Z M 4.582031 35.738281 "/></clipPath><clipPath id="1990c6d9d8"><path d="M 32.71875 19.675781 L 10.660156 32.421875 C 8.523438 33.65625 7.210938 35.9375 7.21875 38.402344 C 7.226562 40.867188 8.554688 43.140625 10.695312 44.363281 L 33.464844 57.324219 C 39.925781 61 47.847656 60.976562 54.285156 57.257812 L 76.339844 44.511719 C 78.476562 43.28125 79.789062 41 79.78125 38.53125 C 79.773438 36.066406 78.445312 33.792969 76.304688 32.574219 L 53.535156 19.609375 C 47.078125 15.933594 39.152344 15.960938 32.71875 19.675781 Z M 32.71875 19.675781 "/></clipPath><clipPath id="7694d26b25"><rect x="0" width="87" y="0" height="76"/></clipPath><clipPath id="a3fc603f79"><path d="M 0.160156 17 L 20 17 L 20 73 L 0.160156 73 Z M 0.160156 17 "/></clipPath><clipPath id="f44dd30916"><rect x="0" width="53" y="0" height="94"/></clipPath></defs><g id="8fa09a4d37"><g clip-rule="nonzero" clip-path="url(#3b5dbec73f)"><g clip-rule="nonzero" clip-path="url(#c574c78cf7)"><path style=" stroke:none;fill-rule:nonzero;fill:url(#da1db5e9d0);" d="M 26.367188 8.089844 L 26.367188 366.90625 L 348.632812 366.90625 L 348.632812 8.089844 Z M 26.367188 8.089844 "/></g></g><g clip-rule="nonzero" clip-path="url(#b5b20a79f2)"><g clip-rule="nonzero" clip-path="url(#229a0183a8)"><path style="fill:none;stroke-width:50;stroke-linecap:butt;stroke-linejoin:miter;stroke:#7859e0;stroke-opacity:1;stroke-miterlimit:4;" d="M 249.416663 20.114583 L 395.11458 104.885417 C 416.52083 117.338542 429.687497 140.234375 429.687497 165 L 429.687497 335.000001 C 429.687497 359.765626 416.52083 382.661459 395.11458 395.114584 L 249.416663 479.885417 C 228.046872 492.317709 201.640622 492.317709 180.27083 479.885417 L 34.572913 395.114584 C 13.166663 382.661459 -0.00000361141 359.765626 -0.00000361141 335.000001 L -0.00000361141 165 C -0.00000361141 140.234375 13.166663 117.338542 34.572913 104.885417 L 180.27083 20.114583 C 201.640622 7.682292 228.046872 7.682292 249.416663 20.114583 Z M 249.416663 20.114583 " transform="matrix(0.75,0,0,0.75,26.36719,-0.000000000000063949)"/></g></g><g mask="url(#b3e026954c)" transform="matrix(1,0,0,1,57,190)"><g clip-path="url(#7d94c28912)"><g clip-rule="nonzero" clip-path="url(#6a0ec32796)"><g clip-rule="nonzero" clip-path="url(#b208fec033)"><g clip-rule="nonzero" clip-path="url(#9265c8b374)"><path style=" stroke:none;fill-rule:nonzero;fill:#7859e0;fill-opacity:1;" d="M 27.652344 0.71875 L 153.546875 73.40625 L 126.304688 120.59375 L 0.410156 47.90625 Z M 27.652344 0.71875 "/></g></g></g></g><mask id="b3e026954c"><g filter="url(#aec4b90769)"><rect x="0" width="375" y="0" height="374.999991" style="fill:#000000;fill-opacity:0.65;stroke:none;"/></g></mask></g><g mask="url(#0dcf9c3a07)" transform="matrix(1,0,0,1,164,190)"><g clip-path="url(#ff50280e33)"><g clip-rule="nonzero" clip-path="url(#71852783c5)"><g clip-rule="nonzero" clip-path="url(#1015f8cb4f)"><g clip-rule="nonzero" clip-path="url(#e90a3d22d7)"><path style=" stroke:none;fill-rule:nonzero;fill:#7859e0;fill-opacity:1;" d="M 0.425781 73.378906 L 126.234375 0.746094 L 153.539062 48.039062 L 27.730469 120.671875 Z M 0.425781 73.378906 "/></g></g></g></g><mask id="0dcf9c3a07"><g filter="url(#aec4b90769)"><rect x="0" width="375" y="0" height="374.999991" style="fill:#000000;fill-opacity:0.65;stroke:none;"/></g></mask></g><g mask="url(#ea53c025e0)" transform="matrix(1,0,0,1,97,110)"><g clip-path="url(#dea50af6be)"><g clip-rule="nonzero" clip-path="url(#7a0c2a7a46)"><g clip-rule="nonzero" clip-path="url(#1a8b2a012d)"><g clip-rule="nonzero" clip-path="url(#8325133475)"><path style=" stroke:none;fill-rule:nonzero;fill:#7859e0;fill-opacity:1;" d="M 0.734375 78.402344 L 135.234375 0.695312 L 180.242188 78.59375 L 45.742188 156.304688 Z M 0.734375 78.402344 "/></g></g></g></g><mask id="ea53c025e0"><g filter="url(#aec4b90769)"><rect x="0" width="375" y="0" height="374.999991" style="fill:#000000;fill-opacity:0.1;stroke:none;"/></g></mask></g><g mask="url(#a4b4ada1c2)" transform="matrix(1,0,0,1,144,177)"><g clip-path="url(#7694d26b25)"><g clip-rule="nonzero" clip-path="url(#cbb9d8bebc)"><g clip-rule="nonzero" clip-path="url(#5ae49a44d5)"><g clip-rule="nonzero" clip-path="url(#1990c6d9d8)"><path style=" stroke:none;fill-rule:nonzero;fill:#7859e0;fill-opacity:1;" d="M 0.269531 38.425781 L 65.042969 1 L 86.71875 38.515625 L 21.945312 75.941406 Z M 0.269531 38.425781 "/></g></g></g></g><mask id="a4b4ada1c2"><g filter="url(#aec4b90769)"><rect x="0" width="375" y="0" height="374.999991" style="fill:#000000;fill-opacity:0.2;stroke:none;"/></g></mask></g><g style="fill:#7859e0;fill-opacity:1;"><g transform="translate(90.264505, 178.870446)"><path style="stroke:none" d="M 1.34375 0 L 8.75 -76.765625 L 34.765625 -76.765625 L 42.09375 0 L 27.515625 0 L 26.453125 -12.421875 L 17.15625 -12.421875 L 16.265625 0 Z M 18.3125 -24.65625 L 25.28125 -24.65625 L 21.890625 -63.71875 L 21.171875 -63.71875 Z M 18.3125 -24.65625 "/></g></g><g style="fill:#7859e0;fill-opacity:1;"><g transform="translate(133.600543, 178.870446)"><path style="stroke:none" d="M 21.265625 0.71875 C 15.671875 0.71875 11.1875 -1.035156 7.8125 -4.546875 C 4.445312 -8.066406 2.765625 -12.894531 2.765625 -19.03125 L 2.765625 -54.421875 C 2.765625 -62.046875 4.285156 -67.789062 7.328125 -71.65625 C 10.367188 -75.53125 15.132812 -77.46875 21.625 -77.46875 C 27.28125 -77.46875 31.835938 -75.921875 35.296875 -72.828125 C 38.753906 -69.734375 40.484375 -65.265625 40.484375 -59.421875 L 40.484375 -46.203125 L 25.203125 -46.203125 L 25.203125 -57.546875 C 25.203125 -59.753906 24.929688 -61.273438 24.390625 -62.109375 C 23.859375 -62.941406 22.9375 -63.359375 21.625 -63.359375 C 20.25 -63.359375 19.304688 -62.878906 18.796875 -61.921875 C 18.296875 -60.972656 18.046875 -59.570312 18.046875 -57.71875 L 18.046875 -19.21875 C 18.046875 -17.1875 18.34375 -15.707031 18.9375 -14.78125 C 19.539062 -13.863281 20.4375 -13.40625 21.625 -13.40625 C 24.007812 -13.40625 25.203125 -15.34375 25.203125 -19.21875 L 25.203125 -33.0625 L 40.65625 -33.0625 L 40.65625 -18.59375 C 40.65625 -5.71875 34.191406 0.71875 21.265625 0.71875 Z M 21.265625 0.71875 "/></g></g><g style="fill:#7859e0;fill-opacity:1;"><g transform="translate(175.953705, 178.870446)"><path style="stroke:none" d="M 3.390625 0 L 3.390625 -76.765625 L 34.140625 -76.765625 L 34.140625 -61.921875 L 19.03125 -61.921875 L 19.03125 -47 L 33.515625 -47 L 33.515625 -32.53125 L 19.03125 -32.53125 L 19.03125 -14.921875 L 35.125 -14.921875 L 35.125 0 Z M 3.390625 0 "/></g></g><g mask="url(#8d38d0ccca)" transform="matrix(1,0,0,1,230,106)"><g clip-path="url(#f44dd30916)"><g clip-rule="nonzero" clip-path="url(#a3fc603f79)"><g style="fill:#7859e0;fill-opacity:1;"><g transform="translate(0.20162, 72.404138)"><path style="stroke:none" d="M 7.484375 -41.96875 C 6.765625 -41.082031 5.757812 -40.363281 4.46875 -39.8125 C 3.175781 -39.269531 1.941406 -39 0.765625 -39 L 0.765625 -47.6875 C 2.617188 -47.976562 4.460938 -48.710938 6.296875 -49.890625 C 8.140625 -51.078125 9.460938 -52.625 10.265625 -54.53125 L 19.015625 -54.53125 L 19.015625 0 L 7.484375 0 Z M 7.484375 -41.96875 "/></g></g></g><g style="fill:#7859e0;fill-opacity:1;"><g transform="translate(21.190029, 72.404138)"><path style="stroke:none" d="M 14.96875 0.640625 C 10.1875 0.640625 6.695312 -0.613281 4.5 -3.125 C 2.300781 -5.644531 1.203125 -9.484375 1.203125 -14.640625 L 1.203125 -20.359375 L 12.359375 -20.359375 L 12.359375 -14.640625 C 12.359375 -12.992188 12.566406 -11.71875 12.984375 -10.8125 C 13.410156 -9.90625 14.257812 -9.453125 15.53125 -9.453125 C 16.414062 -9.453125 17.0625 -9.765625 17.46875 -10.390625 C 17.875 -11.023438 18.117188 -11.773438 18.203125 -12.640625 C 18.285156 -13.515625 18.328125 -14.773438 18.328125 -16.421875 L 18.328125 -17.75 C 18.328125 -22.445312 16.785156 -24.796875 13.703125 -24.796875 C 13.148438 -24.796875 12.789062 -24.773438 12.625 -24.734375 L 12.625 -34.5 C 14.5625 -34.5 16.015625 -34.929688 16.984375 -35.796875 C 17.960938 -36.660156 18.453125 -38.046875 18.453125 -39.953125 C 18.453125 -43.035156 17.5625 -44.578125 15.78125 -44.578125 C 14.6875 -44.578125 13.976562 -44.300781 13.65625 -43.75 C 13.34375 -43.195312 13.132812 -42.5 13.03125 -41.65625 C 12.925781 -40.8125 12.851562 -40.195312 12.8125 -39.8125 L 12.8125 -38.171875 L 1.515625 -38.171875 L 1.453125 -40.078125 C 1.492188 -45.054688 2.675781 -48.71875 5 -51.0625 C 7.332031 -53.414062 10.90625 -54.59375 15.71875 -54.59375 C 24.976562 -54.59375 29.609375 -49.753906 29.609375 -40.078125 C 29.609375 -37.242188 29.226562 -34.988281 28.46875 -33.3125 C 27.707031 -31.644531 26.394531 -30.472656 24.53125 -29.796875 C 26.0625 -29.035156 27.195312 -28.09375 27.9375 -26.96875 C 28.675781 -25.851562 29.160156 -24.492188 29.390625 -22.890625 C 29.617188 -21.285156 29.734375 -19.128906 29.734375 -16.421875 C 29.734375 -10.796875 28.5625 -6.546875 26.21875 -3.671875 C 23.875 -0.796875 20.125 0.640625 14.96875 0.640625 Z M 14.96875 0.640625 "/></g></g></g><mask id="8d38d0ccca"><g filter="url(#aec4b90769)"><rect x="0" width="375" y="0" height="374.999991" style="fill:#000000;fill-opacity:0.8;stroke:none;"/></g></mask></g></g></svg>