<svg xmlns="http://www.w3.org/2000/svg" xmlns:xlink="http://www.w3.org/1999/xlink" width="500" zoomAndPan="magnify" viewBox="0 0 375 374.999991" height="500" preserveAspectRatio="xMidYMid meet" version="1.2"><defs><clipPath id="7a9fcee3bd"><path d="M 26.367188 8.089844 L 348.632812 8.089844 L 348.632812 366.90625 L 26.367188 366.90625 Z M 26.367188 8.089844 "/></clipPath><clipPath id="7524a266d1"><path d="M 213.429688 15.085938 L 322.703125 78.664062 C 338.757812 88.003906 348.632812 105.175781 348.632812 123.75 L 348.632812 251.25 C 348.632812 269.824219 338.757812 286.996094 322.703125 296.335938 L 213.429688 359.914062 C 197.402344 369.238281 177.597656 369.238281 161.570312 359.914062 L 52.296875 296.335938 C 36.242188 286.996094 26.367188 269.824219 26.367188 251.25 L 26.367188 123.75 C 26.367188 105.175781 36.242188 88.003906 52.296875 78.664062 L 161.570312 15.085938 C 177.597656 5.761719 197.402344 5.761719 213.429688 15.085938 Z M 213.429688 15.085938 "/></clipPath><linearGradient x1="-7.258984" gradientTransform="matrix(1.25885,0,0,1.25885,26.367192,-0.00024)" y1="13.687016" x2="263.258471" gradientUnits="userSpaceOnUse" y2="284.203481" id="744b182a1d"><stop style="stop-color:#ffffff;stop-opacity:1;" offset="0"/><stop style="stop-color:#ffffff;stop-opacity:1;" offset="0.015625"/><stop style="stop-color:#fffefe;stop-opacity:1;" offset="0.03125"/><stop style="stop-color:#fffdfd;stop-opacity:1;" offset="0.046875"/><stop style="stop-color:#fffcfc;stop-opacity:1;" offset="0.0625"/><stop style="stop-color:#fffbfb;stop-opacity:1;" offset="0.078125"/><stop style="stop-color:#fffbfb;stop-opacity:1;" offset="0.09375"/><stop style="stop-color:#fffafa;stop-opacity:1;" offset="0.109375"/><stop style="stop-color:#fff9f9;stop-opacity:1;" offset="0.125"/><stop style="stop-color:#fff8f8;stop-opacity:1;" offset="0.140625"/><stop style="stop-color:#fff7f7;stop-opacity:1;" offset="0.15625"/><stop style="stop-color:#fff7f7;stop-opacity:1;" offset="0.171875"/><stop style="stop-color:#fff6f6;stop-opacity:1;" offset="0.1875"/><stop style="stop-color:#fff5f5;stop-opacity:1;" offset="0.203125"/><stop style="stop-color:#fff4f4;stop-opacity:1;" offset="0.21875"/><stop style="stop-color:#fff3f3;stop-opacity:1;" offset="0.234375"/><stop style="stop-color:#fff3f3;stop-opacity:1;" offset="0.25"/><stop style="stop-color:#fff2f2;stop-opacity:1;" offset="0.265625"/><stop style="stop-color:#fff1f1;stop-opacity:1;" offset="0.28125"/><stop style="stop-color:#fff0f0;stop-opacity:1;" offset="0.296875"/><stop style="stop-color:#ffefef;stop-opacity:1;" offset="0.3125"/><stop style="stop-color:#ffefef;stop-opacity:1;" offset="0.328125"/><stop style="stop-color:#ffeeee;stop-opacity:1;" offset="0.34375"/><stop style="stop-color:#ffeded;stop-opacity:1;" offset="0.359375"/><stop style="stop-color:#ffecec;stop-opacity:1;" offset="0.375"/><stop style="stop-color:#ffebeb;stop-opacity:1;" offset="0.390625"/><stop style="stop-color:#ffebeb;stop-opacity:1;" offset="0.40625"/><stop style="stop-color:#ffeaea;stop-opacity:1;" offset="0.421875"/><stop style="stop-color:#ffe9e9;stop-opacity:1;" offset="0.4375"/><stop style="stop-color:#ffe8e8;stop-opacity:1;" offset="0.453125"/><stop style="stop-color:#ffe7e7;stop-opacity:1;" offset="0.46875"/><stop style="stop-color:#ffe7e7;stop-opacity:1;" offset="0.473169"/><stop style="stop-color:#ffe6e6;stop-opacity:1;" offset="0.484375"/><stop style="stop-color:#ffe6e6;stop-opacity:1;" offset="0.5"/><stop style="stop-color:#ffe5e5;stop-opacity:1;" offset="0.515625"/><stop style="stop-color:#ffe4e4;stop-opacity:1;" offset="0.526831"/><stop style="stop-color:#ffe4e4;stop-opacity:1;" offset="0.53125"/><stop style="stop-color:#ffe4e4;stop-opacity:1;" offset="0.546875"/><stop style="stop-color:#ffe3e3;stop-opacity:1;" offset="0.5625"/><stop style="stop-color:#ffe2e2;stop-opacity:1;" offset="0.578125"/><stop style="stop-color:#ffe1e1;stop-opacity:1;" offset="0.59375"/><stop style="stop-color:#ffe0e0;stop-opacity:1;" offset="0.609375"/><stop style="stop-color:#ffe0e0;stop-opacity:1;" offset="0.625"/><stop style="stop-color:#ffdfdf;stop-opacity:1;" offset="0.640625"/><stop style="stop-color:#ffdede;stop-opacity:1;" offset="0.65625"/><stop style="stop-color:#ffdddd;stop-opacity:1;" offset="0.671875"/><stop style="stop-color:#ffdcdc;stop-opacity:1;" offset="0.6875"/><stop style="stop-color:#ffdcdc;stop-opacity:1;" offset="0.703125"/><stop style="stop-color:#ffdbdb;stop-opacity:1;" offset="0.71875"/><stop style="stop-color:#ffdada;stop-opacity:1;" offset="0.734375"/><stop style="stop-color:#ffd9d9;stop-opacity:1;" offset="0.75"/><stop style="stop-color:#ffd8d8;stop-opacity:1;" offset="0.765625"/><stop style="stop-color:#ffd8d8;stop-opacity:1;" offset="0.78125"/><stop style="stop-color:#ffd7d7;stop-opacity:1;" offset="0.796875"/><stop style="stop-color:#ffd6d6;stop-opacity:1;" offset="0.8125"/><stop style="stop-color:#ffd5d5;stop-opacity:1;" offset="0.828125"/><stop style="stop-color:#ffd4d4;stop-opacity:1;" offset="0.84375"/><stop style="stop-color:#ffd4d4;stop-opacity:1;" offset="0.859375"/><stop style="stop-color:#ffd3d3;stop-opacity:1;" offset="0.875"/><stop style="stop-color:#ffd2d2;stop-opacity:1;" offset="0.890625"/><stop style="stop-color:#ffd1d1;stop-opacity:1;" offset="0.90625"/><stop style="stop-color:#ffd0d0;stop-opacity:1;" offset="0.921875"/><stop style="stop-color:#ffd0d0;stop-opacity:1;" offset="0.9375"/><stop style="stop-color:#ffcfcf;stop-opacity:1;" offset="0.953125"/><stop style="stop-color:#ffcece;stop-opacity:1;" offset="0.96875"/><stop style="stop-color:#ffcdcd;stop-opacity:1;" offset="0.984375"/><stop style="stop-color:#ffcccc;stop-opacity:1;" offset="1"/></linearGradient><clipPath id="ee91261e6f"><path d="M 26.367188 8 L 348.632812 8 L 348.632812 367 L 26.367188 367 Z M 26.367188 8 "/></clipPath><clipPath id="d31f9ecf4e"><path d="M 213.429688 15.085938 L 322.703125 78.664062 C 338.757812 88.003906 348.632812 105.175781 348.632812 123.75 L 348.632812 251.25 C 348.632812 269.824219 338.757812 286.996094 322.703125 296.335938 L 213.429688 359.914062 C 197.402344 369.238281 177.597656 369.238281 161.570312 359.914062 L 52.296875 296.335938 C 36.242188 286.996094 26.367188 269.824219 26.367188 251.25 L 26.367188 123.75 C 26.367188 105.175781 36.242188 88.003906 52.296875 78.664062 L 161.570312 15.085938 C 177.597656 5.761719 197.402344 5.761719 213.429688 15.085938 Z M 213.429688 15.085938 "/></clipPath><filter x="0%" y="0%" width="100%" filterUnits="objectBoundingBox" id="69a5679959" height="100%"><feColorMatrix values="0 0 0 0 1 0 0 0 0 1 0 0 0 0 1 0 0 0 1 0" type="matrix" in="SourceGraphic"/></filter><clipPath id="6d58e03ad6"><path d="M 27 5 L 127 5 L 127 116 L 27 116 Z M 27 5 "/></clipPath><clipPath id="725e9a8119"><path d="M 32.078125 3.273438 L 149.125 70.851562 L 121.878906 118.039062 L 4.832031 50.460938 Z M 32.078125 3.273438 "/></clipPath><clipPath id="d299fdb343"><path d="M 115.371094 51.363281 L 38.046875 6.71875 C 35.914062 5.488281 33.285156 5.492188 31.15625 6.734375 C 29.03125 7.972656 27.730469 10.257812 27.75 12.71875 L 28.066406 51.929688 C 28.125 59.363281 32.117188 66.210938 38.554688 69.929688 L 115.878906 114.574219 C 118.011719 115.804688 120.640625 115.800781 122.765625 114.558594 C 124.894531 113.320312 126.195312 111.035156 126.175781 108.574219 L 125.859375 69.363281 C 125.796875 61.925781 121.808594 55.078125 115.371094 51.363281 Z M 115.371094 51.363281 "/></clipPath><clipPath id="9706f1f29f"><rect x="0" width="154" y="0" height="121"/></clipPath><clipPath id="c28bf8c9cb"><path d="M 26 5 L 128 5 L 128 116 L 26 116 Z M 26 5 "/></clipPath><clipPath id="aa77d2c492"><path d="M 4.675781 70.925781 L 122.171875 3.089844 L 149.476562 50.382812 L 31.980469 118.21875 Z M 4.675781 70.925781 "/></clipPath><clipPath id="b5df2652bd"><path d="M 37.183594 52.15625 L 115.890625 6.714844 C 118.054688 5.464844 120.71875 5.457031 122.894531 6.691406 C 125.066406 7.921875 126.425781 10.214844 126.464844 12.714844 L 127.042969 51.234375 C 127.152344 58.640625 123.246094 65.527344 116.832031 69.230469 L 38.125 114.671875 C 35.960938 115.921875 33.296875 115.933594 31.121094 114.699219 C 28.949219 113.464844 27.589844 111.171875 27.550781 108.675781 L 26.972656 70.15625 C 26.863281 62.75 30.769531 55.859375 37.183594 52.15625 Z M 37.183594 52.15625 "/></clipPath><clipPath id="ac3325f3b7"><rect x="0" width="154" y="0" height="121"/></clipPath><clipPath id="1d20bbecef"><path d="M 7 30 L 174 30 L 174 127 L 7 127 Z M 7 30 "/></clipPath><clipPath id="3bea6905de"><path d="M 4.992188 75.941406 L 130.976562 3.15625 L 175.984375 81.058594 L 50.003906 153.84375 Z M 4.992188 75.941406 "/></clipPath><clipPath id="124526b866"><path d="M 79.292969 33.015625 L 11.125 72.402344 C 8.988281 73.632812 7.675781 75.917969 7.683594 78.382812 C 7.691406 80.847656 9.019531 83.121094 11.160156 84.339844 L 80.886719 124.039062 C 87.347656 127.714844 95.273438 127.6875 101.707031 123.972656 L 169.875 84.585938 C 172.011719 83.351562 173.324219 81.070312 173.316406 78.605469 C 173.308594 76.136719 171.980469 73.863281 169.839844 72.644531 L 100.113281 32.949219 C 93.652344 29.273438 85.730469 29.296875 79.292969 33.015625 Z M 79.292969 33.015625 "/></clipPath><clipPath id="5225e571f4"><rect x="0" width="181" y="0" height="157"/></clipPath><clipPath id="4a79313090"><path d="M 7 16 L 80 16 L 80 61 L 7 61 Z M 7 16 "/></clipPath><clipPath id="deb2973ddc"><path d="M 4.582031 35.738281 L 60.5625 3.394531 L 82.324219 41.058594 L 26.339844 73.402344 Z M 4.582031 35.738281 "/></clipPath><clipPath id="e0c0a6d0b0"><path d="M 32.71875 19.675781 L 10.660156 32.421875 C 8.523438 33.65625 7.210938 35.9375 7.21875 38.402344 C 7.226562 40.867188 8.554688 43.140625 10.695312 44.363281 L 33.464844 57.324219 C 39.925781 61 47.847656 60.976562 54.285156 57.257812 L 76.339844 44.511719 C 78.476562 43.28125 79.789062 41 79.78125 38.53125 C 79.773438 36.066406 78.445312 33.792969 76.304688 32.574219 L 53.535156 19.609375 C 47.078125 15.933594 39.152344 15.960938 32.71875 19.675781 Z M 32.71875 19.675781 "/></clipPath><clipPath id="b6c799ce36"><rect x="0" width="87" y="0" height="76"/></clipPath><clipPath id="0547733910"><rect x="0" width="66" y="0" height="82"/></clipPath></defs><g id="d7af5b6797"><g clip-rule="nonzero" clip-path="url(#7a9fcee3bd)"><g clip-rule="nonzero" clip-path="url(#7524a266d1)"><path style=" stroke:none;fill-rule:nonzero;fill:url(#744b182a1d);" d="M 26.367188 8.089844 L 26.367188 366.90625 L 348.632812 366.90625 L 348.632812 8.089844 Z M 26.367188 8.089844 "/></g></g><g clip-rule="nonzero" clip-path="url(#ee91261e6f)"><g clip-rule="nonzero" clip-path="url(#d31f9ecf4e)"><path style="fill:none;stroke-width:50;stroke-linecap:butt;stroke-linejoin:miter;stroke:#d95a5a;stroke-opacity:1;stroke-miterlimit:4;" d="M 249.416663 20.114583 L 395.11458 104.885417 C 416.52083 117.338542 429.687497 140.234375 429.687497 165 L 429.687497 335.000001 C 429.687497 359.765626 416.52083 382.661459 395.11458 395.114584 L 249.416663 479.885417 C 228.046872 492.317709 201.640622 492.317709 180.27083 479.885417 L 34.572913 395.114584 C 13.166663 382.661459 -0.00000361141 359.765626 -0.00000361141 335.000001 L -0.00000361141 165 C -0.00000361141 140.234375 13.166663 117.338542 34.572913 104.885417 L 180.27083 20.114583 C 201.640622 7.682292 228.046872 7.682292 249.416663 20.114583 Z M 249.416663 20.114583 " transform="matrix(0.75,0,0,0.75,26.36719,-0.000000000000063949)"/></g></g><g mask="url(#76e3115e35)" transform="matrix(1,0,0,1,57,190)"><g clip-path="url(#9706f1f29f)"><g clip-rule="nonzero" clip-path="url(#6d58e03ad6)"><g clip-rule="nonzero" clip-path="url(#725e9a8119)"><g clip-rule="nonzero" clip-path="url(#d299fdb343)"><path style=" stroke:none;fill-rule:nonzero;fill:#d95a5a;fill-opacity:1;" d="M 27.652344 0.71875 L 153.546875 73.40625 L 126.304688 120.59375 L 0.410156 47.90625 Z M 27.652344 0.71875 "/></g></g></g></g><mask id="76e3115e35"><g filter="url(#69a5679959)"><rect x="0" width="375" y="0" height="374.999991" style="fill:#000000;fill-opacity:0.65;stroke:none;"/></g></mask></g><g mask="url(#666dd08ba7)" transform="matrix(1,0,0,1,164,190)"><g clip-path="url(#ac3325f3b7)"><g clip-rule="nonzero" clip-path="url(#c28bf8c9cb)"><g clip-rule="nonzero" clip-path="url(#aa77d2c492)"><g clip-rule="nonzero" clip-path="url(#b5df2652bd)"><path style=" stroke:none;fill-rule:nonzero;fill:#d95a5a;fill-opacity:1;" d="M 0.425781 73.378906 L 126.234375 0.746094 L 153.539062 48.039062 L 27.730469 120.671875 Z M 0.425781 73.378906 "/></g></g></g></g><mask id="666dd08ba7"><g filter="url(#69a5679959)"><rect x="0" width="375" y="0" height="374.999991" style="fill:#000000;fill-opacity:0.65;stroke:none;"/></g></mask></g><g mask="url(#6b8d7cbed0)" transform="matrix(1,0,0,1,97,110)"><g clip-path="url(#5225e571f4)"><g clip-rule="nonzero" clip-path="url(#1d20bbecef)"><g clip-rule="nonzero" clip-path="url(#3bea6905de)"><g clip-rule="nonzero" clip-path="url(#124526b866)"><path style=" stroke:none;fill-rule:nonzero;fill:#d95a5a;fill-opacity:1;" d="M 0.734375 78.402344 L 135.234375 0.695312 L 180.242188 78.59375 L 45.742188 156.304688 Z M 0.734375 78.402344 "/></g></g></g></g><mask id="6b8d7cbed0"><g filter="url(#69a5679959)"><rect x="0" width="375" y="0" height="374.999991" style="fill:#000000;fill-opacity:0.1;stroke:none;"/></g></mask></g><g mask="url(#0e1ce5acf0)" transform="matrix(1,0,0,1,144,177)"><g clip-path="url(#b6c799ce36)"><g clip-rule="nonzero" clip-path="url(#4a79313090)"><g clip-rule="nonzero" clip-path="url(#deb2973ddc)"><g clip-rule="nonzero" clip-path="url(#e0c0a6d0b0)"><path style=" stroke:none;fill-rule:nonzero;fill:#d95a5a;fill-opacity:1;" d="M 0.269531 38.425781 L 65.042969 1 L 86.71875 38.515625 L 21.945312 75.941406 Z M 0.269531 38.425781 "/></g></g></g></g><mask id="0e1ce5acf0"><g filter="url(#69a5679959)"><rect x="0" width="375" y="0" height="374.999991" style="fill:#000000;fill-opacity:0.2;stroke:none;"/></g></mask></g><g style="fill:#d95a5a;fill-opacity:1;"><g transform="translate(90.264505, 178.870446)"><path style="stroke:none" d="M 1.34375 0 L 8.75 -76.765625 L 34.765625 -76.765625 L 42.09375 0 L 27.515625 0 L 26.453125 -12.421875 L 17.15625 -12.421875 L 16.265625 0 Z M 18.3125 -24.65625 L 25.28125 -24.65625 L 21.890625 -63.71875 L 21.171875 -63.71875 Z M 18.3125 -24.65625 "/></g></g><g style="fill:#d95a5a;fill-opacity:1;"><g transform="translate(133.600543, 178.870446)"><path style="stroke:none" d="M 21.265625 0.71875 C 15.671875 0.71875 11.1875 -1.035156 7.8125 -4.546875 C 4.445312 -8.066406 2.765625 -12.894531 2.765625 -19.03125 L 2.765625 -54.421875 C 2.765625 -62.046875 4.285156 -67.789062 7.328125 -71.65625 C 10.367188 -75.53125 15.132812 -77.46875 21.625 -77.46875 C 27.28125 -77.46875 31.835938 -75.921875 35.296875 -72.828125 C 38.753906 -69.734375 40.484375 -65.265625 40.484375 -59.421875 L 40.484375 -46.203125 L 25.203125 -46.203125 L 25.203125 -57.546875 C 25.203125 -59.753906 24.929688 -61.273438 24.390625 -62.109375 C 23.859375 -62.941406 22.9375 -63.359375 21.625 -63.359375 C 20.25 -63.359375 19.304688 -62.878906 18.796875 -61.921875 C 18.296875 -60.972656 18.046875 -59.570312 18.046875 -57.71875 L 18.046875 -19.21875 C 18.046875 -17.1875 18.34375 -15.707031 18.9375 -14.78125 C 19.539062 -13.863281 20.4375 -13.40625 21.625 -13.40625 C 24.007812 -13.40625 25.203125 -15.34375 25.203125 -19.21875 L 25.203125 -33.0625 L 40.65625 -33.0625 L 40.65625 -18.59375 C 40.65625 -5.71875 34.191406 0.71875 21.265625 0.71875 Z M 21.265625 0.71875 "/></g></g><g style="fill:#d95a5a;fill-opacity:1;"><g transform="translate(175.953705, 178.870446)"><path style="stroke:none" d="M 3.390625 0 L 3.390625 -76.765625 L 34.140625 -76.765625 L 34.140625 -61.921875 L 19.03125 -61.921875 L 19.03125 -47 L 33.515625 -47 L 33.515625 -32.53125 L 19.03125 -32.53125 L 19.03125 -14.921875 L 35.125 -14.921875 L 35.125 0 Z M 3.390625 0 "/></g></g><g mask="url(#55b0465fec)" transform="matrix(1,0,0,1,218,116)"><g clip-path="url(#0547733910)"><g style="fill:#d95a5a;fill-opacity:1;"><g transform="translate(0.915205, 63.348908)"><path style="stroke:none" d="M 13.234375 0.4375 C 8.972656 0.4375 5.894531 -0.617188 4 -2.734375 C 2.101562 -4.847656 1.15625 -8.257812 1.15625 -12.96875 L 1.15625 -17.5625 L 10.390625 -17.5625 L 10.390625 -11.703125 C 10.390625 -9.367188 11.140625 -8.203125 12.640625 -8.203125 C 13.472656 -8.203125 14.050781 -8.445312 14.375 -8.9375 C 14.707031 -9.4375 14.875 -10.269531 14.875 -11.4375 C 14.875 -12.96875 14.691406 -14.234375 14.328125 -15.234375 C 13.960938 -16.234375 13.5 -17.070312 12.9375 -17.75 C 12.375 -18.425781 11.363281 -19.472656 9.90625 -20.890625 L 5.859375 -24.9375 C 2.722656 -28 1.15625 -31.390625 1.15625 -35.109375 C 1.15625 -39.117188 2.070312 -42.171875 3.90625 -44.265625 C 5.75 -46.367188 8.441406 -47.421875 11.984375 -47.421875 C 16.210938 -47.421875 19.253906 -46.296875 21.109375 -44.046875 C 22.972656 -41.804688 23.90625 -38.300781 23.90625 -33.53125 L 14.328125 -33.53125 L 14.28125 -36.75 C 14.28125 -37.375 14.101562 -37.867188 13.75 -38.234375 C 13.40625 -38.597656 12.925781 -38.78125 12.3125 -38.78125 C 11.582031 -38.78125 11.035156 -38.578125 10.671875 -38.171875 C 10.304688 -37.773438 10.125 -37.226562 10.125 -36.53125 C 10.125 -35 11 -33.414062 12.75 -31.78125 L 18.21875 -26.53125 C 19.488281 -25.289062 20.539062 -24.113281 21.375 -23 C 22.21875 -21.882812 22.894531 -20.570312 23.40625 -19.0625 C 23.914062 -17.550781 24.171875 -15.753906 24.171875 -13.671875 C 24.171875 -9.046875 23.320312 -5.535156 21.625 -3.140625 C 19.9375 -0.753906 17.140625 0.4375 13.234375 0.4375 Z M 13.234375 0.4375 "/></g></g><g style="fill:#d95a5a;fill-opacity:1;"><g transform="translate(26.123212, 63.348908)"><path style="stroke:none" d="M 1.640625 0 L 1.640625 -46.984375 L 10.71875 -46.984375 L 10.71875 0 Z M 1.640625 0 "/></g></g><g style="fill:#d95a5a;fill-opacity:1;"><g transform="translate(38.535833, 63.348908)"><path style="stroke:none" d="M 2.078125 -46.984375 L 15.046875 -46.984375 C 18.398438 -46.984375 20.914062 -46.050781 22.59375 -44.1875 C 24.269531 -42.332031 25.125 -39.582031 25.15625 -35.9375 L 25.265625 -13.953125 C 25.304688 -9.316406 24.503906 -5.832031 22.859375 -3.5 C 21.222656 -1.164062 18.507812 0 14.71875 0 L 2.078125 0 Z M 13.1875 -8.3125 C 14.894531 -8.3125 15.75 -9.148438 15.75 -10.828125 L 15.75 -35.0625 C 15.75 -36.113281 15.664062 -36.90625 15.5 -37.4375 C 15.34375 -37.96875 15.046875 -38.320312 14.609375 -38.5 C 14.171875 -38.6875 13.492188 -38.78125 12.578125 -38.78125 L 11.546875 -38.78125 L 11.546875 -8.3125 Z M 13.1875 -8.3125 "/></g></g></g><mask id="55b0465fec"><g filter="url(#69a5679959)"><rect x="0" width="375" y="0" height="374.999991" style="fill:#000000;fill-opacity:0.8;stroke:none;"/></g></mask></g></g></svg>