<svg xmlns="http://www.w3.org/2000/svg" xmlns:xlink="http://www.w3.org/1999/xlink" width="40" zoomAndPan="magnify" viewBox="0 0 30 30.000001" height="40" preserveAspectRatio="xMidYMid meet" version="1.2"><defs><clipPath id="4f30ae7817"><path d="M 2.523438 0.625 L 27.476562 0.625 L 27.476562 28.40625 L 2.523438 28.40625 Z M 2.523438 0.625 "/></clipPath><clipPath id="5e67ea64a0"><path d="M 17.007812 1.167969 L 25.46875 6.089844 C 26.710938 6.8125 27.476562 8.144531 27.476562 9.582031 L 27.476562 19.453125 C 27.476562 20.890625 26.710938 22.21875 25.46875 22.941406 L 17.007812 27.863281 C 15.765625 28.585938 14.234375 28.585938 12.992188 27.863281 L 4.53125 22.941406 C 3.289062 22.21875 2.523438 20.890625 2.523438 19.453125 L 2.523438 9.582031 C 2.523438 8.144531 3.289062 6.8125 4.53125 6.089844 L 12.992188 1.167969 C 14.234375 0.445312 15.765625 0.445312 17.007812 1.167969 Z M 17.007812 1.167969 "/></clipPath><linearGradient x1="-7.258985" gradientTransform="matrix(0.0974594,0,0,0.0974594,2.525201,-0.0000164516)" y1="13.687016" x2="263.258472" gradientUnits="userSpaceOnUse" y2="284.203482" id="39091d6a51"><stop style="stop-color:#ffffff;stop-opacity:1;" offset="0"/><stop style="stop-color:#ffffff;stop-opacity:1;" offset="0.015625"/><stop style="stop-color:#fffefe;stop-opacity:1;" offset="0.03125"/><stop style="stop-color:#fffdfd;stop-opacity:1;" offset="0.046875"/><stop style="stop-color:#fffcfc;stop-opacity:1;" offset="0.0625"/><stop style="stop-color:#fffbfb;stop-opacity:1;" offset="0.078125"/><stop style="stop-color:#fffbfb;stop-opacity:1;" offset="0.09375"/><stop style="stop-color:#fffafa;stop-opacity:1;" offset="0.109375"/><stop style="stop-color:#fff9f9;stop-opacity:1;" offset="0.125"/><stop style="stop-color:#fff8f8;stop-opacity:1;" offset="0.140625"/><stop style="stop-color:#fff7f7;stop-opacity:1;" offset="0.15625"/><stop style="stop-color:#fff7f7;stop-opacity:1;" offset="0.171875"/><stop style="stop-color:#fff6f6;stop-opacity:1;" offset="0.1875"/><stop style="stop-color:#fff5f5;stop-opacity:1;" offset="0.203125"/><stop style="stop-color:#fff4f4;stop-opacity:1;" offset="0.21875"/><stop style="stop-color:#fff3f3;stop-opacity:1;" offset="0.234375"/><stop style="stop-color:#fff3f3;stop-opacity:1;" offset="0.25"/><stop style="stop-color:#fff2f2;stop-opacity:1;" offset="0.265625"/><stop style="stop-color:#fff1f1;stop-opacity:1;" offset="0.28125"/><stop style="stop-color:#fff0f0;stop-opacity:1;" offset="0.296875"/><stop style="stop-color:#ffefef;stop-opacity:1;" offset="0.3125"/><stop style="stop-color:#ffefef;stop-opacity:1;" offset="0.328125"/><stop style="stop-color:#ffeeee;stop-opacity:1;" offset="0.34375"/><stop style="stop-color:#ffeded;stop-opacity:1;" offset="0.359375"/><stop style="stop-color:#ffecec;stop-opacity:1;" offset="0.375"/><stop style="stop-color:#ffebeb;stop-opacity:1;" offset="0.390625"/><stop style="stop-color:#ffebeb;stop-opacity:1;" offset="0.40625"/><stop style="stop-color:#ffeaea;stop-opacity:1;" offset="0.421875"/><stop style="stop-color:#ffe9e9;stop-opacity:1;" offset="0.4375"/><stop style="stop-color:#ffe8e8;stop-opacity:1;" offset="0.453125"/><stop style="stop-color:#ffe7e7;stop-opacity:1;" offset="0.46875"/><stop style="stop-color:#ffe7e7;stop-opacity:1;" offset="0.473169"/><stop style="stop-color:#ffe6e6;stop-opacity:1;" offset="0.484375"/><stop style="stop-color:#ffe6e6;stop-opacity:1;" offset="0.5"/><stop style="stop-color:#ffe5e5;stop-opacity:1;" offset="0.515625"/><stop style="stop-color:#ffe4e4;stop-opacity:1;" offset="0.526831"/><stop style="stop-color:#ffe4e4;stop-opacity:1;" offset="0.53125"/><stop style="stop-color:#ffe4e4;stop-opacity:1;" offset="0.546875"/><stop style="stop-color:#ffe3e3;stop-opacity:1;" offset="0.5625"/><stop style="stop-color:#ffe2e2;stop-opacity:1;" offset="0.578125"/><stop style="stop-color:#ffe1e1;stop-opacity:1;" offset="0.59375"/><stop style="stop-color:#ffe0e0;stop-opacity:1;" offset="0.609375"/><stop style="stop-color:#ffe0e0;stop-opacity:1;" offset="0.625"/><stop style="stop-color:#ffdfdf;stop-opacity:1;" offset="0.640625"/><stop style="stop-color:#ffdede;stop-opacity:1;" offset="0.65625"/><stop style="stop-color:#ffdddd;stop-opacity:1;" offset="0.671875"/><stop style="stop-color:#ffdcdc;stop-opacity:1;" offset="0.6875"/><stop style="stop-color:#ffdcdc;stop-opacity:1;" offset="0.703125"/><stop style="stop-color:#ffdbdb;stop-opacity:1;" offset="0.71875"/><stop style="stop-color:#ffdada;stop-opacity:1;" offset="0.734375"/><stop style="stop-color:#ffd9d9;stop-opacity:1;" offset="0.75"/><stop style="stop-color:#ffd8d8;stop-opacity:1;" offset="0.765625"/><stop style="stop-color:#ffd8d8;stop-opacity:1;" offset="0.78125"/><stop style="stop-color:#ffd7d7;stop-opacity:1;" offset="0.796875"/><stop style="stop-color:#ffd6d6;stop-opacity:1;" offset="0.8125"/><stop style="stop-color:#ffd5d5;stop-opacity:1;" offset="0.828125"/><stop style="stop-color:#ffd4d4;stop-opacity:1;" offset="0.84375"/><stop style="stop-color:#ffd4d4;stop-opacity:1;" offset="0.859375"/><stop style="stop-color:#ffd3d3;stop-opacity:1;" offset="0.875"/><stop style="stop-color:#ffd2d2;stop-opacity:1;" offset="0.890625"/><stop style="stop-color:#ffd1d1;stop-opacity:1;" offset="0.90625"/><stop style="stop-color:#ffd0d0;stop-opacity:1;" offset="0.921875"/><stop style="stop-color:#ffd0d0;stop-opacity:1;" offset="0.9375"/><stop style="stop-color:#ffcfcf;stop-opacity:1;" offset="0.953125"/><stop style="stop-color:#ffcece;stop-opacity:1;" offset="0.96875"/><stop style="stop-color:#ffcdcd;stop-opacity:1;" offset="0.984375"/><stop style="stop-color:#ffcccc;stop-opacity:1;" offset="1"/></linearGradient><clipPath id="4997a34d75"><path d="M 2.523438 0.449219 L 27.203125 0.449219 L 27.203125 28.265625 L 2.523438 28.265625 Z M 2.523438 0.449219 "/></clipPath><clipPath id="bba77efb43"><path d="M 16.847656 1.15625 L 25.21875 6.023438 C 26.445312 6.738281 27.203125 8.054688 27.203125 9.476562 L 27.203125 19.238281 C 27.203125 20.660156 26.445312 21.976562 25.21875 22.691406 L 16.847656 27.558594 C 15.621094 28.273438 14.105469 28.273438 12.878906 27.558594 L 4.511719 22.691406 C 3.28125 21.976562 2.523438 20.660156 2.523438 19.238281 L 2.523438 9.476562 C 2.523438 8.054688 3.28125 6.738281 4.511719 6.023438 L 12.878906 1.15625 C 14.105469 0.441406 15.621094 0.441406 16.847656 1.15625 Z M 16.847656 1.15625 "/></clipPath><filter x="0%" y="0%" width="100%" filterUnits="objectBoundingBox" id="fe2e36b62f" height="100%"><feColorMatrix values="0 0 0 0 1 0 0 0 0 1 0 0 0 0 1 0 0 0 1 0" type="matrix" in="SourceGraphic"/></filter><clipPath id="210dd18fc6"><path d="M 3 1 L 11 1 L 11 10 L 3 10 Z M 3 1 "/></clipPath><clipPath id="21acc63282"><path d="M 3.378906 0.960938 L 12.4375 6.195312 L 10.328125 9.847656 L 1.269531 4.617188 Z M 3.378906 0.960938 "/></clipPath><clipPath id="92770f7750"><path d="M 9.824219 4.6875 L 3.839844 1.230469 C 3.675781 1.132812 3.472656 1.132812 3.304688 1.230469 C 3.140625 1.328125 3.039062 1.503906 3.042969 1.695312 L 3.066406 4.730469 C 3.070312 5.304688 3.378906 5.835938 3.878906 6.125 L 9.867188 9.578125 C 10.03125 9.675781 10.234375 9.675781 10.398438 9.578125 C 10.5625 9.480469 10.664062 9.304688 10.664062 9.113281 L 10.636719 6.078125 C 10.632812 5.503906 10.324219 4.972656 9.824219 4.6875 Z M 9.824219 4.6875 "/></clipPath><clipPath id="e60029921b"><rect x="0" width="13" y="0" height="11"/></clipPath><clipPath id="3177af4b3e"><path d="M 2 1 L 11 1 L 11 10 L 2 10 Z M 2 1 "/></clipPath><clipPath id="6653a11ded"><path d="M 0.542969 6.199219 L 9.640625 0.949219 L 11.753906 4.609375 L 2.660156 9.859375 Z M 0.542969 6.199219 "/></clipPath><clipPath id="cc5abbf415"><path d="M 3.0625 4.746094 L 9.15625 1.230469 C 9.324219 1.132812 9.527344 1.132812 9.695312 1.226562 C 9.867188 1.324219 9.96875 1.5 9.972656 1.691406 L 10.019531 4.675781 C 10.027344 5.25 9.722656 5.78125 9.226562 6.070312 L 3.132812 9.585938 C 2.96875 9.683594 2.761719 9.683594 2.59375 9.589844 C 2.425781 9.492188 2.320312 9.316406 2.316406 9.121094 L 2.269531 6.140625 C 2.261719 5.566406 2.566406 5.035156 3.0625 4.746094 Z M 3.0625 4.746094 "/></clipPath><clipPath id="ed754fe18a"><rect x="0" width="13" y="0" height="11"/></clipPath><clipPath id="c971b44621"><path d="M 1 2 L 15 2 L 15 11 L 1 11 Z M 1 2 "/></clipPath><clipPath id="069a272870"><path d="M 1.378906 6.394531 L 11.132812 0.757812 L 14.617188 6.789062 L 4.863281 12.425781 Z M 1.378906 6.394531 "/></clipPath><clipPath id="b1504e832d"><path d="M 7.132812 3.070312 L 1.855469 6.121094 C 1.691406 6.214844 1.589844 6.390625 1.589844 6.582031 C 1.589844 6.773438 1.691406 6.949219 1.859375 7.042969 L 7.257812 10.117188 C 7.757812 10.402344 8.371094 10.398438 8.867188 10.113281 L 14.144531 7.0625 C 14.3125 6.96875 14.414062 6.789062 14.410156 6.601562 C 14.410156 6.410156 14.308594 6.234375 14.140625 6.136719 L 8.746094 3.066406 C 8.246094 2.78125 7.628906 2.78125 7.132812 3.070312 Z M 7.132812 3.070312 "/></clipPath><clipPath id="d6ef43d193"><rect x="0" width="16" y="0" height="13"/></clipPath><clipPath id="48cc84e520"><path d="M 1 2 L 7 2 L 7 6 L 1 6 Z M 1 2 "/></clipPath><clipPath id="d371bce358"><path d="M 0.988281 3.46875 L 5.324219 0.964844 L 7.007812 3.878906 L 2.671875 6.382812 Z M 0.988281 3.46875 "/></clipPath><clipPath id="bafaa3f214"><path d="M 3.167969 2.222656 L 1.460938 3.210938 C 1.292969 3.304688 1.191406 3.484375 1.191406 3.671875 C 1.195312 3.863281 1.296875 4.039062 1.460938 4.136719 L 3.226562 5.136719 C 3.726562 5.421875 4.339844 5.421875 4.835938 5.132812 L 6.542969 4.148438 C 6.710938 4.050781 6.8125 3.875 6.808594 3.683594 C 6.808594 3.492188 6.707031 3.316406 6.542969 3.222656 L 4.777344 2.21875 C 4.277344 1.933594 3.664062 1.9375 3.167969 2.222656 Z M 3.167969 2.222656 "/></clipPath><clipPath id="3e0f37149e"><rect x="0" width="8" y="0" height="7"/></clipPath><clipPath id="8b7604fb5d"><path d="M 0.207031 1 L 3 1 L 3 5 L 0.207031 5 Z M 0.207031 1 "/></clipPath><clipPath id="2827d07d7e"><path d="M 3 1 L 5.546875 1 L 5.546875 5 L 3 5 Z M 3 1 "/></clipPath><clipPath id="a6291eb163"><rect x="0" width="6" y="0" height="7"/></clipPath></defs><g id="ae9b27e83e"><g clip-rule="nonzero" clip-path="url(#4f30ae7817)"><g clip-rule="nonzero" clip-path="url(#5e67ea64a0)"><path style=" stroke:none;fill-rule:nonzero;fill:url(#39091d6a51);" d="M 2.523438 0.625 L 2.523438 28.40625 L 27.476562 28.40625 L 27.476562 0.625 Z M 2.523438 0.625 "/></g></g><g clip-rule="nonzero" clip-path="url(#4997a34d75)"><g clip-rule="nonzero" clip-path="url(#bba77efb43)"><path style="fill:none;stroke-width:4;stroke-linecap:butt;stroke-linejoin:miter;stroke:#d95a5a;stroke-opacity:1;stroke-miterlimit:4;" d="M 19.950805 1.610623 L 31.611519 8.390488 C 33.320089 9.386247 34.375702 11.219966 34.375702 13.200601 L 34.375702 26.798419 C 34.375702 28.779054 33.320089 30.612773 31.611519 31.608532 L 19.950805 38.388397 C 18.242236 39.384156 16.13101 39.384156 14.42244 38.388397 L 2.767167 31.608532 C 1.053156 30.612773 -0.00245667 28.779054 -0.00245667 26.798419 L -0.00245667 13.200601 C -0.00245667 11.219966 1.053156 9.386247 2.767167 8.390488 L 14.42244 1.610623 C 16.13101 0.614865 18.242236 0.614865 19.950805 1.610623 Z M 19.950805 1.610623 " transform="matrix(0.717889,0,0,0.717889,2.525201,0.00000193548)"/></g></g><g mask="url(#49254be958)" transform="matrix(1,0,0,1,4,14)"><g clip-path="url(#e60029921b)"><g clip-rule="nonzero" clip-path="url(#210dd18fc6)"><g clip-rule="nonzero" clip-path="url(#21acc63282)"><g clip-rule="nonzero" clip-path="url(#92770f7750)"><path style=" stroke:none;fill-rule:nonzero;fill:#d95a5a;fill-opacity:1;" d="M 3.035156 0.765625 L 12.78125 6.390625 L 10.671875 10.046875 L 0.925781 4.417969 Z M 3.035156 0.765625 "/></g></g></g></g><mask id="49254be958"><g filter="url(#fe2e36b62f)"><rect x="0" width="30" y="0" height="30.000001" style="fill:#000000;fill-opacity:0.65;stroke:none;"/></g></mask></g><g mask="url(#d4737dd98b)" transform="matrix(1,0,0,1,13,14)"><g clip-path="url(#ed754fe18a)"><g clip-rule="nonzero" clip-path="url(#3177af4b3e)"><g clip-rule="nonzero" clip-path="url(#6653a11ded)"><g clip-rule="nonzero" clip-path="url(#cc5abbf415)"><path style=" stroke:none;fill-rule:nonzero;fill:#d95a5a;fill-opacity:1;" d="M 0.214844 6.390625 L 9.957031 0.765625 L 12.070312 4.429688 L 2.328125 10.050781 Z M 0.214844 6.390625 "/></g></g></g></g><mask id="d4737dd98b"><g filter="url(#fe2e36b62f)"><rect x="0" width="30" y="0" height="30.000001" style="fill:#000000;fill-opacity:0.65;stroke:none;"/></g></mask></g><g mask="url(#9f4bb0ad1c)" transform="matrix(1,0,0,1,7,8)"><g clip-path="url(#d6ef43d193)"><g clip-rule="nonzero" clip-path="url(#c971b44621)"><g clip-rule="nonzero" clip-path="url(#069a272870)"><g clip-rule="nonzero" clip-path="url(#b1504e832d)"><path style=" stroke:none;fill-rule:nonzero;fill:#d95a5a;fill-opacity:1;" d="M 1.050781 6.585938 L 11.464844 0.566406 L 14.949219 6.597656 L 4.535156 12.617188 Z M 1.050781 6.585938 "/></g></g></g></g><mask id="9f4bb0ad1c"><g filter="url(#fe2e36b62f)"><rect x="0" width="30" y="0" height="30.000001" style="fill:#000000;fill-opacity:0.1;stroke:none;"/></g></mask></g><g mask="url(#bd180db8f0)" transform="matrix(1,0,0,1,11,13)"><g clip-path="url(#3e0f37149e)"><g clip-rule="nonzero" clip-path="url(#48cc84e520)"><g clip-rule="nonzero" clip-path="url(#d371bce358)"><g clip-rule="nonzero" clip-path="url(#bafaa3f214)"><path style=" stroke:none;fill-rule:nonzero;fill:#d95a5a;fill-opacity:1;" d="M 0.65625 3.675781 L 5.667969 0.777344 L 7.347656 3.683594 L 2.332031 6.578125 Z M 0.65625 3.675781 "/></g></g></g></g><mask id="bd180db8f0"><g filter="url(#fe2e36b62f)"><rect x="0" width="30" y="0" height="30.000001" style="fill:#000000;fill-opacity:0.2;stroke:none;"/></g></mask></g><g style="fill:#d95a5a;fill-opacity:1;"><g transform="translate(7.47209, 13.848038)"><path style="stroke:none" d="M 0.109375 0 L 0.671875 -5.953125 L 2.6875 -5.953125 L 3.265625 0 L 2.125 0 L 2.046875 -0.96875 L 1.328125 -0.96875 L 1.265625 0 Z M 1.421875 -1.90625 L 1.953125 -1.90625 L 1.703125 -4.9375 L 1.640625 -4.9375 Z M 1.421875 -1.90625 "/></g></g><g style="fill:#d95a5a;fill-opacity:1;"><g transform="translate(10.827139, 13.848038)"><path style="stroke:none" d="M 1.640625 0.0625 C 1.210938 0.0625 0.867188 -0.0703125 0.609375 -0.34375 C 0.347656 -0.625 0.21875 -1 0.21875 -1.46875 L 0.21875 -4.21875 C 0.21875 -4.800781 0.332031 -5.242188 0.5625 -5.546875 C 0.800781 -5.847656 1.171875 -6 1.671875 -6 C 2.109375 -6 2.460938 -5.878906 2.734375 -5.640625 C 3.003906 -5.398438 3.140625 -5.054688 3.140625 -4.609375 L 3.140625 -3.578125 L 1.953125 -3.578125 L 1.953125 -4.453125 C 1.953125 -4.628906 1.929688 -4.75 1.890625 -4.8125 C 1.847656 -4.875 1.773438 -4.90625 1.671875 -4.90625 C 1.566406 -4.90625 1.492188 -4.867188 1.453125 -4.796875 C 1.410156 -4.722656 1.390625 -4.613281 1.390625 -4.46875 L 1.390625 -1.484375 C 1.390625 -1.328125 1.410156 -1.210938 1.453125 -1.140625 C 1.503906 -1.066406 1.578125 -1.03125 1.671875 -1.03125 C 1.859375 -1.03125 1.953125 -1.179688 1.953125 -1.484375 L 1.953125 -2.5625 L 3.15625 -2.5625 L 3.15625 -1.4375 C 3.15625 -0.4375 2.648438 0.0625 1.640625 0.0625 Z M 1.640625 0.0625 "/></g></g><g style="fill:#d95a5a;fill-opacity:1;"><g transform="translate(14.106094, 13.848038)"><path style="stroke:none" d="M 0.265625 0 L 0.265625 -5.953125 L 2.640625 -5.953125 L 2.640625 -4.796875 L 1.46875 -4.796875 L 1.46875 -3.640625 L 2.59375 -3.640625 L 2.59375 -2.515625 L 1.46875 -2.515625 L 1.46875 -1.15625 L 2.71875 -1.15625 L 2.71875 0 Z M 0.265625 0 "/></g></g><g mask="url(#d67a2c2282)" transform="matrix(1,0,0,1,17,9)"><g clip-path="url(#a6291eb163)"><g clip-rule="nonzero" clip-path="url(#8b7604fb5d)"><g style="fill:#d95a5a;fill-opacity:1;"><g transform="translate(0.432146, 4.88508)"><path style="stroke:none" d="M 1.03125 0.03125 C 0.695312 0.03125 0.457031 -0.046875 0.3125 -0.203125 C 0.164062 -0.367188 0.09375 -0.632812 0.09375 -1 L 0.09375 -1.359375 L 0.796875 -1.359375 L 0.796875 -0.90625 C 0.796875 -0.726562 0.859375 -0.640625 0.984375 -0.640625 C 1.046875 -0.640625 1.085938 -0.65625 1.109375 -0.6875 C 1.140625 -0.726562 1.15625 -0.796875 1.15625 -0.890625 C 1.15625 -1.003906 1.140625 -1.097656 1.109375 -1.171875 C 1.078125 -1.253906 1.039062 -1.320312 1 -1.375 C 0.957031 -1.425781 0.878906 -1.507812 0.765625 -1.625 L 0.453125 -1.9375 C 0.210938 -2.164062 0.09375 -2.425781 0.09375 -2.71875 C 0.09375 -3.03125 0.160156 -3.265625 0.296875 -3.421875 C 0.441406 -3.585938 0.648438 -3.671875 0.921875 -3.671875 C 1.253906 -3.671875 1.488281 -3.582031 1.625 -3.40625 C 1.769531 -3.238281 1.84375 -2.96875 1.84375 -2.59375 L 1.109375 -2.59375 L 1.109375 -2.84375 C 1.109375 -2.894531 1.09375 -2.929688 1.0625 -2.953125 C 1.039062 -2.984375 1.003906 -3 0.953125 -3 C 0.898438 -3 0.859375 -2.984375 0.828125 -2.953125 C 0.796875 -2.921875 0.78125 -2.878906 0.78125 -2.828125 C 0.78125 -2.710938 0.847656 -2.585938 0.984375 -2.453125 L 1.40625 -2.046875 C 1.507812 -1.953125 1.59375 -1.863281 1.65625 -1.78125 C 1.71875 -1.695312 1.769531 -1.59375 1.8125 -1.46875 C 1.851562 -1.351562 1.875 -1.21875 1.875 -1.0625 C 1.875 -0.695312 1.804688 -0.421875 1.671875 -0.234375 C 1.546875 -0.0546875 1.332031 0.03125 1.03125 0.03125 Z M 1.03125 0.03125 "/></g></g></g><g style="fill:#d95a5a;fill-opacity:1;"><g transform="translate(2.383733, 4.88508)"><path style="stroke:none" d="M 0.125 0 L 0.125 -3.640625 L 0.828125 -3.640625 L 0.828125 0 Z M 0.125 0 "/></g></g><g clip-rule="nonzero" clip-path="url(#2827d07d7e)"><g style="fill:#d95a5a;fill-opacity:1;"><g transform="translate(3.344711, 4.88508)"><path style="stroke:none" d="M 0.15625 -3.640625 L 1.171875 -3.640625 C 1.421875 -3.640625 1.609375 -3.566406 1.734375 -3.421875 C 1.867188 -3.273438 1.941406 -3.0625 1.953125 -2.78125 L 1.953125 -1.078125 C 1.953125 -0.722656 1.890625 -0.453125 1.765625 -0.265625 C 1.640625 -0.0859375 1.429688 0 1.140625 0 L 0.15625 0 Z M 1.015625 -0.640625 C 1.148438 -0.640625 1.21875 -0.707031 1.21875 -0.84375 L 1.21875 -2.71875 C 1.21875 -2.800781 1.210938 -2.859375 1.203125 -2.890625 C 1.191406 -2.929688 1.164062 -2.957031 1.125 -2.96875 C 1.09375 -2.988281 1.039062 -3 0.96875 -3 L 0.890625 -3 L 0.890625 -0.640625 Z M 1.015625 -0.640625 "/></g></g></g></g><mask id="d67a2c2282"><g filter="url(#fe2e36b62f)"><rect x="0" width="30" y="0" height="30.000001" style="fill:#000000;fill-opacity:0.8;stroke:none;"/></g></mask></g></g></svg>