<svg xmlns="http://www.w3.org/2000/svg" xmlns:xlink="http://www.w3.org/1999/xlink" width="40" zoomAndPan="magnify" viewBox="0 0 30 30.000001" height="40" preserveAspectRatio="xMidYMid meet" version="1.2"><defs><clipPath id="0248b06e68"><path d="M 2.523438 0.625 L 27.476562 0.625 L 27.476562 28.40625 L 2.523438 28.40625 Z M 2.523438 0.625 "/></clipPath><clipPath id="82b5cd4620"><path d="M 17.007812 1.167969 L 25.46875 6.089844 C 26.710938 6.8125 27.476562 8.144531 27.476562 9.582031 L 27.476562 19.453125 C 27.476562 20.890625 26.710938 22.21875 25.46875 22.941406 L 17.007812 27.863281 C 15.765625 28.585938 14.234375 28.585938 12.992188 27.863281 L 4.53125 22.941406 C 3.289062 22.21875 2.523438 20.890625 2.523438 19.453125 L 2.523438 9.582031 C 2.523438 8.144531 3.289062 6.8125 4.53125 6.089844 L 12.992188 1.167969 C 14.234375 0.445312 15.765625 0.445312 17.007812 1.167969 Z M 17.007812 1.167969 "/></clipPath><linearGradient x1="-7.258985" gradientTransform="matrix(0.0974594,0,0,0.0974594,2.525201,-0.0000164516)" y1="13.687016" x2="263.258472" gradientUnits="userSpaceOnUse" y2="284.203482" id="4f31ebd312"><stop style="stop-color:#ffffff;stop-opacity:1;" offset="0"/><stop style="stop-color:#ffffff;stop-opacity:1;" offset="0.015625"/><stop style="stop-color:#fefeff;stop-opacity:1;" offset="0.03125"/><stop style="stop-color:#fdfdff;stop-opacity:1;" offset="0.046875"/><stop style="stop-color:#fcfcff;stop-opacity:1;" offset="0.0625"/><stop style="stop-color:#fbfbff;stop-opacity:1;" offset="0.078125"/><stop style="stop-color:#fbfaff;stop-opacity:1;" offset="0.09375"/><stop style="stop-color:#faf9ff;stop-opacity:1;" offset="0.109375"/><stop style="stop-color:#f9f8ff;stop-opacity:1;" offset="0.125"/><stop style="stop-color:#f8f7ff;stop-opacity:1;" offset="0.140625"/><stop style="stop-color:#f7f6ff;stop-opacity:1;" offset="0.15625"/><stop style="stop-color:#f6f5ff;stop-opacity:1;" offset="0.171875"/><stop style="stop-color:#f6f4ff;stop-opacity:1;" offset="0.1875"/><stop style="stop-color:#f5f3ff;stop-opacity:1;" offset="0.203125"/><stop style="stop-color:#f4f2ff;stop-opacity:1;" offset="0.21875"/><stop style="stop-color:#f3f1ff;stop-opacity:1;" offset="0.234375"/><stop style="stop-color:#f2f0ff;stop-opacity:1;" offset="0.25"/><stop style="stop-color:#f2f0ff;stop-opacity:1;" offset="0.265625"/><stop style="stop-color:#f1efff;stop-opacity:1;" offset="0.28125"/><stop style="stop-color:#f0eeff;stop-opacity:1;" offset="0.296875"/><stop style="stop-color:#efedff;stop-opacity:1;" offset="0.3125"/><stop style="stop-color:#eeecff;stop-opacity:1;" offset="0.328125"/><stop style="stop-color:#eeebff;stop-opacity:1;" offset="0.34375"/><stop style="stop-color:#edeaff;stop-opacity:1;" offset="0.359375"/><stop style="stop-color:#ece9ff;stop-opacity:1;" offset="0.375"/><stop style="stop-color:#ebe8ff;stop-opacity:1;" offset="0.390625"/><stop style="stop-color:#eae7ff;stop-opacity:1;" offset="0.40625"/><stop style="stop-color:#e9e6ff;stop-opacity:1;" offset="0.421875"/><stop style="stop-color:#e9e5ff;stop-opacity:1;" offset="0.4375"/><stop style="stop-color:#e8e4ff;stop-opacity:1;" offset="0.453125"/><stop style="stop-color:#e7e3ff;stop-opacity:1;" offset="0.46875"/><stop style="stop-color:#e6e2ff;stop-opacity:1;" offset="0.473169"/><stop style="stop-color:#e6e2ff;stop-opacity:1;" offset="0.484375"/><stop style="stop-color:#e5e2ff;stop-opacity:1;" offset="0.5"/><stop style="stop-color:#e5e1ff;stop-opacity:1;" offset="0.515625"/><stop style="stop-color:#e4e0ff;stop-opacity:1;" offset="0.526831"/><stop style="stop-color:#e3dfff;stop-opacity:1;" offset="0.53125"/><stop style="stop-color:#e3dfff;stop-opacity:1;" offset="0.546875"/><stop style="stop-color:#e2deff;stop-opacity:1;" offset="0.5625"/><stop style="stop-color:#e1ddff;stop-opacity:1;" offset="0.578125"/><stop style="stop-color:#e1dcff;stop-opacity:1;" offset="0.59375"/><stop style="stop-color:#e0dbff;stop-opacity:1;" offset="0.609375"/><stop style="stop-color:#dfdaff;stop-opacity:1;" offset="0.625"/><stop style="stop-color:#ded9ff;stop-opacity:1;" offset="0.640625"/><stop style="stop-color:#ddd8ff;stop-opacity:1;" offset="0.65625"/><stop style="stop-color:#dcd7ff;stop-opacity:1;" offset="0.671875"/><stop style="stop-color:#dcd6ff;stop-opacity:1;" offset="0.6875"/><stop style="stop-color:#dbd5ff;stop-opacity:1;" offset="0.703125"/><stop style="stop-color:#dad4ff;stop-opacity:1;" offset="0.71875"/><stop style="stop-color:#d9d3ff;stop-opacity:1;" offset="0.734375"/><stop style="stop-color:#d8d3ff;stop-opacity:1;" offset="0.75"/><stop style="stop-color:#d8d2ff;stop-opacity:1;" offset="0.765625"/><stop style="stop-color:#d7d1ff;stop-opacity:1;" offset="0.78125"/><stop style="stop-color:#d6d0ff;stop-opacity:1;" offset="0.796875"/><stop style="stop-color:#d5cfff;stop-opacity:1;" offset="0.8125"/><stop style="stop-color:#d4ceff;stop-opacity:1;" offset="0.828125"/><stop style="stop-color:#d4cdff;stop-opacity:1;" offset="0.84375"/><stop style="stop-color:#d3ccff;stop-opacity:1;" offset="0.859375"/><stop style="stop-color:#d2cbff;stop-opacity:1;" offset="0.875"/><stop style="stop-color:#d1caff;stop-opacity:1;" offset="0.890625"/><stop style="stop-color:#d0c9ff;stop-opacity:1;" offset="0.90625"/><stop style="stop-color:#cfc8ff;stop-opacity:1;" offset="0.921875"/><stop style="stop-color:#cfc7ff;stop-opacity:1;" offset="0.9375"/><stop style="stop-color:#cec6ff;stop-opacity:1;" offset="0.953125"/><stop style="stop-color:#cdc5ff;stop-opacity:1;" offset="0.96875"/><stop style="stop-color:#ccc4ff;stop-opacity:1;" offset="0.984375"/><stop style="stop-color:#cbc4ff;stop-opacity:1;" offset="1"/></linearGradient><clipPath id="9fc0315487"><path d="M 2.523438 0.449219 L 27.203125 0.449219 L 27.203125 28.265625 L 2.523438 28.265625 Z M 2.523438 0.449219 "/></clipPath><clipPath id="a45df5813b"><path d="M 16.847656 1.15625 L 25.21875 6.023438 C 26.445312 6.738281 27.203125 8.054688 27.203125 9.476562 L 27.203125 19.238281 C 27.203125 20.660156 26.445312 21.976562 25.21875 22.691406 L 16.847656 27.558594 C 15.621094 28.273438 14.105469 28.273438 12.878906 27.558594 L 4.511719 22.691406 C 3.28125 21.976562 2.523438 20.660156 2.523438 19.238281 L 2.523438 9.476562 C 2.523438 8.054688 3.28125 6.738281 4.511719 6.023438 L 12.878906 1.15625 C 14.105469 0.441406 15.621094 0.441406 16.847656 1.15625 Z M 16.847656 1.15625 "/></clipPath><filter x="0%" y="0%" width="100%" filterUnits="objectBoundingBox" id="7a5d09811a" height="100%"><feColorMatrix values="0 0 0 0 1 0 0 0 0 1 0 0 0 0 1 0 0 0 1 0" type="matrix" in="SourceGraphic"/></filter><clipPath id="109d19a585"><path d="M 3 1 L 11 1 L 11 10 L 3 10 Z M 3 1 "/></clipPath><clipPath id="929fec390d"><path d="M 3.378906 0.960938 L 12.4375 6.195312 L 10.328125 9.847656 L 1.269531 4.617188 Z M 3.378906 0.960938 "/></clipPath><clipPath id="498fb91324"><path d="M 9.824219 4.6875 L 3.839844 1.230469 C 3.675781 1.132812 3.472656 1.132812 3.304688 1.230469 C 3.140625 1.328125 3.039062 1.503906 3.042969 1.695312 L 3.066406 4.730469 C 3.070312 5.304688 3.378906 5.835938 3.878906 6.125 L 9.867188 9.578125 C 10.03125 9.675781 10.234375 9.675781 10.398438 9.578125 C 10.5625 9.480469 10.664062 9.304688 10.664062 9.113281 L 10.636719 6.078125 C 10.632812 5.503906 10.324219 4.972656 9.824219 4.6875 Z M 9.824219 4.6875 "/></clipPath><clipPath id="4eeb0e09e1"><rect x="0" width="13" y="0" height="11"/></clipPath><clipPath id="e839ff7b18"><path d="M 2 1 L 11 1 L 11 10 L 2 10 Z M 2 1 "/></clipPath><clipPath id="6d8c2688b9"><path d="M 0.542969 6.199219 L 9.640625 0.949219 L 11.753906 4.609375 L 2.660156 9.859375 Z M 0.542969 6.199219 "/></clipPath><clipPath id="7ef0d5ee25"><path d="M 3.0625 4.746094 L 9.15625 1.230469 C 9.324219 1.132812 9.527344 1.132812 9.695312 1.226562 C 9.867188 1.324219 9.96875 1.5 9.972656 1.691406 L 10.019531 4.675781 C 10.027344 5.25 9.722656 5.78125 9.226562 6.070312 L 3.132812 9.585938 C 2.96875 9.683594 2.761719 9.683594 2.59375 9.589844 C 2.425781 9.492188 2.320312 9.316406 2.316406 9.121094 L 2.269531 6.140625 C 2.261719 5.566406 2.566406 5.035156 3.0625 4.746094 Z M 3.0625 4.746094 "/></clipPath><clipPath id="e5dd7a7edc"><rect x="0" width="13" y="0" height="11"/></clipPath><clipPath id="e87a3b9c31"><path d="M 1 2 L 15 2 L 15 11 L 1 11 Z M 1 2 "/></clipPath><clipPath id="98a5e88c2f"><path d="M 1.378906 6.394531 L 11.132812 0.757812 L 14.617188 6.789062 L 4.863281 12.425781 Z M 1.378906 6.394531 "/></clipPath><clipPath id="498763e81f"><path d="M 7.132812 3.070312 L 1.855469 6.121094 C 1.691406 6.214844 1.589844 6.390625 1.589844 6.582031 C 1.589844 6.773438 1.691406 6.949219 1.859375 7.042969 L 7.257812 10.117188 C 7.757812 10.402344 8.371094 10.398438 8.867188 10.113281 L 14.144531 7.0625 C 14.3125 6.96875 14.414062 6.789062 14.410156 6.601562 C 14.410156 6.410156 14.308594 6.234375 14.140625 6.136719 L 8.746094 3.066406 C 8.246094 2.78125 7.628906 2.78125 7.132812 3.070312 Z M 7.132812 3.070312 "/></clipPath><clipPath id="5c0d6a6c8d"><rect x="0" width="16" y="0" height="13"/></clipPath><clipPath id="d30d1e30be"><path d="M 1 2 L 7 2 L 7 6 L 1 6 Z M 1 2 "/></clipPath><clipPath id="c084252ff2"><path d="M 0.988281 3.46875 L 5.324219 0.964844 L 7.007812 3.878906 L 2.671875 6.382812 Z M 0.988281 3.46875 "/></clipPath><clipPath id="da97a28679"><path d="M 3.167969 2.222656 L 1.460938 3.210938 C 1.292969 3.304688 1.191406 3.484375 1.191406 3.671875 C 1.195312 3.863281 1.296875 4.039062 1.460938 4.136719 L 3.226562 5.136719 C 3.726562 5.421875 4.339844 5.421875 4.835938 5.132812 L 6.542969 4.148438 C 6.710938 4.050781 6.8125 3.875 6.808594 3.683594 C 6.808594 3.492188 6.707031 3.316406 6.542969 3.222656 L 4.777344 2.21875 C 4.277344 1.933594 3.664062 1.9375 3.167969 2.222656 Z M 3.167969 2.222656 "/></clipPath><clipPath id="4ce64657b0"><rect x="0" width="8" y="0" height="7"/></clipPath><clipPath id="b5fb6bf030"><path d="M 0.136719 1 L 2 1 L 2 6 L 0.136719 6 Z M 0.136719 1 "/></clipPath><clipPath id="a5b6629bdf"><path d="M 2 1 L 4.546875 1 L 4.546875 6 L 2 6 Z M 2 1 "/></clipPath><clipPath id="13b108d7ed"><rect x="0" width="5" y="0" height="8"/></clipPath></defs><g id="f7d807dd73"><g clip-rule="nonzero" clip-path="url(#0248b06e68)"><g clip-rule="nonzero" clip-path="url(#82b5cd4620)"><path style=" stroke:none;fill-rule:nonzero;fill:url(#4f31ebd312);" d="M 2.523438 0.625 L 2.523438 28.40625 L 27.476562 28.40625 L 27.476562 0.625 Z M 2.523438 0.625 "/></g></g><g clip-rule="nonzero" clip-path="url(#9fc0315487)"><g clip-rule="nonzero" clip-path="url(#a45df5813b)"><path style="fill:none;stroke-width:4;stroke-linecap:butt;stroke-linejoin:miter;stroke:#7859e0;stroke-opacity:1;stroke-miterlimit:4;" d="M 19.950805 1.610623 L 31.611519 8.390488 C 33.320089 9.386247 34.375702 11.219966 34.375702 13.200601 L 34.375702 26.798419 C 34.375702 28.779054 33.320089 30.612773 31.611519 31.608532 L 19.950805 38.388397 C 18.242236 39.384156 16.13101 39.384156 14.42244 38.388397 L 2.767167 31.608532 C 1.053156 30.612773 -0.00245667 28.779054 -0.00245667 26.798419 L -0.00245667 13.200601 C -0.00245667 11.219966 1.053156 9.386247 2.767167 8.390488 L 14.42244 1.610623 C 16.13101 0.614865 18.242236 0.614865 19.950805 1.610623 Z M 19.950805 1.610623 " transform="matrix(0.717889,0,0,0.717889,2.525201,0.00000193548)"/></g></g><g mask="url(#3e3f71905d)" transform="matrix(1,0,0,1,4,14)"><g clip-path="url(#4eeb0e09e1)"><g clip-rule="nonzero" clip-path="url(#109d19a585)"><g clip-rule="nonzero" clip-path="url(#929fec390d)"><g clip-rule="nonzero" clip-path="url(#498fb91324)"><path style=" stroke:none;fill-rule:nonzero;fill:#7859e0;fill-opacity:1;" d="M 3.035156 0.765625 L 12.78125 6.390625 L 10.671875 10.046875 L 0.925781 4.417969 Z M 3.035156 0.765625 "/></g></g></g></g><mask id="3e3f71905d"><g filter="url(#7a5d09811a)"><rect x="0" width="30" y="0" height="30.000001" style="fill:#000000;fill-opacity:0.65;stroke:none;"/></g></mask></g><g mask="url(#07d48e8093)" transform="matrix(1,0,0,1,13,14)"><g clip-path="url(#e5dd7a7edc)"><g clip-rule="nonzero" clip-path="url(#e839ff7b18)"><g clip-rule="nonzero" clip-path="url(#6d8c2688b9)"><g clip-rule="nonzero" clip-path="url(#7ef0d5ee25)"><path style=" stroke:none;fill-rule:nonzero;fill:#7859e0;fill-opacity:1;" d="M 0.214844 6.390625 L 9.957031 0.765625 L 12.070312 4.429688 L 2.328125 10.050781 Z M 0.214844 6.390625 "/></g></g></g></g><mask id="07d48e8093"><g filter="url(#7a5d09811a)"><rect x="0" width="30" y="0" height="30.000001" style="fill:#000000;fill-opacity:0.65;stroke:none;"/></g></mask></g><g mask="url(#79cbcec91c)" transform="matrix(1,0,0,1,7,8)"><g clip-path="url(#5c0d6a6c8d)"><g clip-rule="nonzero" clip-path="url(#e87a3b9c31)"><g clip-rule="nonzero" clip-path="url(#98a5e88c2f)"><g clip-rule="nonzero" clip-path="url(#498763e81f)"><path style=" stroke:none;fill-rule:nonzero;fill:#7859e0;fill-opacity:1;" d="M 1.050781 6.585938 L 11.464844 0.566406 L 14.949219 6.597656 L 4.535156 12.617188 Z M 1.050781 6.585938 "/></g></g></g></g><mask id="79cbcec91c"><g filter="url(#7a5d09811a)"><rect x="0" width="30" y="0" height="30.000001" style="fill:#000000;fill-opacity:0.1;stroke:none;"/></g></mask></g><g mask="url(#10d8bc62b2)" transform="matrix(1,0,0,1,11,13)"><g clip-path="url(#4ce64657b0)"><g clip-rule="nonzero" clip-path="url(#d30d1e30be)"><g clip-rule="nonzero" clip-path="url(#c084252ff2)"><g clip-rule="nonzero" clip-path="url(#da97a28679)"><path style=" stroke:none;fill-rule:nonzero;fill:#7859e0;fill-opacity:1;" d="M 0.65625 3.675781 L 5.667969 0.777344 L 7.347656 3.683594 L 2.332031 6.578125 Z M 0.65625 3.675781 "/></g></g></g></g><mask id="10d8bc62b2"><g filter="url(#7a5d09811a)"><rect x="0" width="30" y="0" height="30.000001" style="fill:#000000;fill-opacity:0.2;stroke:none;"/></g></mask></g><g style="fill:#7859e0;fill-opacity:1;"><g transform="translate(7.47209, 13.848038)"><path style="stroke:none" d="M 0.109375 0 L 0.671875 -5.953125 L 2.6875 -5.953125 L 3.265625 0 L 2.125 0 L 2.046875 -0.96875 L 1.328125 -0.96875 L 1.265625 0 Z M 1.421875 -1.90625 L 1.953125 -1.90625 L 1.703125 -4.9375 L 1.640625 -4.9375 Z M 1.421875 -1.90625 "/></g></g><g style="fill:#7859e0;fill-opacity:1;"><g transform="translate(10.827139, 13.848038)"><path style="stroke:none" d="M 1.640625 0.0625 C 1.210938 0.0625 0.867188 -0.0703125 0.609375 -0.34375 C 0.347656 -0.625 0.21875 -1 0.21875 -1.46875 L 0.21875 -4.21875 C 0.21875 -4.800781 0.332031 -5.242188 0.5625 -5.546875 C 0.800781 -5.847656 1.171875 -6 1.671875 -6 C 2.109375 -6 2.460938 -5.878906 2.734375 -5.640625 C 3.003906 -5.398438 3.140625 -5.054688 3.140625 -4.609375 L 3.140625 -3.578125 L 1.953125 -3.578125 L 1.953125 -4.453125 C 1.953125 -4.628906 1.929688 -4.75 1.890625 -4.8125 C 1.847656 -4.875 1.773438 -4.90625 1.671875 -4.90625 C 1.566406 -4.90625 1.492188 -4.867188 1.453125 -4.796875 C 1.410156 -4.722656 1.390625 -4.613281 1.390625 -4.46875 L 1.390625 -1.484375 C 1.390625 -1.328125 1.410156 -1.210938 1.453125 -1.140625 C 1.503906 -1.066406 1.578125 -1.03125 1.671875 -1.03125 C 1.859375 -1.03125 1.953125 -1.179688 1.953125 -1.484375 L 1.953125 -2.5625 L 3.15625 -2.5625 L 3.15625 -1.4375 C 3.15625 -0.4375 2.648438 0.0625 1.640625 0.0625 Z M 1.640625 0.0625 "/></g></g><g style="fill:#7859e0;fill-opacity:1;"><g transform="translate(14.106094, 13.848038)"><path style="stroke:none" d="M 0.265625 0 L 0.265625 -5.953125 L 2.640625 -5.953125 L 2.640625 -4.796875 L 1.46875 -4.796875 L 1.46875 -3.640625 L 2.59375 -3.640625 L 2.59375 -2.515625 L 1.46875 -2.515625 L 1.46875 -1.15625 L 2.71875 -1.15625 L 2.71875 0 Z M 0.265625 0 "/></g></g><g mask="url(#ecbfbcb206)" transform="matrix(1,0,0,1,18,8)"><g clip-path="url(#13b108d7ed)"><g clip-rule="nonzero" clip-path="url(#b5fb6bf030)"><g style="fill:#7859e0;fill-opacity:1;"><g transform="translate(0.305933, 5.811935)"><path style="stroke:none" d="M 0.578125 -3.25 C 0.523438 -3.175781 0.445312 -3.117188 0.34375 -3.078125 C 0.25 -3.035156 0.15625 -3.015625 0.0625 -3.015625 L 0.0625 -3.6875 C 0.207031 -3.707031 0.347656 -3.765625 0.484375 -3.859375 C 0.628906 -3.953125 0.734375 -4.070312 0.796875 -4.21875 L 1.46875 -4.21875 L 1.46875 0 L 0.578125 0 Z M 0.578125 -3.25 "/></g></g></g><g clip-rule="nonzero" clip-path="url(#a5b6629bdf)"><g style="fill:#7859e0;fill-opacity:1;"><g transform="translate(1.930842, 5.811935)"><path style="stroke:none" d="M 1.15625 0.046875 C 0.789062 0.046875 0.519531 -0.046875 0.34375 -0.234375 C 0.175781 -0.429688 0.09375 -0.734375 0.09375 -1.140625 L 0.09375 -1.578125 L 0.953125 -1.578125 L 0.953125 -1.140625 C 0.953125 -1.003906 0.96875 -0.898438 1 -0.828125 C 1.039062 -0.765625 1.109375 -0.734375 1.203125 -0.734375 C 1.273438 -0.734375 1.320312 -0.753906 1.34375 -0.796875 C 1.375 -0.847656 1.394531 -0.90625 1.40625 -0.96875 C 1.414062 -1.039062 1.421875 -1.140625 1.421875 -1.265625 L 1.421875 -1.375 C 1.421875 -1.738281 1.300781 -1.921875 1.0625 -1.921875 C 1.019531 -1.921875 0.988281 -1.914062 0.96875 -1.90625 L 0.96875 -2.671875 C 1.125 -2.671875 1.238281 -2.703125 1.3125 -2.765625 C 1.382812 -2.835938 1.421875 -2.945312 1.421875 -3.09375 C 1.421875 -3.332031 1.351562 -3.453125 1.21875 -3.453125 C 1.132812 -3.453125 1.078125 -3.429688 1.046875 -3.390625 C 1.023438 -3.347656 1.007812 -3.289062 1 -3.21875 C 1 -3.15625 0.992188 -3.109375 0.984375 -3.078125 L 0.984375 -2.953125 L 0.125 -2.953125 L 0.109375 -3.09375 C 0.117188 -3.476562 0.210938 -3.757812 0.390625 -3.9375 C 0.566406 -4.125 0.84375 -4.21875 1.21875 -4.21875 C 1.9375 -4.21875 2.296875 -3.84375 2.296875 -3.09375 C 2.296875 -2.875 2.265625 -2.703125 2.203125 -2.578125 C 2.140625 -2.453125 2.039062 -2.363281 1.90625 -2.3125 C 2.019531 -2.25 2.101562 -2.171875 2.15625 -2.078125 C 2.21875 -1.992188 2.253906 -1.890625 2.265625 -1.765625 C 2.285156 -1.640625 2.296875 -1.472656 2.296875 -1.265625 C 2.296875 -0.835938 2.203125 -0.507812 2.015625 -0.28125 C 1.835938 -0.0625 1.550781 0.046875 1.15625 0.046875 Z M 1.15625 0.046875 "/></g></g></g></g><mask id="ecbfbcb206"><g filter="url(#7a5d09811a)"><rect x="0" width="30" y="0" height="30.000001" style="fill:#000000;fill-opacity:0.8;stroke:none;"/></g></mask></g></g></svg>