<svg xmlns="http://www.w3.org/2000/svg" xmlns:xlink="http://www.w3.org/1999/xlink" width="40" zoomAndPan="magnify" viewBox="0 0 30 30.000001" height="40" preserveAspectRatio="xMidYMid meet" version="1.2"><defs><clipPath id="2fb66d0bb7"><path d="M 2.523438 0.625 L 27.476562 0.625 L 27.476562 28.40625 L 2.523438 28.40625 Z M 2.523438 0.625 "/></clipPath><clipPath id="5a5116020f"><path d="M 17.007812 1.167969 L 25.46875 6.089844 C 26.710938 6.8125 27.476562 8.144531 27.476562 9.582031 L 27.476562 19.453125 C 27.476562 20.890625 26.710938 22.21875 25.46875 22.941406 L 17.007812 27.863281 C 15.765625 28.585938 14.234375 28.585938 12.992188 27.863281 L 4.53125 22.941406 C 3.289062 22.21875 2.523438 20.890625 2.523438 19.453125 L 2.523438 9.582031 C 2.523438 8.144531 3.289062 6.8125 4.53125 6.089844 L 12.992188 1.167969 C 14.234375 0.445312 15.765625 0.445312 17.007812 1.167969 Z M 17.007812 1.167969 "/></clipPath><linearGradient x1="-7.258985" gradientTransform="matrix(0.0974594,0,0,0.0974594,2.525201,-0.0000164516)" y1="13.687016" x2="263.258472" gradientUnits="userSpaceOnUse" y2="284.203482" id="2f8219488e"><stop style="stop-color:#ffffff;stop-opacity:1;" offset="0"/><stop style="stop-color:#ffffff;stop-opacity:1;" offset="0.0078125"/><stop style="stop-color:#fffffe;stop-opacity:1;" offset="0.015625"/><stop style="stop-color:#fffefe;stop-opacity:1;" offset="0.0234375"/><stop style="stop-color:#fffefd;stop-opacity:1;" offset="0.03125"/><stop style="stop-color:#fffefc;stop-opacity:1;" offset="0.0390625"/><stop style="stop-color:#fffefc;stop-opacity:1;" offset="0.046875"/><stop style="stop-color:#fffefb;stop-opacity:1;" offset="0.0546875"/><stop style="stop-color:#fffdfb;stop-opacity:1;" offset="0.0625"/><stop style="stop-color:#fffdfa;stop-opacity:1;" offset="0.0703125"/><stop style="stop-color:#fffdfa;stop-opacity:1;" offset="0.078125"/><stop style="stop-color:#fffdf9;stop-opacity:1;" offset="0.0859375"/><stop style="stop-color:#fffcf8;stop-opacity:1;" offset="0.09375"/><stop style="stop-color:#fffcf8;stop-opacity:1;" offset="0.101562"/><stop style="stop-color:#fffcf7;stop-opacity:1;" offset="0.109375"/><stop style="stop-color:#fffcf7;stop-opacity:1;" offset="0.117188"/><stop style="stop-color:#fffbf6;stop-opacity:1;" offset="0.125"/><stop style="stop-color:#fffbf6;stop-opacity:1;" offset="0.132812"/><stop style="stop-color:#fffbf5;stop-opacity:1;" offset="0.140625"/><stop style="stop-color:#fffbf4;stop-opacity:1;" offset="0.148438"/><stop style="stop-color:#fffbf4;stop-opacity:1;" offset="0.15625"/><stop style="stop-color:#fffaf3;stop-opacity:1;" offset="0.164062"/><stop style="stop-color:#fefaf3;stop-opacity:1;" offset="0.171875"/><stop style="stop-color:#fefaf2;stop-opacity:1;" offset="0.179688"/><stop style="stop-color:#fefaf2;stop-opacity:1;" offset="0.1875"/><stop style="stop-color:#fef9f1;stop-opacity:1;" offset="0.195312"/><stop style="stop-color:#fef9f0;stop-opacity:1;" offset="0.203125"/><stop style="stop-color:#fef9f0;stop-opacity:1;" offset="0.210938"/><stop style="stop-color:#fef9ef;stop-opacity:1;" offset="0.21875"/><stop style="stop-color:#fef9ef;stop-opacity:1;" offset="0.226562"/><stop style="stop-color:#fef8ee;stop-opacity:1;" offset="0.234375"/><stop style="stop-color:#fef8ee;stop-opacity:1;" offset="0.242188"/><stop style="stop-color:#fef8ed;stop-opacity:1;" offset="0.25"/><stop style="stop-color:#fef8ec;stop-opacity:1;" offset="0.257812"/><stop style="stop-color:#fef7ec;stop-opacity:1;" offset="0.265625"/><stop style="stop-color:#fef7eb;stop-opacity:1;" offset="0.273438"/><stop style="stop-color:#fef7eb;stop-opacity:1;" offset="0.28125"/><stop style="stop-color:#fef7ea;stop-opacity:1;" offset="0.289062"/><stop style="stop-color:#fef6ea;stop-opacity:1;" offset="0.296875"/><stop style="stop-color:#fef6e9;stop-opacity:1;" offset="0.304687"/><stop style="stop-color:#fef6e8;stop-opacity:1;" offset="0.3125"/><stop style="stop-color:#fef6e8;stop-opacity:1;" offset="0.320312"/><stop style="stop-color:#fef6e7;stop-opacity:1;" offset="0.328125"/><stop style="stop-color:#fef5e7;stop-opacity:1;" offset="0.335938"/><stop style="stop-color:#fef5e6;stop-opacity:1;" offset="0.34375"/><stop style="stop-color:#fef5e6;stop-opacity:1;" offset="0.351562"/><stop style="stop-color:#fef5e5;stop-opacity:1;" offset="0.359375"/><stop style="stop-color:#fef4e5;stop-opacity:1;" offset="0.367187"/><stop style="stop-color:#fef4e4;stop-opacity:1;" offset="0.375"/><stop style="stop-color:#fef4e3;stop-opacity:1;" offset="0.382812"/><stop style="stop-color:#fef4e3;stop-opacity:1;" offset="0.390625"/><stop style="stop-color:#fef4e2;stop-opacity:1;" offset="0.398437"/><stop style="stop-color:#fef3e2;stop-opacity:1;" offset="0.40625"/><stop style="stop-color:#fef3e1;stop-opacity:1;" offset="0.414062"/><stop style="stop-color:#fef3e1;stop-opacity:1;" offset="0.421875"/><stop style="stop-color:#fef3e0;stop-opacity:1;" offset="0.429687"/><stop style="stop-color:#fef2df;stop-opacity:1;" offset="0.4375"/><stop style="stop-color:#fef2df;stop-opacity:1;" offset="0.445312"/><stop style="stop-color:#fef2de;stop-opacity:1;" offset="0.453125"/><stop style="stop-color:#fef2de;stop-opacity:1;" offset="0.460937"/><stop style="stop-color:#fef1dd;stop-opacity:1;" offset="0.46875"/><stop style="stop-color:#fef1dd;stop-opacity:1;" offset="0.473169"/><stop style="stop-color:#fef1dc;stop-opacity:1;" offset="0.476562"/><stop style="stop-color:#fef1dc;stop-opacity:1;" offset="0.484375"/><stop style="stop-color:#fef1db;stop-opacity:1;" offset="0.492187"/><stop style="stop-color:#fdf1db;stop-opacity:1;" offset="0.5"/><stop style="stop-color:#fdf0da;stop-opacity:1;" offset="0.507812"/><stop style="stop-color:#fdf0da;stop-opacity:1;" offset="0.515625"/><stop style="stop-color:#fdf0d9;stop-opacity:1;" offset="0.523438"/><stop style="stop-color:#fdf0d9;stop-opacity:1;" offset="0.526831"/><stop style="stop-color:#fdf0d8;stop-opacity:1;" offset="0.53125"/><stop style="stop-color:#fdefd8;stop-opacity:1;" offset="0.539062"/><stop style="stop-color:#fdefd7;stop-opacity:1;" offset="0.546875"/><stop style="stop-color:#fdefd7;stop-opacity:1;" offset="0.554688"/><stop style="stop-color:#fdefd6;stop-opacity:1;" offset="0.5625"/><stop style="stop-color:#fdefd6;stop-opacity:1;" offset="0.570313"/><stop style="stop-color:#fdeed5;stop-opacity:1;" offset="0.578125"/><stop style="stop-color:#fdeed5;stop-opacity:1;" offset="0.585938"/><stop style="stop-color:#fdeed4;stop-opacity:1;" offset="0.59375"/><stop style="stop-color:#fdeed3;stop-opacity:1;" offset="0.601563"/><stop style="stop-color:#fdedd3;stop-opacity:1;" offset="0.609375"/><stop style="stop-color:#fdedd2;stop-opacity:1;" offset="0.617188"/><stop style="stop-color:#fdedd2;stop-opacity:1;" offset="0.625"/><stop style="stop-color:#fdedd1;stop-opacity:1;" offset="0.632812"/><stop style="stop-color:#fdecd1;stop-opacity:1;" offset="0.640625"/><stop style="stop-color:#fdecd0;stop-opacity:1;" offset="0.648438"/><stop style="stop-color:#fdeccf;stop-opacity:1;" offset="0.65625"/><stop style="stop-color:#fdeccf;stop-opacity:1;" offset="0.664062"/><stop style="stop-color:#fdecce;stop-opacity:1;" offset="0.671875"/><stop style="stop-color:#fdebce;stop-opacity:1;" offset="0.679687"/><stop style="stop-color:#fdebcd;stop-opacity:1;" offset="0.6875"/><stop style="stop-color:#fdebcd;stop-opacity:1;" offset="0.695313"/><stop style="stop-color:#fdebcc;stop-opacity:1;" offset="0.703125"/><stop style="stop-color:#fdeacb;stop-opacity:1;" offset="0.710938"/><stop style="stop-color:#fdeacb;stop-opacity:1;" offset="0.71875"/><stop style="stop-color:#fdeaca;stop-opacity:1;" offset="0.726563"/><stop style="stop-color:#fdeaca;stop-opacity:1;" offset="0.734375"/><stop style="stop-color:#fdeac9;stop-opacity:1;" offset="0.742188"/><stop style="stop-color:#fde9c9;stop-opacity:1;" offset="0.75"/><stop style="stop-color:#fde9c8;stop-opacity:1;" offset="0.757812"/><stop style="stop-color:#fde9c7;stop-opacity:1;" offset="0.765625"/><stop style="stop-color:#fde9c7;stop-opacity:1;" offset="0.773438"/><stop style="stop-color:#fde8c6;stop-opacity:1;" offset="0.78125"/><stop style="stop-color:#fde8c6;stop-opacity:1;" offset="0.789062"/><stop style="stop-color:#fde8c5;stop-opacity:1;" offset="0.796875"/><stop style="stop-color:#fde8c5;stop-opacity:1;" offset="0.804687"/><stop style="stop-color:#fde7c4;stop-opacity:1;" offset="0.8125"/><stop style="stop-color:#fce7c3;stop-opacity:1;" offset="0.820313"/><stop style="stop-color:#fce7c3;stop-opacity:1;" offset="0.828125"/><stop style="stop-color:#fce7c2;stop-opacity:1;" offset="0.835938"/><stop style="stop-color:#fce7c2;stop-opacity:1;" offset="0.84375"/><stop style="stop-color:#fce6c1;stop-opacity:1;" offset="0.851563"/><stop style="stop-color:#fce6c1;stop-opacity:1;" offset="0.859375"/><stop style="stop-color:#fce6c0;stop-opacity:1;" offset="0.867188"/><stop style="stop-color:#fce6bf;stop-opacity:1;" offset="0.875"/><stop style="stop-color:#fce5bf;stop-opacity:1;" offset="0.882812"/><stop style="stop-color:#fce5be;stop-opacity:1;" offset="0.890625"/><stop style="stop-color:#fce5be;stop-opacity:1;" offset="0.898438"/><stop style="stop-color:#fce5bd;stop-opacity:1;" offset="0.90625"/><stop style="stop-color:#fce5bd;stop-opacity:1;" offset="0.914062"/><stop style="stop-color:#fce4bc;stop-opacity:1;" offset="0.921875"/><stop style="stop-color:#fce4bb;stop-opacity:1;" offset="0.929687"/><stop style="stop-color:#fce4bb;stop-opacity:1;" offset="0.9375"/><stop style="stop-color:#fce4ba;stop-opacity:1;" offset="0.945313"/><stop style="stop-color:#fce3ba;stop-opacity:1;" offset="0.953125"/><stop style="stop-color:#fce3b9;stop-opacity:1;" offset="0.960938"/><stop style="stop-color:#fce3b9;stop-opacity:1;" offset="0.96875"/><stop style="stop-color:#fce3b8;stop-opacity:1;" offset="0.976562"/><stop style="stop-color:#fce2b7;stop-opacity:1;" offset="0.984375"/><stop style="stop-color:#fce2b7;stop-opacity:1;" offset="0.992188"/><stop style="stop-color:#fce2b6;stop-opacity:1;" offset="1"/></linearGradient><clipPath id="942900cfa0"><path d="M 2.523438 0.449219 L 27.203125 0.449219 L 27.203125 28.265625 L 2.523438 28.265625 Z M 2.523438 0.449219 "/></clipPath><clipPath id="6e608fe6d8"><path d="M 16.847656 1.15625 L 25.21875 6.023438 C 26.445312 6.738281 27.203125 8.054688 27.203125 9.476562 L 27.203125 19.238281 C 27.203125 20.660156 26.445312 21.976562 25.21875 22.691406 L 16.847656 27.558594 C 15.621094 28.273438 14.105469 28.273438 12.878906 27.558594 L 4.511719 22.691406 C 3.28125 21.976562 2.523438 20.660156 2.523438 19.238281 L 2.523438 9.476562 C 2.523438 8.054688 3.28125 6.738281 4.511719 6.023438 L 12.878906 1.15625 C 14.105469 0.441406 15.621094 0.441406 16.847656 1.15625 Z M 16.847656 1.15625 "/></clipPath><filter x="0%" y="0%" width="100%" filterUnits="objectBoundingBox" id="e407651198" height="100%"><feColorMatrix values="0 0 0 0 1 0 0 0 0 1 0 0 0 0 1 0 0 0 1 0" type="matrix" in="SourceGraphic"/></filter><clipPath id="42ff92bb74"><path d="M 3 1 L 11 1 L 11 10 L 3 10 Z M 3 1 "/></clipPath><clipPath id="faba9e865d"><path d="M 3.378906 0.960938 L 12.4375 6.195312 L 10.328125 9.847656 L 1.269531 4.617188 Z M 3.378906 0.960938 "/></clipPath><clipPath id="0930f8409b"><path d="M 9.824219 4.6875 L 3.839844 1.230469 C 3.675781 1.132812 3.472656 1.132812 3.304688 1.230469 C 3.140625 1.328125 3.039062 1.503906 3.042969 1.695312 L 3.066406 4.730469 C 3.070312 5.304688 3.378906 5.835938 3.878906 6.125 L 9.867188 9.578125 C 10.03125 9.675781 10.234375 9.675781 10.398438 9.578125 C 10.5625 9.480469 10.664062 9.304688 10.664062 9.113281 L 10.636719 6.078125 C 10.632812 5.503906 10.324219 4.972656 9.824219 4.6875 Z M 9.824219 4.6875 "/></clipPath><clipPath id="d8573db16c"><rect x="0" width="13" y="0" height="11"/></clipPath><clipPath id="8be1d08374"><path d="M 2 1 L 11 1 L 11 10 L 2 10 Z M 2 1 "/></clipPath><clipPath id="a8b354a68e"><path d="M 0.542969 6.199219 L 9.640625 0.949219 L 11.753906 4.609375 L 2.660156 9.859375 Z M 0.542969 6.199219 "/></clipPath><clipPath id="3f27778738"><path d="M 3.0625 4.746094 L 9.15625 1.230469 C 9.324219 1.132812 9.527344 1.132812 9.695312 1.226562 C 9.867188 1.324219 9.96875 1.5 9.972656 1.691406 L 10.019531 4.675781 C 10.027344 5.25 9.722656 5.78125 9.226562 6.070312 L 3.132812 9.585938 C 2.96875 9.683594 2.761719 9.683594 2.59375 9.589844 C 2.425781 9.492188 2.320312 9.316406 2.316406 9.121094 L 2.269531 6.140625 C 2.261719 5.566406 2.566406 5.035156 3.0625 4.746094 Z M 3.0625 4.746094 "/></clipPath><clipPath id="bf3d4a4f02"><rect x="0" width="13" y="0" height="11"/></clipPath><clipPath id="622131e336"><path d="M 1 2 L 15 2 L 15 11 L 1 11 Z M 1 2 "/></clipPath><clipPath id="c96c9f7cb0"><path d="M 1.378906 6.394531 L 11.132812 0.757812 L 14.617188 6.789062 L 4.863281 12.425781 Z M 1.378906 6.394531 "/></clipPath><clipPath id="b4367b5997"><path d="M 7.132812 3.070312 L 1.855469 6.121094 C 1.691406 6.214844 1.589844 6.390625 1.589844 6.582031 C 1.589844 6.773438 1.691406 6.949219 1.859375 7.042969 L 7.257812 10.117188 C 7.757812 10.402344 8.371094 10.398438 8.867188 10.113281 L 14.144531 7.0625 C 14.3125 6.96875 14.414062 6.789062 14.410156 6.601562 C 14.410156 6.410156 14.308594 6.234375 14.140625 6.136719 L 8.746094 3.066406 C 8.246094 2.78125 7.628906 2.78125 7.132812 3.070312 Z M 7.132812 3.070312 "/></clipPath><clipPath id="6317ebfb47"><rect x="0" width="16" y="0" height="13"/></clipPath><clipPath id="0192c4f794"><path d="M 1 2 L 7 2 L 7 6 L 1 6 Z M 1 2 "/></clipPath><clipPath id="04a2b2eb85"><path d="M 0.988281 3.46875 L 5.324219 0.964844 L 7.007812 3.878906 L 2.671875 6.382812 Z M 0.988281 3.46875 "/></clipPath><clipPath id="d850e6cdff"><path d="M 3.167969 2.222656 L 1.460938 3.210938 C 1.292969 3.304688 1.191406 3.484375 1.191406 3.671875 C 1.195312 3.863281 1.296875 4.039062 1.460938 4.136719 L 3.226562 5.136719 C 3.726562 5.421875 4.339844 5.421875 4.835938 5.132812 L 6.542969 4.148438 C 6.710938 4.050781 6.8125 3.875 6.808594 3.683594 C 6.808594 3.492188 6.707031 3.316406 6.542969 3.222656 L 4.777344 2.21875 C 4.277344 1.933594 3.664062 1.9375 3.167969 2.222656 Z M 3.167969 2.222656 "/></clipPath><clipPath id="82e5c68ed0"><rect x="0" width="8" y="0" height="7"/></clipPath><clipPath id="6a3c0321fd"><path d="M 0.136719 1 L 2 1 L 2 6 L 0.136719 6 Z M 0.136719 1 "/></clipPath><clipPath id="0ba12fbb03"><path d="M 2 1 L 4.546875 1 L 4.546875 6 L 2 6 Z M 2 1 "/></clipPath><clipPath id="17b6ea47aa"><rect x="0" width="5" y="0" height="8"/></clipPath></defs><g id="8f343d9905"><g clip-rule="nonzero" clip-path="url(#2fb66d0bb7)"><g clip-rule="nonzero" clip-path="url(#5a5116020f)"><path style=" stroke:none;fill-rule:nonzero;fill:url(#2f8219488e);" d="M 2.523438 0.625 L 2.523438 28.40625 L 27.476562 28.40625 L 27.476562 0.625 Z M 2.523438 0.625 "/></g></g><g clip-rule="nonzero" clip-path="url(#942900cfa0)"><g clip-rule="nonzero" clip-path="url(#6e608fe6d8)"><path style="fill:none;stroke-width:4;stroke-linecap:butt;stroke-linejoin:miter;stroke:#c57d04;stroke-opacity:1;stroke-miterlimit:4;" d="M 19.950805 1.610623 L 31.611519 8.390488 C 33.320089 9.386247 34.375702 11.219966 34.375702 13.200601 L 34.375702 26.798419 C 34.375702 28.779054 33.320089 30.612773 31.611519 31.608532 L 19.950805 38.388397 C 18.242236 39.384156 16.13101 39.384156 14.42244 38.388397 L 2.767167 31.608532 C 1.053156 30.612773 -0.00245667 28.779054 -0.00245667 26.798419 L -0.00245667 13.200601 C -0.00245667 11.219966 1.053156 9.386247 2.767167 8.390488 L 14.42244 1.610623 C 16.13101 0.614865 18.242236 0.614865 19.950805 1.610623 Z M 19.950805 1.610623 " transform="matrix(0.717889,0,0,0.717889,2.525201,0.00000193548)"/></g></g><g mask="url(#b260893e34)" transform="matrix(1,0,0,1,4,14)"><g clip-path="url(#d8573db16c)"><g clip-rule="nonzero" clip-path="url(#42ff92bb74)"><g clip-rule="nonzero" clip-path="url(#faba9e865d)"><g clip-rule="nonzero" clip-path="url(#0930f8409b)"><path style=" stroke:none;fill-rule:nonzero;fill:#c57d04;fill-opacity:1;" d="M 3.035156 0.765625 L 12.78125 6.390625 L 10.671875 10.046875 L 0.925781 4.417969 Z M 3.035156 0.765625 "/></g></g></g></g><mask id="b260893e34"><g filter="url(#e407651198)"><rect x="0" width="30" y="0" height="30.000001" style="fill:#000000;fill-opacity:0.65;stroke:none;"/></g></mask></g><g mask="url(#52ed47cc2f)" transform="matrix(1,0,0,1,13,14)"><g clip-path="url(#bf3d4a4f02)"><g clip-rule="nonzero" clip-path="url(#8be1d08374)"><g clip-rule="nonzero" clip-path="url(#a8b354a68e)"><g clip-rule="nonzero" clip-path="url(#3f27778738)"><path style=" stroke:none;fill-rule:nonzero;fill:#c57d04;fill-opacity:1;" d="M 0.214844 6.390625 L 9.957031 0.765625 L 12.070312 4.429688 L 2.328125 10.050781 Z M 0.214844 6.390625 "/></g></g></g></g><mask id="52ed47cc2f"><g filter="url(#e407651198)"><rect x="0" width="30" y="0" height="30.000001" style="fill:#000000;fill-opacity:0.65;stroke:none;"/></g></mask></g><g mask="url(#21cb0fd457)" transform="matrix(1,0,0,1,7,8)"><g clip-path="url(#6317ebfb47)"><g clip-rule="nonzero" clip-path="url(#622131e336)"><g clip-rule="nonzero" clip-path="url(#c96c9f7cb0)"><g clip-rule="nonzero" clip-path="url(#b4367b5997)"><path style=" stroke:none;fill-rule:nonzero;fill:#c57d04;fill-opacity:1;" d="M 1.050781 6.585938 L 11.464844 0.566406 L 14.949219 6.597656 L 4.535156 12.617188 Z M 1.050781 6.585938 "/></g></g></g></g><mask id="21cb0fd457"><g filter="url(#e407651198)"><rect x="0" width="30" y="0" height="30.000001" style="fill:#000000;fill-opacity:0.1;stroke:none;"/></g></mask></g><g mask="url(#bc8a7a8ae9)" transform="matrix(1,0,0,1,11,13)"><g clip-path="url(#82e5c68ed0)"><g clip-rule="nonzero" clip-path="url(#0192c4f794)"><g clip-rule="nonzero" clip-path="url(#04a2b2eb85)"><g clip-rule="nonzero" clip-path="url(#d850e6cdff)"><path style=" stroke:none;fill-rule:nonzero;fill:#c57d04;fill-opacity:1;" d="M 0.65625 3.675781 L 5.667969 0.777344 L 7.347656 3.683594 L 2.332031 6.578125 Z M 0.65625 3.675781 "/></g></g></g></g><mask id="bc8a7a8ae9"><g filter="url(#e407651198)"><rect x="0" width="30" y="0" height="30.000001" style="fill:#000000;fill-opacity:0.2;stroke:none;"/></g></mask></g><g style="fill:#c57d04;fill-opacity:1;"><g transform="translate(7.47209, 13.848038)"><path style="stroke:none" d="M 0.109375 0 L 0.671875 -5.953125 L 2.6875 -5.953125 L 3.265625 0 L 2.125 0 L 2.046875 -0.96875 L 1.328125 -0.96875 L 1.265625 0 Z M 1.421875 -1.90625 L 1.953125 -1.90625 L 1.703125 -4.9375 L 1.640625 -4.9375 Z M 1.421875 -1.90625 "/></g></g><g style="fill:#c57d04;fill-opacity:1;"><g transform="translate(10.827139, 13.848038)"><path style="stroke:none" d="M 1.640625 0.0625 C 1.210938 0.0625 0.867188 -0.0703125 0.609375 -0.34375 C 0.347656 -0.625 0.21875 -1 0.21875 -1.46875 L 0.21875 -4.21875 C 0.21875 -4.800781 0.332031 -5.242188 0.5625 -5.546875 C 0.800781 -5.847656 1.171875 -6 1.671875 -6 C 2.109375 -6 2.460938 -5.878906 2.734375 -5.640625 C 3.003906 -5.398438 3.140625 -5.054688 3.140625 -4.609375 L 3.140625 -3.578125 L 1.953125 -3.578125 L 1.953125 -4.453125 C 1.953125 -4.628906 1.929688 -4.75 1.890625 -4.8125 C 1.847656 -4.875 1.773438 -4.90625 1.671875 -4.90625 C 1.566406 -4.90625 1.492188 -4.867188 1.453125 -4.796875 C 1.410156 -4.722656 1.390625 -4.613281 1.390625 -4.46875 L 1.390625 -1.484375 C 1.390625 -1.328125 1.410156 -1.210938 1.453125 -1.140625 C 1.503906 -1.066406 1.578125 -1.03125 1.671875 -1.03125 C 1.859375 -1.03125 1.953125 -1.179688 1.953125 -1.484375 L 1.953125 -2.5625 L 3.15625 -2.5625 L 3.15625 -1.4375 C 3.15625 -0.4375 2.648438 0.0625 1.640625 0.0625 Z M 1.640625 0.0625 "/></g></g><g style="fill:#c57d04;fill-opacity:1;"><g transform="translate(14.106094, 13.848038)"><path style="stroke:none" d="M 0.265625 0 L 0.265625 -5.953125 L 2.640625 -5.953125 L 2.640625 -4.796875 L 1.46875 -4.796875 L 1.46875 -3.640625 L 2.59375 -3.640625 L 2.59375 -2.515625 L 1.46875 -2.515625 L 1.46875 -1.15625 L 2.71875 -1.15625 L 2.71875 0 Z M 0.265625 0 "/></g></g><g mask="url(#839e6910d4)" transform="matrix(1,0,0,1,18,8)"><g clip-path="url(#17b6ea47aa)"><g clip-rule="nonzero" clip-path="url(#6a3c0321fd)"><g style="fill:#c57d04;fill-opacity:1;"><g transform="translate(0.305933, 5.811935)"><path style="stroke:none" d="M 0.578125 -3.25 C 0.523438 -3.175781 0.445312 -3.117188 0.34375 -3.078125 C 0.25 -3.035156 0.15625 -3.015625 0.0625 -3.015625 L 0.0625 -3.6875 C 0.207031 -3.707031 0.347656 -3.765625 0.484375 -3.859375 C 0.628906 -3.953125 0.734375 -4.070312 0.796875 -4.21875 L 1.46875 -4.21875 L 1.46875 0 L 0.578125 0 Z M 0.578125 -3.25 "/></g></g></g><g clip-rule="nonzero" clip-path="url(#0ba12fbb03)"><g style="fill:#c57d04;fill-opacity:1;"><g transform="translate(1.930842, 5.811935)"><path style="stroke:none" d="M 0.140625 -0.203125 C 0.140625 -0.390625 0.171875 -0.566406 0.234375 -0.734375 C 0.296875 -0.898438 0.367188 -1.046875 0.453125 -1.171875 C 0.546875 -1.304688 0.664062 -1.460938 0.8125 -1.640625 C 0.957031 -1.816406 1.070312 -1.96875 1.15625 -2.09375 C 1.25 -2.226562 1.320312 -2.378906 1.375 -2.546875 C 1.4375 -2.710938 1.46875 -2.890625 1.46875 -3.078125 C 1.46875 -3.191406 1.453125 -3.28125 1.421875 -3.34375 C 1.390625 -3.40625 1.332031 -3.4375 1.25 -3.4375 C 1.101562 -3.4375 1.03125 -3.3125 1.03125 -3.0625 L 1.03125 -2.546875 L 0.140625 -2.546875 L 0.140625 -2.8125 C 0.140625 -3.132812 0.171875 -3.394531 0.234375 -3.59375 C 0.296875 -3.800781 0.410156 -3.957031 0.578125 -4.0625 C 0.742188 -4.175781 0.96875 -4.234375 1.25 -4.234375 C 1.601562 -4.234375 1.875 -4.132812 2.0625 -3.9375 C 2.257812 -3.738281 2.359375 -3.457031 2.359375 -3.09375 C 2.359375 -2.863281 2.328125 -2.65625 2.265625 -2.46875 C 2.203125 -2.28125 2.125 -2.113281 2.03125 -1.96875 C 1.9375 -1.832031 1.8125 -1.671875 1.65625 -1.484375 C 1.550781 -1.347656 1.460938 -1.226562 1.390625 -1.125 C 1.316406 -1.019531 1.25 -0.910156 1.1875 -0.796875 L 2.328125 -0.796875 L 2.328125 0 L 0.140625 0 Z M 0.140625 -0.203125 "/></g></g></g></g><mask id="839e6910d4"><g filter="url(#e407651198)"><rect x="0" width="30" y="0" height="30.000001" style="fill:#000000;fill-opacity:0.8;stroke:none;"/></g></mask></g></g></svg>