<svg xmlns="http://www.w3.org/2000/svg" xmlns:xlink="http://www.w3.org/1999/xlink" width="500" zoomAndPan="magnify" viewBox="0 0 375 374.999991" height="500" preserveAspectRatio="xMidYMid meet" version="1.0"><defs><clipPath id="20aa2d51aa"><path d="M 26.367188 8.089844 L 348.632812 8.089844 L 348.632812 366.90625 L 26.367188 366.90625 Z M 26.367188 8.089844 " clip-rule="nonzero"/></clipPath><clipPath id="a74a9cfed6"><path d="M 213.429688 15.085938 L 322.703125 78.664062 C 338.757812 88.003906 348.632812 105.175781 348.632812 123.75 L 348.632812 251.25 C 348.632812 269.824219 338.757812 286.996094 322.703125 296.335938 L 213.429688 359.914062 C 197.402344 369.238281 177.597656 369.238281 161.570312 359.914062 L 52.296875 296.335938 C 36.242188 286.996094 26.367188 269.824219 26.367188 251.25 L 26.367188 123.75 C 26.367188 105.175781 36.242188 88.003906 52.296875 78.664062 L 161.570312 15.085938 C 177.597656 5.761719 197.402344 5.761719 213.429688 15.085938 Z M 213.429688 15.085938 " clip-rule="nonzero"/></clipPath><linearGradient x1="-7.258984" gradientTransform="matrix(1.25885, 0, 0, 1.25885, 26.367192, -0.00024)" y1="13.687016" x2="263.258471" gradientUnits="userSpaceOnUse" y2="284.203481" id="4af0dfdf06"><stop stop-opacity="1" stop-color="rgb(100%, 99.998474%, 99.998474%)" offset="0"/><stop stop-opacity="1" stop-color="rgb(100%, 99.87793%, 99.938965%)" offset="0.0078125"/><stop stop-opacity="1" stop-color="rgb(100%, 99.635315%, 99.819946%)" offset="0.015625"/><stop stop-opacity="1" stop-color="rgb(100%, 99.3927%, 99.699402%)" offset="0.0234375"/><stop stop-opacity="1" stop-color="rgb(100%, 99.151611%, 99.580383%)" offset="0.03125"/><stop stop-opacity="1" stop-color="rgb(100%, 98.908997%, 99.461365%)" offset="0.0390625"/><stop stop-opacity="1" stop-color="rgb(100%, 98.666382%, 99.34082%)" offset="0.046875"/><stop stop-opacity="1" stop-color="rgb(100%, 98.423767%, 99.221802%)" offset="0.0546875"/><stop stop-opacity="1" stop-color="rgb(100%, 98.182678%, 99.102783%)" offset="0.0625"/><stop stop-opacity="1" stop-color="rgb(100%, 97.940063%, 98.982239%)" offset="0.0703125"/><stop stop-opacity="1" stop-color="rgb(100%, 97.697449%, 98.86322%)" offset="0.078125"/><stop stop-opacity="1" stop-color="rgb(100%, 97.45636%, 98.744202%)" offset="0.0859375"/><stop stop-opacity="1" stop-color="rgb(100%, 97.213745%, 98.623657%)" offset="0.09375"/><stop stop-opacity="1" stop-color="rgb(100%, 96.97113%, 98.504639%)" offset="0.101562"/><stop stop-opacity="1" stop-color="rgb(100%, 96.728516%, 98.38562%)" offset="0.109375"/><stop stop-opacity="1" stop-color="rgb(100%, 96.487427%, 98.265076%)" offset="0.117188"/><stop stop-opacity="1" stop-color="rgb(100%, 96.244812%, 98.146057%)" offset="0.125"/><stop stop-opacity="1" stop-color="rgb(100%, 96.002197%, 98.027039%)" offset="0.132812"/><stop stop-opacity="1" stop-color="rgb(100%, 95.761108%, 97.906494%)" offset="0.140625"/><stop stop-opacity="1" stop-color="rgb(100%, 95.518494%, 97.787476%)" offset="0.148438"/><stop stop-opacity="1" stop-color="rgb(100%, 95.275879%, 97.668457%)" offset="0.15625"/><stop stop-opacity="1" stop-color="rgb(100%, 95.033264%, 97.547913%)" offset="0.164062"/><stop stop-opacity="1" stop-color="rgb(100%, 94.792175%, 97.428894%)" offset="0.171875"/><stop stop-opacity="1" stop-color="rgb(100%, 94.549561%, 97.309875%)" offset="0.179688"/><stop stop-opacity="1" stop-color="rgb(100%, 94.306946%, 97.189331%)" offset="0.1875"/><stop stop-opacity="1" stop-color="rgb(100%, 94.065857%, 97.070312%)" offset="0.195312"/><stop stop-opacity="1" stop-color="rgb(100%, 93.823242%, 96.951294%)" offset="0.203125"/><stop stop-opacity="1" stop-color="rgb(100%, 93.580627%, 96.83075%)" offset="0.210938"/><stop stop-opacity="1" stop-color="rgb(100%, 93.338013%, 96.711731%)" offset="0.21875"/><stop stop-opacity="1" stop-color="rgb(100%, 93.096924%, 96.592712%)" offset="0.226562"/><stop stop-opacity="1" stop-color="rgb(100%, 92.854309%, 96.472168%)" offset="0.234375"/><stop stop-opacity="1" stop-color="rgb(100%, 92.611694%, 96.353149%)" offset="0.242188"/><stop stop-opacity="1" stop-color="rgb(100%, 92.36908%, 96.234131%)" offset="0.25"/><stop stop-opacity="1" stop-color="rgb(100%, 92.127991%, 96.113586%)" offset="0.257812"/><stop stop-opacity="1" stop-color="rgb(100%, 91.885376%, 95.994568%)" offset="0.265625"/><stop stop-opacity="1" stop-color="rgb(100%, 91.642761%, 95.875549%)" offset="0.273437"/><stop stop-opacity="1" stop-color="rgb(100%, 91.401672%, 95.755005%)" offset="0.28125"/><stop stop-opacity="1" stop-color="rgb(100%, 91.159058%, 95.635986%)" offset="0.289062"/><stop stop-opacity="1" stop-color="rgb(100%, 90.916443%, 95.516968%)" offset="0.296875"/><stop stop-opacity="1" stop-color="rgb(100%, 90.673828%, 95.396423%)" offset="0.304687"/><stop stop-opacity="1" stop-color="rgb(100%, 90.432739%, 95.277405%)" offset="0.3125"/><stop stop-opacity="1" stop-color="rgb(100%, 90.190125%, 95.158386%)" offset="0.320312"/><stop stop-opacity="1" stop-color="rgb(100%, 89.94751%, 95.037842%)" offset="0.328125"/><stop stop-opacity="1" stop-color="rgb(100%, 89.706421%, 94.918823%)" offset="0.335937"/><stop stop-opacity="1" stop-color="rgb(100%, 89.463806%, 94.799805%)" offset="0.34375"/><stop stop-opacity="1" stop-color="rgb(100%, 89.221191%, 94.67926%)" offset="0.351562"/><stop stop-opacity="1" stop-color="rgb(100%, 88.978577%, 94.560242%)" offset="0.359375"/><stop stop-opacity="1" stop-color="rgb(100%, 88.737488%, 94.441223%)" offset="0.367188"/><stop stop-opacity="1" stop-color="rgb(100%, 88.494873%, 94.320679%)" offset="0.375"/><stop stop-opacity="1" stop-color="rgb(100%, 88.252258%, 94.20166%)" offset="0.382812"/><stop stop-opacity="1" stop-color="rgb(100%, 88.011169%, 94.082642%)" offset="0.390625"/><stop stop-opacity="1" stop-color="rgb(100%, 87.768555%, 93.962097%)" offset="0.398437"/><stop stop-opacity="1" stop-color="rgb(100%, 87.52594%, 93.843079%)" offset="0.40625"/><stop stop-opacity="1" stop-color="rgb(100%, 87.283325%, 93.72406%)" offset="0.414062"/><stop stop-opacity="1" stop-color="rgb(100%, 87.042236%, 93.603516%)" offset="0.421875"/><stop stop-opacity="1" stop-color="rgb(100%, 86.799622%, 93.484497%)" offset="0.429687"/><stop stop-opacity="1" stop-color="rgb(100%, 86.557007%, 93.365479%)" offset="0.4375"/><stop stop-opacity="1" stop-color="rgb(100%, 86.314392%, 93.244934%)" offset="0.445312"/><stop stop-opacity="1" stop-color="rgb(100%, 86.073303%, 93.125916%)" offset="0.453125"/><stop stop-opacity="1" stop-color="rgb(100%, 85.830688%, 93.006897%)" offset="0.460937"/><stop stop-opacity="1" stop-color="rgb(100%, 85.588074%, 92.886353%)" offset="0.46875"/><stop stop-opacity="1" stop-color="rgb(100%, 85.346985%, 92.767334%)" offset="0.473169"/><stop stop-opacity="1" stop-color="rgb(100%, 85.22644%, 92.707825%)" offset="0.476562"/><stop stop-opacity="1" stop-color="rgb(100%, 85.10437%, 92.648315%)" offset="0.484375"/><stop stop-opacity="1" stop-color="rgb(100%, 84.861755%, 92.527771%)" offset="0.492188"/><stop stop-opacity="1" stop-color="rgb(100%, 84.619141%, 92.408752%)" offset="0.5"/><stop stop-opacity="1" stop-color="rgb(100%, 84.378052%, 92.289734%)" offset="0.507813"/><stop stop-opacity="1" stop-color="rgb(100%, 84.135437%, 92.169189%)" offset="0.515625"/><stop stop-opacity="1" stop-color="rgb(100%, 83.892822%, 92.050171%)" offset="0.523438"/><stop stop-opacity="1" stop-color="rgb(100%, 83.651733%, 91.931152%)" offset="0.526831"/><stop stop-opacity="1" stop-color="rgb(100%, 83.531189%, 91.871643%)" offset="0.53125"/><stop stop-opacity="1" stop-color="rgb(100%, 83.409119%, 91.810608%)" offset="0.539062"/><stop stop-opacity="1" stop-color="rgb(100%, 83.166504%, 91.691589%)" offset="0.546875"/><stop stop-opacity="1" stop-color="rgb(100%, 82.923889%, 91.572571%)" offset="0.554688"/><stop stop-opacity="1" stop-color="rgb(100%, 82.6828%, 91.452026%)" offset="0.5625"/><stop stop-opacity="1" stop-color="rgb(100%, 82.440186%, 91.333008%)" offset="0.570312"/><stop stop-opacity="1" stop-color="rgb(100%, 82.197571%, 91.213989%)" offset="0.578125"/><stop stop-opacity="1" stop-color="rgb(100%, 81.956482%, 91.093445%)" offset="0.585938"/><stop stop-opacity="1" stop-color="rgb(100%, 81.713867%, 90.974426%)" offset="0.59375"/><stop stop-opacity="1" stop-color="rgb(100%, 81.471252%, 90.855408%)" offset="0.601563"/><stop stop-opacity="1" stop-color="rgb(100%, 81.228638%, 90.734863%)" offset="0.609375"/><stop stop-opacity="1" stop-color="rgb(100%, 80.987549%, 90.615845%)" offset="0.617188"/><stop stop-opacity="1" stop-color="rgb(100%, 80.744934%, 90.496826%)" offset="0.625"/><stop stop-opacity="1" stop-color="rgb(100%, 80.502319%, 90.376282%)" offset="0.632812"/><stop stop-opacity="1" stop-color="rgb(100%, 80.259705%, 90.257263%)" offset="0.640625"/><stop stop-opacity="1" stop-color="rgb(100%, 80.018616%, 90.138245%)" offset="0.648437"/><stop stop-opacity="1" stop-color="rgb(100%, 79.776001%, 90.0177%)" offset="0.65625"/><stop stop-opacity="1" stop-color="rgb(100%, 79.533386%, 89.898682%)" offset="0.664062"/><stop stop-opacity="1" stop-color="rgb(100%, 79.292297%, 89.779663%)" offset="0.671875"/><stop stop-opacity="1" stop-color="rgb(100%, 79.049683%, 89.659119%)" offset="0.679688"/><stop stop-opacity="1" stop-color="rgb(100%, 78.807068%, 89.5401%)" offset="0.6875"/><stop stop-opacity="1" stop-color="rgb(100%, 78.564453%, 89.421082%)" offset="0.695312"/><stop stop-opacity="1" stop-color="rgb(100%, 78.323364%, 89.300537%)" offset="0.703125"/><stop stop-opacity="1" stop-color="rgb(100%, 78.08075%, 89.181519%)" offset="0.710938"/><stop stop-opacity="1" stop-color="rgb(100%, 77.838135%, 89.0625%)" offset="0.71875"/><stop stop-opacity="1" stop-color="rgb(100%, 77.597046%, 88.941956%)" offset="0.726562"/><stop stop-opacity="1" stop-color="rgb(100%, 77.354431%, 88.822937%)" offset="0.734375"/><stop stop-opacity="1" stop-color="rgb(100%, 77.111816%, 88.703918%)" offset="0.742187"/><stop stop-opacity="1" stop-color="rgb(100%, 76.869202%, 88.583374%)" offset="0.75"/><stop stop-opacity="1" stop-color="rgb(100%, 76.628113%, 88.464355%)" offset="0.757813"/><stop stop-opacity="1" stop-color="rgb(100%, 76.385498%, 88.345337%)" offset="0.765625"/><stop stop-opacity="1" stop-color="rgb(100%, 76.142883%, 88.224792%)" offset="0.773438"/><stop stop-opacity="1" stop-color="rgb(100%, 75.901794%, 88.105774%)" offset="0.78125"/><stop stop-opacity="1" stop-color="rgb(100%, 75.65918%, 87.986755%)" offset="0.789062"/><stop stop-opacity="1" stop-color="rgb(100%, 75.416565%, 87.866211%)" offset="0.796875"/><stop stop-opacity="1" stop-color="rgb(100%, 75.17395%, 87.747192%)" offset="0.804688"/><stop stop-opacity="1" stop-color="rgb(100%, 74.932861%, 87.628174%)" offset="0.8125"/><stop stop-opacity="1" stop-color="rgb(100%, 74.690247%, 87.507629%)" offset="0.820312"/><stop stop-opacity="1" stop-color="rgb(100%, 74.447632%, 87.388611%)" offset="0.828125"/><stop stop-opacity="1" stop-color="rgb(100%, 74.205017%, 87.269592%)" offset="0.835938"/><stop stop-opacity="1" stop-color="rgb(100%, 73.963928%, 87.149048%)" offset="0.84375"/><stop stop-opacity="1" stop-color="rgb(100%, 73.721313%, 87.030029%)" offset="0.851563"/><stop stop-opacity="1" stop-color="rgb(100%, 73.478699%, 86.911011%)" offset="0.859375"/><stop stop-opacity="1" stop-color="rgb(100%, 73.23761%, 86.790466%)" offset="0.867188"/><stop stop-opacity="1" stop-color="rgb(100%, 72.994995%, 86.671448%)" offset="0.875"/><stop stop-opacity="1" stop-color="rgb(100%, 72.75238%, 86.552429%)" offset="0.882812"/><stop stop-opacity="1" stop-color="rgb(100%, 72.509766%, 86.431885%)" offset="0.890625"/><stop stop-opacity="1" stop-color="rgb(100%, 72.268677%, 86.312866%)" offset="0.898437"/><stop stop-opacity="1" stop-color="rgb(100%, 72.026062%, 86.193848%)" offset="0.90625"/><stop stop-opacity="1" stop-color="rgb(100%, 71.783447%, 86.073303%)" offset="0.914062"/><stop stop-opacity="1" stop-color="rgb(100%, 71.542358%, 85.954285%)" offset="0.921875"/><stop stop-opacity="1" stop-color="rgb(100%, 71.299744%, 85.835266%)" offset="0.929688"/><stop stop-opacity="1" stop-color="rgb(100%, 71.057129%, 85.714722%)" offset="0.9375"/><stop stop-opacity="1" stop-color="rgb(100%, 70.814514%, 85.595703%)" offset="0.945312"/><stop stop-opacity="1" stop-color="rgb(100%, 70.573425%, 85.476685%)" offset="0.953125"/><stop stop-opacity="1" stop-color="rgb(100%, 70.330811%, 85.35614%)" offset="0.960938"/><stop stop-opacity="1" stop-color="rgb(100%, 70.088196%, 85.237122%)" offset="0.96875"/><stop stop-opacity="1" stop-color="rgb(100%, 69.847107%, 85.118103%)" offset="0.976562"/><stop stop-opacity="1" stop-color="rgb(100%, 69.604492%, 84.997559%)" offset="0.984375"/><stop stop-opacity="1" stop-color="rgb(100%, 69.361877%, 84.87854%)" offset="0.992187"/><stop stop-opacity="1" stop-color="rgb(100%, 69.119263%, 84.759521%)" offset="1"/></linearGradient><clipPath id="6b940c86de"><path d="M 26.367188 8 L 348.632812 8 L 348.632812 367 L 26.367188 367 Z M 26.367188 8 " clip-rule="nonzero"/></clipPath><clipPath id="b4ade0694f"><path d="M 213.429688 15.085938 L 322.703125 78.664062 C 338.757812 88.003906 348.632812 105.175781 348.632812 123.75 L 348.632812 251.25 C 348.632812 269.824219 338.757812 286.996094 322.703125 296.335938 L 213.429688 359.914062 C 197.402344 369.238281 177.597656 369.238281 161.570312 359.914062 L 52.296875 296.335938 C 36.242188 286.996094 26.367188 269.824219 26.367188 251.25 L 26.367188 123.75 C 26.367188 105.175781 36.242188 88.003906 52.296875 78.664062 L 161.570312 15.085938 C 177.597656 5.761719 197.402344 5.761719 213.429688 15.085938 Z M 213.429688 15.085938 " clip-rule="nonzero"/></clipPath></defs><g clip-path="url(#20aa2d51aa)"><g clip-path="url(#a74a9cfed6)"><path fill="url(#4af0dfdf06)" d="M 26.367188 8.089844 L 26.367188 366.90625 L 348.632812 366.90625 L 348.632812 8.089844 Z M 26.367188 8.089844 " fill-rule="nonzero"/></g></g><g clip-path="url(#6b940c86de)"><g clip-path="url(#b4ade0694f)"><path stroke-linecap="butt" transform="matrix(0.75, 0, 0, 0.75, 26.36719, 0)" fill="none" stroke-linejoin="miter" d="M 249.416663 20.114583 L 395.11458 104.885417 C 416.52083 117.338542 429.687497 140.234375 429.687497 165 L 429.687497 335.000001 C 429.687497 359.765626 416.52083 382.661459 395.11458 395.114584 L 249.416663 479.885417 C 228.046872 492.317709 201.640622 492.317709 180.27083 479.885417 L 34.572913 395.114584 C 13.166663 382.661459 -0.00000361141 359.765626 -0.00000361141 335.000001 L -0.00000361141 165 C -0.00000361141 140.234375 13.166663 117.338542 34.572913 104.885417 L 180.27083 20.114583 C 201.640622 7.682292 228.046872 7.682292 249.416663 20.114583 Z M 249.416663 20.114583 " stroke="#c63279" stroke-width="50" stroke-opacity="1" stroke-miterlimit="4"/></g></g><path fill="#c63279" d="M 253.742188 183.085938 C 255.015625 179.859375 256.078125 177.148438 255.949219 172.734375 L 254.125 176.554688 C 255.992188 170.957031 255.820312 165.058594 255.652344 159.417969 C 255.566406 156.875 255.523438 154.414062 255.652344 152.039062 L 254.890625 151.828125 C 254.253906 132.660156 237.671875 112.34375 222.953125 105.433594 C 210.230469 99.578125 190.679688 98.5625 181.6875 102.972656 C 182.242188 102.503906 183.46875 102.125 184.574219 101.828125 L 184.699219 101.785156 C 186.101562 101.359375 187.246094 101.0625 186.398438 100.554688 C 178.253906 101.359375 175.835938 102.886719 173.207031 104.542969 L 173.164062 104.542969 C 171.214844 105.769531 169.136719 107.085938 164.554688 108.230469 C 163.070312 109.671875 165.277344 109.078125 167.015625 108.613281 C 168.753906 108.144531 170.070312 107.808594 166.972656 109.628906 C 165.488281 110.054688 164.175781 110.183594 162.902344 110.308594 L 162.859375 110.308594 C 159.339844 110.648438 156.160156 110.988281 149.839844 117.519531 C 150.179688 118.070312 151.28125 117.433594 152.085938 116.96875 L 152.128906 116.925781 C 153.105469 116.332031 153.570312 116.078125 151.410156 118.792969 C 143.308594 117.773438 125.835938 137.324219 122.105469 143.8125 L 124.054688 144.152344 C 122.699219 147.542969 121.171875 150.429688 119.8125 152.972656 C 117.988281 156.410156 116.464844 159.292969 116.125 162.007812 C 115.996094 164.167969 115.699219 166.671875 115.402344 169.34375 L 115.277344 170.617188 L 115.234375 170.871094 C 113.960938 182.449219 112.390625 196.65625 116.886719 201.828125 L 116.335938 207.34375 C 116.589844 207.851562 116.800781 208.316406 117.015625 208.828125 C 117.097656 208.996094 117.183594 209.167969 117.226562 209.292969 C 117.652344 210.183594 118.074219 211.074219 118.625 211.921875 L 117.355469 212.007812 C 120.324219 221.378906 121.933594 221.550781 123.757812 221.71875 C 125.625 221.890625 127.703125 222.101562 131.6875 231.984375 C 130.542969 231.601562 129.355469 231.175781 127.703125 228.929688 C 127.488281 230.667969 130.160156 235.84375 133.257812 239.871094 L 131.941406 241.398438 C 132.832031 242.96875 133.976562 244.027344 135.164062 245.128906 C 135.589844 245.511719 136.054688 245.9375 136.480469 246.359375 C 131.433594 243.601562 137.835938 252.171875 141.527344 257.046875 C 141.867188 257.511719 142.164062 257.894531 142.460938 258.277344 C 143.054688 259.082031 143.519531 259.71875 143.691406 260.015625 L 144.707031 258.234375 C 144.582031 260.820312 146.53125 264.128906 150.265625 268.710938 L 153.359375 268.582031 C 154.632812 271.128906 159.296875 275.664062 162.136719 275.878906 L 160.273438 278.335938 C 163.707031 279.441406 164.640625 280.160156 165.660156 280.964844 C 166.761719 281.855469 167.949219 282.789062 172.488281 284.402344 L 170.707031 281.261719 C 172.191406 282.535156 173.335938 283.765625 174.4375 284.953125 L 174.480469 284.996094 C 176.683594 287.371094 178.679688 289.492188 182.835938 291.484375 C 187.371094 293.054688 189.875 293.476562 192.460938 293.945312 C 192.589844 293.945312 192.714844 293.984375 192.84375 293.984375 C 195.132812 294.324219 197.59375 294.75 201.664062 295.894531 C 201.199219 295.851562 200.730469 295.851562 200.265625 295.851562 C 199.289062 295.808594 198.273438 295.808594 197.296875 295.808594 C 191.1875 295.726562 184.914062 295.640625 179.1875 293.605469 C 138.21875 282.703125 100.769531 234.65625 103.527344 185.203125 C 103.273438 181.007812 103.402344 176.339844 103.527344 172.183594 C 103.699219 166.460938 103.824219 161.667969 102.847656 160.183594 L 103.273438 158.867188 C 105.519531 151.488281 108.234375 142.667969 113.367188 132.234375 L 113.324219 132.148438 L 113.324219 132.109375 C 113.496094 132.277344 114.765625 133.550781 117.058594 129.648438 C 117.394531 128.882812 117.734375 128.078125 118.074219 127.273438 C 118.285156 126.804688 118.457031 126.339844 118.667969 125.914062 C 119.730469 123.328125 120.832031 120.699219 122.230469 118.324219 L 123.332031 118.070312 C 124.054688 113.785156 130.542969 107.976562 135.972656 103.140625 L 136.4375 102.71875 C 138.855469 100.554688 140.976562 98.605469 142.207031 97.160156 L 142.503906 99.027344 C 149.710938 92.285156 161.417969 87.367188 170.324219 83.589844 L 170.535156 83.507812 C 172.570312 82.65625 174.480469 81.851562 176.175781 81.089844 C 174.734375 82.699219 177.109375 82.234375 180.417969 81.511719 C 182.453125 81.089844 184.828125 80.621094 186.90625 80.496094 L 185.25 81.386719 C 184.105469 81.980469 182.960938 82.574219 181.859375 83.335938 C 185.292969 82.488281 186.820312 82.742188 188.515625 82.996094 L 188.644531 82.996094 C 190.128906 83.25 191.742188 83.507812 194.835938 83.082031 C 192.460938 83.421875 189.621094 84.355469 190.085938 84.695312 C 193.4375 85.074219 195.515625 84.652344 197.382812 84.269531 L 197.464844 84.269531 C 199.796875 83.804688 201.835938 83.421875 205.652344 84.652344 L 205.226562 82.617188 C 208.324219 83.71875 210.613281 84.4375 212.648438 85.074219 L 212.859375 85.117188 C 217.101562 86.390625 220.324219 87.367188 227.363281 91.097656 C 228.722656 91.183594 229.613281 90.886719 230.503906 90.589844 L 230.546875 90.589844 C 232.074219 90.121094 233.515625 89.699219 236.992188 91.097656 C 237.117188 91.308594 237.203125 91.523438 237.289062 91.691406 C 237.332031 91.777344 237.375 91.902344 237.414062 91.988281 L 237.414062 92.03125 C 237.839844 93.132812 238.179688 93.980469 243.609375 97.160156 C 244.328125 96.863281 242.460938 95.167969 240.894531 93.683594 L 240.851562 93.640625 C 240.765625 93.597656 240.722656 93.515625 240.640625 93.472656 C 254.296875 100.808594 269.179688 116.417969 273.71875 133.125 C 271.175781 128.417969 271.511719 130.792969 271.894531 133.335938 C 272.148438 135.035156 272.402344 136.773438 271.808594 136.519531 C 273.71875 141.648438 275.246094 146.910156 276.222656 152.378906 L 275.882812 151.148438 L 275.839844 151.023438 C 274.441406 145.976562 271.769531 136.476562 267.398438 130.113281 C 267.230469 131.9375 266.210938 131.769531 265.195312 131.597656 L 265.152344 131.597656 C 263.753906 131.34375 262.523438 131.132812 264.347656 136.941406 C 265.449219 138.554688 265.660156 137.960938 265.832031 137.410156 C 266.042969 136.773438 266.210938 136.265625 267.824219 139.613281 C 267.867188 141.351562 268.246094 143.09375 268.714844 145 L 268.757812 145.253906 C 268.800781 145.382812 268.800781 145.46875 268.839844 145.59375 L 268.882812 145.847656 C 269.136719 146.953125 269.433594 148.136719 269.648438 149.410156 C 269.179688 149.324219 268.671875 148.476562 268.207031 147.628906 C 267.613281 146.613281 267.019531 145.636719 266.636719 146.273438 C 267.652344 151.148438 269.394531 153.652344 270.027344 154.035156 C 269.902344 154.289062 269.773438 154.332031 269.5625 154.332031 C 269.222656 154.332031 268.800781 154.371094 268.757812 156.578125 C 269.054688 162.386719 270.15625 161.878906 271.003906 161.496094 C 271.257812 161.371094 271.511719 161.242188 271.726562 161.328125 C 271.472656 162.386719 271.046875 163.492188 270.582031 164.679688 C 269.394531 167.691406 268.035156 171.210938 269.136719 175.746094 C 268.800781 174.476562 268.289062 173.203125 267.824219 171.972656 L 267.78125 171.804688 L 267.527344 171.167969 C 267.398438 170.828125 267.273438 170.488281 267.144531 170.191406 C 266.890625 172.058594 267.019531 173.457031 267.101562 174.6875 L 267.101562 174.984375 C 267.273438 177.230469 267.398438 179.226562 265.832031 183.421875 C 267.652344 177.402344 267.441406 172.015625 265.746094 174.601562 C 266.167969 179.226562 264.175781 183.253906 262.351562 186.859375 L 262.308594 186.945312 C 260.785156 189.953125 259.425781 192.667969 259.808594 195.128906 L 257.601562 192.117188 C 254.421875 196.742188 254.632812 197.757812 254.847656 198.691406 L 254.847656 198.734375 C 255.058594 199.539062 255.269531 200.34375 253.40625 203.3125 C 254.125 202.082031 253.957031 201.785156 253.828125 201.53125 C 253.660156 201.191406 253.53125 200.898438 254.550781 199.371094 C 253.871094 199.414062 252.21875 201.023438 250.265625 202.972656 C 248.613281 204.628906 246.660156 206.535156 244.835938 207.980469 C 228.933594 220.746094 209.933594 222.398438 191.570312 215.527344 C 191.65625 215.105469 191.484375 214.636719 190.257812 213.789062 C 174.648438 201.828125 165.445312 191.695312 168.667969 168.199219 C 169.558594 167.519531 170.195312 165.738281 170.917969 163.617188 L 171.003906 163.449219 L 171.042969 163.320312 L 171.042969 163.277344 C 172.273438 159.714844 173.800781 155.304688 177.109375 153.183594 C 180.417969 145.847656 190.382812 139.0625 201.027344 138.894531 C 211.886719 138.300781 221.046875 144.703125 225.667969 150.726562 C 217.269531 142.921875 203.574219 140.546875 191.867188 146.316406 C 179.910156 151.699219 172.785156 164.890625 173.84375 177.996094 C 173.972656 177.824219 174.097656 177.742188 174.226562 177.65625 L 174.269531 177.613281 L 174.308594 177.570312 C 174.566406 177.359375 174.777344 177.1875 174.902344 176.171875 C 174.523438 201.703125 202.386719 220.40625 222.445312 210.949219 L 222.699219 211.5 C 228.085938 210.015625 229.441406 208.742188 231.308594 206.960938 L 231.351562 206.917969 C 232.285156 206.027344 233.34375 205.011719 235.125 203.824219 C 235 204.121094 234.574219 204.542969 234.109375 204.96875 C 233.175781 205.859375 232.15625 206.875 233.429688 206.917969 C 235.550781 206.367188 241.273438 201.234375 245.515625 197.460938 C 245.769531 197.25 246.023438 197.039062 246.238281 196.824219 C 246.875 196.273438 247.425781 195.765625 247.933594 195.296875 L 248.0625 195.171875 C 248.867188 193.390625 248.738281 192.796875 248.613281 192.203125 L 248.613281 192.160156 C 248.441406 191.480469 248.273438 190.761719 249.628906 188.089844 L 252.726562 186.519531 C 253.066406 185.628906 253.363281 184.78125 253.660156 183.976562 C 253.742188 183.71875 253.871094 183.464844 253.957031 183.210938 L 253.785156 183.125 Z M 240.640625 93.472656 L 240.554688 93.429688 Z M 197.59375 220.617188 C 195.046875 219.34375 191.78125 216.84375 191.316406 215.78125 L 191.148438 215.910156 C 191.019531 216.164062 190.933594 216.460938 191.0625 216.84375 C 185.886719 214.425781 181.136719 210.777344 177.238281 206.28125 C 179.3125 209.292969 181.519531 212.261719 184.445312 214.550781 C 181.519531 213.578125 178.042969 209.546875 175.285156 206.367188 L 175.242188 206.324219 C 173.417969 204.203125 171.894531 202.464844 171.128906 202.296875 C 179.527344 217.351562 205.269531 228.71875 218.753906 223.078125 C 212.519531 223.289062 204.589844 223.203125 197.59375 220.617188 M 231.222656 169.851562 L 231.183594 169.769531 C 230.96875 169.132812 230.714844 168.453125 230.460938 168.324219 C 231.054688 165.867188 232.75 163.789062 232.328125 170.277344 C 231.902344 171.886719 231.5625 170.914062 231.222656 169.851562 M 229.441406 179.265625 C 228.890625 182.617188 227.324219 185.839844 225.160156 188.808594 C 225.246094 187.960938 224.652344 187.792969 224.058594 187.621094 C 222.828125 187.28125 221.554688 186.945312 226.433594 180.792969 C 226.21875 181.601562 225.542969 182.746094 224.863281 183.890625 L 224.734375 184.058594 C 223.207031 186.5625 221.894531 188.726562 226.433594 185.882812 L 226.855469 185.121094 C 227.957031 183.210938 228.976562 181.386719 229.402344 179.265625 Z M 205.863281 193.644531 C 208.875 193.898438 211.84375 193.898438 214.769531 193.179688 C 213.707031 194.195312 212.5625 195.214844 211.25 196.230469 C 206.542969 195.511719 202.257812 193.6875 205.863281 193.644531 M 166.589844 198.5625 C 168.117188 201.574219 169.304688 203.441406 170.410156 205.222656 L 170.449219 205.308594 C 171.425781 206.875 172.316406 208.316406 173.335938 210.269531 C 171.171875 208.488281 169.644531 206.238281 168.035156 203.90625 L 167.90625 203.695312 C 167.3125 202.804688 166.71875 201.914062 166.039062 201.066406 L 166.550781 198.5625 Z M 169.773438 194.492188 C 170.449219 195.890625 171.128906 197.207031 172.191406 198.351562 L 173.292969 201.617188 L 172.742188 200.726562 C 171.382812 198.480469 170.070312 196.230469 169.347656 193.644531 L 169.6875 194.324219 Z M 271.089844 176.851562 C 270.113281 184.230469 267.824219 191.523438 264.304688 198.183594 C 267.527344 191.863281 269.605469 185.078125 270.582031 178.164062 Z M 107.597656 125.832031 C 107.769531 126.171875 108.191406 126.042969 108.574219 125.957031 C 109.378906 125.746094 110.101562 125.578125 108.53125 129.179688 C 108.320312 129.308594 108.109375 129.476562 107.894531 129.605469 C 107.300781 129.988281 106.707031 130.410156 106.242188 130.878906 C 107.046875 129.265625 107.726562 127.738281 107.597656 125.832031 M 103.230469 143.515625 C 102.933594 145.085938 102.59375 146.867188 101.789062 149.410156 C 101.875 148.605469 101.789062 147.925781 101.703125 147.332031 L 101.703125 147.289062 C 101.535156 145.847656 101.40625 144.617188 103.527344 141.863281 C 103.402344 142.371094 103.316406 142.921875 103.230469 143.472656 Z M 103.230469 143.515625 " fill-opacity="1" fill-rule="nonzero"/></svg>