<svg xmlns="http://www.w3.org/2000/svg" xmlns:xlink="http://www.w3.org/1999/xlink" width="40" zoomAndPan="magnify" viewBox="0 0 30 30.000001" height="40" preserveAspectRatio="xMidYMid meet" version="1.0"><defs><clipPath id="b030408c0e"><path d="M 2.523438 0.625 L 27.476562 0.625 L 27.476562 28.40625 L 2.523438 28.40625 Z M 2.523438 0.625 " clip-rule="nonzero"/></clipPath><clipPath id="e82f4ee36f"><path d="M 17.007812 1.167969 L 25.46875 6.089844 C 26.710938 6.8125 27.476562 8.144531 27.476562 9.582031 L 27.476562 19.453125 C 27.476562 20.890625 26.710938 22.21875 25.46875 22.941406 L 17.007812 27.863281 C 15.765625 28.585938 14.234375 28.585938 12.992188 27.863281 L 4.53125 22.941406 C 3.289062 22.21875 2.523438 20.890625 2.523438 19.453125 L 2.523438 9.582031 C 2.523438 8.144531 3.289062 6.8125 4.53125 6.089844 L 12.992188 1.167969 C 14.234375 0.445312 15.765625 0.445312 17.007812 1.167969 Z M 17.007812 1.167969 " clip-rule="nonzero"/></clipPath><linearGradient x1="-7.258985" gradientTransform="matrix(0.0974594, 0, 0, 0.0974594, 2.525201, -0.0000164516)" y1="13.687016" x2="263.258472" gradientUnits="userSpaceOnUse" y2="284.203482" id="92b55f4a41"><stop stop-opacity="1" stop-color="rgb(100%, 99.998474%, 99.998474%)" offset="0"/><stop stop-opacity="1" stop-color="rgb(100%, 99.87793%, 99.938965%)" offset="0.0078125"/><stop stop-opacity="1" stop-color="rgb(100%, 99.635315%, 99.819946%)" offset="0.015625"/><stop stop-opacity="1" stop-color="rgb(100%, 99.3927%, 99.699402%)" offset="0.0234375"/><stop stop-opacity="1" stop-color="rgb(100%, 99.151611%, 99.580383%)" offset="0.03125"/><stop stop-opacity="1" stop-color="rgb(100%, 98.908997%, 99.461365%)" offset="0.0390625"/><stop stop-opacity="1" stop-color="rgb(100%, 98.666382%, 99.34082%)" offset="0.046875"/><stop stop-opacity="1" stop-color="rgb(100%, 98.423767%, 99.221802%)" offset="0.0546875"/><stop stop-opacity="1" stop-color="rgb(100%, 98.182678%, 99.102783%)" offset="0.0625"/><stop stop-opacity="1" stop-color="rgb(100%, 97.940063%, 98.982239%)" offset="0.0703125"/><stop stop-opacity="1" stop-color="rgb(100%, 97.697449%, 98.86322%)" offset="0.078125"/><stop stop-opacity="1" stop-color="rgb(100%, 97.45636%, 98.744202%)" offset="0.0859375"/><stop stop-opacity="1" stop-color="rgb(100%, 97.213745%, 98.623657%)" offset="0.09375"/><stop stop-opacity="1" stop-color="rgb(100%, 96.97113%, 98.504639%)" offset="0.101562"/><stop stop-opacity="1" stop-color="rgb(100%, 96.728516%, 98.38562%)" offset="0.109375"/><stop stop-opacity="1" stop-color="rgb(100%, 96.487427%, 98.265076%)" offset="0.117188"/><stop stop-opacity="1" stop-color="rgb(100%, 96.244812%, 98.146057%)" offset="0.125"/><stop stop-opacity="1" stop-color="rgb(100%, 96.002197%, 98.027039%)" offset="0.132812"/><stop stop-opacity="1" stop-color="rgb(100%, 95.761108%, 97.906494%)" offset="0.140625"/><stop stop-opacity="1" stop-color="rgb(100%, 95.518494%, 97.787476%)" offset="0.148438"/><stop stop-opacity="1" stop-color="rgb(100%, 95.275879%, 97.668457%)" offset="0.15625"/><stop stop-opacity="1" stop-color="rgb(100%, 95.033264%, 97.547913%)" offset="0.164062"/><stop stop-opacity="1" stop-color="rgb(100%, 94.792175%, 97.428894%)" offset="0.171875"/><stop stop-opacity="1" stop-color="rgb(100%, 94.549561%, 97.309875%)" offset="0.179688"/><stop stop-opacity="1" stop-color="rgb(100%, 94.306946%, 97.189331%)" offset="0.1875"/><stop stop-opacity="1" stop-color="rgb(100%, 94.065857%, 97.070312%)" offset="0.195312"/><stop stop-opacity="1" stop-color="rgb(100%, 93.823242%, 96.951294%)" offset="0.203125"/><stop stop-opacity="1" stop-color="rgb(100%, 93.580627%, 96.83075%)" offset="0.210938"/><stop stop-opacity="1" stop-color="rgb(100%, 93.338013%, 96.711731%)" offset="0.21875"/><stop stop-opacity="1" stop-color="rgb(100%, 93.096924%, 96.592712%)" offset="0.226562"/><stop stop-opacity="1" stop-color="rgb(100%, 92.854309%, 96.472168%)" offset="0.234375"/><stop stop-opacity="1" stop-color="rgb(100%, 92.611694%, 96.353149%)" offset="0.242188"/><stop stop-opacity="1" stop-color="rgb(100%, 92.36908%, 96.234131%)" offset="0.25"/><stop stop-opacity="1" stop-color="rgb(100%, 92.127991%, 96.113586%)" offset="0.257812"/><stop stop-opacity="1" stop-color="rgb(100%, 91.885376%, 95.994568%)" offset="0.265625"/><stop stop-opacity="1" stop-color="rgb(100%, 91.642761%, 95.875549%)" offset="0.273438"/><stop stop-opacity="1" stop-color="rgb(100%, 91.401672%, 95.755005%)" offset="0.28125"/><stop stop-opacity="1" stop-color="rgb(100%, 91.159058%, 95.635986%)" offset="0.289062"/><stop stop-opacity="1" stop-color="rgb(100%, 90.916443%, 95.516968%)" offset="0.296875"/><stop stop-opacity="1" stop-color="rgb(100%, 90.673828%, 95.396423%)" offset="0.304687"/><stop stop-opacity="1" stop-color="rgb(100%, 90.432739%, 95.277405%)" offset="0.3125"/><stop stop-opacity="1" stop-color="rgb(100%, 90.190125%, 95.158386%)" offset="0.320312"/><stop stop-opacity="1" stop-color="rgb(100%, 89.94751%, 95.037842%)" offset="0.328125"/><stop stop-opacity="1" stop-color="rgb(100%, 89.706421%, 94.918823%)" offset="0.335938"/><stop stop-opacity="1" stop-color="rgb(100%, 89.463806%, 94.799805%)" offset="0.34375"/><stop stop-opacity="1" stop-color="rgb(100%, 89.221191%, 94.67926%)" offset="0.351562"/><stop stop-opacity="1" stop-color="rgb(100%, 88.978577%, 94.560242%)" offset="0.359375"/><stop stop-opacity="1" stop-color="rgb(100%, 88.737488%, 94.441223%)" offset="0.367187"/><stop stop-opacity="1" stop-color="rgb(100%, 88.494873%, 94.320679%)" offset="0.375"/><stop stop-opacity="1" stop-color="rgb(100%, 88.252258%, 94.20166%)" offset="0.382812"/><stop stop-opacity="1" stop-color="rgb(100%, 88.011169%, 94.082642%)" offset="0.390625"/><stop stop-opacity="1" stop-color="rgb(100%, 87.768555%, 93.962097%)" offset="0.398437"/><stop stop-opacity="1" stop-color="rgb(100%, 87.52594%, 93.843079%)" offset="0.40625"/><stop stop-opacity="1" stop-color="rgb(100%, 87.283325%, 93.72406%)" offset="0.414062"/><stop stop-opacity="1" stop-color="rgb(100%, 87.042236%, 93.603516%)" offset="0.421875"/><stop stop-opacity="1" stop-color="rgb(100%, 86.799622%, 93.484497%)" offset="0.429687"/><stop stop-opacity="1" stop-color="rgb(100%, 86.557007%, 93.365479%)" offset="0.4375"/><stop stop-opacity="1" stop-color="rgb(100%, 86.314392%, 93.244934%)" offset="0.445312"/><stop stop-opacity="1" stop-color="rgb(100%, 86.073303%, 93.125916%)" offset="0.453125"/><stop stop-opacity="1" stop-color="rgb(100%, 85.830688%, 93.006897%)" offset="0.460937"/><stop stop-opacity="1" stop-color="rgb(100%, 85.588074%, 92.886353%)" offset="0.46875"/><stop stop-opacity="1" stop-color="rgb(100%, 85.346985%, 92.767334%)" offset="0.473169"/><stop stop-opacity="1" stop-color="rgb(100%, 85.22644%, 92.707825%)" offset="0.476562"/><stop stop-opacity="1" stop-color="rgb(100%, 85.10437%, 92.648315%)" offset="0.484375"/><stop stop-opacity="1" stop-color="rgb(100%, 84.861755%, 92.527771%)" offset="0.492187"/><stop stop-opacity="1" stop-color="rgb(100%, 84.619141%, 92.408752%)" offset="0.5"/><stop stop-opacity="1" stop-color="rgb(100%, 84.378052%, 92.289734%)" offset="0.507812"/><stop stop-opacity="1" stop-color="rgb(100%, 84.135437%, 92.169189%)" offset="0.515625"/><stop stop-opacity="1" stop-color="rgb(100%, 83.892822%, 92.050171%)" offset="0.523438"/><stop stop-opacity="1" stop-color="rgb(100%, 83.651733%, 91.931152%)" offset="0.526831"/><stop stop-opacity="1" stop-color="rgb(100%, 83.531189%, 91.871643%)" offset="0.53125"/><stop stop-opacity="1" stop-color="rgb(100%, 83.409119%, 91.810608%)" offset="0.539062"/><stop stop-opacity="1" stop-color="rgb(100%, 83.166504%, 91.691589%)" offset="0.546875"/><stop stop-opacity="1" stop-color="rgb(100%, 82.923889%, 91.572571%)" offset="0.554688"/><stop stop-opacity="1" stop-color="rgb(100%, 82.6828%, 91.452026%)" offset="0.5625"/><stop stop-opacity="1" stop-color="rgb(100%, 82.440186%, 91.333008%)" offset="0.570313"/><stop stop-opacity="1" stop-color="rgb(100%, 82.197571%, 91.213989%)" offset="0.578125"/><stop stop-opacity="1" stop-color="rgb(100%, 81.956482%, 91.093445%)" offset="0.585938"/><stop stop-opacity="1" stop-color="rgb(100%, 81.713867%, 90.974426%)" offset="0.59375"/><stop stop-opacity="1" stop-color="rgb(100%, 81.471252%, 90.855408%)" offset="0.601563"/><stop stop-opacity="1" stop-color="rgb(100%, 81.228638%, 90.734863%)" offset="0.609375"/><stop stop-opacity="1" stop-color="rgb(100%, 80.987549%, 90.615845%)" offset="0.617188"/><stop stop-opacity="1" stop-color="rgb(100%, 80.744934%, 90.496826%)" offset="0.625"/><stop stop-opacity="1" stop-color="rgb(100%, 80.502319%, 90.376282%)" offset="0.632812"/><stop stop-opacity="1" stop-color="rgb(100%, 80.259705%, 90.257263%)" offset="0.640625"/><stop stop-opacity="1" stop-color="rgb(100%, 80.018616%, 90.138245%)" offset="0.648438"/><stop stop-opacity="1" stop-color="rgb(100%, 79.776001%, 90.0177%)" offset="0.65625"/><stop stop-opacity="1" stop-color="rgb(100%, 79.533386%, 89.898682%)" offset="0.664062"/><stop stop-opacity="1" stop-color="rgb(100%, 79.292297%, 89.779663%)" offset="0.671875"/><stop stop-opacity="1" stop-color="rgb(100%, 79.049683%, 89.659119%)" offset="0.679687"/><stop stop-opacity="1" stop-color="rgb(100%, 78.807068%, 89.5401%)" offset="0.6875"/><stop stop-opacity="1" stop-color="rgb(100%, 78.564453%, 89.421082%)" offset="0.695313"/><stop stop-opacity="1" stop-color="rgb(100%, 78.323364%, 89.300537%)" offset="0.703125"/><stop stop-opacity="1" stop-color="rgb(100%, 78.08075%, 89.181519%)" offset="0.710938"/><stop stop-opacity="1" stop-color="rgb(100%, 77.838135%, 89.0625%)" offset="0.71875"/><stop stop-opacity="1" stop-color="rgb(100%, 77.597046%, 88.941956%)" offset="0.726563"/><stop stop-opacity="1" stop-color="rgb(100%, 77.354431%, 88.822937%)" offset="0.734375"/><stop stop-opacity="1" stop-color="rgb(100%, 77.111816%, 88.703918%)" offset="0.742188"/><stop stop-opacity="1" stop-color="rgb(100%, 76.869202%, 88.583374%)" offset="0.75"/><stop stop-opacity="1" stop-color="rgb(100%, 76.628113%, 88.464355%)" offset="0.757812"/><stop stop-opacity="1" stop-color="rgb(100%, 76.385498%, 88.345337%)" offset="0.765625"/><stop stop-opacity="1" stop-color="rgb(100%, 76.142883%, 88.224792%)" offset="0.773438"/><stop stop-opacity="1" stop-color="rgb(100%, 75.901794%, 88.105774%)" offset="0.78125"/><stop stop-opacity="1" stop-color="rgb(100%, 75.65918%, 87.986755%)" offset="0.789062"/><stop stop-opacity="1" stop-color="rgb(100%, 75.416565%, 87.866211%)" offset="0.796875"/><stop stop-opacity="1" stop-color="rgb(100%, 75.17395%, 87.747192%)" offset="0.804687"/><stop stop-opacity="1" stop-color="rgb(100%, 74.932861%, 87.628174%)" offset="0.8125"/><stop stop-opacity="1" stop-color="rgb(100%, 74.690247%, 87.507629%)" offset="0.820313"/><stop stop-opacity="1" stop-color="rgb(100%, 74.447632%, 87.388611%)" offset="0.828125"/><stop stop-opacity="1" stop-color="rgb(100%, 74.205017%, 87.269592%)" offset="0.835938"/><stop stop-opacity="1" stop-color="rgb(100%, 73.963928%, 87.149048%)" offset="0.84375"/><stop stop-opacity="1" stop-color="rgb(100%, 73.721313%, 87.030029%)" offset="0.851563"/><stop stop-opacity="1" stop-color="rgb(100%, 73.478699%, 86.911011%)" offset="0.859375"/><stop stop-opacity="1" stop-color="rgb(100%, 73.23761%, 86.790466%)" offset="0.867188"/><stop stop-opacity="1" stop-color="rgb(100%, 72.994995%, 86.671448%)" offset="0.875"/><stop stop-opacity="1" stop-color="rgb(100%, 72.75238%, 86.552429%)" offset="0.882812"/><stop stop-opacity="1" stop-color="rgb(100%, 72.509766%, 86.431885%)" offset="0.890625"/><stop stop-opacity="1" stop-color="rgb(100%, 72.268677%, 86.312866%)" offset="0.898438"/><stop stop-opacity="1" stop-color="rgb(100%, 72.026062%, 86.193848%)" offset="0.90625"/><stop stop-opacity="1" stop-color="rgb(100%, 71.783447%, 86.073303%)" offset="0.914062"/><stop stop-opacity="1" stop-color="rgb(100%, 71.542358%, 85.954285%)" offset="0.921875"/><stop stop-opacity="1" stop-color="rgb(100%, 71.299744%, 85.835266%)" offset="0.929687"/><stop stop-opacity="1" stop-color="rgb(100%, 71.057129%, 85.714722%)" offset="0.9375"/><stop stop-opacity="1" stop-color="rgb(100%, 70.814514%, 85.595703%)" offset="0.945313"/><stop stop-opacity="1" stop-color="rgb(100%, 70.573425%, 85.476685%)" offset="0.953125"/><stop stop-opacity="1" stop-color="rgb(100%, 70.330811%, 85.35614%)" offset="0.960938"/><stop stop-opacity="1" stop-color="rgb(100%, 70.088196%, 85.237122%)" offset="0.96875"/><stop stop-opacity="1" stop-color="rgb(100%, 69.847107%, 85.118103%)" offset="0.976562"/><stop stop-opacity="1" stop-color="rgb(100%, 69.604492%, 84.997559%)" offset="0.984375"/><stop stop-opacity="1" stop-color="rgb(100%, 69.361877%, 84.87854%)" offset="0.992188"/><stop stop-opacity="1" stop-color="rgb(100%, 69.119263%, 84.759521%)" offset="1"/></linearGradient><clipPath id="28d3732140"><path d="M 2.523438 0.453125 L 27.203125 0.453125 L 27.203125 28.578125 L 2.523438 28.578125 Z M 2.523438 0.453125 " clip-rule="nonzero"/></clipPath><clipPath id="173f2d59a7"><path d="M 17.007812 1.167969 L 25.46875 6.089844 C 26.710938 6.8125 27.476562 8.144531 27.476562 9.582031 L 27.476562 19.453125 C 27.476562 20.890625 26.710938 22.21875 25.46875 22.941406 L 17.007812 27.863281 C 15.765625 28.585938 14.234375 28.585938 12.992188 27.863281 L 4.53125 22.941406 C 3.289062 22.21875 2.523438 20.890625 2.523438 19.453125 L 2.523438 9.582031 C 2.523438 8.144531 3.289062 6.8125 4.53125 6.089844 L 12.992188 1.167969 C 14.234375 0.445312 15.765625 0.445312 17.007812 1.167969 Z M 17.007812 1.167969 " clip-rule="nonzero"/></clipPath><clipPath id="16f99f81de"><path d="M 8 6.105469 L 22 6.105469 L 22 22.800781 L 8 22.800781 Z M 8 6.105469 " clip-rule="nonzero"/></clipPath></defs><g clip-path="url(#b030408c0e)"><g clip-path="url(#e82f4ee36f)"><path fill="url(#92b55f4a41)" d="M 2.523438 0.625 L 2.523438 28.40625 L 27.476562 28.40625 L 27.476562 0.625 Z M 2.523438 0.625 " fill-rule="nonzero"/></g></g><g clip-path="url(#28d3732140)"><g clip-path="url(#173f2d59a7)"><path stroke-linecap="butt" transform="matrix(0.725806, 0, 0, 0.725806, 2.525201, 0.00000193548)" fill="none" stroke-linejoin="miter" d="M 19.95382 1.609199 L 31.611112 8.390449 C 33.32257 9.386109 34.377432 11.221352 34.377432 13.201907 L 34.377432 26.802081 C 34.377432 28.782636 33.32257 30.612498 31.611112 31.608157 L 19.95382 38.389407 C 18.242362 39.385067 16.13264 39.385067 14.421181 38.389407 L 2.76389 31.608157 C 1.052431 30.612498 -0.00242987 28.782636 -0.00242987 26.802081 L -0.00242987 13.201907 C -0.00242987 11.221352 1.052431 9.386109 2.76389 8.390449 L 14.421181 1.609199 C 16.13264 0.613539 18.242362 0.613539 19.95382 1.609199 Z M 19.95382 1.609199 " stroke="#c63279" stroke-width="4" stroke-opacity="1" stroke-miterlimit="4"/></g></g><g clip-path="url(#16f99f81de)"><path fill="#c63279" d="M 20.128906 14.175781 C 20.226562 13.925781 20.308594 13.714844 20.300781 13.371094 L 20.15625 13.667969 C 20.300781 13.234375 20.289062 12.777344 20.277344 12.34375 C 20.269531 12.144531 20.265625 11.953125 20.277344 11.769531 L 20.21875 11.753906 C 20.167969 10.269531 18.882812 8.699219 17.746094 8.164062 C 16.757812 7.710938 15.246094 7.628906 14.550781 7.972656 C 14.59375 7.9375 14.6875 7.90625 14.773438 7.882812 L 14.78125 7.878906 C 14.890625 7.847656 14.980469 7.824219 14.914062 7.785156 C 14.285156 7.847656 14.097656 7.964844 13.894531 8.09375 L 13.890625 8.09375 C 13.738281 8.1875 13.578125 8.289062 13.222656 8.378906 C 13.109375 8.492188 13.28125 8.445312 13.414062 8.410156 C 13.546875 8.371094 13.648438 8.347656 13.410156 8.488281 C 13.296875 8.519531 13.195312 8.53125 13.09375 8.539062 C 12.820312 8.566406 12.574219 8.59375 12.085938 9.097656 C 12.109375 9.140625 12.195312 9.089844 12.257812 9.054688 L 12.261719 9.050781 C 12.335938 9.007812 12.375 8.988281 12.207031 9.195312 C 11.578125 9.117188 10.226562 10.632812 9.9375 11.132812 L 10.089844 11.160156 C 9.984375 11.421875 9.863281 11.644531 9.757812 11.84375 C 9.617188 12.109375 9.5 12.332031 9.472656 12.542969 C 9.464844 12.710938 9.441406 12.902344 9.417969 13.109375 L 9.410156 13.207031 L 9.40625 13.226562 C 9.304688 14.125 9.183594 15.226562 9.53125 15.625 L 9.492188 16.050781 C 9.511719 16.089844 9.527344 16.128906 9.542969 16.167969 C 9.550781 16.179688 9.554688 16.191406 9.558594 16.203125 C 9.59375 16.273438 9.625 16.339844 9.667969 16.40625 L 9.570312 16.414062 C 9.800781 17.140625 9.925781 17.152344 10.066406 17.164062 C 10.210938 17.179688 10.371094 17.195312 10.679688 17.960938 C 10.589844 17.929688 10.5 17.898438 10.371094 17.722656 C 10.355469 17.859375 10.5625 18.257812 10.800781 18.570312 L 10.699219 18.6875 C 10.769531 18.808594 10.855469 18.890625 10.949219 18.976562 C 10.980469 19.007812 11.015625 19.039062 11.050781 19.074219 C 10.660156 18.859375 11.15625 19.523438 11.441406 19.898438 C 11.46875 19.9375 11.488281 19.964844 11.511719 19.996094 C 11.558594 20.058594 11.59375 20.105469 11.609375 20.128906 L 11.6875 19.992188 C 11.675781 20.191406 11.828125 20.449219 12.117188 20.804688 L 12.355469 20.792969 C 12.457031 20.988281 12.816406 21.339844 13.035156 21.359375 L 12.890625 21.546875 C 13.15625 21.632812 13.230469 21.6875 13.308594 21.75 C 13.394531 21.820312 13.484375 21.894531 13.835938 22.019531 L 13.699219 21.773438 C 13.816406 21.875 13.902344 21.96875 13.988281 22.058594 L 13.992188 22.0625 C 14.164062 22.246094 14.316406 22.410156 14.636719 22.566406 C 14.988281 22.6875 15.183594 22.71875 15.382812 22.757812 C 15.394531 22.757812 15.402344 22.757812 15.414062 22.757812 C 15.589844 22.785156 15.78125 22.820312 16.097656 22.90625 C 16.058594 22.902344 16.023438 22.902344 15.988281 22.902344 C 15.914062 22.902344 15.832031 22.902344 15.757812 22.902344 C 15.285156 22.894531 14.800781 22.886719 14.355469 22.730469 C 11.183594 21.886719 8.285156 18.167969 8.5 14.339844 C 8.480469 14.011719 8.488281 13.652344 8.5 13.332031 C 8.511719 12.886719 8.523438 12.515625 8.445312 12.402344 L 8.480469 12.300781 C 8.652344 11.726562 8.863281 11.046875 9.261719 10.238281 L 9.257812 10.230469 L 9.257812 10.226562 C 9.269531 10.242188 9.367188 10.339844 9.546875 10.039062 C 9.574219 9.976562 9.597656 9.914062 9.625 9.851562 C 9.640625 9.816406 9.65625 9.78125 9.671875 9.75 C 9.753906 9.546875 9.839844 9.34375 9.945312 9.160156 L 10.03125 9.140625 C 10.089844 8.808594 10.589844 8.359375 11.011719 7.984375 L 11.046875 7.953125 C 11.234375 7.785156 11.398438 7.632812 11.492188 7.523438 L 11.515625 7.667969 C 12.074219 7.144531 12.980469 6.765625 13.671875 6.472656 L 13.6875 6.464844 C 13.84375 6.398438 13.992188 6.335938 14.125 6.277344 C 14.011719 6.402344 14.195312 6.367188 14.453125 6.3125 C 14.609375 6.277344 14.792969 6.242188 14.953125 6.230469 L 14.824219 6.300781 C 14.738281 6.347656 14.648438 6.394531 14.5625 6.453125 C 14.828125 6.386719 14.945312 6.40625 15.078125 6.425781 L 15.089844 6.425781 C 15.203125 6.445312 15.328125 6.464844 15.566406 6.433594 C 15.382812 6.457031 15.164062 6.53125 15.199219 6.558594 C 15.460938 6.585938 15.621094 6.554688 15.765625 6.523438 L 15.769531 6.523438 C 15.953125 6.488281 16.109375 6.457031 16.40625 6.554688 L 16.371094 6.394531 C 16.613281 6.480469 16.789062 6.539062 16.945312 6.585938 L 16.964844 6.589844 C 17.292969 6.6875 17.539062 6.765625 18.085938 7.050781 C 18.191406 7.058594 18.261719 7.035156 18.328125 7.011719 L 18.332031 7.011719 C 18.449219 6.976562 18.5625 6.945312 18.832031 7.050781 C 18.839844 7.070312 18.847656 7.085938 18.855469 7.097656 C 18.859375 7.105469 18.859375 7.113281 18.863281 7.121094 L 18.863281 7.125 C 18.898438 7.210938 18.921875 7.277344 19.34375 7.523438 C 19.398438 7.5 19.253906 7.367188 19.132812 7.253906 L 19.128906 7.25 C 19.125 7.246094 19.121094 7.238281 19.113281 7.238281 C 20.171875 7.804688 21.324219 9.011719 21.675781 10.304688 C 21.476562 9.941406 21.503906 10.125 21.535156 10.324219 C 21.554688 10.453125 21.574219 10.589844 21.527344 10.570312 C 21.675781 10.964844 21.792969 11.375 21.867188 11.796875 L 21.84375 11.703125 L 21.839844 11.691406 C 21.730469 11.300781 21.523438 10.566406 21.183594 10.074219 C 21.171875 10.214844 21.09375 10.203125 21.015625 10.1875 L 21.011719 10.1875 C 20.902344 10.167969 20.808594 10.152344 20.949219 10.601562 C 21.035156 10.726562 21.050781 10.679688 21.0625 10.636719 C 21.082031 10.589844 21.09375 10.550781 21.21875 10.808594 C 21.222656 10.941406 21.25 11.078125 21.289062 11.226562 L 21.289062 11.246094 C 21.292969 11.253906 21.292969 11.261719 21.296875 11.273438 L 21.300781 11.292969 C 21.320312 11.375 21.34375 11.46875 21.359375 11.566406 C 21.324219 11.5625 21.285156 11.496094 21.246094 11.429688 C 21.203125 11.351562 21.15625 11.273438 21.125 11.324219 C 21.203125 11.703125 21.339844 11.894531 21.390625 11.925781 C 21.378906 11.945312 21.371094 11.949219 21.351562 11.949219 C 21.328125 11.949219 21.292969 11.953125 21.289062 12.121094 C 21.3125 12.570312 21.398438 12.53125 21.464844 12.503906 C 21.484375 12.492188 21.503906 12.484375 21.519531 12.488281 C 21.5 12.570312 21.46875 12.65625 21.429688 12.75 C 21.339844 12.980469 21.234375 13.253906 21.320312 13.605469 C 21.292969 13.507812 21.253906 13.410156 21.21875 13.3125 L 21.214844 13.300781 L 21.195312 13.25 C 21.183594 13.226562 21.175781 13.199219 21.164062 13.175781 C 21.144531 13.320312 21.15625 13.429688 21.164062 13.523438 L 21.164062 13.546875 C 21.175781 13.722656 21.183594 13.875 21.0625 14.199219 C 21.203125 13.734375 21.1875 13.316406 21.058594 13.515625 C 21.089844 13.875 20.9375 14.1875 20.792969 14.464844 L 20.792969 14.472656 C 20.671875 14.707031 20.566406 14.917969 20.597656 15.105469 L 20.425781 14.875 C 20.179688 15.230469 20.195312 15.308594 20.214844 15.382812 L 20.214844 15.386719 C 20.230469 15.449219 20.246094 15.511719 20.101562 15.738281 C 20.15625 15.644531 20.144531 15.621094 20.132812 15.601562 C 20.121094 15.574219 20.113281 15.554688 20.191406 15.433594 C 20.136719 15.4375 20.011719 15.5625 19.859375 15.714844 C 19.730469 15.84375 19.578125 15.988281 19.4375 16.101562 C 18.207031 17.089844 16.738281 17.21875 15.316406 16.6875 C 15.320312 16.652344 15.308594 16.617188 15.214844 16.550781 C 14.003906 15.625 13.292969 14.839844 13.542969 13.023438 C 13.609375 12.96875 13.660156 12.832031 13.714844 12.667969 L 13.726562 12.644531 L 13.726562 12.640625 C 13.820312 12.363281 13.9375 12.023438 14.195312 11.859375 C 14.453125 11.292969 15.222656 10.765625 16.046875 10.753906 C 16.886719 10.707031 17.597656 11.203125 17.953125 11.667969 C 17.304688 11.066406 16.242188 10.882812 15.339844 11.328125 C 14.410156 11.746094 13.859375 12.765625 13.941406 13.78125 C 13.953125 13.765625 13.960938 13.761719 13.972656 13.753906 L 13.980469 13.746094 C 14 13.730469 14.015625 13.71875 14.023438 13.640625 C 13.996094 15.617188 16.152344 17.0625 17.707031 16.332031 L 17.726562 16.375 C 18.140625 16.257812 18.246094 16.160156 18.390625 16.023438 L 18.394531 16.019531 C 18.46875 15.949219 18.550781 15.871094 18.6875 15.78125 C 18.675781 15.800781 18.644531 15.835938 18.609375 15.867188 C 18.535156 15.9375 18.457031 16.015625 18.554688 16.019531 C 18.71875 15.976562 19.164062 15.578125 19.492188 15.285156 C 19.511719 15.269531 19.53125 15.253906 19.546875 15.238281 C 19.597656 15.195312 19.640625 15.15625 19.679688 15.121094 L 19.6875 15.109375 C 19.75 14.972656 19.742188 14.925781 19.730469 14.878906 L 19.730469 14.875 C 19.71875 14.824219 19.703125 14.769531 19.808594 14.5625 L 20.050781 14.441406 C 20.074219 14.371094 20.097656 14.304688 20.121094 14.242188 C 20.128906 14.222656 20.136719 14.203125 20.144531 14.183594 L 20.132812 14.175781 Z M 19.113281 7.238281 L 19.105469 7.234375 Z M 15.78125 17.078125 C 15.585938 16.980469 15.332031 16.789062 15.296875 16.707031 L 15.28125 16.714844 C 15.273438 16.734375 15.265625 16.757812 15.277344 16.789062 C 14.875 16.601562 14.507812 16.316406 14.207031 15.96875 C 14.367188 16.203125 14.535156 16.433594 14.761719 16.609375 C 14.535156 16.535156 14.265625 16.222656 14.054688 15.976562 L 14.050781 15.972656 C 13.910156 15.808594 13.792969 15.675781 13.730469 15.660156 C 14.382812 16.828125 16.375 17.707031 17.417969 17.269531 C 16.9375 17.285156 16.324219 17.28125 15.78125 17.078125 M 18.382812 13.148438 L 18.382812 13.144531 C 18.363281 13.09375 18.34375 13.042969 18.324219 13.03125 C 18.371094 12.839844 18.503906 12.679688 18.46875 13.183594 C 18.4375 13.308594 18.410156 13.230469 18.382812 13.148438 M 18.246094 13.878906 C 18.203125 14.136719 18.082031 14.386719 17.914062 14.617188 C 17.921875 14.550781 17.875 14.539062 17.828125 14.523438 C 17.734375 14.5 17.636719 14.472656 18.015625 13.996094 C 17.996094 14.058594 17.945312 14.148438 17.890625 14.238281 L 17.882812 14.25 C 17.765625 14.441406 17.664062 14.609375 18.015625 14.390625 L 18.046875 14.332031 C 18.132812 14.183594 18.210938 14.042969 18.242188 13.878906 Z M 16.421875 14.992188 C 16.65625 15.011719 16.882812 15.011719 17.109375 14.957031 C 17.027344 15.035156 16.941406 15.113281 16.839844 15.191406 C 16.472656 15.136719 16.140625 14.996094 16.421875 14.992188 M 13.382812 15.371094 C 13.5 15.605469 13.589844 15.75 13.675781 15.886719 L 13.679688 15.894531 C 13.753906 16.015625 13.824219 16.128906 13.902344 16.277344 C 13.734375 16.140625 13.617188 15.964844 13.492188 15.785156 L 13.484375 15.769531 C 13.4375 15.699219 13.390625 15.632812 13.339844 15.566406 L 13.378906 15.371094 Z M 13.628906 15.058594 C 13.679688 15.164062 13.730469 15.265625 13.816406 15.355469 L 13.898438 15.609375 L 13.855469 15.539062 C 13.753906 15.367188 13.648438 15.191406 13.59375 14.992188 L 13.621094 15.042969 Z M 21.472656 13.691406 C 21.394531 14.261719 21.21875 14.828125 20.945312 15.34375 C 21.195312 14.855469 21.355469 14.328125 21.429688 13.792969 Z M 8.8125 9.742188 C 8.828125 9.769531 8.859375 9.757812 8.890625 9.75 C 8.953125 9.734375 9.007812 9.722656 8.886719 10 C 8.871094 10.011719 8.851562 10.023438 8.835938 10.035156 C 8.792969 10.0625 8.746094 10.097656 8.710938 10.132812 C 8.769531 10.007812 8.824219 9.890625 8.8125 9.742188 M 8.476562 11.109375 C 8.453125 11.230469 8.425781 11.371094 8.363281 11.566406 C 8.371094 11.503906 8.363281 11.453125 8.359375 11.40625 L 8.359375 11.402344 C 8.34375 11.292969 8.335938 11.195312 8.5 10.984375 C 8.488281 11.023438 8.484375 11.066406 8.476562 11.109375 Z M 8.476562 11.109375 " fill-opacity="1" fill-rule="nonzero"/></g></svg>