<svg xmlns="http://www.w3.org/2000/svg" xmlns:xlink="http://www.w3.org/1999/xlink" width="500" zoomAndPan="magnify" viewBox="0 0 375 374.999991" height="500" preserveAspectRatio="xMidYMid meet" version="1.0"><defs><clipPath id="77e35f4631"><path d="M 26.367188 8.089844 L 348.632812 8.089844 L 348.632812 366.90625 L 26.367188 366.90625 Z M 26.367188 8.089844 " clip-rule="nonzero"/></clipPath><clipPath id="cf90b92674"><path d="M 213.429688 15.085938 L 322.703125 78.664062 C 338.757812 88.003906 348.632812 105.175781 348.632812 123.75 L 348.632812 251.25 C 348.632812 269.824219 338.757812 286.996094 322.703125 296.335938 L 213.429688 359.914062 C 197.402344 369.238281 177.597656 369.238281 161.570312 359.914062 L 52.296875 296.335938 C 36.242188 286.996094 26.367188 269.824219 26.367188 251.25 L 26.367188 123.75 C 26.367188 105.175781 36.242188 88.003906 52.296875 78.664062 L 161.570312 15.085938 C 177.597656 5.761719 197.402344 5.761719 213.429688 15.085938 Z M 213.429688 15.085938 " clip-rule="nonzero"/></clipPath><linearGradient x1="-7.258984" gradientTransform="matrix(1.25885, 0, 0, 1.25885, 26.367192, -0.00024)" y1="13.687016" x2="263.258471" gradientUnits="userSpaceOnUse" y2="284.203481" id="1682b9378f"><stop stop-opacity="1" stop-color="rgb(99.998474%, 99.998474%, 100%)" offset="0"/><stop stop-opacity="1" stop-color="rgb(99.867249%, 99.975586%, 100%)" offset="0.0078125"/><stop stop-opacity="1" stop-color="rgb(99.603271%, 99.92981%, 100%)" offset="0.015625"/><stop stop-opacity="1" stop-color="rgb(99.34082%, 99.884033%, 100%)" offset="0.0234375"/><stop stop-opacity="1" stop-color="rgb(99.076843%, 99.838257%, 100%)" offset="0.03125"/><stop stop-opacity="1" stop-color="rgb(98.814392%, 99.790955%, 100%)" offset="0.0390625"/><stop stop-opacity="1" stop-color="rgb(98.550415%, 99.745178%, 100%)" offset="0.046875"/><stop stop-opacity="1" stop-color="rgb(98.287964%, 99.699402%, 100%)" offset="0.0546875"/><stop stop-opacity="1" stop-color="rgb(98.023987%, 99.653625%, 100%)" offset="0.0625"/><stop stop-opacity="1" stop-color="rgb(97.761536%, 99.607849%, 100%)" offset="0.0703125"/><stop stop-opacity="1" stop-color="rgb(97.497559%, 99.560547%, 100%)" offset="0.078125"/><stop stop-opacity="1" stop-color="rgb(97.235107%, 99.514771%, 100%)" offset="0.0859375"/><stop stop-opacity="1" stop-color="rgb(96.97113%, 99.468994%, 100%)" offset="0.09375"/><stop stop-opacity="1" stop-color="rgb(96.707153%, 99.423218%, 100%)" offset="0.101562"/><stop stop-opacity="1" stop-color="rgb(96.444702%, 99.377441%, 100%)" offset="0.109375"/><stop stop-opacity="1" stop-color="rgb(96.180725%, 99.330139%, 100%)" offset="0.117188"/><stop stop-opacity="1" stop-color="rgb(95.918274%, 99.284363%, 100%)" offset="0.125"/><stop stop-opacity="1" stop-color="rgb(95.654297%, 99.238586%, 100%)" offset="0.132812"/><stop stop-opacity="1" stop-color="rgb(95.391846%, 99.19281%, 100%)" offset="0.140625"/><stop stop-opacity="1" stop-color="rgb(95.127869%, 99.147034%, 100%)" offset="0.148438"/><stop stop-opacity="1" stop-color="rgb(94.865417%, 99.099731%, 100%)" offset="0.15625"/><stop stop-opacity="1" stop-color="rgb(94.60144%, 99.053955%, 100%)" offset="0.164062"/><stop stop-opacity="1" stop-color="rgb(94.338989%, 99.008179%, 100%)" offset="0.171875"/><stop stop-opacity="1" stop-color="rgb(94.075012%, 98.962402%, 100%)" offset="0.179688"/><stop stop-opacity="1" stop-color="rgb(93.811035%, 98.916626%, 100%)" offset="0.1875"/><stop stop-opacity="1" stop-color="rgb(93.548584%, 98.869324%, 100%)" offset="0.195312"/><stop stop-opacity="1" stop-color="rgb(93.284607%, 98.823547%, 100%)" offset="0.203125"/><stop stop-opacity="1" stop-color="rgb(93.022156%, 98.777771%, 100%)" offset="0.210938"/><stop stop-opacity="1" stop-color="rgb(92.758179%, 98.731995%, 100%)" offset="0.21875"/><stop stop-opacity="1" stop-color="rgb(92.495728%, 98.684692%, 100%)" offset="0.226562"/><stop stop-opacity="1" stop-color="rgb(92.23175%, 98.638916%, 100%)" offset="0.234375"/><stop stop-opacity="1" stop-color="rgb(91.969299%, 98.59314%, 100%)" offset="0.242188"/><stop stop-opacity="1" stop-color="rgb(91.705322%, 98.547363%, 100%)" offset="0.25"/><stop stop-opacity="1" stop-color="rgb(91.442871%, 98.501587%, 100%)" offset="0.257812"/><stop stop-opacity="1" stop-color="rgb(91.178894%, 98.454285%, 100%)" offset="0.265625"/><stop stop-opacity="1" stop-color="rgb(90.914917%, 98.408508%, 100%)" offset="0.273437"/><stop stop-opacity="1" stop-color="rgb(90.652466%, 98.362732%, 100%)" offset="0.28125"/><stop stop-opacity="1" stop-color="rgb(90.388489%, 98.316956%, 100%)" offset="0.289062"/><stop stop-opacity="1" stop-color="rgb(90.126038%, 98.271179%, 100%)" offset="0.296875"/><stop stop-opacity="1" stop-color="rgb(89.862061%, 98.223877%, 100%)" offset="0.304687"/><stop stop-opacity="1" stop-color="rgb(89.599609%, 98.178101%, 100%)" offset="0.3125"/><stop stop-opacity="1" stop-color="rgb(89.335632%, 98.132324%, 100%)" offset="0.320312"/><stop stop-opacity="1" stop-color="rgb(89.073181%, 98.086548%, 100%)" offset="0.328125"/><stop stop-opacity="1" stop-color="rgb(88.809204%, 98.040771%, 100%)" offset="0.335937"/><stop stop-opacity="1" stop-color="rgb(88.546753%, 97.993469%, 100%)" offset="0.34375"/><stop stop-opacity="1" stop-color="rgb(88.282776%, 97.947693%, 100%)" offset="0.351562"/><stop stop-opacity="1" stop-color="rgb(88.018799%, 97.901917%, 100%)" offset="0.359375"/><stop stop-opacity="1" stop-color="rgb(87.756348%, 97.85614%, 100%)" offset="0.367188"/><stop stop-opacity="1" stop-color="rgb(87.492371%, 97.810364%, 100%)" offset="0.375"/><stop stop-opacity="1" stop-color="rgb(87.229919%, 97.763062%, 100%)" offset="0.382812"/><stop stop-opacity="1" stop-color="rgb(86.965942%, 97.717285%, 100%)" offset="0.390625"/><stop stop-opacity="1" stop-color="rgb(86.703491%, 97.671509%, 100%)" offset="0.398437"/><stop stop-opacity="1" stop-color="rgb(86.439514%, 97.625732%, 100%)" offset="0.40625"/><stop stop-opacity="1" stop-color="rgb(86.177063%, 97.57843%, 100%)" offset="0.414062"/><stop stop-opacity="1" stop-color="rgb(85.913086%, 97.532654%, 100%)" offset="0.421875"/><stop stop-opacity="1" stop-color="rgb(85.650635%, 97.486877%, 100%)" offset="0.429687"/><stop stop-opacity="1" stop-color="rgb(85.386658%, 97.441101%, 100%)" offset="0.4375"/><stop stop-opacity="1" stop-color="rgb(85.124207%, 97.395325%, 100%)" offset="0.445312"/><stop stop-opacity="1" stop-color="rgb(84.860229%, 97.348022%, 100%)" offset="0.453125"/><stop stop-opacity="1" stop-color="rgb(84.596252%, 97.302246%, 100%)" offset="0.460937"/><stop stop-opacity="1" stop-color="rgb(84.333801%, 97.25647%, 100%)" offset="0.46875"/><stop stop-opacity="1" stop-color="rgb(84.069824%, 97.210693%, 100%)" offset="0.473169"/><stop stop-opacity="1" stop-color="rgb(83.938599%, 97.187805%, 100%)" offset="0.476562"/><stop stop-opacity="1" stop-color="rgb(83.807373%, 97.164917%, 100%)" offset="0.484375"/><stop stop-opacity="1" stop-color="rgb(83.543396%, 97.117615%, 100%)" offset="0.492188"/><stop stop-opacity="1" stop-color="rgb(83.280945%, 97.071838%, 100%)" offset="0.5"/><stop stop-opacity="1" stop-color="rgb(83.016968%, 97.026062%, 100%)" offset="0.507813"/><stop stop-opacity="1" stop-color="rgb(82.754517%, 96.980286%, 100%)" offset="0.515625"/><stop stop-opacity="1" stop-color="rgb(82.49054%, 96.934509%, 100%)" offset="0.523438"/><stop stop-opacity="1" stop-color="rgb(82.228088%, 96.887207%, 100%)" offset="0.526831"/><stop stop-opacity="1" stop-color="rgb(82.096863%, 96.864319%, 100%)" offset="0.53125"/><stop stop-opacity="1" stop-color="rgb(81.964111%, 96.841431%, 100%)" offset="0.539062"/><stop stop-opacity="1" stop-color="rgb(81.700134%, 96.795654%, 100%)" offset="0.546875"/><stop stop-opacity="1" stop-color="rgb(81.437683%, 96.749878%, 100%)" offset="0.554688"/><stop stop-opacity="1" stop-color="rgb(81.173706%, 96.704102%, 100%)" offset="0.5625"/><stop stop-opacity="1" stop-color="rgb(80.911255%, 96.656799%, 100%)" offset="0.570312"/><stop stop-opacity="1" stop-color="rgb(80.647278%, 96.611023%, 100%)" offset="0.578125"/><stop stop-opacity="1" stop-color="rgb(80.384827%, 96.565247%, 100%)" offset="0.585938"/><stop stop-opacity="1" stop-color="rgb(80.12085%, 96.51947%, 100%)" offset="0.59375"/><stop stop-opacity="1" stop-color="rgb(79.858398%, 96.472168%, 100%)" offset="0.601563"/><stop stop-opacity="1" stop-color="rgb(79.594421%, 96.426392%, 100%)" offset="0.609375"/><stop stop-opacity="1" stop-color="rgb(79.33197%, 96.380615%, 100%)" offset="0.617188"/><stop stop-opacity="1" stop-color="rgb(79.067993%, 96.334839%, 100%)" offset="0.625"/><stop stop-opacity="1" stop-color="rgb(78.804016%, 96.289062%, 100%)" offset="0.632812"/><stop stop-opacity="1" stop-color="rgb(78.541565%, 96.24176%, 100%)" offset="0.640625"/><stop stop-opacity="1" stop-color="rgb(78.277588%, 96.195984%, 100%)" offset="0.648437"/><stop stop-opacity="1" stop-color="rgb(78.015137%, 96.150208%, 100%)" offset="0.65625"/><stop stop-opacity="1" stop-color="rgb(77.75116%, 96.104431%, 100%)" offset="0.664062"/><stop stop-opacity="1" stop-color="rgb(77.488708%, 96.058655%, 100%)" offset="0.671875"/><stop stop-opacity="1" stop-color="rgb(77.224731%, 96.011353%, 100%)" offset="0.679688"/><stop stop-opacity="1" stop-color="rgb(76.96228%, 95.965576%, 100%)" offset="0.6875"/><stop stop-opacity="1" stop-color="rgb(76.698303%, 95.9198%, 100%)" offset="0.695312"/><stop stop-opacity="1" stop-color="rgb(76.435852%, 95.874023%, 100%)" offset="0.703125"/><stop stop-opacity="1" stop-color="rgb(76.171875%, 95.828247%, 100%)" offset="0.710938"/><stop stop-opacity="1" stop-color="rgb(75.907898%, 95.780945%, 100%)" offset="0.71875"/><stop stop-opacity="1" stop-color="rgb(75.645447%, 95.735168%, 100%)" offset="0.726562"/><stop stop-opacity="1" stop-color="rgb(75.38147%, 95.689392%, 100%)" offset="0.734375"/><stop stop-opacity="1" stop-color="rgb(75.119019%, 95.643616%, 100%)" offset="0.742187"/><stop stop-opacity="1" stop-color="rgb(74.855042%, 95.597839%, 100%)" offset="0.75"/><stop stop-opacity="1" stop-color="rgb(74.59259%, 95.550537%, 100%)" offset="0.757813"/><stop stop-opacity="1" stop-color="rgb(74.328613%, 95.504761%, 100%)" offset="0.765625"/><stop stop-opacity="1" stop-color="rgb(74.066162%, 95.458984%, 100%)" offset="0.773438"/><stop stop-opacity="1" stop-color="rgb(73.802185%, 95.413208%, 100%)" offset="0.78125"/><stop stop-opacity="1" stop-color="rgb(73.539734%, 95.365906%, 100%)" offset="0.789062"/><stop stop-opacity="1" stop-color="rgb(73.275757%, 95.320129%, 100%)" offset="0.796875"/><stop stop-opacity="1" stop-color="rgb(73.013306%, 95.274353%, 100%)" offset="0.804688"/><stop stop-opacity="1" stop-color="rgb(72.749329%, 95.228577%, 100%)" offset="0.8125"/><stop stop-opacity="1" stop-color="rgb(72.485352%, 95.1828%, 100%)" offset="0.820312"/><stop stop-opacity="1" stop-color="rgb(72.2229%, 95.135498%, 100%)" offset="0.828125"/><stop stop-opacity="1" stop-color="rgb(71.958923%, 95.089722%, 100%)" offset="0.835938"/><stop stop-opacity="1" stop-color="rgb(71.696472%, 95.043945%, 100%)" offset="0.84375"/><stop stop-opacity="1" stop-color="rgb(71.432495%, 94.998169%, 100%)" offset="0.851563"/><stop stop-opacity="1" stop-color="rgb(71.170044%, 94.952393%, 100%)" offset="0.859375"/><stop stop-opacity="1" stop-color="rgb(70.906067%, 94.90509%, 100%)" offset="0.867188"/><stop stop-opacity="1" stop-color="rgb(70.643616%, 94.859314%, 100%)" offset="0.875"/><stop stop-opacity="1" stop-color="rgb(70.379639%, 94.813538%, 100%)" offset="0.882812"/><stop stop-opacity="1" stop-color="rgb(70.117188%, 94.767761%, 100%)" offset="0.890625"/><stop stop-opacity="1" stop-color="rgb(69.85321%, 94.721985%, 100%)" offset="0.898437"/><stop stop-opacity="1" stop-color="rgb(69.589233%, 94.674683%, 100%)" offset="0.90625"/><stop stop-opacity="1" stop-color="rgb(69.326782%, 94.628906%, 100%)" offset="0.914062"/><stop stop-opacity="1" stop-color="rgb(69.062805%, 94.58313%, 100%)" offset="0.921875"/><stop stop-opacity="1" stop-color="rgb(68.800354%, 94.537354%, 100%)" offset="0.929688"/><stop stop-opacity="1" stop-color="rgb(68.536377%, 94.491577%, 100%)" offset="0.9375"/><stop stop-opacity="1" stop-color="rgb(68.273926%, 94.444275%, 100%)" offset="0.945312"/><stop stop-opacity="1" stop-color="rgb(68.009949%, 94.398499%, 100%)" offset="0.953125"/><stop stop-opacity="1" stop-color="rgb(67.747498%, 94.352722%, 100%)" offset="0.960938"/><stop stop-opacity="1" stop-color="rgb(67.483521%, 94.306946%, 100%)" offset="0.96875"/><stop stop-opacity="1" stop-color="rgb(67.221069%, 94.261169%, 100%)" offset="0.976562"/><stop stop-opacity="1" stop-color="rgb(66.957092%, 94.213867%, 100%)" offset="0.984375"/><stop stop-opacity="1" stop-color="rgb(66.693115%, 94.168091%, 100%)" offset="0.992187"/><stop stop-opacity="1" stop-color="rgb(66.430664%, 94.122314%, 100%)" offset="1"/></linearGradient><clipPath id="5d38ac83ff"><path d="M 26.367188 8 L 348.632812 8 L 348.632812 367 L 26.367188 367 Z M 26.367188 8 " clip-rule="nonzero"/></clipPath><clipPath id="84888cd6c3"><path d="M 213.429688 15.085938 L 322.703125 78.664062 C 338.757812 88.003906 348.632812 105.175781 348.632812 123.75 L 348.632812 251.25 C 348.632812 269.824219 338.757812 286.996094 322.703125 296.335938 L 213.429688 359.914062 C 197.402344 369.238281 177.597656 369.238281 161.570312 359.914062 L 52.296875 296.335938 C 36.242188 286.996094 26.367188 269.824219 26.367188 251.25 L 26.367188 123.75 C 26.367188 105.175781 36.242188 88.003906 52.296875 78.664062 L 161.570312 15.085938 C 177.597656 5.761719 197.402344 5.761719 213.429688 15.085938 Z M 213.429688 15.085938 " clip-rule="nonzero"/></clipPath><clipPath id="d95b991e89"><path d="M 86 85 L 289 85 L 289 289 L 86 289 Z M 86 85 " clip-rule="nonzero"/></clipPath><clipPath id="5e9cfb9aaf"><path d="M 58.054688 125.722656 L 248.953125 58.167969 L 316.511719 249.066406 L 125.609375 316.625 Z M 58.054688 125.722656 " clip-rule="nonzero"/></clipPath><clipPath id="d425c59820"><path d="M 58.054688 125.722656 L 248.953125 58.167969 L 316.511719 249.066406 L 125.609375 316.625 Z M 58.054688 125.722656 " clip-rule="nonzero"/></clipPath></defs><g clip-path="url(#77e35f4631)"><g clip-path="url(#cf90b92674)"><path fill="url(#1682b9378f)" d="M 26.367188 8.089844 L 26.367188 366.90625 L 348.632812 366.90625 L 348.632812 8.089844 Z M 26.367188 8.089844 " fill-rule="nonzero"/></g></g><g clip-path="url(#5d38ac83ff)"><g clip-path="url(#84888cd6c3)"><path stroke-linecap="butt" transform="matrix(0.75, 0, 0, 0.75, 26.36719, 0)" fill="none" stroke-linejoin="miter" d="M 249.416663 20.114583 L 395.11458 104.885417 C 416.52083 117.338542 429.687497 140.234375 429.687497 165 L 429.687497 335.000001 C 429.687497 359.765626 416.52083 382.661459 395.11458 395.114584 L 249.416663 479.885417 C 228.046872 492.317709 201.640622 492.317709 180.27083 479.885417 L 34.572913 395.114584 C 13.166663 382.661459 -0.00000361141 359.765626 -0.00000361141 335.000001 L -0.00000361141 165 C -0.00000361141 140.234375 13.166663 117.338542 34.572913 104.885417 L 180.27083 20.114583 C 201.640622 7.682292 228.046872 7.682292 249.416663 20.114583 Z M 249.416663 20.114583 " stroke="#1d74ab" stroke-width="50" stroke-opacity="1" stroke-miterlimit="4"/></g></g><g clip-path="url(#d95b991e89)"><g clip-path="url(#5e9cfb9aaf)"><g clip-path="url(#d425c59820)"><path fill="#1d74ab" d="M 188.324219 85.863281 C 172.8125 85.707031 158.265625 89.332031 145.050781 95.441406 C 129.652344 102.296875 123.660156 109.929688 123.808594 108.882812 C 101.175781 127.292969 86.316406 154.9375 86.050781 186.410156 C 85.570312 242.46875 130.585938 288.347656 186.574219 288.882812 C 242.597656 289.410156 288.371094 244.386719 288.859375 188.324219 C 289.34375 132.273438 244.332031 86.394531 188.324219 85.863281 M 186.664062 278.746094 C 180.796875 278.652344 174.988281 278.003906 169.238281 276.808594 C 192.972656 270.410156 221.257812 254.414062 234.859375 228.179688 C 234.859375 228.179688 262.667969 183.484375 216.625 142.570312 C 216.625 142.570312 228.402344 161.460938 228.59375 180.351562 C 228.59375 180.351562 231.210938 205.222656 209.128906 220.519531 C 176.609375 243.066406 126.6875 232.390625 105.21875 226.246094 C 99.492188 214.160156 96.054688 200.800781 96.183594 186.519531 C 96.363281 165.367188 103.996094 146.207031 116.171875 130.851562 C 121.957031 159.609375 133.96875 183.726562 142.148438 192.710938 C 153.128906 204.753906 169.339844 217.605469 190.324219 212.554688 C 211.3125 207.519531 215.765625 184.632812 215.765625 184.632812 C 220.574219 165.179688 214.183594 141.953125 213.828125 141.460938 C 213.472656 140.960938 210.339844 140.390625 210.339844 140.390625 C 213.359375 171.140625 205.179688 184.660156 205.179688 184.660156 C 193.21875 208.625 176.046875 201.019531 176.046875 201.019531 C 156.957031 191.054688 158.101562 163.484375 158.101562 163.484375 C 157.703125 145.121094 164.960938 115.476562 178.519531 96.910156 C 181.757812 96.589844 184.917969 95.992188 188.242188 96.015625 C 194.15625 96.078125 200.007812 96.710938 205.796875 97.921875 C 211.589844 99.132812 217.207031 100.890625 222.648438 103.203125 C 211.261719 112.605469 193.71875 130.164062 193.71875 130.164062 C 165.238281 156.109375 170.519531 178.230469 170.519531 178.230469 C 174.832031 201.433594 188.980469 185.953125 188.980469 185.953125 C 203.828125 170.863281 203.007812 140.503906 203.007812 140.503906 C 197.03125 141.417969 193.21875 144.683594 193.21875 144.683594 C 192.316406 164.90625 180.273438 177.34375 180.273438 177.34375 C 175.597656 182.421875 172.359375 177.519531 172.359375 177.519531 C 169.957031 173.832031 174.847656 171.332031 174.847656 171.332031 C 181.71875 165.410156 183.847656 155.242188 183.792969 151.417969 C 183.730469 147.585938 185.769531 146.558594 185.769531 146.558594 C 191.820312 142.007812 198.273438 138.125 205.128906 134.910156 C 218.082031 128.453125 241.109375 127.574219 241.109375 127.574219 C 246.425781 127.800781 251.378906 127.617188 255.738281 127.339844 C 270.058594 143.644531 278.914062 164.839844 278.722656 188.238281 C 278.292969 238.683594 237.078125 279.214844 186.664062 278.75 " fill-opacity="1" fill-rule="nonzero"/></g></g></g></svg>