<svg xmlns="http://www.w3.org/2000/svg" xmlns:xlink="http://www.w3.org/1999/xlink" width="40" zoomAndPan="magnify" viewBox="0 0 30 30.000001" height="40" preserveAspectRatio="xMidYMid meet" version="1.0"><defs><clipPath id="9d0b39dadd"><path d="M 2.523438 0.625 L 27.476562 0.625 L 27.476562 28.40625 L 2.523438 28.40625 Z M 2.523438 0.625 " clip-rule="nonzero"/></clipPath><clipPath id="dd2700bb02"><path d="M 17.007812 1.167969 L 25.46875 6.089844 C 26.710938 6.8125 27.476562 8.144531 27.476562 9.582031 L 27.476562 19.453125 C 27.476562 20.890625 26.710938 22.21875 25.46875 22.941406 L 17.007812 27.863281 C 15.765625 28.585938 14.234375 28.585938 12.992188 27.863281 L 4.53125 22.941406 C 3.289062 22.21875 2.523438 20.890625 2.523438 19.453125 L 2.523438 9.582031 C 2.523438 8.144531 3.289062 6.8125 4.53125 6.089844 L 12.992188 1.167969 C 14.234375 0.445312 15.765625 0.445312 17.007812 1.167969 Z M 17.007812 1.167969 " clip-rule="nonzero"/></clipPath><linearGradient x1="-7.258985" gradientTransform="matrix(0.0974594, 0, 0, 0.0974594, 2.525201, -0.0000164516)" y1="13.687016" x2="263.258472" gradientUnits="userSpaceOnUse" y2="284.203482" id="5227f8a5a9"><stop stop-opacity="1" stop-color="rgb(99.998474%, 99.998474%, 100%)" offset="0"/><stop stop-opacity="1" stop-color="rgb(99.867249%, 99.975586%, 100%)" offset="0.0078125"/><stop stop-opacity="1" stop-color="rgb(99.603271%, 99.92981%, 100%)" offset="0.015625"/><stop stop-opacity="1" stop-color="rgb(99.34082%, 99.884033%, 100%)" offset="0.0234375"/><stop stop-opacity="1" stop-color="rgb(99.076843%, 99.838257%, 100%)" offset="0.03125"/><stop stop-opacity="1" stop-color="rgb(98.814392%, 99.790955%, 100%)" offset="0.0390625"/><stop stop-opacity="1" stop-color="rgb(98.550415%, 99.745178%, 100%)" offset="0.046875"/><stop stop-opacity="1" stop-color="rgb(98.287964%, 99.699402%, 100%)" offset="0.0546875"/><stop stop-opacity="1" stop-color="rgb(98.023987%, 99.653625%, 100%)" offset="0.0625"/><stop stop-opacity="1" stop-color="rgb(97.761536%, 99.607849%, 100%)" offset="0.0703125"/><stop stop-opacity="1" stop-color="rgb(97.497559%, 99.560547%, 100%)" offset="0.078125"/><stop stop-opacity="1" stop-color="rgb(97.235107%, 99.514771%, 100%)" offset="0.0859375"/><stop stop-opacity="1" stop-color="rgb(96.97113%, 99.468994%, 100%)" offset="0.09375"/><stop stop-opacity="1" stop-color="rgb(96.707153%, 99.423218%, 100%)" offset="0.101562"/><stop stop-opacity="1" stop-color="rgb(96.444702%, 99.377441%, 100%)" offset="0.109375"/><stop stop-opacity="1" stop-color="rgb(96.180725%, 99.330139%, 100%)" offset="0.117188"/><stop stop-opacity="1" stop-color="rgb(95.918274%, 99.284363%, 100%)" offset="0.125"/><stop stop-opacity="1" stop-color="rgb(95.654297%, 99.238586%, 100%)" offset="0.132812"/><stop stop-opacity="1" stop-color="rgb(95.391846%, 99.19281%, 100%)" offset="0.140625"/><stop stop-opacity="1" stop-color="rgb(95.127869%, 99.147034%, 100%)" offset="0.148438"/><stop stop-opacity="1" stop-color="rgb(94.865417%, 99.099731%, 100%)" offset="0.15625"/><stop stop-opacity="1" stop-color="rgb(94.60144%, 99.053955%, 100%)" offset="0.164062"/><stop stop-opacity="1" stop-color="rgb(94.338989%, 99.008179%, 100%)" offset="0.171875"/><stop stop-opacity="1" stop-color="rgb(94.075012%, 98.962402%, 100%)" offset="0.179688"/><stop stop-opacity="1" stop-color="rgb(93.811035%, 98.916626%, 100%)" offset="0.1875"/><stop stop-opacity="1" stop-color="rgb(93.548584%, 98.869324%, 100%)" offset="0.195312"/><stop stop-opacity="1" stop-color="rgb(93.284607%, 98.823547%, 100%)" offset="0.203125"/><stop stop-opacity="1" stop-color="rgb(93.022156%, 98.777771%, 100%)" offset="0.210938"/><stop stop-opacity="1" stop-color="rgb(92.758179%, 98.731995%, 100%)" offset="0.21875"/><stop stop-opacity="1" stop-color="rgb(92.495728%, 98.684692%, 100%)" offset="0.226562"/><stop stop-opacity="1" stop-color="rgb(92.23175%, 98.638916%, 100%)" offset="0.234375"/><stop stop-opacity="1" stop-color="rgb(91.969299%, 98.59314%, 100%)" offset="0.242188"/><stop stop-opacity="1" stop-color="rgb(91.705322%, 98.547363%, 100%)" offset="0.25"/><stop stop-opacity="1" stop-color="rgb(91.442871%, 98.501587%, 100%)" offset="0.257812"/><stop stop-opacity="1" stop-color="rgb(91.178894%, 98.454285%, 100%)" offset="0.265625"/><stop stop-opacity="1" stop-color="rgb(90.914917%, 98.408508%, 100%)" offset="0.273438"/><stop stop-opacity="1" stop-color="rgb(90.652466%, 98.362732%, 100%)" offset="0.28125"/><stop stop-opacity="1" stop-color="rgb(90.388489%, 98.316956%, 100%)" offset="0.289062"/><stop stop-opacity="1" stop-color="rgb(90.126038%, 98.271179%, 100%)" offset="0.296875"/><stop stop-opacity="1" stop-color="rgb(89.862061%, 98.223877%, 100%)" offset="0.304687"/><stop stop-opacity="1" stop-color="rgb(89.599609%, 98.178101%, 100%)" offset="0.3125"/><stop stop-opacity="1" stop-color="rgb(89.335632%, 98.132324%, 100%)" offset="0.320312"/><stop stop-opacity="1" stop-color="rgb(89.073181%, 98.086548%, 100%)" offset="0.328125"/><stop stop-opacity="1" stop-color="rgb(88.809204%, 98.040771%, 100%)" offset="0.335938"/><stop stop-opacity="1" stop-color="rgb(88.546753%, 97.993469%, 100%)" offset="0.34375"/><stop stop-opacity="1" stop-color="rgb(88.282776%, 97.947693%, 100%)" offset="0.351562"/><stop stop-opacity="1" stop-color="rgb(88.018799%, 97.901917%, 100%)" offset="0.359375"/><stop stop-opacity="1" stop-color="rgb(87.756348%, 97.85614%, 100%)" offset="0.367187"/><stop stop-opacity="1" stop-color="rgb(87.492371%, 97.810364%, 100%)" offset="0.375"/><stop stop-opacity="1" stop-color="rgb(87.229919%, 97.763062%, 100%)" offset="0.382812"/><stop stop-opacity="1" stop-color="rgb(86.965942%, 97.717285%, 100%)" offset="0.390625"/><stop stop-opacity="1" stop-color="rgb(86.703491%, 97.671509%, 100%)" offset="0.398437"/><stop stop-opacity="1" stop-color="rgb(86.439514%, 97.625732%, 100%)" offset="0.40625"/><stop stop-opacity="1" stop-color="rgb(86.177063%, 97.57843%, 100%)" offset="0.414062"/><stop stop-opacity="1" stop-color="rgb(85.913086%, 97.532654%, 100%)" offset="0.421875"/><stop stop-opacity="1" stop-color="rgb(85.650635%, 97.486877%, 100%)" offset="0.429687"/><stop stop-opacity="1" stop-color="rgb(85.386658%, 97.441101%, 100%)" offset="0.4375"/><stop stop-opacity="1" stop-color="rgb(85.124207%, 97.395325%, 100%)" offset="0.445312"/><stop stop-opacity="1" stop-color="rgb(84.860229%, 97.348022%, 100%)" offset="0.453125"/><stop stop-opacity="1" stop-color="rgb(84.596252%, 97.302246%, 100%)" offset="0.460937"/><stop stop-opacity="1" stop-color="rgb(84.333801%, 97.25647%, 100%)" offset="0.46875"/><stop stop-opacity="1" stop-color="rgb(84.069824%, 97.210693%, 100%)" offset="0.473169"/><stop stop-opacity="1" stop-color="rgb(83.938599%, 97.187805%, 100%)" offset="0.476562"/><stop stop-opacity="1" stop-color="rgb(83.807373%, 97.164917%, 100%)" offset="0.484375"/><stop stop-opacity="1" stop-color="rgb(83.543396%, 97.117615%, 100%)" offset="0.492187"/><stop stop-opacity="1" stop-color="rgb(83.280945%, 97.071838%, 100%)" offset="0.5"/><stop stop-opacity="1" stop-color="rgb(83.016968%, 97.026062%, 100%)" offset="0.507812"/><stop stop-opacity="1" stop-color="rgb(82.754517%, 96.980286%, 100%)" offset="0.515625"/><stop stop-opacity="1" stop-color="rgb(82.49054%, 96.934509%, 100%)" offset="0.523438"/><stop stop-opacity="1" stop-color="rgb(82.228088%, 96.887207%, 100%)" offset="0.526831"/><stop stop-opacity="1" stop-color="rgb(82.096863%, 96.864319%, 100%)" offset="0.53125"/><stop stop-opacity="1" stop-color="rgb(81.964111%, 96.841431%, 100%)" offset="0.539062"/><stop stop-opacity="1" stop-color="rgb(81.700134%, 96.795654%, 100%)" offset="0.546875"/><stop stop-opacity="1" stop-color="rgb(81.437683%, 96.749878%, 100%)" offset="0.554688"/><stop stop-opacity="1" stop-color="rgb(81.173706%, 96.704102%, 100%)" offset="0.5625"/><stop stop-opacity="1" stop-color="rgb(80.911255%, 96.656799%, 100%)" offset="0.570313"/><stop stop-opacity="1" stop-color="rgb(80.647278%, 96.611023%, 100%)" offset="0.578125"/><stop stop-opacity="1" stop-color="rgb(80.384827%, 96.565247%, 100%)" offset="0.585938"/><stop stop-opacity="1" stop-color="rgb(80.12085%, 96.51947%, 100%)" offset="0.59375"/><stop stop-opacity="1" stop-color="rgb(79.858398%, 96.472168%, 100%)" offset="0.601563"/><stop stop-opacity="1" stop-color="rgb(79.594421%, 96.426392%, 100%)" offset="0.609375"/><stop stop-opacity="1" stop-color="rgb(79.33197%, 96.380615%, 100%)" offset="0.617188"/><stop stop-opacity="1" stop-color="rgb(79.067993%, 96.334839%, 100%)" offset="0.625"/><stop stop-opacity="1" stop-color="rgb(78.804016%, 96.289062%, 100%)" offset="0.632812"/><stop stop-opacity="1" stop-color="rgb(78.541565%, 96.24176%, 100%)" offset="0.640625"/><stop stop-opacity="1" stop-color="rgb(78.277588%, 96.195984%, 100%)" offset="0.648438"/><stop stop-opacity="1" stop-color="rgb(78.015137%, 96.150208%, 100%)" offset="0.65625"/><stop stop-opacity="1" stop-color="rgb(77.75116%, 96.104431%, 100%)" offset="0.664062"/><stop stop-opacity="1" stop-color="rgb(77.488708%, 96.058655%, 100%)" offset="0.671875"/><stop stop-opacity="1" stop-color="rgb(77.224731%, 96.011353%, 100%)" offset="0.679687"/><stop stop-opacity="1" stop-color="rgb(76.96228%, 95.965576%, 100%)" offset="0.6875"/><stop stop-opacity="1" stop-color="rgb(76.698303%, 95.9198%, 100%)" offset="0.695313"/><stop stop-opacity="1" stop-color="rgb(76.435852%, 95.874023%, 100%)" offset="0.703125"/><stop stop-opacity="1" stop-color="rgb(76.171875%, 95.828247%, 100%)" offset="0.710938"/><stop stop-opacity="1" stop-color="rgb(75.907898%, 95.780945%, 100%)" offset="0.71875"/><stop stop-opacity="1" stop-color="rgb(75.645447%, 95.735168%, 100%)" offset="0.726563"/><stop stop-opacity="1" stop-color="rgb(75.38147%, 95.689392%, 100%)" offset="0.734375"/><stop stop-opacity="1" stop-color="rgb(75.119019%, 95.643616%, 100%)" offset="0.742188"/><stop stop-opacity="1" stop-color="rgb(74.855042%, 95.597839%, 100%)" offset="0.75"/><stop stop-opacity="1" stop-color="rgb(74.59259%, 95.550537%, 100%)" offset="0.757812"/><stop stop-opacity="1" stop-color="rgb(74.328613%, 95.504761%, 100%)" offset="0.765625"/><stop stop-opacity="1" stop-color="rgb(74.066162%, 95.458984%, 100%)" offset="0.773438"/><stop stop-opacity="1" stop-color="rgb(73.802185%, 95.413208%, 100%)" offset="0.78125"/><stop stop-opacity="1" stop-color="rgb(73.539734%, 95.365906%, 100%)" offset="0.789062"/><stop stop-opacity="1" stop-color="rgb(73.275757%, 95.320129%, 100%)" offset="0.796875"/><stop stop-opacity="1" stop-color="rgb(73.013306%, 95.274353%, 100%)" offset="0.804687"/><stop stop-opacity="1" stop-color="rgb(72.749329%, 95.228577%, 100%)" offset="0.8125"/><stop stop-opacity="1" stop-color="rgb(72.485352%, 95.1828%, 100%)" offset="0.820313"/><stop stop-opacity="1" stop-color="rgb(72.2229%, 95.135498%, 100%)" offset="0.828125"/><stop stop-opacity="1" stop-color="rgb(71.958923%, 95.089722%, 100%)" offset="0.835938"/><stop stop-opacity="1" stop-color="rgb(71.696472%, 95.043945%, 100%)" offset="0.84375"/><stop stop-opacity="1" stop-color="rgb(71.432495%, 94.998169%, 100%)" offset="0.851563"/><stop stop-opacity="1" stop-color="rgb(71.170044%, 94.952393%, 100%)" offset="0.859375"/><stop stop-opacity="1" stop-color="rgb(70.906067%, 94.90509%, 100%)" offset="0.867188"/><stop stop-opacity="1" stop-color="rgb(70.643616%, 94.859314%, 100%)" offset="0.875"/><stop stop-opacity="1" stop-color="rgb(70.379639%, 94.813538%, 100%)" offset="0.882812"/><stop stop-opacity="1" stop-color="rgb(70.117188%, 94.767761%, 100%)" offset="0.890625"/><stop stop-opacity="1" stop-color="rgb(69.85321%, 94.721985%, 100%)" offset="0.898438"/><stop stop-opacity="1" stop-color="rgb(69.589233%, 94.674683%, 100%)" offset="0.90625"/><stop stop-opacity="1" stop-color="rgb(69.326782%, 94.628906%, 100%)" offset="0.914062"/><stop stop-opacity="1" stop-color="rgb(69.062805%, 94.58313%, 100%)" offset="0.921875"/><stop stop-opacity="1" stop-color="rgb(68.800354%, 94.537354%, 100%)" offset="0.929687"/><stop stop-opacity="1" stop-color="rgb(68.536377%, 94.491577%, 100%)" offset="0.9375"/><stop stop-opacity="1" stop-color="rgb(68.273926%, 94.444275%, 100%)" offset="0.945313"/><stop stop-opacity="1" stop-color="rgb(68.009949%, 94.398499%, 100%)" offset="0.953125"/><stop stop-opacity="1" stop-color="rgb(67.747498%, 94.352722%, 100%)" offset="0.960938"/><stop stop-opacity="1" stop-color="rgb(67.483521%, 94.306946%, 100%)" offset="0.96875"/><stop stop-opacity="1" stop-color="rgb(67.221069%, 94.261169%, 100%)" offset="0.976562"/><stop stop-opacity="1" stop-color="rgb(66.957092%, 94.213867%, 100%)" offset="0.984375"/><stop stop-opacity="1" stop-color="rgb(66.693115%, 94.168091%, 100%)" offset="0.992188"/><stop stop-opacity="1" stop-color="rgb(66.430664%, 94.122314%, 100%)" offset="1"/></linearGradient><clipPath id="9556d8516d"><path d="M 2.523438 0.453125 L 27.203125 0.453125 L 27.203125 28.578125 L 2.523438 28.578125 Z M 2.523438 0.453125 " clip-rule="nonzero"/></clipPath><clipPath id="ca8e2c20c0"><path d="M 17.007812 1.167969 L 25.46875 6.089844 C 26.710938 6.8125 27.476562 8.144531 27.476562 9.582031 L 27.476562 19.453125 C 27.476562 20.890625 26.710938 22.21875 25.46875 22.941406 L 17.007812 27.863281 C 15.765625 28.585938 14.234375 28.585938 12.992188 27.863281 L 4.53125 22.941406 C 3.289062 22.21875 2.523438 20.890625 2.523438 19.453125 L 2.523438 9.582031 C 2.523438 8.144531 3.289062 6.8125 4.53125 6.089844 L 12.992188 1.167969 C 14.234375 0.445312 15.765625 0.445312 17.007812 1.167969 Z M 17.007812 1.167969 " clip-rule="nonzero"/></clipPath><clipPath id="7c7299f451"><path d="M 7 6 L 23 6 L 23 23 L 7 23 Z M 7 6 " clip-rule="nonzero"/></clipPath><clipPath id="3883ffa936"><path d="M 4.980469 9.730469 L 20.03125 4.40625 L 25.359375 19.457031 L 10.304688 24.785156 Z M 4.980469 9.730469 " clip-rule="nonzero"/></clipPath><clipPath id="1ddbb22afb"><path d="M 4.980469 9.730469 L 20.03125 4.40625 L 25.359375 19.457031 L 10.304688 24.785156 Z M 4.980469 9.730469 " clip-rule="nonzero"/></clipPath></defs><g clip-path="url(#9d0b39dadd)"><g clip-path="url(#dd2700bb02)"><path fill="url(#5227f8a5a9)" d="M 2.523438 0.625 L 2.523438 28.40625 L 27.476562 28.40625 L 27.476562 0.625 Z M 2.523438 0.625 " fill-rule="nonzero"/></g></g><g clip-path="url(#9556d8516d)"><g clip-path="url(#ca8e2c20c0)"><path stroke-linecap="butt" transform="matrix(0.725806, 0, 0, 0.725806, 2.525201, 0.00000193548)" fill="none" stroke-linejoin="miter" d="M 19.95382 1.609199 L 31.611112 8.390449 C 33.32257 9.386109 34.377432 11.221352 34.377432 13.201907 L 34.377432 26.802081 C 34.377432 28.782636 33.32257 30.612498 31.611112 31.608157 L 19.95382 38.389407 C 18.242362 39.385067 16.13264 39.385067 14.421181 38.389407 L 2.76389 31.608157 C 1.052431 30.612498 -0.00242987 28.782636 -0.00242987 26.802081 L -0.00242987 13.201907 C -0.00242987 11.221352 1.052431 9.386109 2.76389 8.390449 L 14.421181 1.609199 C 16.13264 0.613539 18.242362 0.613539 19.95382 1.609199 Z M 19.95382 1.609199 " stroke="#1d74ab" stroke-width="4" stroke-opacity="1" stroke-miterlimit="4"/></g></g><g clip-path="url(#7c7299f451)"><g clip-path="url(#3883ffa936)"><g clip-path="url(#1ddbb22afb)"><path fill="#1d74ab" d="M 15.058594 6.648438 C 13.859375 6.636719 12.734375 6.914062 11.710938 7.386719 C 10.519531 7.917969 10.054688 8.511719 10.066406 8.429688 C 8.316406 9.851562 7.167969 11.992188 7.144531 14.429688 C 7.109375 18.765625 10.59375 22.316406 14.925781 22.355469 C 19.257812 22.398438 22.800781 18.914062 22.839844 14.574219 C 22.875 10.238281 19.394531 6.6875 15.058594 6.648438 M 14.929688 21.574219 C 14.476562 21.566406 14.027344 21.515625 13.582031 21.421875 C 15.417969 20.925781 17.609375 19.691406 18.660156 17.660156 C 18.660156 17.660156 20.8125 14.203125 17.25 11.035156 C 17.25 11.035156 18.160156 12.496094 18.175781 13.960938 C 18.175781 13.960938 18.378906 15.882812 16.667969 17.066406 C 14.152344 18.8125 10.289062 17.984375 8.628906 17.511719 C 8.1875 16.574219 7.921875 15.542969 7.929688 14.4375 C 7.945312 12.800781 8.535156 11.316406 9.476562 10.128906 C 9.925781 12.355469 10.855469 14.21875 11.488281 14.914062 C 12.335938 15.847656 13.589844 16.839844 15.214844 16.449219 C 16.839844 16.0625 17.183594 14.289062 17.183594 14.289062 C 17.554688 12.785156 17.0625 10.988281 17.03125 10.949219 C 17.003906 10.910156 16.761719 10.867188 16.761719 10.867188 C 16.996094 13.246094 16.363281 14.292969 16.363281 14.292969 C 15.4375 16.148438 14.109375 15.558594 14.109375 15.558594 C 12.632812 14.789062 12.722656 12.652344 12.722656 12.652344 C 12.691406 11.234375 13.253906 8.9375 14.300781 7.503906 C 14.550781 7.476562 14.796875 7.429688 15.054688 7.433594 C 15.976562 7.441406 16.863281 7.628906 17.714844 7.988281 C 16.835938 8.714844 15.476562 10.074219 15.476562 10.074219 C 13.273438 12.082031 13.683594 13.792969 13.683594 13.792969 C 14.015625 15.589844 15.109375 14.390625 15.109375 14.390625 C 16.257812 13.226562 16.195312 10.875 16.195312 10.875 C 15.734375 10.945312 15.4375 11.199219 15.4375 11.199219 C 15.367188 12.765625 14.4375 13.726562 14.4375 13.726562 C 14.074219 14.121094 13.824219 13.738281 13.824219 13.738281 C 13.636719 13.453125 14.015625 13.261719 14.015625 13.261719 C 14.546875 12.804688 14.714844 12.015625 14.710938 11.71875 C 14.703125 11.421875 14.863281 11.34375 14.863281 11.34375 C 15.332031 10.992188 15.828125 10.691406 16.359375 10.441406 C 17.363281 9.941406 19.144531 9.875 19.144531 9.875 C 19.554688 9.894531 19.9375 9.878906 20.277344 9.855469 C 21.382812 11.117188 22.070312 12.757812 22.054688 14.570312 C 22.023438 18.472656 18.832031 21.609375 14.929688 21.574219 " fill-opacity="1" fill-rule="nonzero"/></g></g></g></svg>