<svg xmlns="http://www.w3.org/2000/svg" xmlns:xlink="http://www.w3.org/1999/xlink" width="500" zoomAndPan="magnify" viewBox="0 0 375 374.999991" height="500" preserveAspectRatio="xMidYMid meet" version="1.0"><defs><clipPath id="4f6afb50b4"><path d="M 26.367188 8.089844 L 348.632812 8.089844 L 348.632812 366.90625 L 26.367188 366.90625 Z M 26.367188 8.089844 " clip-rule="nonzero"/></clipPath><clipPath id="893f82d307"><path d="M 213.429688 15.085938 L 322.703125 78.664062 C 338.757812 88.003906 348.632812 105.175781 348.632812 123.75 L 348.632812 251.25 C 348.632812 269.824219 338.757812 286.996094 322.703125 296.335938 L 213.429688 359.914062 C 197.402344 369.238281 177.597656 369.238281 161.570312 359.914062 L 52.296875 296.335938 C 36.242188 286.996094 26.367188 269.824219 26.367188 251.25 L 26.367188 123.75 C 26.367188 105.175781 36.242188 88.003906 52.296875 78.664062 L 161.570312 15.085938 C 177.597656 5.761719 197.402344 5.761719 213.429688 15.085938 Z M 213.429688 15.085938 " clip-rule="nonzero"/></clipPath><linearGradient x1="-7.258984" gradientTransform="matrix(1.25885, 0, 0, 1.25885, 26.367192, -0.00024)" y1="13.687016" x2="263.258471" gradientUnits="userSpaceOnUse" y2="284.203481" id="7e5834b440"><stop stop-opacity="1" stop-color="rgb(100%, 99.998474%, 99.998474%)" offset="0"/><stop stop-opacity="1" stop-color="rgb(100%, 99.899292%, 99.87793%)" offset="0.0078125"/><stop stop-opacity="1" stop-color="rgb(100%, 99.699402%, 99.635315%)" offset="0.015625"/><stop stop-opacity="1" stop-color="rgb(100%, 99.501038%, 99.3927%)" offset="0.0234375"/><stop stop-opacity="1" stop-color="rgb(100%, 99.301147%, 99.151611%)" offset="0.03125"/><stop stop-opacity="1" stop-color="rgb(100%, 99.102783%, 98.908997%)" offset="0.0390625"/><stop stop-opacity="1" stop-color="rgb(100%, 98.902893%, 98.666382%)" offset="0.046875"/><stop stop-opacity="1" stop-color="rgb(100%, 98.704529%, 98.423767%)" offset="0.0546875"/><stop stop-opacity="1" stop-color="rgb(100%, 98.504639%, 98.182678%)" offset="0.0625"/><stop stop-opacity="1" stop-color="rgb(100%, 98.304749%, 97.940063%)" offset="0.0703125"/><stop stop-opacity="1" stop-color="rgb(100%, 98.106384%, 97.697449%)" offset="0.078125"/><stop stop-opacity="1" stop-color="rgb(100%, 97.906494%, 97.45636%)" offset="0.0859375"/><stop stop-opacity="1" stop-color="rgb(100%, 97.70813%, 97.213745%)" offset="0.09375"/><stop stop-opacity="1" stop-color="rgb(100%, 97.50824%, 96.97113%)" offset="0.101562"/><stop stop-opacity="1" stop-color="rgb(100%, 97.309875%, 96.728516%)" offset="0.109375"/><stop stop-opacity="1" stop-color="rgb(100%, 97.109985%, 96.487427%)" offset="0.117188"/><stop stop-opacity="1" stop-color="rgb(100%, 96.911621%, 96.244812%)" offset="0.125"/><stop stop-opacity="1" stop-color="rgb(100%, 96.711731%, 96.002197%)" offset="0.132812"/><stop stop-opacity="1" stop-color="rgb(100%, 96.511841%, 95.761108%)" offset="0.140625"/><stop stop-opacity="1" stop-color="rgb(100%, 96.313477%, 95.518494%)" offset="0.148438"/><stop stop-opacity="1" stop-color="rgb(100%, 96.113586%, 95.275879%)" offset="0.15625"/><stop stop-opacity="1" stop-color="rgb(100%, 95.915222%, 95.033264%)" offset="0.164062"/><stop stop-opacity="1" stop-color="rgb(100%, 95.715332%, 94.792175%)" offset="0.171875"/><stop stop-opacity="1" stop-color="rgb(100%, 95.516968%, 94.549561%)" offset="0.179688"/><stop stop-opacity="1" stop-color="rgb(100%, 95.317078%, 94.306946%)" offset="0.1875"/><stop stop-opacity="1" stop-color="rgb(100%, 95.118713%, 94.065857%)" offset="0.195312"/><stop stop-opacity="1" stop-color="rgb(100%, 94.918823%, 93.823242%)" offset="0.203125"/><stop stop-opacity="1" stop-color="rgb(100%, 94.718933%, 93.580627%)" offset="0.210938"/><stop stop-opacity="1" stop-color="rgb(100%, 94.520569%, 93.338013%)" offset="0.21875"/><stop stop-opacity="1" stop-color="rgb(100%, 94.320679%, 93.096924%)" offset="0.226562"/><stop stop-opacity="1" stop-color="rgb(100%, 94.122314%, 92.854309%)" offset="0.234375"/><stop stop-opacity="1" stop-color="rgb(100%, 93.922424%, 92.611694%)" offset="0.242188"/><stop stop-opacity="1" stop-color="rgb(100%, 93.72406%, 92.36908%)" offset="0.25"/><stop stop-opacity="1" stop-color="rgb(100%, 93.52417%, 92.127991%)" offset="0.257812"/><stop stop-opacity="1" stop-color="rgb(100%, 93.32428%, 91.885376%)" offset="0.265625"/><stop stop-opacity="1" stop-color="rgb(100%, 93.125916%, 91.642761%)" offset="0.273437"/><stop stop-opacity="1" stop-color="rgb(100%, 92.926025%, 91.401672%)" offset="0.28125"/><stop stop-opacity="1" stop-color="rgb(100%, 92.727661%, 91.159058%)" offset="0.289062"/><stop stop-opacity="1" stop-color="rgb(100%, 92.527771%, 90.916443%)" offset="0.296875"/><stop stop-opacity="1" stop-color="rgb(100%, 92.329407%, 90.673828%)" offset="0.304687"/><stop stop-opacity="1" stop-color="rgb(100%, 92.129517%, 90.432739%)" offset="0.3125"/><stop stop-opacity="1" stop-color="rgb(100%, 91.931152%, 90.190125%)" offset="0.320312"/><stop stop-opacity="1" stop-color="rgb(100%, 91.731262%, 89.94751%)" offset="0.328125"/><stop stop-opacity="1" stop-color="rgb(100%, 91.531372%, 89.706421%)" offset="0.335937"/><stop stop-opacity="1" stop-color="rgb(100%, 91.333008%, 89.463806%)" offset="0.34375"/><stop stop-opacity="1" stop-color="rgb(100%, 91.133118%, 89.221191%)" offset="0.351562"/><stop stop-opacity="1" stop-color="rgb(100%, 90.934753%, 88.978577%)" offset="0.359375"/><stop stop-opacity="1" stop-color="rgb(100%, 90.734863%, 88.737488%)" offset="0.367188"/><stop stop-opacity="1" stop-color="rgb(100%, 90.536499%, 88.494873%)" offset="0.375"/><stop stop-opacity="1" stop-color="rgb(100%, 90.336609%, 88.252258%)" offset="0.382812"/><stop stop-opacity="1" stop-color="rgb(100%, 90.138245%, 88.011169%)" offset="0.390625"/><stop stop-opacity="1" stop-color="rgb(100%, 89.938354%, 87.768555%)" offset="0.398437"/><stop stop-opacity="1" stop-color="rgb(100%, 89.738464%, 87.52594%)" offset="0.40625"/><stop stop-opacity="1" stop-color="rgb(100%, 89.5401%, 87.283325%)" offset="0.414062"/><stop stop-opacity="1" stop-color="rgb(100%, 89.34021%, 87.042236%)" offset="0.421875"/><stop stop-opacity="1" stop-color="rgb(100%, 89.141846%, 86.799622%)" offset="0.429687"/><stop stop-opacity="1" stop-color="rgb(100%, 88.941956%, 86.557007%)" offset="0.4375"/><stop stop-opacity="1" stop-color="rgb(100%, 88.743591%, 86.314392%)" offset="0.445312"/><stop stop-opacity="1" stop-color="rgb(100%, 88.543701%, 86.073303%)" offset="0.453125"/><stop stop-opacity="1" stop-color="rgb(100%, 88.343811%, 85.830688%)" offset="0.460937"/><stop stop-opacity="1" stop-color="rgb(100%, 88.145447%, 85.588074%)" offset="0.46875"/><stop stop-opacity="1" stop-color="rgb(100%, 87.945557%, 85.346985%)" offset="0.473169"/><stop stop-opacity="1" stop-color="rgb(100%, 87.846375%, 85.22644%)" offset="0.476562"/><stop stop-opacity="1" stop-color="rgb(100%, 87.747192%, 85.10437%)" offset="0.484375"/><stop stop-opacity="1" stop-color="rgb(100%, 87.547302%, 84.861755%)" offset="0.492188"/><stop stop-opacity="1" stop-color="rgb(100%, 87.348938%, 84.619141%)" offset="0.5"/><stop stop-opacity="1" stop-color="rgb(100%, 87.149048%, 84.378052%)" offset="0.507813"/><stop stop-opacity="1" stop-color="rgb(100%, 86.950684%, 84.135437%)" offset="0.515625"/><stop stop-opacity="1" stop-color="rgb(100%, 86.750793%, 83.892822%)" offset="0.523438"/><stop stop-opacity="1" stop-color="rgb(100%, 86.550903%, 83.651733%)" offset="0.526831"/><stop stop-opacity="1" stop-color="rgb(100%, 86.451721%, 83.531189%)" offset="0.53125"/><stop stop-opacity="1" stop-color="rgb(100%, 86.352539%, 83.409119%)" offset="0.539062"/><stop stop-opacity="1" stop-color="rgb(100%, 86.152649%, 83.166504%)" offset="0.546875"/><stop stop-opacity="1" stop-color="rgb(100%, 85.954285%, 82.923889%)" offset="0.554688"/><stop stop-opacity="1" stop-color="rgb(100%, 85.754395%, 82.6828%)" offset="0.5625"/><stop stop-opacity="1" stop-color="rgb(100%, 85.55603%, 82.440186%)" offset="0.570312"/><stop stop-opacity="1" stop-color="rgb(100%, 85.35614%, 82.197571%)" offset="0.578125"/><stop stop-opacity="1" stop-color="rgb(100%, 85.157776%, 81.956482%)" offset="0.585938"/><stop stop-opacity="1" stop-color="rgb(100%, 84.957886%, 81.713867%)" offset="0.59375"/><stop stop-opacity="1" stop-color="rgb(100%, 84.757996%, 81.471252%)" offset="0.601563"/><stop stop-opacity="1" stop-color="rgb(100%, 84.559631%, 81.228638%)" offset="0.609375"/><stop stop-opacity="1" stop-color="rgb(100%, 84.359741%, 80.987549%)" offset="0.617188"/><stop stop-opacity="1" stop-color="rgb(100%, 84.161377%, 80.744934%)" offset="0.625"/><stop stop-opacity="1" stop-color="rgb(100%, 83.961487%, 80.502319%)" offset="0.632812"/><stop stop-opacity="1" stop-color="rgb(100%, 83.763123%, 80.259705%)" offset="0.640625"/><stop stop-opacity="1" stop-color="rgb(100%, 83.563232%, 80.018616%)" offset="0.648437"/><stop stop-opacity="1" stop-color="rgb(100%, 83.363342%, 79.776001%)" offset="0.65625"/><stop stop-opacity="1" stop-color="rgb(100%, 83.164978%, 79.533386%)" offset="0.664062"/><stop stop-opacity="1" stop-color="rgb(100%, 82.965088%, 79.292297%)" offset="0.671875"/><stop stop-opacity="1" stop-color="rgb(100%, 82.766724%, 79.049683%)" offset="0.679688"/><stop stop-opacity="1" stop-color="rgb(100%, 82.566833%, 78.807068%)" offset="0.6875"/><stop stop-opacity="1" stop-color="rgb(100%, 82.368469%, 78.564453%)" offset="0.695312"/><stop stop-opacity="1" stop-color="rgb(100%, 82.168579%, 78.323364%)" offset="0.703125"/><stop stop-opacity="1" stop-color="rgb(100%, 81.970215%, 78.08075%)" offset="0.710938"/><stop stop-opacity="1" stop-color="rgb(100%, 81.770325%, 77.838135%)" offset="0.71875"/><stop stop-opacity="1" stop-color="rgb(100%, 81.570435%, 77.597046%)" offset="0.726562"/><stop stop-opacity="1" stop-color="rgb(100%, 81.37207%, 77.354431%)" offset="0.734375"/><stop stop-opacity="1" stop-color="rgb(100%, 81.17218%, 77.111816%)" offset="0.742187"/><stop stop-opacity="1" stop-color="rgb(100%, 80.973816%, 76.869202%)" offset="0.75"/><stop stop-opacity="1" stop-color="rgb(100%, 80.773926%, 76.628113%)" offset="0.757813"/><stop stop-opacity="1" stop-color="rgb(100%, 80.575562%, 76.385498%)" offset="0.765625"/><stop stop-opacity="1" stop-color="rgb(100%, 80.375671%, 76.142883%)" offset="0.773438"/><stop stop-opacity="1" stop-color="rgb(100%, 80.177307%, 75.901794%)" offset="0.78125"/><stop stop-opacity="1" stop-color="rgb(100%, 79.977417%, 75.65918%)" offset="0.789062"/><stop stop-opacity="1" stop-color="rgb(100%, 79.777527%, 75.416565%)" offset="0.796875"/><stop stop-opacity="1" stop-color="rgb(100%, 79.579163%, 75.17395%)" offset="0.804688"/><stop stop-opacity="1" stop-color="rgb(100%, 79.379272%, 74.932861%)" offset="0.8125"/><stop stop-opacity="1" stop-color="rgb(100%, 79.180908%, 74.690247%)" offset="0.820312"/><stop stop-opacity="1" stop-color="rgb(100%, 78.981018%, 74.447632%)" offset="0.828125"/><stop stop-opacity="1" stop-color="rgb(100%, 78.782654%, 74.205017%)" offset="0.835938"/><stop stop-opacity="1" stop-color="rgb(100%, 78.582764%, 73.963928%)" offset="0.84375"/><stop stop-opacity="1" stop-color="rgb(100%, 78.382874%, 73.721313%)" offset="0.851563"/><stop stop-opacity="1" stop-color="rgb(100%, 78.184509%, 73.478699%)" offset="0.859375"/><stop stop-opacity="1" stop-color="rgb(100%, 77.984619%, 73.23761%)" offset="0.867188"/><stop stop-opacity="1" stop-color="rgb(100%, 77.786255%, 72.994995%)" offset="0.875"/><stop stop-opacity="1" stop-color="rgb(100%, 77.586365%, 72.75238%)" offset="0.882812"/><stop stop-opacity="1" stop-color="rgb(100%, 77.388%, 72.509766%)" offset="0.890625"/><stop stop-opacity="1" stop-color="rgb(100%, 77.18811%, 72.268677%)" offset="0.898437"/><stop stop-opacity="1" stop-color="rgb(100%, 76.989746%, 72.026062%)" offset="0.90625"/><stop stop-opacity="1" stop-color="rgb(100%, 76.789856%, 71.783447%)" offset="0.914062"/><stop stop-opacity="1" stop-color="rgb(100%, 76.589966%, 71.542358%)" offset="0.921875"/><stop stop-opacity="1" stop-color="rgb(100%, 76.391602%, 71.299744%)" offset="0.929688"/><stop stop-opacity="1" stop-color="rgb(100%, 76.191711%, 71.057129%)" offset="0.9375"/><stop stop-opacity="1" stop-color="rgb(100%, 75.993347%, 70.814514%)" offset="0.945312"/><stop stop-opacity="1" stop-color="rgb(100%, 75.793457%, 70.573425%)" offset="0.953125"/><stop stop-opacity="1" stop-color="rgb(100%, 75.595093%, 70.330811%)" offset="0.960938"/><stop stop-opacity="1" stop-color="rgb(100%, 75.395203%, 70.088196%)" offset="0.96875"/><stop stop-opacity="1" stop-color="rgb(100%, 75.196838%, 69.847107%)" offset="0.976562"/><stop stop-opacity="1" stop-color="rgb(100%, 74.996948%, 69.604492%)" offset="0.984375"/><stop stop-opacity="1" stop-color="rgb(100%, 74.797058%, 69.361877%)" offset="0.992187"/><stop stop-opacity="1" stop-color="rgb(100%, 74.598694%, 69.119263%)" offset="1"/></linearGradient><clipPath id="e92dc3fdb8"><path d="M 26.367188 8 L 348.632812 8 L 348.632812 367 L 26.367188 367 Z M 26.367188 8 " clip-rule="nonzero"/></clipPath><clipPath id="ae5b92dc9e"><path d="M 213.429688 15.085938 L 322.703125 78.664062 C 338.757812 88.003906 348.632812 105.175781 348.632812 123.75 L 348.632812 251.25 C 348.632812 269.824219 338.757812 286.996094 322.703125 296.335938 L 213.429688 359.914062 C 197.402344 369.238281 177.597656 369.238281 161.570312 359.914062 L 52.296875 296.335938 C 36.242188 286.996094 26.367188 269.824219 26.367188 251.25 L 26.367188 123.75 C 26.367188 105.175781 36.242188 88.003906 52.296875 78.664062 L 161.570312 15.085938 C 177.597656 5.761719 197.402344 5.761719 213.429688 15.085938 Z M 213.429688 15.085938 " clip-rule="nonzero"/></clipPath></defs><g clip-path="url(#4f6afb50b4)"><g clip-path="url(#893f82d307)"><path fill="url(#7e5834b440)" d="M 26.367188 8.089844 L 26.367188 366.90625 L 348.632812 366.90625 L 348.632812 8.089844 Z M 26.367188 8.089844 " fill-rule="nonzero"/></g></g><g clip-path="url(#e92dc3fdb8)"><g clip-path="url(#ae5b92dc9e)"><path stroke-linecap="butt" transform="matrix(0.75, 0, 0, 0.75, 26.36719, 0)" fill="none" stroke-linejoin="miter" d="M 249.416663 20.114583 L 395.11458 104.885417 C 416.52083 117.338542 429.687497 140.234375 429.687497 165 L 429.687497 335.000001 C 429.687497 359.765626 416.52083 382.661459 395.11458 395.114584 L 249.416663 479.885417 C 228.046872 492.317709 201.640622 492.317709 180.27083 479.885417 L 34.572913 395.114584 C 13.166663 382.661459 -0.00000361141 359.765626 -0.00000361141 335.000001 L -0.00000361141 165 C -0.00000361141 140.234375 13.166663 117.338542 34.572913 104.885417 L 180.27083 20.114583 C 201.640622 7.682292 228.046872 7.682292 249.416663 20.114583 Z M 249.416663 20.114583 " stroke="#945d39" stroke-width="50" stroke-opacity="1" stroke-miterlimit="4"/></g></g><path fill="#945d39" d="M 259.808594 198.027344 C 262.285156 189.101562 262.734375 178.996094 261.148438 167.972656 L 253.03125 111.167969 C 252.953125 110.613281 252.824219 110.074219 252.648438 109.542969 C 252.46875 109.011719 252.25 108.5 251.980469 108.007812 C 251.710938 107.519531 251.402344 107.054688 251.050781 106.617188 C 250.699219 106.183594 250.3125 105.78125 249.890625 105.414062 C 249.46875 105.050781 249.015625 104.722656 248.535156 104.4375 C 248.054688 104.152344 247.550781 103.910156 247.027344 103.714844 C 246.503906 103.519531 245.964844 103.375 245.414062 103.273438 C 244.863281 103.175781 244.308594 103.125 243.75 103.125 L 131.25 103.125 C 130.691406 103.125 130.136719 103.175781 129.585938 103.273438 C 129.035156 103.375 128.496094 103.519531 127.972656 103.714844 C 127.449219 103.910156 126.945312 104.152344 126.464844 104.4375 C 125.984375 104.722656 125.53125 105.050781 125.109375 105.414062 C 124.6875 105.78125 124.300781 106.183594 123.949219 106.617188 C 123.597656 107.054688 123.289062 107.519531 123.019531 108.007812 C 122.75 108.5 122.527344 109.011719 122.351562 109.542969 C 122.175781 110.074219 122.046875 110.613281 121.96875 111.167969 L 113.859375 167.960938 C 112.273438 178.996094 112.726562 189.101562 115.191406 198.019531 C 123.289062 227.398438 148.480469 248.570312 178.125 252.335938 L 178.125 271.875 L 159.375 271.875 L 159.375 290.625 L 215.625 290.625 L 215.625 271.875 L 196.875 271.875 L 196.875 252.335938 C 226.519531 248.570312 251.710938 227.398438 259.808594 198.027344 M 235.621094 121.875 L 240.964844 159.375 L 134.023438 159.375 L 139.378906 121.875 Z M 133.265625 193.03125 C 132.027344 188.585938 131.570312 183.570312 131.773438 178.125 L 243.234375 178.125 C 243.429688 183.570312 242.972656 188.585938 241.742188 193.039062 C 241.335938 194.511719 240.867188 195.964844 240.339844 197.394531 C 239.816406 198.828125 239.230469 200.238281 238.589844 201.625 C 237.949219 203.007812 237.253906 204.367188 236.503906 205.695312 C 235.753906 207.023438 234.949219 208.320312 234.09375 209.585938 C 233.238281 210.847656 232.332031 212.074219 231.378906 213.265625 C 230.421875 214.457031 229.417969 215.605469 228.371094 216.714844 C 227.320312 217.824219 226.230469 218.886719 225.09375 219.910156 C 223.960938 220.929688 222.785156 221.902344 221.570312 222.828125 C 220.355469 223.753906 219.109375 224.628906 217.824219 225.449219 C 216.539062 226.273438 215.222656 227.046875 213.875 227.761719 C 212.527344 228.480469 211.152344 229.140625 209.75 229.746094 C 208.347656 230.351562 206.925781 230.898438 205.480469 231.386719 C 204.035156 231.878906 202.570312 232.308594 201.089844 232.679688 C 199.609375 233.050781 198.117188 233.363281 196.613281 233.613281 C 195.105469 233.863281 193.59375 234.050781 192.070312 234.179688 C 190.550781 234.304688 189.027344 234.371094 187.5 234.375 C 185.972656 234.371094 184.449219 234.304688 182.929688 234.175781 C 181.40625 234.050781 179.894531 233.859375 178.390625 233.609375 C 176.882812 233.359375 175.390625 233.050781 173.910156 232.675781 C 172.429688 232.304688 170.964844 231.875 169.519531 231.386719 C 168.074219 230.894531 166.652344 230.347656 165.25 229.742188 C 163.851562 229.136719 162.476562 228.472656 161.128906 227.757812 C 159.78125 227.039062 158.464844 226.269531 157.179688 225.445312 C 155.894531 224.621094 154.644531 223.746094 153.433594 222.820312 C 152.21875 221.894531 151.042969 220.921875 149.910156 219.902344 C 148.773438 218.882812 147.683594 217.816406 146.632812 216.707031 C 145.585938 215.597656 144.582031 214.449219 143.628906 213.257812 C 142.671875 212.066406 141.765625 210.839844 140.910156 209.574219 C 140.054688 208.3125 139.253906 207.015625 138.503906 205.6875 C 137.753906 204.355469 137.058594 203 136.417969 201.613281 C 135.777344 200.230469 135.191406 198.820312 134.667969 197.386719 C 134.140625 195.953125 133.675781 194.503906 133.265625 193.03125 " fill-opacity="1" fill-rule="nonzero"/></svg>