<svg xmlns="http://www.w3.org/2000/svg" xmlns:xlink="http://www.w3.org/1999/xlink" width="40" zoomAndPan="magnify" viewBox="0 0 30 30.000001" height="40" preserveAspectRatio="xMidYMid meet" version="1.2"><defs><clipPath id="bd2939b1fe"><path d="M 2.523438 0.625 L 27.476562 0.625 L 27.476562 28.40625 L 2.523438 28.40625 Z M 2.523438 0.625 "/></clipPath><clipPath id="e5748c96bb"><path d="M 17.007812 1.167969 L 25.46875 6.089844 C 26.710938 6.8125 27.476562 8.144531 27.476562 9.582031 L 27.476562 19.453125 C 27.476562 20.890625 26.710938 22.21875 25.46875 22.941406 L 17.007812 27.863281 C 15.765625 28.585938 14.234375 28.585938 12.992188 27.863281 L 4.53125 22.941406 C 3.289062 22.21875 2.523438 20.890625 2.523438 19.453125 L 2.523438 9.582031 C 2.523438 8.144531 3.289062 6.8125 4.53125 6.089844 L 12.992188 1.167969 C 14.234375 0.445312 15.765625 0.445312 17.007812 1.167969 Z M 17.007812 1.167969 "/></clipPath><linearGradient x1="-7.258985" gradientTransform="matrix(0.0974594,0,0,0.0974594,2.525201,-0.0000164516)" y1="13.687016" x2="263.258472" gradientUnits="userSpaceOnUse" y2="284.203482" id="144ae0a9d4"><stop style="stop-color:#ffffff;stop-opacity:1;" offset="0"/><stop style="stop-color:#ffffff;stop-opacity:1;" offset="0.015625"/><stop style="stop-color:#fefefe;stop-opacity:1;" offset="0.03125"/><stop style="stop-color:#fdfdfd;stop-opacity:1;" offset="0.046875"/><stop style="stop-color:#fcfcfc;stop-opacity:1;" offset="0.0625"/><stop style="stop-color:#fbfbfb;stop-opacity:1;" offset="0.078125"/><stop style="stop-color:#fafafa;stop-opacity:1;" offset="0.09375"/><stop style="stop-color:#f9f9f9;stop-opacity:1;" offset="0.109375"/><stop style="stop-color:#f8f8f8;stop-opacity:1;" offset="0.125"/><stop style="stop-color:#f7f7f7;stop-opacity:1;" offset="0.140625"/><stop style="stop-color:#f6f6f6;stop-opacity:1;" offset="0.15625"/><stop style="stop-color:#f5f5f6;stop-opacity:1;" offset="0.171875"/><stop style="stop-color:#f4f4f5;stop-opacity:1;" offset="0.1875"/><stop style="stop-color:#f3f3f4;stop-opacity:1;" offset="0.203125"/><stop style="stop-color:#f2f2f3;stop-opacity:1;" offset="0.21875"/><stop style="stop-color:#f1f1f2;stop-opacity:1;" offset="0.234375"/><stop style="stop-color:#f0f0f1;stop-opacity:1;" offset="0.25"/><stop style="stop-color:#efeff0;stop-opacity:1;" offset="0.265625"/><stop style="stop-color:#eeeeef;stop-opacity:1;" offset="0.28125"/><stop style="stop-color:#ededee;stop-opacity:1;" offset="0.296875"/><stop style="stop-color:#ececed;stop-opacity:1;" offset="0.3125"/><stop style="stop-color:#ebebec;stop-opacity:1;" offset="0.328125"/><stop style="stop-color:#eaeaec;stop-opacity:1;" offset="0.34375"/><stop style="stop-color:#e9e9eb;stop-opacity:1;" offset="0.359375"/><stop style="stop-color:#e8e8ea;stop-opacity:1;" offset="0.375"/><stop style="stop-color:#e7e7e9;stop-opacity:1;" offset="0.390625"/><stop style="stop-color:#e6e6e8;stop-opacity:1;" offset="0.40625"/><stop style="stop-color:#e5e5e7;stop-opacity:1;" offset="0.421875"/><stop style="stop-color:#e4e4e6;stop-opacity:1;" offset="0.4375"/><stop style="stop-color:#e3e3e5;stop-opacity:1;" offset="0.453125"/><stop style="stop-color:#e2e2e4;stop-opacity:1;" offset="0.46875"/><stop style="stop-color:#e1e1e3;stop-opacity:1;" offset="0.473169"/><stop style="stop-color:#e1e1e3;stop-opacity:1;" offset="0.484375"/><stop style="stop-color:#e0e0e3;stop-opacity:1;" offset="0.5"/><stop style="stop-color:#e0e0e2;stop-opacity:1;" offset="0.515625"/><stop style="stop-color:#dfdfe1;stop-opacity:1;" offset="0.526831"/><stop style="stop-color:#dedee0;stop-opacity:1;" offset="0.53125"/><stop style="stop-color:#dedee0;stop-opacity:1;" offset="0.546875"/><stop style="stop-color:#dddddf;stop-opacity:1;" offset="0.5625"/><stop style="stop-color:#dcdcde;stop-opacity:1;" offset="0.578125"/><stop style="stop-color:#dbdbdd;stop-opacity:1;" offset="0.59375"/><stop style="stop-color:#dadadc;stop-opacity:1;" offset="0.609375"/><stop style="stop-color:#d9d9db;stop-opacity:1;" offset="0.625"/><stop style="stop-color:#d8d8da;stop-opacity:1;" offset="0.640625"/><stop style="stop-color:#d7d7d9;stop-opacity:1;" offset="0.65625"/><stop style="stop-color:#d6d6d9;stop-opacity:1;" offset="0.671875"/><stop style="stop-color:#d5d5d8;stop-opacity:1;" offset="0.6875"/><stop style="stop-color:#d4d4d7;stop-opacity:1;" offset="0.703125"/><stop style="stop-color:#d3d3d6;stop-opacity:1;" offset="0.71875"/><stop style="stop-color:#d2d2d5;stop-opacity:1;" offset="0.734375"/><stop style="stop-color:#d1d1d4;stop-opacity:1;" offset="0.75"/><stop style="stop-color:#d0d0d3;stop-opacity:1;" offset="0.765625"/><stop style="stop-color:#cfcfd2;stop-opacity:1;" offset="0.78125"/><stop style="stop-color:#ceced1;stop-opacity:1;" offset="0.796875"/><stop style="stop-color:#cdcdd0;stop-opacity:1;" offset="0.8125"/><stop style="stop-color:#ccccd0;stop-opacity:1;" offset="0.828125"/><stop style="stop-color:#cbcbcf;stop-opacity:1;" offset="0.84375"/><stop style="stop-color:#cacace;stop-opacity:1;" offset="0.859375"/><stop style="stop-color:#c9c9cd;stop-opacity:1;" offset="0.875"/><stop style="stop-color:#c8c8cc;stop-opacity:1;" offset="0.890625"/><stop style="stop-color:#c7c7cb;stop-opacity:1;" offset="0.90625"/><stop style="stop-color:#c6c6ca;stop-opacity:1;" offset="0.921875"/><stop style="stop-color:#c5c5c9;stop-opacity:1;" offset="0.9375"/><stop style="stop-color:#c4c4c8;stop-opacity:1;" offset="0.953125"/><stop style="stop-color:#c3c3c7;stop-opacity:1;" offset="0.96875"/><stop style="stop-color:#c2c2c6;stop-opacity:1;" offset="0.984375"/><stop style="stop-color:#c2c2c6;stop-opacity:1;" offset="1"/></linearGradient><clipPath id="5fb675b921"><path d="M 2.523438 0.449219 L 27.203125 0.449219 L 27.203125 28.265625 L 2.523438 28.265625 Z M 2.523438 0.449219 "/></clipPath><clipPath id="7fcc6a4dce"><path d="M 16.847656 1.15625 L 25.21875 6.023438 C 26.445312 6.738281 27.203125 8.054688 27.203125 9.476562 L 27.203125 19.238281 C 27.203125 20.660156 26.445312 21.976562 25.21875 22.691406 L 16.847656 27.558594 C 15.621094 28.273438 14.105469 28.273438 12.878906 27.558594 L 4.511719 22.691406 C 3.28125 21.976562 2.523438 20.660156 2.523438 19.238281 L 2.523438 9.476562 C 2.523438 8.054688 3.28125 6.738281 4.511719 6.023438 L 12.878906 1.15625 C 14.105469 0.441406 15.621094 0.441406 16.847656 1.15625 Z M 16.847656 1.15625 "/></clipPath><clipPath id="197fd237bb"><path d="M 8 7.6875 L 19 7.6875 L 19 21.476562 L 8 21.476562 Z M 8 7.6875 "/></clipPath><filter x="0%" y="0%" width="100%" filterUnits="objectBoundingBox" id="ede2b065c0" height="100%"><feColorMatrix values="0 0 0 0 1 0 0 0 0 1 0 0 0 0 1 0 0 0 1 0" type="matrix" in="SourceGraphic"/></filter><clipPath id="9dcce60045"><path d="M 0.8125 0.351562 L 3.550781 0.351562 L 3.550781 10.683594 L 0.8125 10.683594 Z M 0.8125 0.351562 "/></clipPath><clipPath id="9733a9e336"><path d="M 2.179688 0.351562 C 2.542969 0.351562 2.890625 0.496094 3.148438 0.75 C 3.40625 1.007812 3.550781 1.355469 3.550781 1.71875 L 3.550781 9.3125 C 3.550781 9.675781 3.40625 10.023438 3.148438 10.28125 C 2.890625 10.539062 2.542969 10.683594 2.179688 10.683594 C 1.816406 10.683594 1.46875 10.539062 1.210938 10.28125 C 0.957031 10.023438 0.8125 9.675781 0.8125 9.3125 L 0.8125 1.71875 C 0.8125 1.355469 0.957031 1.007812 1.210938 0.75 C 1.46875 0.496094 1.816406 0.351562 2.179688 0.351562 Z M 2.179688 0.351562 "/></clipPath><clipPath id="523030ff76"><rect x="0" width="4" y="0" height="11"/></clipPath></defs><g id="8a9bbed89d"><g clip-rule="nonzero" clip-path="url(#bd2939b1fe)"><g clip-rule="nonzero" clip-path="url(#e5748c96bb)"><path style=" stroke:none;fill-rule:nonzero;fill:url(#144ae0a9d4);" d="M 2.523438 0.625 L 2.523438 28.40625 L 27.476562 28.40625 L 27.476562 0.625 Z M 2.523438 0.625 "/></g></g><g clip-rule="nonzero" clip-path="url(#5fb675b921)"><g clip-rule="nonzero" clip-path="url(#7fcc6a4dce)"><path style="fill:none;stroke-width:4;stroke-linecap:butt;stroke-linejoin:miter;stroke:#606061;stroke-opacity:1;stroke-miterlimit:4;" d="M 19.950805 1.610623 L 31.611519 8.390488 C 33.320089 9.386247 34.375702 11.219966 34.375702 13.200601 L 34.375702 26.798419 C 34.375702 28.779054 33.320089 30.612773 31.611519 31.608532 L 19.950805 38.388397 C 18.242236 39.384156 16.13101 39.384156 14.42244 38.388397 L 2.767167 31.608532 C 1.053156 30.612773 -0.00245667 28.779054 -0.00245667 26.798419 L -0.00245667 13.200601 C -0.00245667 11.219966 1.053156 9.386247 2.767167 8.390488 L 14.42244 1.610623 C 16.13101 0.614865 18.242236 0.614865 19.950805 1.610623 Z M 19.950805 1.610623 " transform="matrix(0.717889,0,0,0.717889,2.525201,0.00000193548)"/></g></g><g clip-rule="nonzero" clip-path="url(#197fd237bb)"><path style=" stroke:none;fill-rule:nonzero;fill:#606061;fill-opacity:1;" d="M 16.566406 7.6875 L 9.738281 7.6875 C 8.800781 7.6875 8.03125 8.453125 8.03125 9.390625 L 8.03125 19.632812 C 8.03125 20.570312 8.800781 21.339844 9.738281 21.339844 L 16.566406 21.339844 C 17.503906 21.339844 18.273438 20.570312 18.273438 19.632812 L 18.273438 9.390625 C 18.273438 8.453125 17.503906 7.6875 16.566406 7.6875 Z M 10.59375 19.632812 C 10.078125 19.632812 9.738281 19.292969 9.738281 18.78125 C 9.738281 18.269531 10.078125 17.925781 10.59375 17.925781 C 11.105469 17.925781 11.445312 18.269531 11.445312 18.78125 C 11.445312 19.292969 11.105469 19.632812 10.59375 19.632812 Z M 13.238281 16.21875 L 13.152344 16.21875 C 11.273438 16.21875 9.738281 14.683594 9.738281 12.804688 C 9.738281 10.929688 11.273438 9.390625 13.152344 9.390625 C 15.03125 9.390625 16.566406 10.929688 16.566406 12.804688 C 16.566406 13.402344 16.394531 14 16.140625 14.425781 C 15.625 13.828125 14.6875 13.746094 14.003906 14.085938 C 13.238281 14.511719 12.980469 15.453125 13.238281 16.21875 Z M 16.992188 19.292969 C 16.566406 19.546875 16.054688 19.378906 15.796875 18.949219 L 14.089844 15.964844 C 13.921875 15.621094 14.003906 15.109375 14.433594 14.855469 C 14.859375 14.597656 15.371094 14.769531 15.625 15.195312 L 17.332031 18.183594 C 17.503906 18.523438 17.417969 19.035156 16.992188 19.292969 Z M 13.152344 11.953125 C 12.640625 11.953125 12.296875 12.292969 12.296875 12.804688 C 12.296875 13.316406 12.640625 13.660156 13.152344 13.660156 C 13.664062 13.660156 14.003906 13.316406 14.003906 12.804688 C 14.003906 12.292969 13.664062 11.953125 13.152344 11.953125 Z M 13.152344 11.953125 "/></g><g mask="url(#9cec6e8789)" transform="matrix(1,0,0,1,19,9)"><g clip-path="url(#523030ff76)"><g clip-rule="nonzero" clip-path="url(#9dcce60045)"><g clip-rule="nonzero" clip-path="url(#9733a9e336)"><path style=" stroke:none;fill-rule:nonzero;fill:#606061;fill-opacity:1;" d="M 0.8125 0.351562 L 3.550781 0.351562 L 3.550781 10.683594 L 0.8125 10.683594 Z M 0.8125 0.351562 "/></g></g></g><mask id="9cec6e8789"><g filter="url(#ede2b065c0)"><rect x="0" width="30" y="0" height="30.000001" style="fill:#000000;fill-opacity:0.6;stroke:none;"/></g></mask></g></g></svg>