<svg xmlns="http://www.w3.org/2000/svg" xmlns:xlink="http://www.w3.org/1999/xlink" width="500" zoomAndPan="magnify" viewBox="0 0 375 374.999991" height="500" preserveAspectRatio="xMidYMid meet" version="1.2"><defs><clipPath id="7d4791363a"><path d="M 26.367188 8.089844 L 348.632812 8.089844 L 348.632812 366.90625 L 26.367188 366.90625 Z M 26.367188 8.089844 "/></clipPath><clipPath id="6f9eabb359"><path d="M 213.429688 15.085938 L 322.703125 78.664062 C 338.757812 88.003906 348.632812 105.175781 348.632812 123.75 L 348.632812 251.25 C 348.632812 269.824219 338.757812 286.996094 322.703125 296.335938 L 213.429688 359.914062 C 197.402344 369.238281 177.597656 369.238281 161.570312 359.914062 L 52.296875 296.335938 C 36.242188 286.996094 26.367188 269.824219 26.367188 251.25 L 26.367188 123.75 C 26.367188 105.175781 36.242188 88.003906 52.296875 78.664062 L 161.570312 15.085938 C 177.597656 5.761719 197.402344 5.761719 213.429688 15.085938 Z M 213.429688 15.085938 "/></clipPath><linearGradient x1="-7.258984" gradientTransform="matrix(1.25885,0,0,1.25885,26.367192,-0.00024)" y1="13.687016" x2="263.258471" gradientUnits="userSpaceOnUse" y2="284.203481" id="e58e532053"><stop style="stop-color:#ffffff;stop-opacity:1;" offset="0"/><stop style="stop-color:#ffffff;stop-opacity:1;" offset="0.015625"/><stop style="stop-color:#fefefe;stop-opacity:1;" offset="0.03125"/><stop style="stop-color:#fdfdfd;stop-opacity:1;" offset="0.046875"/><stop style="stop-color:#fcfcfc;stop-opacity:1;" offset="0.0625"/><stop style="stop-color:#fbfbfb;stop-opacity:1;" offset="0.078125"/><stop style="stop-color:#fafafa;stop-opacity:1;" offset="0.09375"/><stop style="stop-color:#f9f9f9;stop-opacity:1;" offset="0.109375"/><stop style="stop-color:#f8f8f8;stop-opacity:1;" offset="0.125"/><stop style="stop-color:#f7f7f7;stop-opacity:1;" offset="0.140625"/><stop style="stop-color:#f6f6f6;stop-opacity:1;" offset="0.15625"/><stop style="stop-color:#f5f5f6;stop-opacity:1;" offset="0.171875"/><stop style="stop-color:#f4f4f5;stop-opacity:1;" offset="0.1875"/><stop style="stop-color:#f3f3f4;stop-opacity:1;" offset="0.203125"/><stop style="stop-color:#f2f2f3;stop-opacity:1;" offset="0.21875"/><stop style="stop-color:#f1f1f2;stop-opacity:1;" offset="0.234375"/><stop style="stop-color:#f0f0f1;stop-opacity:1;" offset="0.25"/><stop style="stop-color:#efeff0;stop-opacity:1;" offset="0.265625"/><stop style="stop-color:#eeeeef;stop-opacity:1;" offset="0.28125"/><stop style="stop-color:#ededee;stop-opacity:1;" offset="0.296875"/><stop style="stop-color:#ececed;stop-opacity:1;" offset="0.3125"/><stop style="stop-color:#ebebec;stop-opacity:1;" offset="0.328125"/><stop style="stop-color:#eaeaec;stop-opacity:1;" offset="0.34375"/><stop style="stop-color:#e9e9eb;stop-opacity:1;" offset="0.359375"/><stop style="stop-color:#e8e8ea;stop-opacity:1;" offset="0.375"/><stop style="stop-color:#e7e7e9;stop-opacity:1;" offset="0.390625"/><stop style="stop-color:#e6e6e8;stop-opacity:1;" offset="0.40625"/><stop style="stop-color:#e5e5e7;stop-opacity:1;" offset="0.421875"/><stop style="stop-color:#e4e4e6;stop-opacity:1;" offset="0.4375"/><stop style="stop-color:#e3e3e5;stop-opacity:1;" offset="0.453125"/><stop style="stop-color:#e2e2e4;stop-opacity:1;" offset="0.46875"/><stop style="stop-color:#e1e1e3;stop-opacity:1;" offset="0.473169"/><stop style="stop-color:#e1e1e3;stop-opacity:1;" offset="0.484375"/><stop style="stop-color:#e0e0e3;stop-opacity:1;" offset="0.5"/><stop style="stop-color:#e0e0e2;stop-opacity:1;" offset="0.515625"/><stop style="stop-color:#dfdfe1;stop-opacity:1;" offset="0.526831"/><stop style="stop-color:#dedee0;stop-opacity:1;" offset="0.53125"/><stop style="stop-color:#dedee0;stop-opacity:1;" offset="0.546875"/><stop style="stop-color:#dddddf;stop-opacity:1;" offset="0.5625"/><stop style="stop-color:#dcdcde;stop-opacity:1;" offset="0.578125"/><stop style="stop-color:#dbdbdd;stop-opacity:1;" offset="0.59375"/><stop style="stop-color:#dadadc;stop-opacity:1;" offset="0.609375"/><stop style="stop-color:#d9d9db;stop-opacity:1;" offset="0.625"/><stop style="stop-color:#d8d8da;stop-opacity:1;" offset="0.640625"/><stop style="stop-color:#d7d7d9;stop-opacity:1;" offset="0.65625"/><stop style="stop-color:#d6d6d9;stop-opacity:1;" offset="0.671875"/><stop style="stop-color:#d5d5d8;stop-opacity:1;" offset="0.6875"/><stop style="stop-color:#d4d4d7;stop-opacity:1;" offset="0.703125"/><stop style="stop-color:#d3d3d6;stop-opacity:1;" offset="0.71875"/><stop style="stop-color:#d2d2d5;stop-opacity:1;" offset="0.734375"/><stop style="stop-color:#d1d1d4;stop-opacity:1;" offset="0.75"/><stop style="stop-color:#d0d0d3;stop-opacity:1;" offset="0.765625"/><stop style="stop-color:#cfcfd2;stop-opacity:1;" offset="0.78125"/><stop style="stop-color:#ceced1;stop-opacity:1;" offset="0.796875"/><stop style="stop-color:#cdcdd0;stop-opacity:1;" offset="0.8125"/><stop style="stop-color:#ccccd0;stop-opacity:1;" offset="0.828125"/><stop style="stop-color:#cbcbcf;stop-opacity:1;" offset="0.84375"/><stop style="stop-color:#cacace;stop-opacity:1;" offset="0.859375"/><stop style="stop-color:#c9c9cd;stop-opacity:1;" offset="0.875"/><stop style="stop-color:#c8c8cc;stop-opacity:1;" offset="0.890625"/><stop style="stop-color:#c7c7cb;stop-opacity:1;" offset="0.90625"/><stop style="stop-color:#c6c6ca;stop-opacity:1;" offset="0.921875"/><stop style="stop-color:#c5c5c9;stop-opacity:1;" offset="0.9375"/><stop style="stop-color:#c4c4c8;stop-opacity:1;" offset="0.953125"/><stop style="stop-color:#c3c3c7;stop-opacity:1;" offset="0.96875"/><stop style="stop-color:#c2c2c6;stop-opacity:1;" offset="0.984375"/><stop style="stop-color:#c2c2c6;stop-opacity:1;" offset="1"/></linearGradient><clipPath id="cbf4619d4a"><path d="M 26.367188 8 L 348.632812 8 L 348.632812 367 L 26.367188 367 Z M 26.367188 8 "/></clipPath><clipPath id="981063dea9"><path d="M 213.429688 15.085938 L 322.703125 78.664062 C 338.757812 88.003906 348.632812 105.175781 348.632812 123.75 L 348.632812 251.25 C 348.632812 269.824219 338.757812 286.996094 322.703125 296.335938 L 213.429688 359.914062 C 197.402344 369.238281 177.597656 369.238281 161.570312 359.914062 L 52.296875 296.335938 C 36.242188 286.996094 26.367188 269.824219 26.367188 251.25 L 26.367188 123.75 C 26.367188 105.175781 36.242188 88.003906 52.296875 78.664062 L 161.570312 15.085938 C 177.597656 5.761719 197.402344 5.761719 213.429688 15.085938 Z M 213.429688 15.085938 "/></clipPath><clipPath id="006793aad2"><path d="M 97 99.273438 L 230 99.273438 L 230 275.523438 L 97 275.523438 Z M 97 99.273438 "/></clipPath><filter x="0%" y="0%" width="100%" filterUnits="objectBoundingBox" id="1bbd00725b" height="100%"><feColorMatrix values="0 0 0 0 1 0 0 0 0 1 0 0 0 0 1 0 0 0 1 0" type="matrix" in="SourceGraphic"/></filter><clipPath id="2e036344a8"><path d="M 0.652344 0.777344 L 36.023438 0.777344 L 36.023438 134.242188 L 0.652344 134.242188 Z M 0.652344 0.777344 "/></clipPath><clipPath id="9dfb54cd7d"><path d="M 18.335938 0.777344 C 23.027344 0.777344 27.527344 2.640625 30.84375 5.957031 C 34.160156 9.273438 36.023438 13.773438 36.023438 18.464844 L 36.023438 116.535156 C 36.023438 121.226562 34.160156 125.726562 30.84375 129.042969 C 27.527344 132.359375 23.027344 134.222656 18.335938 134.222656 C 13.648438 134.222656 9.148438 132.359375 5.832031 129.042969 C 2.515625 125.726562 0.652344 121.226562 0.652344 116.535156 L 0.652344 18.464844 C 0.652344 13.773438 2.515625 9.273438 5.832031 5.957031 C 9.148438 2.640625 13.648438 0.777344 18.335938 0.777344 Z M 18.335938 0.777344 "/></clipPath><clipPath id="86b47df4a3"><rect x="0" width="37" y="0" height="135"/></clipPath></defs><g id="8b313b1886"><g clip-rule="nonzero" clip-path="url(#7d4791363a)"><g clip-rule="nonzero" clip-path="url(#6f9eabb359)"><path style=" stroke:none;fill-rule:nonzero;fill:url(#e58e532053);" d="M 26.367188 8.089844 L 26.367188 366.90625 L 348.632812 366.90625 L 348.632812 8.089844 Z M 26.367188 8.089844 "/></g></g><g clip-rule="nonzero" clip-path="url(#cbf4619d4a)"><g clip-rule="nonzero" clip-path="url(#981063dea9)"><path style="fill:none;stroke-width:50;stroke-linecap:butt;stroke-linejoin:miter;stroke:#606061;stroke-opacity:1;stroke-miterlimit:4;" d="M 249.416663 20.114583 L 395.11458 104.885417 C 416.52083 117.338542 429.687497 140.234375 429.687497 165 L 429.687497 335.000001 C 429.687497 359.765626 416.52083 382.661459 395.11458 395.114584 L 249.416663 479.885417 C 228.046872 492.317709 201.640622 492.317709 180.27083 479.885417 L 34.572913 395.114584 C 13.166663 382.661459 -0.00000361141 359.765626 -0.00000361141 335.000001 L -0.00000361141 165 C -0.00000361141 140.234375 13.166663 117.338542 34.572913 104.885417 L 180.27083 20.114583 C 201.640622 7.682292 228.046872 7.682292 249.416663 20.114583 Z M 249.416663 20.114583 " transform="matrix(0.75,0,0,0.75,26.36719,-0.000000000000063949)"/></g></g><g clip-rule="nonzero" clip-path="url(#006793aad2)"><path style=" stroke:none;fill-rule:nonzero;fill:#606061;fill-opacity:1;" d="M 207.632812 99.273438 L 119.507812 99.273438 C 107.390625 99.273438 97.476562 109.1875 97.476562 121.304688 L 97.476562 253.492188 C 97.476562 265.609375 107.390625 275.523438 119.507812 275.523438 L 207.632812 275.523438 C 219.75 275.523438 229.664062 265.609375 229.664062 253.492188 L 229.664062 121.304688 C 229.664062 109.1875 219.75 99.273438 207.632812 99.273438 Z M 130.523438 253.492188 C 123.914062 253.492188 119.507812 249.085938 119.507812 242.476562 C 119.507812 235.867188 123.914062 231.460938 130.523438 231.460938 C 137.132812 231.460938 141.539062 235.867188 141.539062 242.476562 C 141.539062 249.085938 137.132812 253.492188 130.523438 253.492188 Z M 164.671875 209.429688 L 163.570312 209.429688 C 139.335938 209.429688 119.507812 189.601562 119.507812 165.367188 C 119.507812 141.132812 139.335938 121.304688 163.570312 121.304688 C 187.804688 121.304688 207.632812 141.132812 207.632812 165.367188 C 207.632812 173.078125 205.429688 180.789062 202.125 186.296875 C 195.515625 178.585938 183.398438 177.484375 174.585938 181.890625 C 164.671875 187.398438 161.367188 199.515625 164.671875 209.429688 Z M 213.140625 249.085938 C 207.632812 252.390625 201.023438 250.1875 197.71875 244.679688 L 175.6875 206.125 C 173.484375 201.71875 174.585938 195.109375 180.09375 191.804688 C 185.601562 188.5 192.210938 190.703125 195.515625 196.210938 L 217.546875 234.765625 C 219.75 239.171875 218.648438 245.78125 213.140625 249.085938 Z M 163.570312 154.351562 C 156.960938 154.351562 152.554688 158.757812 152.554688 165.367188 C 152.554688 171.976562 156.960938 176.382812 163.570312 176.382812 C 170.179688 176.382812 174.585938 171.976562 174.585938 165.367188 C 174.585938 158.757812 170.179688 154.351562 163.570312 154.351562 Z M 163.570312 154.351562 "/></g><g mask="url(#d6891c6695)" transform="matrix(1,0,0,1,249,120)"><g clip-path="url(#86b47df4a3)"><g clip-rule="nonzero" clip-path="url(#2e036344a8)"><g clip-rule="nonzero" clip-path="url(#9dfb54cd7d)"><path style=" stroke:none;fill-rule:nonzero;fill:#606061;fill-opacity:1;" d="M 0.652344 0.777344 L 36.023438 0.777344 L 36.023438 134.242188 L 0.652344 134.242188 Z M 0.652344 0.777344 "/></g></g></g><mask id="d6891c6695"><g filter="url(#1bbd00725b)"><rect x="0" width="375" y="0" height="374.999991" style="fill:#000000;fill-opacity:0.6;stroke:none;"/></g></mask></g></g></svg>