<svg xmlns="http://www.w3.org/2000/svg" xmlns:xlink="http://www.w3.org/1999/xlink" width="40" zoomAndPan="magnify" viewBox="0 0 30 30.000001" height="40" preserveAspectRatio="xMidYMid meet" version="1.0"><defs><clipPath id="2335a7f9ab"><path d="M 2.523438 0.625 L 27.476562 0.625 L 27.476562 28.40625 L 2.523438 28.40625 Z M 2.523438 0.625 " clip-rule="nonzero"/></clipPath><clipPath id="a00354d417"><path d="M 17.007812 1.167969 L 25.46875 6.089844 C 26.710938 6.8125 27.476562 8.144531 27.476562 9.582031 L 27.476562 19.453125 C 27.476562 20.890625 26.710938 22.21875 25.46875 22.941406 L 17.007812 27.863281 C 15.765625 28.585938 14.234375 28.585938 12.992188 27.863281 L 4.53125 22.941406 C 3.289062 22.21875 2.523438 20.890625 2.523438 19.453125 L 2.523438 9.582031 C 2.523438 8.144531 3.289062 6.8125 4.53125 6.089844 L 12.992188 1.167969 C 14.234375 0.445312 15.765625 0.445312 17.007812 1.167969 Z M 17.007812 1.167969 " clip-rule="nonzero"/></clipPath><linearGradient x1="-7.258985" gradientTransform="matrix(0.0974594, 0, 0, 0.0974594, 2.525201, -0.0000164516)" y1="13.687016" x2="263.258472" gradientUnits="userSpaceOnUse" y2="284.203482" id="fe9b99125e"><stop stop-opacity="1" stop-color="rgb(100%, 99.998474%, 99.998474%)" offset="0"/><stop stop-opacity="1" stop-color="rgb(100%, 99.874878%, 99.867249%)" offset="0.0078125"/><stop stop-opacity="1" stop-color="rgb(100%, 99.62616%, 99.603271%)" offset="0.015625"/><stop stop-opacity="1" stop-color="rgb(100%, 99.377441%, 99.34082%)" offset="0.0234375"/><stop stop-opacity="1" stop-color="rgb(100%, 99.128723%, 99.076843%)" offset="0.03125"/><stop stop-opacity="1" stop-color="rgb(100%, 98.880005%, 98.814392%)" offset="0.0390625"/><stop stop-opacity="1" stop-color="rgb(100%, 98.632812%, 98.550415%)" offset="0.046875"/><stop stop-opacity="1" stop-color="rgb(100%, 98.384094%, 98.287964%)" offset="0.0546875"/><stop stop-opacity="1" stop-color="rgb(100%, 98.135376%, 98.023987%)" offset="0.0625"/><stop stop-opacity="1" stop-color="rgb(100%, 97.886658%, 97.761536%)" offset="0.0703125"/><stop stop-opacity="1" stop-color="rgb(100%, 97.637939%, 97.497559%)" offset="0.078125"/><stop stop-opacity="1" stop-color="rgb(100%, 97.390747%, 97.235107%)" offset="0.0859375"/><stop stop-opacity="1" stop-color="rgb(100%, 97.142029%, 96.97113%)" offset="0.09375"/><stop stop-opacity="1" stop-color="rgb(100%, 96.893311%, 96.707153%)" offset="0.101562"/><stop stop-opacity="1" stop-color="rgb(100%, 96.644592%, 96.444702%)" offset="0.109375"/><stop stop-opacity="1" stop-color="rgb(100%, 96.395874%, 96.180725%)" offset="0.117188"/><stop stop-opacity="1" stop-color="rgb(100%, 96.147156%, 95.918274%)" offset="0.125"/><stop stop-opacity="1" stop-color="rgb(100%, 95.899963%, 95.654297%)" offset="0.132812"/><stop stop-opacity="1" stop-color="rgb(100%, 95.651245%, 95.391846%)" offset="0.140625"/><stop stop-opacity="1" stop-color="rgb(100%, 95.402527%, 95.127869%)" offset="0.148438"/><stop stop-opacity="1" stop-color="rgb(100%, 95.153809%, 94.865417%)" offset="0.15625"/><stop stop-opacity="1" stop-color="rgb(100%, 94.90509%, 94.60144%)" offset="0.164062"/><stop stop-opacity="1" stop-color="rgb(100%, 94.657898%, 94.338989%)" offset="0.171875"/><stop stop-opacity="1" stop-color="rgb(100%, 94.40918%, 94.075012%)" offset="0.179688"/><stop stop-opacity="1" stop-color="rgb(100%, 94.160461%, 93.811035%)" offset="0.1875"/><stop stop-opacity="1" stop-color="rgb(100%, 93.911743%, 93.548584%)" offset="0.195312"/><stop stop-opacity="1" stop-color="rgb(100%, 93.663025%, 93.284607%)" offset="0.203125"/><stop stop-opacity="1" stop-color="rgb(100%, 93.414307%, 93.022156%)" offset="0.210938"/><stop stop-opacity="1" stop-color="rgb(100%, 93.167114%, 92.758179%)" offset="0.21875"/><stop stop-opacity="1" stop-color="rgb(100%, 92.918396%, 92.495728%)" offset="0.226562"/><stop stop-opacity="1" stop-color="rgb(100%, 92.669678%, 92.23175%)" offset="0.234375"/><stop stop-opacity="1" stop-color="rgb(100%, 92.420959%, 91.969299%)" offset="0.242188"/><stop stop-opacity="1" stop-color="rgb(100%, 92.172241%, 91.705322%)" offset="0.25"/><stop stop-opacity="1" stop-color="rgb(100%, 91.925049%, 91.442871%)" offset="0.257812"/><stop stop-opacity="1" stop-color="rgb(100%, 91.676331%, 91.178894%)" offset="0.265625"/><stop stop-opacity="1" stop-color="rgb(100%, 91.427612%, 90.914917%)" offset="0.273438"/><stop stop-opacity="1" stop-color="rgb(100%, 91.178894%, 90.652466%)" offset="0.28125"/><stop stop-opacity="1" stop-color="rgb(100%, 90.930176%, 90.388489%)" offset="0.289062"/><stop stop-opacity="1" stop-color="rgb(100%, 90.682983%, 90.126038%)" offset="0.296875"/><stop stop-opacity="1" stop-color="rgb(100%, 90.434265%, 89.862061%)" offset="0.304687"/><stop stop-opacity="1" stop-color="rgb(100%, 90.185547%, 89.599609%)" offset="0.3125"/><stop stop-opacity="1" stop-color="rgb(100%, 89.936829%, 89.335632%)" offset="0.320312"/><stop stop-opacity="1" stop-color="rgb(100%, 89.68811%, 89.073181%)" offset="0.328125"/><stop stop-opacity="1" stop-color="rgb(100%, 89.439392%, 88.809204%)" offset="0.335938"/><stop stop-opacity="1" stop-color="rgb(100%, 89.1922%, 88.546753%)" offset="0.34375"/><stop stop-opacity="1" stop-color="rgb(100%, 88.943481%, 88.282776%)" offset="0.351562"/><stop stop-opacity="1" stop-color="rgb(100%, 88.694763%, 88.018799%)" offset="0.359375"/><stop stop-opacity="1" stop-color="rgb(100%, 88.446045%, 87.756348%)" offset="0.367187"/><stop stop-opacity="1" stop-color="rgb(100%, 88.197327%, 87.492371%)" offset="0.375"/><stop stop-opacity="1" stop-color="rgb(100%, 87.950134%, 87.229919%)" offset="0.382812"/><stop stop-opacity="1" stop-color="rgb(100%, 87.701416%, 86.965942%)" offset="0.390625"/><stop stop-opacity="1" stop-color="rgb(100%, 87.452698%, 86.703491%)" offset="0.398437"/><stop stop-opacity="1" stop-color="rgb(100%, 87.203979%, 86.439514%)" offset="0.40625"/><stop stop-opacity="1" stop-color="rgb(100%, 86.955261%, 86.177063%)" offset="0.414062"/><stop stop-opacity="1" stop-color="rgb(100%, 86.706543%, 85.913086%)" offset="0.421875"/><stop stop-opacity="1" stop-color="rgb(100%, 86.459351%, 85.650635%)" offset="0.429687"/><stop stop-opacity="1" stop-color="rgb(100%, 86.210632%, 85.386658%)" offset="0.4375"/><stop stop-opacity="1" stop-color="rgb(100%, 85.961914%, 85.124207%)" offset="0.445312"/><stop stop-opacity="1" stop-color="rgb(100%, 85.713196%, 84.860229%)" offset="0.453125"/><stop stop-opacity="1" stop-color="rgb(100%, 85.464478%, 84.596252%)" offset="0.460937"/><stop stop-opacity="1" stop-color="rgb(100%, 85.217285%, 84.333801%)" offset="0.46875"/><stop stop-opacity="1" stop-color="rgb(100%, 84.968567%, 84.069824%)" offset="0.473169"/><stop stop-opacity="1" stop-color="rgb(100%, 84.844971%, 83.938599%)" offset="0.476562"/><stop stop-opacity="1" stop-color="rgb(100%, 84.719849%, 83.807373%)" offset="0.484375"/><stop stop-opacity="1" stop-color="rgb(100%, 84.47113%, 83.543396%)" offset="0.492187"/><stop stop-opacity="1" stop-color="rgb(100%, 84.222412%, 83.280945%)" offset="0.5"/><stop stop-opacity="1" stop-color="rgb(100%, 83.973694%, 83.016968%)" offset="0.507812"/><stop stop-opacity="1" stop-color="rgb(100%, 83.726501%, 82.754517%)" offset="0.515625"/><stop stop-opacity="1" stop-color="rgb(100%, 83.477783%, 82.49054%)" offset="0.523438"/><stop stop-opacity="1" stop-color="rgb(100%, 83.229065%, 82.228088%)" offset="0.526831"/><stop stop-opacity="1" stop-color="rgb(100%, 83.105469%, 82.096863%)" offset="0.53125"/><stop stop-opacity="1" stop-color="rgb(100%, 82.980347%, 81.964111%)" offset="0.539062"/><stop stop-opacity="1" stop-color="rgb(100%, 82.731628%, 81.700134%)" offset="0.546875"/><stop stop-opacity="1" stop-color="rgb(100%, 82.484436%, 81.437683%)" offset="0.554688"/><stop stop-opacity="1" stop-color="rgb(100%, 82.235718%, 81.173706%)" offset="0.5625"/><stop stop-opacity="1" stop-color="rgb(100%, 81.987%, 80.911255%)" offset="0.570313"/><stop stop-opacity="1" stop-color="rgb(100%, 81.738281%, 80.647278%)" offset="0.578125"/><stop stop-opacity="1" stop-color="rgb(100%, 81.489563%, 80.384827%)" offset="0.585938"/><stop stop-opacity="1" stop-color="rgb(100%, 81.242371%, 80.12085%)" offset="0.59375"/><stop stop-opacity="1" stop-color="rgb(100%, 80.993652%, 79.858398%)" offset="0.601563"/><stop stop-opacity="1" stop-color="rgb(100%, 80.744934%, 79.594421%)" offset="0.609375"/><stop stop-opacity="1" stop-color="rgb(100%, 80.496216%, 79.33197%)" offset="0.617188"/><stop stop-opacity="1" stop-color="rgb(100%, 80.247498%, 79.067993%)" offset="0.625"/><stop stop-opacity="1" stop-color="rgb(100%, 79.998779%, 78.804016%)" offset="0.632812"/><stop stop-opacity="1" stop-color="rgb(100%, 79.751587%, 78.541565%)" offset="0.640625"/><stop stop-opacity="1" stop-color="rgb(100%, 79.502869%, 78.277588%)" offset="0.648438"/><stop stop-opacity="1" stop-color="rgb(100%, 79.25415%, 78.015137%)" offset="0.65625"/><stop stop-opacity="1" stop-color="rgb(100%, 79.005432%, 77.75116%)" offset="0.664062"/><stop stop-opacity="1" stop-color="rgb(100%, 78.756714%, 77.488708%)" offset="0.671875"/><stop stop-opacity="1" stop-color="rgb(100%, 78.509521%, 77.224731%)" offset="0.679687"/><stop stop-opacity="1" stop-color="rgb(100%, 78.260803%, 76.96228%)" offset="0.6875"/><stop stop-opacity="1" stop-color="rgb(100%, 78.012085%, 76.698303%)" offset="0.695313"/><stop stop-opacity="1" stop-color="rgb(100%, 77.763367%, 76.435852%)" offset="0.703125"/><stop stop-opacity="1" stop-color="rgb(100%, 77.514648%, 76.171875%)" offset="0.710938"/><stop stop-opacity="1" stop-color="rgb(100%, 77.26593%, 75.907898%)" offset="0.71875"/><stop stop-opacity="1" stop-color="rgb(100%, 77.018738%, 75.645447%)" offset="0.726563"/><stop stop-opacity="1" stop-color="rgb(100%, 76.77002%, 75.38147%)" offset="0.734375"/><stop stop-opacity="1" stop-color="rgb(100%, 76.521301%, 75.119019%)" offset="0.742188"/><stop stop-opacity="1" stop-color="rgb(100%, 76.272583%, 74.855042%)" offset="0.75"/><stop stop-opacity="1" stop-color="rgb(100%, 76.023865%, 74.59259%)" offset="0.757812"/><stop stop-opacity="1" stop-color="rgb(100%, 75.776672%, 74.328613%)" offset="0.765625"/><stop stop-opacity="1" stop-color="rgb(100%, 75.527954%, 74.066162%)" offset="0.773438"/><stop stop-opacity="1" stop-color="rgb(100%, 75.279236%, 73.802185%)" offset="0.78125"/><stop stop-opacity="1" stop-color="rgb(100%, 75.030518%, 73.539734%)" offset="0.789062"/><stop stop-opacity="1" stop-color="rgb(100%, 74.781799%, 73.275757%)" offset="0.796875"/><stop stop-opacity="1" stop-color="rgb(100%, 74.533081%, 73.013306%)" offset="0.804687"/><stop stop-opacity="1" stop-color="rgb(100%, 74.285889%, 72.749329%)" offset="0.8125"/><stop stop-opacity="1" stop-color="rgb(100%, 74.03717%, 72.485352%)" offset="0.820313"/><stop stop-opacity="1" stop-color="rgb(100%, 73.788452%, 72.2229%)" offset="0.828125"/><stop stop-opacity="1" stop-color="rgb(100%, 73.539734%, 71.958923%)" offset="0.835938"/><stop stop-opacity="1" stop-color="rgb(100%, 73.291016%, 71.696472%)" offset="0.84375"/><stop stop-opacity="1" stop-color="rgb(100%, 73.043823%, 71.432495%)" offset="0.851563"/><stop stop-opacity="1" stop-color="rgb(100%, 72.795105%, 71.170044%)" offset="0.859375"/><stop stop-opacity="1" stop-color="rgb(100%, 72.546387%, 70.906067%)" offset="0.867188"/><stop stop-opacity="1" stop-color="rgb(100%, 72.297668%, 70.643616%)" offset="0.875"/><stop stop-opacity="1" stop-color="rgb(100%, 72.04895%, 70.379639%)" offset="0.882812"/><stop stop-opacity="1" stop-color="rgb(100%, 71.801758%, 70.117188%)" offset="0.890625"/><stop stop-opacity="1" stop-color="rgb(100%, 71.55304%, 69.85321%)" offset="0.898438"/><stop stop-opacity="1" stop-color="rgb(100%, 71.304321%, 69.589233%)" offset="0.90625"/><stop stop-opacity="1" stop-color="rgb(100%, 71.055603%, 69.326782%)" offset="0.914062"/><stop stop-opacity="1" stop-color="rgb(100%, 70.806885%, 69.062805%)" offset="0.921875"/><stop stop-opacity="1" stop-color="rgb(100%, 70.558167%, 68.800354%)" offset="0.929687"/><stop stop-opacity="1" stop-color="rgb(100%, 70.310974%, 68.536377%)" offset="0.9375"/><stop stop-opacity="1" stop-color="rgb(100%, 70.062256%, 68.273926%)" offset="0.945313"/><stop stop-opacity="1" stop-color="rgb(100%, 69.813538%, 68.009949%)" offset="0.953125"/><stop stop-opacity="1" stop-color="rgb(100%, 69.564819%, 67.747498%)" offset="0.960938"/><stop stop-opacity="1" stop-color="rgb(100%, 69.316101%, 67.483521%)" offset="0.96875"/><stop stop-opacity="1" stop-color="rgb(100%, 69.068909%, 67.221069%)" offset="0.976562"/><stop stop-opacity="1" stop-color="rgb(100%, 68.82019%, 66.957092%)" offset="0.984375"/><stop stop-opacity="1" stop-color="rgb(100%, 68.571472%, 66.693115%)" offset="0.992188"/><stop stop-opacity="1" stop-color="rgb(100%, 68.322754%, 66.430664%)" offset="1"/></linearGradient><clipPath id="48f574e0e1"><path d="M 2.523438 0.453125 L 27.203125 0.453125 L 27.203125 28.578125 L 2.523438 28.578125 Z M 2.523438 0.453125 " clip-rule="nonzero"/></clipPath><clipPath id="a9cd10af66"><path d="M 17.007812 1.167969 L 25.46875 6.089844 C 26.710938 6.8125 27.476562 8.144531 27.476562 9.582031 L 27.476562 19.453125 C 27.476562 20.890625 26.710938 22.21875 25.46875 22.941406 L 17.007812 27.863281 C 15.765625 28.585938 14.234375 28.585938 12.992188 27.863281 L 4.53125 22.941406 C 3.289062 22.21875 2.523438 20.890625 2.523438 19.453125 L 2.523438 9.582031 C 2.523438 8.144531 3.289062 6.8125 4.53125 6.089844 L 12.992188 1.167969 C 14.234375 0.445312 15.765625 0.445312 17.007812 1.167969 Z M 17.007812 1.167969 " clip-rule="nonzero"/></clipPath><clipPath id="c181e9e8e3"><path d="M 6.59375 6.398438 L 22.558594 6.398438 L 22.558594 22.367188 L 6.59375 22.367188 Z M 6.59375 6.398438 " clip-rule="nonzero"/></clipPath></defs><g clip-path="url(#2335a7f9ab)"><g clip-path="url(#a00354d417)"><path fill="url(#fe9b99125e)" d="M 2.523438 0.625 L 2.523438 28.40625 L 27.476562 28.40625 L 27.476562 0.625 Z M 2.523438 0.625 " fill-rule="nonzero"/></g></g><g clip-path="url(#48f574e0e1)"><g clip-path="url(#a9cd10af66)"><path stroke-linecap="butt" transform="matrix(0.725806, 0, 0, 0.725806, 2.525201, 0.00000193548)" fill="none" stroke-linejoin="miter" d="M 19.95382 1.609199 L 31.611112 8.390449 C 33.32257 9.386109 34.377432 11.221352 34.377432 13.201907 L 34.377432 26.802081 C 34.377432 28.782636 33.32257 30.612498 31.611112 31.608157 L 19.95382 38.389407 C 18.242362 39.385067 16.13264 39.385067 14.421181 38.389407 L 2.76389 31.608157 C 1.052431 30.612498 -0.00242987 28.782636 -0.00242987 26.802081 L -0.00242987 13.201907 C -0.00242987 11.221352 1.052431 9.386109 2.76389 8.390449 L 14.421181 1.609199 C 16.13264 0.613539 18.242362 0.613539 19.95382 1.609199 Z M 19.95382 1.609199 " stroke="#ab3f1d" stroke-width="4" stroke-opacity="1" stroke-miterlimit="4"/></g></g><g clip-path="url(#c181e9e8e3)"><path fill="#ab3f1d" d="M 18.5 6.707031 C 18.195312 6.707031 17.898438 6.765625 17.617188 6.882812 C 17.335938 7 17.085938 7.164062 16.871094 7.382812 C 16.652344 7.597656 16.488281 7.847656 16.371094 8.128906 C 16.253906 8.410156 16.195312 8.707031 16.195312 9.011719 C 16.195312 9.316406 16.253906 9.613281 16.371094 9.894531 C 16.488281 10.175781 16.652344 10.425781 16.871094 10.640625 C 17.085938 10.859375 17.335938 11.023438 17.617188 11.140625 C 17.898438 11.257812 18.195312 11.316406 18.5 11.316406 C 18.804688 11.316406 19.101562 11.257812 19.382812 11.140625 C 19.664062 11.023438 19.914062 10.859375 20.128906 10.640625 C 20.347656 10.425781 20.511719 10.175781 20.628906 9.894531 C 20.746094 9.613281 20.804688 9.316406 20.804688 9.011719 C 20.804688 8.707031 20.746094 8.410156 20.628906 8.128906 C 20.511719 7.847656 20.347656 7.597656 20.128906 7.382812 C 19.914062 7.164062 19.664062 7 19.382812 6.882812 C 19.101562 6.765625 18.804688 6.707031 18.5 6.707031 M 15.328125 6.941406 C 12.625 6.925781 10.066406 8.386719 8.722656 10.761719 C 8.777344 10.757812 8.835938 10.757812 8.898438 10.757812 C 9.527344 10.753906 10.109375 10.921875 10.644531 11.253906 C 11.160156 10.511719 11.816406 9.925781 12.617188 9.496094 C 13.414062 9.070312 14.265625 8.847656 15.171875 8.832031 C 15.210938 8.136719 15.441406 7.511719 15.871094 6.960938 C 15.691406 6.949219 15.507812 6.941406 15.328125 6.941406 M 21.566406 10.316406 C 21.292969 10.960938 20.863281 11.464844 20.269531 11.835938 C 20.738281 12.722656 20.957031 13.664062 20.925781 14.667969 C 20.890625 15.667969 20.613281 16.597656 20.085938 17.449219 C 20.640625 17.902344 21.007812 18.476562 21.1875 19.167969 C 21.683594 18.542969 22.070312 17.859375 22.347656 17.113281 C 22.625 16.367188 22.78125 15.597656 22.8125 14.804688 C 22.847656 14.007812 22.757812 13.226562 22.542969 12.460938 C 22.332031 11.695312 22.007812 10.980469 21.566406 10.316406 M 8.898438 11.761719 C 8.59375 11.761719 8.296875 11.820312 8.015625 11.9375 C 7.734375 12.054688 7.484375 12.222656 7.265625 12.4375 C 7.050781 12.652344 6.882812 12.902344 6.769531 13.183594 C 6.652344 13.46875 6.59375 13.761719 6.59375 14.066406 C 6.59375 14.375 6.652344 14.667969 6.769531 14.949219 C 6.886719 15.234375 7.050781 15.480469 7.269531 15.699219 C 7.484375 15.914062 7.734375 16.082031 8.015625 16.199219 C 8.296875 16.316406 8.59375 16.371094 8.898438 16.371094 C 9.203125 16.371094 9.496094 16.316406 9.78125 16.199219 C 10.0625 16.082031 10.3125 15.914062 10.527344 15.699219 C 10.746094 15.480469 10.910156 15.230469 11.027344 14.949219 C 11.144531 14.667969 11.203125 14.371094 11.203125 14.066406 C 11.203125 13.761719 11.144531 13.46875 11.027344 13.183594 C 10.910156 12.902344 10.746094 12.652344 10.527344 12.4375 C 10.3125 12.21875 10.0625 12.054688 9.78125 11.9375 C 9.496094 11.820312 9.203125 11.761719 8.898438 11.761719 Z M 10.269531 17.082031 C 9.636719 17.367188 8.980469 17.449219 8.296875 17.324219 C 8.527344 17.894531 8.824219 18.425781 9.183594 18.921875 C 9.546875 19.421875 9.964844 19.867188 10.433594 20.261719 C 10.90625 20.65625 11.417969 20.988281 11.96875 21.257812 C 12.523438 21.527344 13.097656 21.726562 13.699219 21.851562 C 14.242188 21.96875 14.785156 22.023438 15.339844 22.019531 C 14.90625 21.453125 14.679688 20.808594 14.664062 20.09375 C 14.472656 20.070312 14.285156 20.039062 14.097656 20 C 13.273438 19.828125 12.523438 19.484375 11.855469 18.972656 C 11.183594 18.460938 10.65625 17.832031 10.269531 17.082031 Z M 17.980469 17.707031 C 17.675781 17.707031 17.378906 17.765625 17.097656 17.882812 C 16.816406 18 16.566406 18.167969 16.351562 18.382812 C 16.132812 18.601562 15.96875 18.847656 15.851562 19.132812 C 15.734375 19.414062 15.675781 19.707031 15.675781 20.015625 C 15.675781 20.320312 15.734375 20.613281 15.851562 20.898438 C 15.96875 21.179688 16.132812 21.429688 16.351562 21.644531 C 16.566406 21.859375 16.816406 22.027344 17.097656 22.144531 C 17.378906 22.261719 17.675781 22.320312 17.980469 22.320312 C 18.285156 22.320312 18.582031 22.261719 18.863281 22.144531 C 19.144531 22.027344 19.394531 21.859375 19.609375 21.644531 C 19.828125 21.429688 19.992188 21.179688 20.109375 20.898438 C 20.226562 20.613281 20.285156 20.320312 20.285156 20.015625 C 20.285156 19.707031 20.226562 19.414062 20.109375 19.132812 C 19.992188 18.847656 19.828125 18.601562 19.609375 18.382812 C 19.394531 18.167969 19.144531 18 18.863281 17.882812 C 18.582031 17.765625 18.285156 17.707031 17.980469 17.707031 " fill-opacity="1" fill-rule="nonzero"/></g></svg>