<svg xmlns="http://www.w3.org/2000/svg" xmlns:xlink="http://www.w3.org/1999/xlink" width="500" zoomAndPan="magnify" viewBox="0 0 375 374.999991" height="500" preserveAspectRatio="xMidYMid meet" version="1.0"><defs><clipPath id="142a45a584"><path d="M 26.367188 8.089844 L 348.632812 8.089844 L 348.632812 366.90625 L 26.367188 366.90625 Z M 26.367188 8.089844 " clip-rule="nonzero"/></clipPath><clipPath id="22408dc7ab"><path d="M 213.429688 15.085938 L 322.703125 78.664062 C 338.757812 88.003906 348.632812 105.175781 348.632812 123.75 L 348.632812 251.25 C 348.632812 269.824219 338.757812 286.996094 322.703125 296.335938 L 213.429688 359.914062 C 197.402344 369.238281 177.597656 369.238281 161.570312 359.914062 L 52.296875 296.335938 C 36.242188 286.996094 26.367188 269.824219 26.367188 251.25 L 26.367188 123.75 C 26.367188 105.175781 36.242188 88.003906 52.296875 78.664062 L 161.570312 15.085938 C 177.597656 5.761719 197.402344 5.761719 213.429688 15.085938 Z M 213.429688 15.085938 " clip-rule="nonzero"/></clipPath><linearGradient x1="-7.258984" gradientTransform="matrix(1.25885, 0, 0, 1.25885, 26.367192, -0.00024)" y1="13.687016" x2="263.258471" gradientUnits="userSpaceOnUse" y2="284.203481" id="41aaaeacd6"><stop stop-opacity="1" stop-color="rgb(100%, 99.998474%, 99.998474%)" offset="0"/><stop stop-opacity="1" stop-color="rgb(100%, 99.874878%, 99.867249%)" offset="0.0078125"/><stop stop-opacity="1" stop-color="rgb(100%, 99.62616%, 99.603271%)" offset="0.015625"/><stop stop-opacity="1" stop-color="rgb(100%, 99.377441%, 99.34082%)" offset="0.0234375"/><stop stop-opacity="1" stop-color="rgb(100%, 99.128723%, 99.076843%)" offset="0.03125"/><stop stop-opacity="1" stop-color="rgb(100%, 98.880005%, 98.814392%)" offset="0.0390625"/><stop stop-opacity="1" stop-color="rgb(100%, 98.632812%, 98.550415%)" offset="0.046875"/><stop stop-opacity="1" stop-color="rgb(100%, 98.384094%, 98.287964%)" offset="0.0546875"/><stop stop-opacity="1" stop-color="rgb(100%, 98.135376%, 98.023987%)" offset="0.0625"/><stop stop-opacity="1" stop-color="rgb(100%, 97.886658%, 97.761536%)" offset="0.0703125"/><stop stop-opacity="1" stop-color="rgb(100%, 97.637939%, 97.497559%)" offset="0.078125"/><stop stop-opacity="1" stop-color="rgb(100%, 97.390747%, 97.235107%)" offset="0.0859375"/><stop stop-opacity="1" stop-color="rgb(100%, 97.142029%, 96.97113%)" offset="0.09375"/><stop stop-opacity="1" stop-color="rgb(100%, 96.893311%, 96.707153%)" offset="0.101562"/><stop stop-opacity="1" stop-color="rgb(100%, 96.644592%, 96.444702%)" offset="0.109375"/><stop stop-opacity="1" stop-color="rgb(100%, 96.395874%, 96.180725%)" offset="0.117188"/><stop stop-opacity="1" stop-color="rgb(100%, 96.147156%, 95.918274%)" offset="0.125"/><stop stop-opacity="1" stop-color="rgb(100%, 95.899963%, 95.654297%)" offset="0.132812"/><stop stop-opacity="1" stop-color="rgb(100%, 95.651245%, 95.391846%)" offset="0.140625"/><stop stop-opacity="1" stop-color="rgb(100%, 95.402527%, 95.127869%)" offset="0.148438"/><stop stop-opacity="1" stop-color="rgb(100%, 95.153809%, 94.865417%)" offset="0.15625"/><stop stop-opacity="1" stop-color="rgb(100%, 94.90509%, 94.60144%)" offset="0.164062"/><stop stop-opacity="1" stop-color="rgb(100%, 94.657898%, 94.338989%)" offset="0.171875"/><stop stop-opacity="1" stop-color="rgb(100%, 94.40918%, 94.075012%)" offset="0.179688"/><stop stop-opacity="1" stop-color="rgb(100%, 94.160461%, 93.811035%)" offset="0.1875"/><stop stop-opacity="1" stop-color="rgb(100%, 93.911743%, 93.548584%)" offset="0.195312"/><stop stop-opacity="1" stop-color="rgb(100%, 93.663025%, 93.284607%)" offset="0.203125"/><stop stop-opacity="1" stop-color="rgb(100%, 93.414307%, 93.022156%)" offset="0.210938"/><stop stop-opacity="1" stop-color="rgb(100%, 93.167114%, 92.758179%)" offset="0.21875"/><stop stop-opacity="1" stop-color="rgb(100%, 92.918396%, 92.495728%)" offset="0.226562"/><stop stop-opacity="1" stop-color="rgb(100%, 92.669678%, 92.23175%)" offset="0.234375"/><stop stop-opacity="1" stop-color="rgb(100%, 92.420959%, 91.969299%)" offset="0.242188"/><stop stop-opacity="1" stop-color="rgb(100%, 92.172241%, 91.705322%)" offset="0.25"/><stop stop-opacity="1" stop-color="rgb(100%, 91.925049%, 91.442871%)" offset="0.257812"/><stop stop-opacity="1" stop-color="rgb(100%, 91.676331%, 91.178894%)" offset="0.265625"/><stop stop-opacity="1" stop-color="rgb(100%, 91.427612%, 90.914917%)" offset="0.273437"/><stop stop-opacity="1" stop-color="rgb(100%, 91.178894%, 90.652466%)" offset="0.28125"/><stop stop-opacity="1" stop-color="rgb(100%, 90.930176%, 90.388489%)" offset="0.289062"/><stop stop-opacity="1" stop-color="rgb(100%, 90.682983%, 90.126038%)" offset="0.296875"/><stop stop-opacity="1" stop-color="rgb(100%, 90.434265%, 89.862061%)" offset="0.304687"/><stop stop-opacity="1" stop-color="rgb(100%, 90.185547%, 89.599609%)" offset="0.3125"/><stop stop-opacity="1" stop-color="rgb(100%, 89.936829%, 89.335632%)" offset="0.320312"/><stop stop-opacity="1" stop-color="rgb(100%, 89.68811%, 89.073181%)" offset="0.328125"/><stop stop-opacity="1" stop-color="rgb(100%, 89.439392%, 88.809204%)" offset="0.335937"/><stop stop-opacity="1" stop-color="rgb(100%, 89.1922%, 88.546753%)" offset="0.34375"/><stop stop-opacity="1" stop-color="rgb(100%, 88.943481%, 88.282776%)" offset="0.351562"/><stop stop-opacity="1" stop-color="rgb(100%, 88.694763%, 88.018799%)" offset="0.359375"/><stop stop-opacity="1" stop-color="rgb(100%, 88.446045%, 87.756348%)" offset="0.367188"/><stop stop-opacity="1" stop-color="rgb(100%, 88.197327%, 87.492371%)" offset="0.375"/><stop stop-opacity="1" stop-color="rgb(100%, 87.950134%, 87.229919%)" offset="0.382812"/><stop stop-opacity="1" stop-color="rgb(100%, 87.701416%, 86.965942%)" offset="0.390625"/><stop stop-opacity="1" stop-color="rgb(100%, 87.452698%, 86.703491%)" offset="0.398437"/><stop stop-opacity="1" stop-color="rgb(100%, 87.203979%, 86.439514%)" offset="0.40625"/><stop stop-opacity="1" stop-color="rgb(100%, 86.955261%, 86.177063%)" offset="0.414062"/><stop stop-opacity="1" stop-color="rgb(100%, 86.706543%, 85.913086%)" offset="0.421875"/><stop stop-opacity="1" stop-color="rgb(100%, 86.459351%, 85.650635%)" offset="0.429687"/><stop stop-opacity="1" stop-color="rgb(100%, 86.210632%, 85.386658%)" offset="0.4375"/><stop stop-opacity="1" stop-color="rgb(100%, 85.961914%, 85.124207%)" offset="0.445312"/><stop stop-opacity="1" stop-color="rgb(100%, 85.713196%, 84.860229%)" offset="0.453125"/><stop stop-opacity="1" stop-color="rgb(100%, 85.464478%, 84.596252%)" offset="0.460937"/><stop stop-opacity="1" stop-color="rgb(100%, 85.217285%, 84.333801%)" offset="0.46875"/><stop stop-opacity="1" stop-color="rgb(100%, 84.968567%, 84.069824%)" offset="0.473169"/><stop stop-opacity="1" stop-color="rgb(100%, 84.844971%, 83.938599%)" offset="0.476562"/><stop stop-opacity="1" stop-color="rgb(100%, 84.719849%, 83.807373%)" offset="0.484375"/><stop stop-opacity="1" stop-color="rgb(100%, 84.47113%, 83.543396%)" offset="0.492188"/><stop stop-opacity="1" stop-color="rgb(100%, 84.222412%, 83.280945%)" offset="0.5"/><stop stop-opacity="1" stop-color="rgb(100%, 83.973694%, 83.016968%)" offset="0.507813"/><stop stop-opacity="1" stop-color="rgb(100%, 83.726501%, 82.754517%)" offset="0.515625"/><stop stop-opacity="1" stop-color="rgb(100%, 83.477783%, 82.49054%)" offset="0.523438"/><stop stop-opacity="1" stop-color="rgb(100%, 83.229065%, 82.228088%)" offset="0.526831"/><stop stop-opacity="1" stop-color="rgb(100%, 83.105469%, 82.096863%)" offset="0.53125"/><stop stop-opacity="1" stop-color="rgb(100%, 82.980347%, 81.964111%)" offset="0.539062"/><stop stop-opacity="1" stop-color="rgb(100%, 82.731628%, 81.700134%)" offset="0.546875"/><stop stop-opacity="1" stop-color="rgb(100%, 82.484436%, 81.437683%)" offset="0.554688"/><stop stop-opacity="1" stop-color="rgb(100%, 82.235718%, 81.173706%)" offset="0.5625"/><stop stop-opacity="1" stop-color="rgb(100%, 81.987%, 80.911255%)" offset="0.570312"/><stop stop-opacity="1" stop-color="rgb(100%, 81.738281%, 80.647278%)" offset="0.578125"/><stop stop-opacity="1" stop-color="rgb(100%, 81.489563%, 80.384827%)" offset="0.585938"/><stop stop-opacity="1" stop-color="rgb(100%, 81.242371%, 80.12085%)" offset="0.59375"/><stop stop-opacity="1" stop-color="rgb(100%, 80.993652%, 79.858398%)" offset="0.601563"/><stop stop-opacity="1" stop-color="rgb(100%, 80.744934%, 79.594421%)" offset="0.609375"/><stop stop-opacity="1" stop-color="rgb(100%, 80.496216%, 79.33197%)" offset="0.617188"/><stop stop-opacity="1" stop-color="rgb(100%, 80.247498%, 79.067993%)" offset="0.625"/><stop stop-opacity="1" stop-color="rgb(100%, 79.998779%, 78.804016%)" offset="0.632812"/><stop stop-opacity="1" stop-color="rgb(100%, 79.751587%, 78.541565%)" offset="0.640625"/><stop stop-opacity="1" stop-color="rgb(100%, 79.502869%, 78.277588%)" offset="0.648437"/><stop stop-opacity="1" stop-color="rgb(100%, 79.25415%, 78.015137%)" offset="0.65625"/><stop stop-opacity="1" stop-color="rgb(100%, 79.005432%, 77.75116%)" offset="0.664062"/><stop stop-opacity="1" stop-color="rgb(100%, 78.756714%, 77.488708%)" offset="0.671875"/><stop stop-opacity="1" stop-color="rgb(100%, 78.509521%, 77.224731%)" offset="0.679688"/><stop stop-opacity="1" stop-color="rgb(100%, 78.260803%, 76.96228%)" offset="0.6875"/><stop stop-opacity="1" stop-color="rgb(100%, 78.012085%, 76.698303%)" offset="0.695312"/><stop stop-opacity="1" stop-color="rgb(100%, 77.763367%, 76.435852%)" offset="0.703125"/><stop stop-opacity="1" stop-color="rgb(100%, 77.514648%, 76.171875%)" offset="0.710938"/><stop stop-opacity="1" stop-color="rgb(100%, 77.26593%, 75.907898%)" offset="0.71875"/><stop stop-opacity="1" stop-color="rgb(100%, 77.018738%, 75.645447%)" offset="0.726562"/><stop stop-opacity="1" stop-color="rgb(100%, 76.77002%, 75.38147%)" offset="0.734375"/><stop stop-opacity="1" stop-color="rgb(100%, 76.521301%, 75.119019%)" offset="0.742187"/><stop stop-opacity="1" stop-color="rgb(100%, 76.272583%, 74.855042%)" offset="0.75"/><stop stop-opacity="1" stop-color="rgb(100%, 76.023865%, 74.59259%)" offset="0.757813"/><stop stop-opacity="1" stop-color="rgb(100%, 75.776672%, 74.328613%)" offset="0.765625"/><stop stop-opacity="1" stop-color="rgb(100%, 75.527954%, 74.066162%)" offset="0.773438"/><stop stop-opacity="1" stop-color="rgb(100%, 75.279236%, 73.802185%)" offset="0.78125"/><stop stop-opacity="1" stop-color="rgb(100%, 75.030518%, 73.539734%)" offset="0.789062"/><stop stop-opacity="1" stop-color="rgb(100%, 74.781799%, 73.275757%)" offset="0.796875"/><stop stop-opacity="1" stop-color="rgb(100%, 74.533081%, 73.013306%)" offset="0.804688"/><stop stop-opacity="1" stop-color="rgb(100%, 74.285889%, 72.749329%)" offset="0.8125"/><stop stop-opacity="1" stop-color="rgb(100%, 74.03717%, 72.485352%)" offset="0.820312"/><stop stop-opacity="1" stop-color="rgb(100%, 73.788452%, 72.2229%)" offset="0.828125"/><stop stop-opacity="1" stop-color="rgb(100%, 73.539734%, 71.958923%)" offset="0.835938"/><stop stop-opacity="1" stop-color="rgb(100%, 73.291016%, 71.696472%)" offset="0.84375"/><stop stop-opacity="1" stop-color="rgb(100%, 73.043823%, 71.432495%)" offset="0.851563"/><stop stop-opacity="1" stop-color="rgb(100%, 72.795105%, 71.170044%)" offset="0.859375"/><stop stop-opacity="1" stop-color="rgb(100%, 72.546387%, 70.906067%)" offset="0.867188"/><stop stop-opacity="1" stop-color="rgb(100%, 72.297668%, 70.643616%)" offset="0.875"/><stop stop-opacity="1" stop-color="rgb(100%, 72.04895%, 70.379639%)" offset="0.882812"/><stop stop-opacity="1" stop-color="rgb(100%, 71.801758%, 70.117188%)" offset="0.890625"/><stop stop-opacity="1" stop-color="rgb(100%, 71.55304%, 69.85321%)" offset="0.898437"/><stop stop-opacity="1" stop-color="rgb(100%, 71.304321%, 69.589233%)" offset="0.90625"/><stop stop-opacity="1" stop-color="rgb(100%, 71.055603%, 69.326782%)" offset="0.914062"/><stop stop-opacity="1" stop-color="rgb(100%, 70.806885%, 69.062805%)" offset="0.921875"/><stop stop-opacity="1" stop-color="rgb(100%, 70.558167%, 68.800354%)" offset="0.929688"/><stop stop-opacity="1" stop-color="rgb(100%, 70.310974%, 68.536377%)" offset="0.9375"/><stop stop-opacity="1" stop-color="rgb(100%, 70.062256%, 68.273926%)" offset="0.945312"/><stop stop-opacity="1" stop-color="rgb(100%, 69.813538%, 68.009949%)" offset="0.953125"/><stop stop-opacity="1" stop-color="rgb(100%, 69.564819%, 67.747498%)" offset="0.960938"/><stop stop-opacity="1" stop-color="rgb(100%, 69.316101%, 67.483521%)" offset="0.96875"/><stop stop-opacity="1" stop-color="rgb(100%, 69.068909%, 67.221069%)" offset="0.976562"/><stop stop-opacity="1" stop-color="rgb(100%, 68.82019%, 66.957092%)" offset="0.984375"/><stop stop-opacity="1" stop-color="rgb(100%, 68.571472%, 66.693115%)" offset="0.992187"/><stop stop-opacity="1" stop-color="rgb(100%, 68.322754%, 66.430664%)" offset="1"/></linearGradient><clipPath id="8b3f39e455"><path d="M 26.367188 8 L 348.632812 8 L 348.632812 367 L 26.367188 367 Z M 26.367188 8 " clip-rule="nonzero"/></clipPath><clipPath id="0342603445"><path d="M 213.429688 15.085938 L 322.703125 78.664062 C 338.757812 88.003906 348.632812 105.175781 348.632812 123.75 L 348.632812 251.25 C 348.632812 269.824219 338.757812 286.996094 322.703125 296.335938 L 213.429688 359.914062 C 197.402344 369.238281 177.597656 369.238281 161.570312 359.914062 L 52.296875 296.335938 C 36.242188 286.996094 26.367188 269.824219 26.367188 251.25 L 26.367188 123.75 C 26.367188 105.175781 36.242188 88.003906 52.296875 78.664062 L 161.570312 15.085938 C 177.597656 5.761719 197.402344 5.761719 213.429688 15.085938 Z M 213.429688 15.085938 " clip-rule="nonzero"/></clipPath><clipPath id="8fd8ce154e"><path d="M 78.898438 86 L 288.898438 86 L 288.898438 289 L 78.898438 289 Z M 78.898438 86 " clip-rule="nonzero"/></clipPath></defs><g clip-path="url(#142a45a584)"><g clip-path="url(#22408dc7ab)"><path fill="url(#41aaaeacd6)" d="M 26.367188 8.089844 L 26.367188 366.90625 L 348.632812 366.90625 L 348.632812 8.089844 Z M 26.367188 8.089844 " fill-rule="nonzero"/></g></g><g clip-path="url(#8b3f39e455)"><g clip-path="url(#0342603445)"><path stroke-linecap="butt" transform="matrix(0.75, 0, 0, 0.75, 26.36719, 0.000000000000042633)" fill="none" stroke-linejoin="miter" d="M 249.416663 20.114583 L 395.11458 104.885417 C 416.52083 117.338542 429.687497 140.234375 429.687497 165 L 429.687497 335.000001 C 429.687497 359.765626 416.52083 382.661459 395.11458 395.114584 L 249.416663 479.885417 C 228.046872 492.317709 201.640622 492.317709 180.27083 479.885417 L 34.572913 395.114584 C 13.166663 382.661459 -0.00000361141 359.765626 -0.00000361141 335.000001 L -0.00000361141 165 C -0.00000361141 140.234375 13.166663 117.338542 34.572913 104.885417 L 180.27083 20.114583 C 201.640622 7.682292 228.046872 7.682292 249.416663 20.114583 Z M 249.416663 20.114583 " stroke="#ab3f1d" stroke-width="50" stroke-opacity="1" stroke-miterlimit="4"/></g></g><g clip-path="url(#8fd8ce154e)"><path fill="#ab3f1d" d="M 232.761719 86.621094 C 231.785156 86.621094 230.8125 86.671875 229.839844 86.765625 C 228.871094 86.863281 227.90625 87.003906 226.949219 87.195312 C 225.992188 87.386719 225.046875 87.621094 224.113281 87.90625 C 223.179688 88.1875 222.261719 88.515625 221.359375 88.890625 C 220.457031 89.265625 219.578125 89.679688 218.714844 90.140625 C 217.855469 90.601562 217.019531 91.101562 216.207031 91.644531 C 215.398438 92.1875 214.613281 92.765625 213.859375 93.386719 C 213.105469 94.003906 212.382812 94.660156 211.695312 95.347656 C 211.003906 96.039062 210.347656 96.761719 209.730469 97.515625 C 209.109375 98.269531 208.53125 99.054688 207.988281 99.863281 C 207.445312 100.675781 206.945312 101.511719 206.484375 102.371094 C 206.023438 103.234375 205.609375 104.113281 205.234375 105.015625 C 204.863281 105.917969 204.535156 106.835938 204.25 107.769531 C 203.96875 108.703125 203.730469 109.648438 203.539062 110.605469 C 203.347656 111.5625 203.207031 112.527344 203.109375 113.496094 C 203.015625 114.46875 202.96875 115.441406 202.96875 116.417969 C 202.96875 117.394531 203.015625 118.367188 203.109375 119.335938 C 203.207031 120.308594 203.347656 121.273438 203.539062 122.230469 C 203.730469 123.1875 203.96875 124.132812 204.25 125.066406 C 204.535156 126 204.863281 126.917969 205.234375 127.820312 C 205.609375 128.71875 206.023438 129.601562 206.484375 130.460938 C 206.945312 131.324219 207.445312 132.160156 207.988281 132.96875 C 208.53125 133.78125 209.109375 134.5625 209.730469 135.320312 C 210.347656 136.074219 211.003906 136.792969 211.695312 137.484375 C 212.382812 138.175781 213.105469 138.828125 213.859375 139.449219 C 214.613281 140.066406 215.398438 140.648438 216.207031 141.191406 C 217.019531 141.730469 217.855469 142.234375 218.714844 142.691406 C 219.578125 143.152344 220.457031 143.570312 221.359375 143.945312 C 222.261719 144.316406 223.179688 144.644531 224.113281 144.929688 C 225.046875 145.210938 225.992188 145.449219 226.949219 145.640625 C 227.90625 145.828125 228.871094 145.972656 229.839844 146.066406 C 230.8125 146.164062 231.785156 146.210938 232.761719 146.210938 C 233.738281 146.210938 234.710938 146.164062 235.683594 146.066406 C 236.652344 145.972656 237.617188 145.828125 238.574219 145.640625 C 239.53125 145.449219 240.476562 145.210938 241.410156 144.929688 C 242.34375 144.644531 243.261719 144.316406 244.164062 143.945312 C 245.066406 143.570312 245.945312 143.152344 246.804688 142.691406 C 247.667969 142.234375 248.503906 141.730469 249.3125 141.191406 C 250.125 140.648438 250.910156 140.066406 251.664062 139.449219 C 252.417969 138.828125 253.140625 138.175781 253.828125 137.484375 C 254.519531 136.792969 255.171875 136.074219 255.792969 135.320312 C 256.410156 134.5625 256.992188 133.78125 257.535156 132.96875 C 258.078125 132.160156 258.578125 131.324219 259.039062 130.460938 C 259.496094 129.601562 259.914062 128.71875 260.289062 127.820312 C 260.660156 126.917969 260.988281 126 261.273438 125.066406 C 261.554688 124.132812 261.792969 123.1875 261.984375 122.230469 C 262.171875 121.273438 262.316406 120.308594 262.414062 119.335938 C 262.507812 118.367188 262.554688 117.394531 262.554688 116.417969 C 262.554688 115.441406 262.507812 114.46875 262.414062 113.496094 C 262.316406 112.527344 262.171875 111.5625 261.984375 110.605469 C 261.792969 109.648438 261.554688 108.703125 261.273438 107.769531 C 260.988281 106.835938 260.660156 105.917969 260.289062 105.015625 C 259.914062 104.113281 259.496094 103.234375 259.039062 102.371094 C 258.578125 101.511719 258.078125 100.675781 257.535156 99.863281 C 256.992188 99.054688 256.410156 98.269531 255.792969 97.515625 C 255.171875 96.761719 254.519531 96.039062 253.828125 95.347656 C 253.140625 94.660156 252.417969 94.003906 251.664062 93.386719 C 250.910156 92.765625 250.125 92.1875 249.3125 91.644531 C 248.503906 91.101562 247.667969 90.601562 246.804688 90.140625 C 245.945312 89.679688 245.066406 89.265625 244.164062 88.890625 C 243.261719 88.515625 242.34375 88.1875 241.410156 87.90625 C 240.476562 87.621094 239.53125 87.386719 238.574219 87.195312 C 237.617188 87.003906 236.652344 86.863281 235.683594 86.765625 C 234.710938 86.671875 233.738281 86.621094 232.761719 86.621094 M 191.785156 89.636719 C 156.859375 89.4375 123.78125 108.34375 106.402344 139.011719 C 107.160156 138.972656 107.917969 138.953125 108.675781 138.949219 C 112.664062 138.949219 116.578125 139.496094 120.417969 140.589844 C 124.253906 141.683594 127.871094 143.285156 131.261719 145.390625 C 132.898438 143.027344 134.667969 140.769531 136.570312 138.617188 C 138.476562 136.464844 140.5 134.433594 142.644531 132.523438 C 144.789062 130.609375 147.039062 128.832031 149.394531 127.183594 C 151.753906 125.539062 154.195312 124.039062 156.730469 122.683594 C 159.265625 121.328125 161.871094 120.128906 164.546875 119.082031 C 167.222656 118.035156 169.953125 117.152344 172.734375 116.429688 C 175.515625 115.703125 178.328125 115.148438 181.175781 114.761719 C 184.023438 114.371094 186.882812 114.152344 189.757812 114.101562 C 189.996094 109.707031 190.886719 105.449219 192.429688 101.328125 C 193.972656 97.203125 196.09375 93.40625 198.800781 89.933594 C 196.464844 89.75 194.125 89.652344 191.785156 89.636719 M 272.394531 133.269531 C 270.675781 137.324219 268.386719 141.027344 265.527344 144.375 C 262.667969 147.722656 259.371094 150.5625 255.636719 152.894531 C 257.121094 155.695312 258.414062 158.582031 259.523438 161.550781 C 260.632812 164.519531 261.542969 167.550781 262.253906 170.636719 C 262.96875 173.726562 263.480469 176.847656 263.789062 180 C 264.09375 183.15625 264.195312 186.316406 264.09375 189.484375 C 263.988281 192.652344 263.679688 195.800781 263.164062 198.929688 C 262.652344 202.054688 261.9375 205.136719 261.019531 208.171875 C 260.105469 211.207031 259 214.167969 257.699219 217.058594 C 256.398438 219.949219 254.914062 222.742188 253.25 225.441406 C 256.734375 228.296875 259.695312 231.621094 262.132812 235.410156 C 264.566406 239.203125 266.359375 243.277344 267.507812 247.632812 C 269.09375 245.636719 270.597656 243.578125 272.019531 241.460938 C 273.441406 239.34375 274.777344 237.175781 276.027344 234.953125 C 277.28125 232.730469 278.441406 230.464844 279.515625 228.152344 C 280.589844 225.839844 281.574219 223.488281 282.460938 221.097656 C 283.351562 218.710938 284.144531 216.289062 284.847656 213.835938 C 285.546875 211.382812 286.148438 208.910156 286.652344 206.410156 C 287.160156 203.910156 287.566406 201.394531 287.875 198.863281 C 288.179688 196.332031 288.390625 193.792969 288.5 191.246094 C 288.609375 188.695312 288.617188 186.148438 288.523438 183.601562 C 288.433594 181.050781 288.242188 178.511719 287.953125 175.976562 C 287.664062 173.445312 287.273438 170.925781 286.785156 168.425781 C 286.296875 165.921875 285.710938 163.441406 285.03125 160.984375 C 284.347656 158.527344 283.570312 156.101562 282.695312 153.707031 C 281.824219 151.308594 280.859375 148.953125 279.800781 146.632812 C 278.742188 144.3125 277.59375 142.035156 276.359375 139.804688 C 275.121094 137.574219 273.800781 135.398438 272.394531 133.269531 M 108.691406 151.953125 C 107.714844 151.953125 106.742188 152 105.769531 152.09375 C 104.800781 152.191406 103.835938 152.332031 102.878906 152.523438 C 101.921875 152.714844 100.976562 152.953125 100.042969 153.234375 C 99.109375 153.519531 98.191406 153.847656 97.289062 154.21875 C 96.386719 154.59375 95.507812 155.011719 94.648438 155.46875 C 93.785156 155.929688 92.949219 156.429688 92.140625 156.972656 C 91.328125 157.515625 90.542969 158.09375 89.789062 158.714844 C 89.035156 159.332031 88.3125 159.988281 87.625 160.679688 C 86.933594 161.367188 86.28125 162.089844 85.660156 162.84375 C 85.042969 163.597656 84.460938 164.382812 83.917969 165.191406 C 83.375 166.003906 82.875 166.839844 82.414062 167.699219 C 81.957031 168.5625 81.539062 169.441406 81.164062 170.34375 C 80.792969 171.246094 80.464844 172.164062 80.179688 173.097656 C 79.898438 174.03125 79.660156 174.976562 79.46875 175.933594 C 79.28125 176.890625 79.136719 177.855469 79.039062 178.824219 C 78.945312 179.796875 78.898438 180.769531 78.898438 181.746094 C 78.898438 182.722656 78.945312 183.695312 79.042969 184.664062 C 79.136719 185.636719 79.28125 186.601562 79.472656 187.558594 C 79.660156 188.515625 79.898438 189.460938 80.183594 190.394531 C 80.464844 191.328125 80.792969 192.242188 81.167969 193.144531 C 81.542969 194.046875 81.957031 194.925781 82.417969 195.789062 C 82.878906 196.648438 83.378906 197.484375 83.921875 198.292969 C 84.464844 199.105469 85.042969 199.886719 85.664062 200.640625 C 86.28125 201.394531 86.9375 202.117188 87.628906 202.808594 C 88.316406 203.496094 89.039062 204.152344 89.792969 204.769531 C 90.546875 205.390625 91.332031 205.96875 92.140625 206.511719 C 92.953125 207.054688 93.789062 207.554688 94.648438 208.015625 C 95.507812 208.472656 96.390625 208.890625 97.292969 209.265625 C 98.191406 209.636719 99.109375 209.964844 100.042969 210.25 C 100.976562 210.53125 101.921875 210.769531 102.878906 210.960938 C 103.835938 211.148438 104.800781 211.292969 105.773438 211.386719 C 106.742188 211.484375 107.714844 211.53125 108.691406 211.53125 C 109.667969 211.53125 110.640625 211.484375 111.613281 211.386719 C 112.582031 211.292969 113.546875 211.148438 114.503906 210.957031 C 115.460938 210.769531 116.40625 210.53125 117.339844 210.25 C 118.273438 209.964844 119.191406 209.636719 120.09375 209.261719 C 120.996094 208.890625 121.875 208.472656 122.738281 208.011719 C 123.597656 207.554688 124.433594 207.050781 125.246094 206.511719 C 126.054688 205.96875 126.839844 205.386719 127.59375 204.769531 C 128.347656 204.148438 129.070312 203.496094 129.757812 202.804688 C 130.449219 202.113281 131.105469 201.394531 131.722656 200.636719 C 132.34375 199.882812 132.921875 199.101562 133.464844 198.289062 C 134.007812 197.480469 134.507812 196.644531 134.96875 195.78125 C 135.429688 194.921875 135.84375 194.039062 136.21875 193.140625 C 136.589844 192.238281 136.917969 191.320312 137.203125 190.386719 C 137.484375 189.453125 137.722656 188.507812 137.914062 187.550781 C 138.105469 186.59375 138.246094 185.628906 138.34375 184.65625 C 138.4375 183.6875 138.484375 182.714844 138.484375 181.738281 C 138.484375 180.761719 138.4375 179.789062 138.34375 178.816406 C 138.246094 177.847656 138.105469 176.882812 137.914062 175.925781 C 137.722656 174.96875 137.484375 174.023438 137.203125 173.089844 C 136.917969 172.15625 136.589844 171.238281 136.21875 170.335938 C 135.84375 169.433594 135.429688 168.554688 134.96875 167.691406 C 134.507812 166.832031 134.007812 165.996094 133.464844 165.183594 C 132.921875 164.375 132.34375 163.589844 131.722656 162.835938 C 131.105469 162.082031 130.449219 161.359375 129.757812 160.667969 C 129.070312 159.980469 128.347656 159.324219 127.59375 158.707031 C 126.839844 158.085938 126.054688 157.507812 125.246094 156.964844 C 124.433594 156.421875 123.597656 155.921875 122.738281 155.460938 C 121.875 155 120.996094 154.585938 120.09375 154.210938 C 119.191406 153.835938 118.273438 153.507812 117.339844 153.226562 C 116.40625 152.941406 115.460938 152.707031 114.503906 152.515625 C 113.546875 152.324219 112.582031 152.183594 111.613281 152.085938 C 110.640625 151.992188 109.667969 151.941406 108.691406 151.941406 Z M 126.402344 220.679688 C 122.417969 222.492188 118.253906 223.664062 113.90625 224.195312 C 109.5625 224.730469 105.238281 224.601562 100.933594 223.808594 C 102.417969 227.476562 104.117188 231.039062 106.035156 234.5 C 107.957031 237.957031 110.078125 241.289062 112.40625 244.488281 C 114.734375 247.6875 117.246094 250.734375 119.945312 253.625 C 122.644531 256.519531 125.511719 259.234375 128.542969 261.777344 C 131.574219 264.320312 134.75 266.664062 138.070312 268.820312 C 141.390625 270.972656 144.828125 272.914062 148.386719 274.644531 C 151.941406 276.378906 155.59375 277.886719 159.335938 279.171875 C 163.074219 280.457031 166.882812 281.511719 170.753906 282.328125 C 177.726562 283.828125 184.78125 284.550781 191.914062 284.503906 C 189.179688 280.921875 187.066406 277 185.574219 272.746094 C 184.085938 268.492188 183.289062 264.113281 183.1875 259.605469 C 180.734375 259.324219 178.296875 258.925781 175.882812 258.414062 C 173.257812 257.859375 170.671875 257.164062 168.125 256.320312 C 165.574219 255.480469 163.082031 254.5 160.644531 253.382812 C 158.207031 252.265625 155.835938 251.015625 153.535156 249.632812 C 151.238281 248.25 149.019531 246.746094 146.886719 245.121094 C 144.753906 243.492188 142.71875 241.753906 140.777344 239.898438 C 138.839844 238.046875 137.007812 236.09375 135.285156 234.035156 C 133.5625 231.980469 131.957031 229.835938 130.472656 227.601562 C 128.988281 225.367188 127.628906 223.054688 126.402344 220.671875 Z M 226.050781 228.789062 C 225.074219 228.789062 224.101562 228.835938 223.128906 228.929688 C 222.160156 229.027344 221.195312 229.167969 220.238281 229.359375 C 219.28125 229.550781 218.335938 229.789062 217.402344 230.070312 C 216.46875 230.355469 215.550781 230.683594 214.648438 231.054688 C 213.746094 231.429688 212.867188 231.84375 212.007812 232.304688 C 211.144531 232.765625 210.308594 233.265625 209.5 233.808594 C 208.6875 234.351562 207.902344 234.929688 207.148438 235.550781 C 206.394531 236.167969 205.671875 236.824219 204.984375 237.515625 C 204.292969 238.203125 203.640625 238.925781 203.019531 239.679688 C 202.402344 240.433594 201.820312 241.21875 201.277344 242.027344 C 200.734375 242.839844 200.234375 243.675781 199.773438 244.535156 C 199.316406 245.398438 198.898438 246.277344 198.523438 247.179688 C 198.152344 248.082031 197.824219 249 197.539062 249.933594 C 197.257812 250.867188 197.019531 251.8125 196.828125 252.769531 C 196.640625 253.726562 196.496094 254.691406 196.402344 255.660156 C 196.304688 256.632812 196.257812 257.605469 196.257812 258.582031 C 196.257812 259.558594 196.304688 260.53125 196.398438 261.503906 C 196.496094 262.472656 196.640625 263.4375 196.828125 264.394531 C 197.019531 265.351562 197.257812 266.296875 197.539062 267.230469 C 197.824219 268.164062 198.152344 269.082031 198.523438 269.984375 C 198.898438 270.886719 199.316406 271.765625 199.773438 272.625 C 200.234375 273.488281 200.734375 274.324219 201.277344 275.132812 C 201.820312 275.945312 202.402344 276.730469 203.019531 277.484375 C 203.640625 278.238281 204.292969 278.960938 204.984375 279.648438 C 205.671875 280.339844 206.394531 280.992188 207.148438 281.613281 C 207.902344 282.230469 208.6875 282.8125 209.5 283.355469 C 210.308594 283.898438 211.144531 284.398438 212.007812 284.859375 C 212.867188 285.316406 213.746094 285.734375 214.648438 286.109375 C 215.550781 286.480469 216.46875 286.808594 217.402344 287.09375 C 218.335938 287.375 219.28125 287.613281 220.238281 287.804688 C 221.195312 287.992188 222.160156 288.136719 223.128906 288.234375 C 224.101562 288.328125 225.074219 288.375 226.050781 288.375 C 227.027344 288.375 228 288.328125 228.972656 288.234375 C 229.941406 288.136719 230.90625 287.992188 231.863281 287.804688 C 232.820312 287.613281 233.765625 287.375 234.699219 287.09375 C 235.632812 286.808594 236.550781 286.480469 237.453125 286.109375 C 238.355469 285.734375 239.234375 285.316406 240.097656 284.859375 C 240.957031 284.398438 241.792969 283.898438 242.605469 283.355469 C 243.414062 282.8125 244.199219 282.230469 244.953125 281.613281 C 245.707031 280.992188 246.429688 280.339844 247.117188 279.648438 C 247.808594 278.960938 248.464844 278.238281 249.082031 277.484375 C 249.703125 276.730469 250.28125 275.945312 250.824219 275.132812 C 251.367188 274.324219 251.867188 273.488281 252.328125 272.625 C 252.789062 271.765625 253.203125 270.886719 253.578125 269.984375 C 253.949219 269.082031 254.277344 268.164062 254.5625 267.230469 C 254.84375 266.296875 255.082031 265.351562 255.273438 264.394531 C 255.464844 263.4375 255.605469 262.472656 255.703125 261.503906 C 255.796875 260.53125 255.84375 259.558594 255.84375 258.582031 C 255.84375 257.605469 255.796875 256.632812 255.703125 255.660156 C 255.605469 254.691406 255.464844 253.726562 255.273438 252.769531 C 255.082031 251.8125 254.84375 250.867188 254.5625 249.933594 C 254.277344 249 253.949219 248.082031 253.578125 247.179688 C 253.203125 246.277344 252.789062 245.398438 252.328125 244.535156 C 251.867188 243.675781 251.367188 242.839844 250.824219 242.027344 C 250.28125 241.21875 249.703125 240.433594 249.082031 239.679688 C 248.464844 238.925781 247.808594 238.203125 247.117188 237.515625 C 246.429688 236.824219 245.707031 236.167969 244.953125 235.550781 C 244.199219 234.929688 243.414062 234.351562 242.605469 233.808594 C 241.792969 233.265625 240.957031 232.765625 240.097656 232.304688 C 239.234375 231.84375 238.355469 231.429688 237.453125 231.054688 C 236.550781 230.683594 235.632812 230.355469 234.699219 230.070312 C 233.765625 229.789062 232.820312 229.550781 231.863281 229.359375 C 230.90625 229.167969 229.941406 229.027344 228.972656 228.929688 C 228 228.835938 227.027344 228.789062 226.050781 228.789062 " fill-opacity="1" fill-rule="nonzero"/></g></svg>