<svg xmlns="http://www.w3.org/2000/svg" xmlns:xlink="http://www.w3.org/1999/xlink" width="40" zoomAndPan="magnify" viewBox="0 0 30 30.000001" height="40" preserveAspectRatio="xMidYMid meet" version="1.0"><defs><g/><clipPath id="a454d21f2f"><path d="M 2.523438 0.625 L 27.476562 0.625 L 27.476562 28.40625 L 2.523438 28.40625 Z M 2.523438 0.625 " clip-rule="nonzero"/></clipPath><clipPath id="28e233c57f"><path d="M 17.007812 1.167969 L 25.46875 6.089844 C 26.710938 6.8125 27.476562 8.144531 27.476562 9.582031 L 27.476562 19.453125 C 27.476562 20.890625 26.710938 22.21875 25.46875 22.941406 L 17.007812 27.863281 C 15.765625 28.585938 14.234375 28.585938 12.992188 27.863281 L 4.53125 22.941406 C 3.289062 22.21875 2.523438 20.890625 2.523438 19.453125 L 2.523438 9.582031 C 2.523438 8.144531 3.289062 6.8125 4.53125 6.089844 L 12.992188 1.167969 C 14.234375 0.445312 15.765625 0.445312 17.007812 1.167969 Z M 17.007812 1.167969 " clip-rule="nonzero"/></clipPath><linearGradient x1="-7.258985" gradientTransform="matrix(0.0974594, 0, 0, 0.0974594, 2.525201, -0.0000164516)" y1="13.687016" x2="263.258472" gradientUnits="userSpaceOnUse" y2="284.203482" id="b910570338"><stop stop-opacity="1" stop-color="rgb(99.998474%, 99.998474%, 100%)" offset="0"/><stop stop-opacity="1" stop-color="rgb(99.87793%, 99.984741%, 100%)" offset="0.0078125"/><stop stop-opacity="1" stop-color="rgb(99.635315%, 99.958801%, 100%)" offset="0.015625"/><stop stop-opacity="1" stop-color="rgb(99.3927%, 99.931335%, 100%)" offset="0.0234375"/><stop stop-opacity="1" stop-color="rgb(99.151611%, 99.90387%, 100%)" offset="0.03125"/><stop stop-opacity="1" stop-color="rgb(98.908997%, 99.876404%, 100%)" offset="0.0390625"/><stop stop-opacity="1" stop-color="rgb(98.666382%, 99.848938%, 100%)" offset="0.046875"/><stop stop-opacity="1" stop-color="rgb(98.423767%, 99.821472%, 100%)" offset="0.0546875"/><stop stop-opacity="1" stop-color="rgb(98.182678%, 99.794006%, 100%)" offset="0.0625"/><stop stop-opacity="1" stop-color="rgb(97.940063%, 99.766541%, 100%)" offset="0.0703125"/><stop stop-opacity="1" stop-color="rgb(97.697449%, 99.739075%, 100%)" offset="0.078125"/><stop stop-opacity="1" stop-color="rgb(97.45636%, 99.711609%, 100%)" offset="0.0859375"/><stop stop-opacity="1" stop-color="rgb(97.213745%, 99.684143%, 100%)" offset="0.09375"/><stop stop-opacity="1" stop-color="rgb(96.97113%, 99.656677%, 100%)" offset="0.101562"/><stop stop-opacity="1" stop-color="rgb(96.728516%, 99.630737%, 100%)" offset="0.109375"/><stop stop-opacity="1" stop-color="rgb(96.487427%, 99.603271%, 100%)" offset="0.117188"/><stop stop-opacity="1" stop-color="rgb(96.244812%, 99.575806%, 100%)" offset="0.125"/><stop stop-opacity="1" stop-color="rgb(96.002197%, 99.54834%, 100%)" offset="0.132812"/><stop stop-opacity="1" stop-color="rgb(95.761108%, 99.520874%, 100%)" offset="0.140625"/><stop stop-opacity="1" stop-color="rgb(95.518494%, 99.493408%, 100%)" offset="0.148438"/><stop stop-opacity="1" stop-color="rgb(95.275879%, 99.465942%, 100%)" offset="0.15625"/><stop stop-opacity="1" stop-color="rgb(95.033264%, 99.438477%, 100%)" offset="0.164062"/><stop stop-opacity="1" stop-color="rgb(94.792175%, 99.411011%, 100%)" offset="0.171875"/><stop stop-opacity="1" stop-color="rgb(94.549561%, 99.383545%, 100%)" offset="0.179688"/><stop stop-opacity="1" stop-color="rgb(94.306946%, 99.356079%, 100%)" offset="0.1875"/><stop stop-opacity="1" stop-color="rgb(94.065857%, 99.328613%, 100%)" offset="0.195312"/><stop stop-opacity="1" stop-color="rgb(93.823242%, 99.302673%, 100%)" offset="0.203125"/><stop stop-opacity="1" stop-color="rgb(93.580627%, 99.275208%, 100%)" offset="0.210938"/><stop stop-opacity="1" stop-color="rgb(93.338013%, 99.247742%, 100%)" offset="0.21875"/><stop stop-opacity="1" stop-color="rgb(93.096924%, 99.220276%, 100%)" offset="0.226562"/><stop stop-opacity="1" stop-color="rgb(92.854309%, 99.19281%, 100%)" offset="0.234375"/><stop stop-opacity="1" stop-color="rgb(92.611694%, 99.165344%, 100%)" offset="0.242188"/><stop stop-opacity="1" stop-color="rgb(92.36908%, 99.137878%, 100%)" offset="0.25"/><stop stop-opacity="1" stop-color="rgb(92.127991%, 99.110413%, 100%)" offset="0.257812"/><stop stop-opacity="1" stop-color="rgb(91.885376%, 99.082947%, 100%)" offset="0.265625"/><stop stop-opacity="1" stop-color="rgb(91.642761%, 99.055481%, 100%)" offset="0.273438"/><stop stop-opacity="1" stop-color="rgb(91.401672%, 99.028015%, 100%)" offset="0.28125"/><stop stop-opacity="1" stop-color="rgb(91.159058%, 99.000549%, 100%)" offset="0.289062"/><stop stop-opacity="1" stop-color="rgb(90.916443%, 98.973083%, 100%)" offset="0.296875"/><stop stop-opacity="1" stop-color="rgb(90.673828%, 98.947144%, 100%)" offset="0.304687"/><stop stop-opacity="1" stop-color="rgb(90.432739%, 98.919678%, 100%)" offset="0.3125"/><stop stop-opacity="1" stop-color="rgb(90.190125%, 98.892212%, 100%)" offset="0.320312"/><stop stop-opacity="1" stop-color="rgb(89.94751%, 98.864746%, 100%)" offset="0.328125"/><stop stop-opacity="1" stop-color="rgb(89.706421%, 98.83728%, 100%)" offset="0.335938"/><stop stop-opacity="1" stop-color="rgb(89.463806%, 98.809814%, 100%)" offset="0.34375"/><stop stop-opacity="1" stop-color="rgb(89.221191%, 98.782349%, 100%)" offset="0.351562"/><stop stop-opacity="1" stop-color="rgb(88.978577%, 98.754883%, 100%)" offset="0.359375"/><stop stop-opacity="1" stop-color="rgb(88.737488%, 98.727417%, 100%)" offset="0.367187"/><stop stop-opacity="1" stop-color="rgb(88.494873%, 98.699951%, 100%)" offset="0.375"/><stop stop-opacity="1" stop-color="rgb(88.252258%, 98.672485%, 100%)" offset="0.382812"/><stop stop-opacity="1" stop-color="rgb(88.011169%, 98.64502%, 100%)" offset="0.390625"/><stop stop-opacity="1" stop-color="rgb(87.768555%, 98.61908%, 100%)" offset="0.398437"/><stop stop-opacity="1" stop-color="rgb(87.52594%, 98.591614%, 100%)" offset="0.40625"/><stop stop-opacity="1" stop-color="rgb(87.283325%, 98.564148%, 100%)" offset="0.414062"/><stop stop-opacity="1" stop-color="rgb(87.042236%, 98.536682%, 100%)" offset="0.421875"/><stop stop-opacity="1" stop-color="rgb(86.799622%, 98.509216%, 100%)" offset="0.429687"/><stop stop-opacity="1" stop-color="rgb(86.557007%, 98.48175%, 100%)" offset="0.4375"/><stop stop-opacity="1" stop-color="rgb(86.314392%, 98.454285%, 100%)" offset="0.445312"/><stop stop-opacity="1" stop-color="rgb(86.073303%, 98.426819%, 100%)" offset="0.453125"/><stop stop-opacity="1" stop-color="rgb(85.830688%, 98.399353%, 100%)" offset="0.460937"/><stop stop-opacity="1" stop-color="rgb(85.588074%, 98.371887%, 100%)" offset="0.46875"/><stop stop-opacity="1" stop-color="rgb(85.346985%, 98.344421%, 100%)" offset="0.473169"/><stop stop-opacity="1" stop-color="rgb(85.22644%, 98.330688%, 100%)" offset="0.476562"/><stop stop-opacity="1" stop-color="rgb(85.10437%, 98.316956%, 100%)" offset="0.484375"/><stop stop-opacity="1" stop-color="rgb(84.861755%, 98.28949%, 100%)" offset="0.492187"/><stop stop-opacity="1" stop-color="rgb(84.619141%, 98.26355%, 100%)" offset="0.5"/><stop stop-opacity="1" stop-color="rgb(84.378052%, 98.236084%, 100%)" offset="0.507812"/><stop stop-opacity="1" stop-color="rgb(84.135437%, 98.208618%, 100%)" offset="0.515625"/><stop stop-opacity="1" stop-color="rgb(83.892822%, 98.181152%, 100%)" offset="0.523438"/><stop stop-opacity="1" stop-color="rgb(83.651733%, 98.153687%, 100%)" offset="0.526831"/><stop stop-opacity="1" stop-color="rgb(83.531189%, 98.139954%, 100%)" offset="0.53125"/><stop stop-opacity="1" stop-color="rgb(83.409119%, 98.126221%, 100%)" offset="0.539062"/><stop stop-opacity="1" stop-color="rgb(83.166504%, 98.098755%, 100%)" offset="0.546875"/><stop stop-opacity="1" stop-color="rgb(82.923889%, 98.071289%, 100%)" offset="0.554688"/><stop stop-opacity="1" stop-color="rgb(82.6828%, 98.043823%, 100%)" offset="0.5625"/><stop stop-opacity="1" stop-color="rgb(82.440186%, 98.016357%, 100%)" offset="0.570313"/><stop stop-opacity="1" stop-color="rgb(82.197571%, 97.988892%, 100%)" offset="0.578125"/><stop stop-opacity="1" stop-color="rgb(81.956482%, 97.961426%, 100%)" offset="0.585938"/><stop stop-opacity="1" stop-color="rgb(81.713867%, 97.935486%, 100%)" offset="0.59375"/><stop stop-opacity="1" stop-color="rgb(81.471252%, 97.90802%, 100%)" offset="0.601563"/><stop stop-opacity="1" stop-color="rgb(81.228638%, 97.880554%, 100%)" offset="0.609375"/><stop stop-opacity="1" stop-color="rgb(80.987549%, 97.853088%, 100%)" offset="0.617188"/><stop stop-opacity="1" stop-color="rgb(80.744934%, 97.825623%, 100%)" offset="0.625"/><stop stop-opacity="1" stop-color="rgb(80.502319%, 97.798157%, 100%)" offset="0.632812"/><stop stop-opacity="1" stop-color="rgb(80.259705%, 97.770691%, 100%)" offset="0.640625"/><stop stop-opacity="1" stop-color="rgb(80.018616%, 97.743225%, 100%)" offset="0.648438"/><stop stop-opacity="1" stop-color="rgb(79.776001%, 97.715759%, 100%)" offset="0.65625"/><stop stop-opacity="1" stop-color="rgb(79.533386%, 97.688293%, 100%)" offset="0.664062"/><stop stop-opacity="1" stop-color="rgb(79.292297%, 97.660828%, 100%)" offset="0.671875"/><stop stop-opacity="1" stop-color="rgb(79.049683%, 97.633362%, 100%)" offset="0.679687"/><stop stop-opacity="1" stop-color="rgb(78.807068%, 97.605896%, 100%)" offset="0.6875"/><stop stop-opacity="1" stop-color="rgb(78.564453%, 97.579956%, 100%)" offset="0.695313"/><stop stop-opacity="1" stop-color="rgb(78.323364%, 97.55249%, 100%)" offset="0.703125"/><stop stop-opacity="1" stop-color="rgb(78.08075%, 97.525024%, 100%)" offset="0.710938"/><stop stop-opacity="1" stop-color="rgb(77.838135%, 97.497559%, 100%)" offset="0.71875"/><stop stop-opacity="1" stop-color="rgb(77.597046%, 97.470093%, 100%)" offset="0.726563"/><stop stop-opacity="1" stop-color="rgb(77.354431%, 97.442627%, 100%)" offset="0.734375"/><stop stop-opacity="1" stop-color="rgb(77.111816%, 97.415161%, 100%)" offset="0.742188"/><stop stop-opacity="1" stop-color="rgb(76.869202%, 97.387695%, 100%)" offset="0.75"/><stop stop-opacity="1" stop-color="rgb(76.628113%, 97.360229%, 100%)" offset="0.757812"/><stop stop-opacity="1" stop-color="rgb(76.385498%, 97.332764%, 100%)" offset="0.765625"/><stop stop-opacity="1" stop-color="rgb(76.142883%, 97.305298%, 100%)" offset="0.773438"/><stop stop-opacity="1" stop-color="rgb(75.901794%, 97.277832%, 100%)" offset="0.78125"/><stop stop-opacity="1" stop-color="rgb(75.65918%, 97.251892%, 100%)" offset="0.789062"/><stop stop-opacity="1" stop-color="rgb(75.416565%, 97.224426%, 100%)" offset="0.796875"/><stop stop-opacity="1" stop-color="rgb(75.17395%, 97.19696%, 100%)" offset="0.804687"/><stop stop-opacity="1" stop-color="rgb(74.932861%, 97.169495%, 100%)" offset="0.8125"/><stop stop-opacity="1" stop-color="rgb(74.690247%, 97.142029%, 100%)" offset="0.820313"/><stop stop-opacity="1" stop-color="rgb(74.447632%, 97.114563%, 100%)" offset="0.828125"/><stop stop-opacity="1" stop-color="rgb(74.205017%, 97.087097%, 100%)" offset="0.835938"/><stop stop-opacity="1" stop-color="rgb(73.963928%, 97.059631%, 100%)" offset="0.84375"/><stop stop-opacity="1" stop-color="rgb(73.721313%, 97.032166%, 100%)" offset="0.851563"/><stop stop-opacity="1" stop-color="rgb(73.478699%, 97.0047%, 100%)" offset="0.859375"/><stop stop-opacity="1" stop-color="rgb(73.23761%, 96.977234%, 100%)" offset="0.867188"/><stop stop-opacity="1" stop-color="rgb(72.994995%, 96.949768%, 100%)" offset="0.875"/><stop stop-opacity="1" stop-color="rgb(72.75238%, 96.922302%, 100%)" offset="0.882812"/><stop stop-opacity="1" stop-color="rgb(72.509766%, 96.896362%, 100%)" offset="0.890625"/><stop stop-opacity="1" stop-color="rgb(72.268677%, 96.868896%, 100%)" offset="0.898438"/><stop stop-opacity="1" stop-color="rgb(72.026062%, 96.841431%, 100%)" offset="0.90625"/><stop stop-opacity="1" stop-color="rgb(71.783447%, 96.813965%, 100%)" offset="0.914062"/><stop stop-opacity="1" stop-color="rgb(71.542358%, 96.786499%, 100%)" offset="0.921875"/><stop stop-opacity="1" stop-color="rgb(71.299744%, 96.759033%, 100%)" offset="0.929687"/><stop stop-opacity="1" stop-color="rgb(71.057129%, 96.731567%, 100%)" offset="0.9375"/><stop stop-opacity="1" stop-color="rgb(70.814514%, 96.704102%, 100%)" offset="0.945313"/><stop stop-opacity="1" stop-color="rgb(70.573425%, 96.676636%, 100%)" offset="0.953125"/><stop stop-opacity="1" stop-color="rgb(70.330811%, 96.64917%, 100%)" offset="0.960938"/><stop stop-opacity="1" stop-color="rgb(70.088196%, 96.621704%, 100%)" offset="0.96875"/><stop stop-opacity="1" stop-color="rgb(69.847107%, 96.594238%, 100%)" offset="0.976562"/><stop stop-opacity="1" stop-color="rgb(69.604492%, 96.568298%, 100%)" offset="0.984375"/><stop stop-opacity="1" stop-color="rgb(69.361877%, 96.540833%, 100%)" offset="0.992188"/><stop stop-opacity="1" stop-color="rgb(69.119263%, 96.513367%, 100%)" offset="1"/></linearGradient><clipPath id="8a6db7e75b"><path d="M 2.523438 0.453125 L 27.203125 0.453125 L 27.203125 28.578125 L 2.523438 28.578125 Z M 2.523438 0.453125 " clip-rule="nonzero"/></clipPath><clipPath id="874dbb09c9"><path d="M 17.007812 1.167969 L 25.46875 6.089844 C 26.710938 6.8125 27.476562 8.144531 27.476562 9.582031 L 27.476562 19.453125 C 27.476562 20.890625 26.710938 22.21875 25.46875 22.941406 L 17.007812 27.863281 C 15.765625 28.585938 14.234375 28.585938 12.992188 27.863281 L 4.53125 22.941406 C 3.289062 22.21875 2.523438 20.890625 2.523438 19.453125 L 2.523438 9.582031 C 2.523438 8.144531 3.289062 6.8125 4.53125 6.089844 L 12.992188 1.167969 C 14.234375 0.445312 15.765625 0.445312 17.007812 1.167969 Z M 17.007812 1.167969 " clip-rule="nonzero"/></clipPath></defs><g clip-path="url(#a454d21f2f)"><g clip-path="url(#28e233c57f)"><path fill="url(#b910570338)" d="M 2.523438 0.625 L 2.523438 28.40625 L 27.476562 28.40625 L 27.476562 0.625 Z M 2.523438 0.625 " fill-rule="nonzero"/></g></g><g clip-path="url(#8a6db7e75b)"><g clip-path="url(#874dbb09c9)"><path stroke-linecap="butt" transform="matrix(0.725806, 0, 0, 0.725806, 2.525201, 0.00000193548)" fill="none" stroke-linejoin="miter" d="M 19.95382 1.609199 L 31.611112 8.390449 C 33.32257 9.386109 34.377432 11.221352 34.377432 13.201907 L 34.377432 26.802081 C 34.377432 28.782636 33.32257 30.612498 31.611112 31.608157 L 19.95382 38.389407 C 18.242362 39.385067 16.13264 39.385067 14.421181 38.389407 L 2.76389 31.608157 C 1.052431 30.612498 -0.00242987 28.782636 -0.00242987 26.802081 L -0.00242987 13.201907 C -0.00242987 11.221352 1.052431 9.386109 2.76389 8.390449 L 14.421181 1.609199 C 16.13264 0.613539 18.242362 0.613539 19.95382 1.609199 Z M 19.95382 1.609199 " stroke="#159d99" stroke-width="4" stroke-opacity="1" stroke-miterlimit="4"/></g></g><g fill="#159d99" fill-opacity="1"><g transform="translate(7.146435, 19.46748)"><g><path d="M 2.625 0.09375 C 1.84375 0.09375 1.257812 -0.125 0.875 -0.5625 C 0.5 -1.007812 0.3125 -1.671875 0.3125 -2.546875 L 0.3125 -9.484375 L 2.15625 -9.484375 L 2.15625 -2.625 C 2.15625 -2.320312 2.179688 -2.082031 2.234375 -1.90625 C 2.296875 -1.738281 2.425781 -1.65625 2.625 -1.65625 C 2.8125 -1.65625 2.929688 -1.738281 2.984375 -1.90625 C 3.046875 -2.070312 3.078125 -2.3125 3.078125 -2.625 L 3.078125 -9.484375 L 4.921875 -9.484375 L 4.921875 -2.546875 C 4.921875 -1.671875 4.734375 -1.007812 4.359375 -0.5625 C 3.984375 -0.125 3.40625 0.09375 2.625 0.09375 Z M 2.625 0.09375 "/></g></g></g><g fill="#159d99" fill-opacity="1"><g transform="translate(12.385705, 19.46748)"><g><path d="M 2.6875 0.09375 C 1.914062 0.09375 1.332031 -0.140625 0.9375 -0.609375 C 0.539062 -1.078125 0.34375 -1.734375 0.34375 -2.578125 L 0.34375 -7.109375 C 0.34375 -7.921875 0.539062 -8.535156 0.9375 -8.953125 C 1.332031 -9.367188 1.914062 -9.578125 2.6875 -9.578125 C 3.445312 -9.578125 4.023438 -9.367188 4.421875 -8.953125 C 4.828125 -8.535156 5.03125 -7.921875 5.03125 -7.109375 L 5.03125 -2.578125 C 5.03125 -1.722656 4.828125 -1.0625 4.421875 -0.59375 C 4.023438 -0.132812 3.445312 0.09375 2.6875 0.09375 Z M 2.6875 -1.65625 C 2.851562 -1.65625 2.960938 -1.726562 3.015625 -1.875 C 3.078125 -2.019531 3.109375 -2.226562 3.109375 -2.5 L 3.109375 -7.140625 C 3.109375 -7.347656 3.082031 -7.515625 3.03125 -7.640625 C 2.976562 -7.765625 2.867188 -7.828125 2.703125 -7.828125 C 2.378906 -7.828125 2.21875 -7.585938 2.21875 -7.109375 L 2.21875 -2.484375 C 2.21875 -2.210938 2.25 -2.003906 2.3125 -1.859375 C 2.382812 -1.722656 2.507812 -1.65625 2.6875 -1.65625 Z M 2.6875 -1.65625 "/></g></g></g><g fill="#159d99" fill-opacity="1"><g transform="translate(17.757615, 19.46748)"><g><path d="M 2.671875 0.09375 C 1.804688 0.09375 1.179688 -0.117188 0.796875 -0.546875 C 0.421875 -0.972656 0.234375 -1.664062 0.234375 -2.625 L 0.234375 -3.546875 L 2.09375 -3.546875 L 2.09375 -2.359375 C 2.09375 -1.890625 2.242188 -1.65625 2.546875 -1.65625 C 2.722656 -1.65625 2.84375 -1.703125 2.90625 -1.796875 C 2.96875 -1.898438 3 -2.070312 3 -2.3125 C 3 -2.613281 2.960938 -2.863281 2.890625 -3.0625 C 2.816406 -3.269531 2.722656 -3.441406 2.609375 -3.578125 C 2.492188 -3.722656 2.289062 -3.9375 2 -4.21875 L 1.1875 -5.03125 C 0.550781 -5.65625 0.234375 -6.34375 0.234375 -7.09375 C 0.234375 -7.90625 0.414062 -8.519531 0.78125 -8.9375 C 1.15625 -9.363281 1.703125 -9.578125 2.421875 -9.578125 C 3.273438 -9.578125 3.890625 -9.347656 4.265625 -8.890625 C 4.640625 -8.441406 4.828125 -7.734375 4.828125 -6.765625 L 2.890625 -6.765625 L 2.890625 -7.421875 C 2.890625 -7.546875 2.851562 -7.644531 2.78125 -7.71875 C 2.707031 -7.789062 2.609375 -7.828125 2.484375 -7.828125 C 2.335938 -7.828125 2.226562 -7.785156 2.15625 -7.703125 C 2.082031 -7.628906 2.046875 -7.519531 2.046875 -7.375 C 2.046875 -7.070312 2.222656 -6.753906 2.578125 -6.421875 L 3.671875 -5.359375 C 3.929688 -5.109375 4.144531 -4.867188 4.3125 -4.640625 C 4.488281 -4.421875 4.625 -4.15625 4.71875 -3.84375 C 4.820312 -3.539062 4.875 -3.179688 4.875 -2.765625 C 4.875 -1.828125 4.703125 -1.113281 4.359375 -0.625 C 4.023438 -0.144531 3.460938 0.09375 2.671875 0.09375 Z M 2.671875 0.09375 "/></g></g></g></svg>