<svg xmlns="http://www.w3.org/2000/svg" xmlns:xlink="http://www.w3.org/1999/xlink" width="500" zoomAndPan="magnify" viewBox="0 0 375 374.999991" height="500" preserveAspectRatio="xMidYMid meet" version="1.0"><defs><g/><clipPath id="5084614e0e"><path d="M 26.367188 8.089844 L 348.632812 8.089844 L 348.632812 366.90625 L 26.367188 366.90625 Z M 26.367188 8.089844 " clip-rule="nonzero"/></clipPath><clipPath id="2ea2edadcf"><path d="M 213.429688 15.085938 L 322.703125 78.664062 C 338.757812 88.003906 348.632812 105.175781 348.632812 123.75 L 348.632812 251.25 C 348.632812 269.824219 338.757812 286.996094 322.703125 296.335938 L 213.429688 359.914062 C 197.402344 369.238281 177.597656 369.238281 161.570312 359.914062 L 52.296875 296.335938 C 36.242188 286.996094 26.367188 269.824219 26.367188 251.25 L 26.367188 123.75 C 26.367188 105.175781 36.242188 88.003906 52.296875 78.664062 L 161.570312 15.085938 C 177.597656 5.761719 197.402344 5.761719 213.429688 15.085938 Z M 213.429688 15.085938 " clip-rule="nonzero"/></clipPath><linearGradient x1="-7.258984" gradientTransform="matrix(1.25885, 0, 0, 1.25885, 26.367192, -0.00024)" y1="13.687016" x2="263.258471" gradientUnits="userSpaceOnUse" y2="284.203481" id="2bf049a78d"><stop stop-opacity="1" stop-color="rgb(99.998474%, 99.998474%, 100%)" offset="0"/><stop stop-opacity="1" stop-color="rgb(99.87793%, 99.984741%, 100%)" offset="0.0078125"/><stop stop-opacity="1" stop-color="rgb(99.635315%, 99.958801%, 100%)" offset="0.015625"/><stop stop-opacity="1" stop-color="rgb(99.3927%, 99.931335%, 100%)" offset="0.0234375"/><stop stop-opacity="1" stop-color="rgb(99.151611%, 99.90387%, 100%)" offset="0.03125"/><stop stop-opacity="1" stop-color="rgb(98.908997%, 99.876404%, 100%)" offset="0.0390625"/><stop stop-opacity="1" stop-color="rgb(98.666382%, 99.848938%, 100%)" offset="0.046875"/><stop stop-opacity="1" stop-color="rgb(98.423767%, 99.821472%, 100%)" offset="0.0546875"/><stop stop-opacity="1" stop-color="rgb(98.182678%, 99.794006%, 100%)" offset="0.0625"/><stop stop-opacity="1" stop-color="rgb(97.940063%, 99.766541%, 100%)" offset="0.0703125"/><stop stop-opacity="1" stop-color="rgb(97.697449%, 99.739075%, 100%)" offset="0.078125"/><stop stop-opacity="1" stop-color="rgb(97.45636%, 99.711609%, 100%)" offset="0.0859375"/><stop stop-opacity="1" stop-color="rgb(97.213745%, 99.684143%, 100%)" offset="0.09375"/><stop stop-opacity="1" stop-color="rgb(96.97113%, 99.656677%, 100%)" offset="0.101562"/><stop stop-opacity="1" stop-color="rgb(96.728516%, 99.630737%, 100%)" offset="0.109375"/><stop stop-opacity="1" stop-color="rgb(96.487427%, 99.603271%, 100%)" offset="0.117188"/><stop stop-opacity="1" stop-color="rgb(96.244812%, 99.575806%, 100%)" offset="0.125"/><stop stop-opacity="1" stop-color="rgb(96.002197%, 99.54834%, 100%)" offset="0.132812"/><stop stop-opacity="1" stop-color="rgb(95.761108%, 99.520874%, 100%)" offset="0.140625"/><stop stop-opacity="1" stop-color="rgb(95.518494%, 99.493408%, 100%)" offset="0.148438"/><stop stop-opacity="1" stop-color="rgb(95.275879%, 99.465942%, 100%)" offset="0.15625"/><stop stop-opacity="1" stop-color="rgb(95.033264%, 99.438477%, 100%)" offset="0.164062"/><stop stop-opacity="1" stop-color="rgb(94.792175%, 99.411011%, 100%)" offset="0.171875"/><stop stop-opacity="1" stop-color="rgb(94.549561%, 99.383545%, 100%)" offset="0.179688"/><stop stop-opacity="1" stop-color="rgb(94.306946%, 99.356079%, 100%)" offset="0.1875"/><stop stop-opacity="1" stop-color="rgb(94.065857%, 99.328613%, 100%)" offset="0.195312"/><stop stop-opacity="1" stop-color="rgb(93.823242%, 99.302673%, 100%)" offset="0.203125"/><stop stop-opacity="1" stop-color="rgb(93.580627%, 99.275208%, 100%)" offset="0.210938"/><stop stop-opacity="1" stop-color="rgb(93.338013%, 99.247742%, 100%)" offset="0.21875"/><stop stop-opacity="1" stop-color="rgb(93.096924%, 99.220276%, 100%)" offset="0.226562"/><stop stop-opacity="1" stop-color="rgb(92.854309%, 99.19281%, 100%)" offset="0.234375"/><stop stop-opacity="1" stop-color="rgb(92.611694%, 99.165344%, 100%)" offset="0.242188"/><stop stop-opacity="1" stop-color="rgb(92.36908%, 99.137878%, 100%)" offset="0.25"/><stop stop-opacity="1" stop-color="rgb(92.127991%, 99.110413%, 100%)" offset="0.257812"/><stop stop-opacity="1" stop-color="rgb(91.885376%, 99.082947%, 100%)" offset="0.265625"/><stop stop-opacity="1" stop-color="rgb(91.642761%, 99.055481%, 100%)" offset="0.273437"/><stop stop-opacity="1" stop-color="rgb(91.401672%, 99.028015%, 100%)" offset="0.28125"/><stop stop-opacity="1" stop-color="rgb(91.159058%, 99.000549%, 100%)" offset="0.289062"/><stop stop-opacity="1" stop-color="rgb(90.916443%, 98.973083%, 100%)" offset="0.296875"/><stop stop-opacity="1" stop-color="rgb(90.673828%, 98.947144%, 100%)" offset="0.304687"/><stop stop-opacity="1" stop-color="rgb(90.432739%, 98.919678%, 100%)" offset="0.3125"/><stop stop-opacity="1" stop-color="rgb(90.190125%, 98.892212%, 100%)" offset="0.320312"/><stop stop-opacity="1" stop-color="rgb(89.94751%, 98.864746%, 100%)" offset="0.328125"/><stop stop-opacity="1" stop-color="rgb(89.706421%, 98.83728%, 100%)" offset="0.335937"/><stop stop-opacity="1" stop-color="rgb(89.463806%, 98.809814%, 100%)" offset="0.34375"/><stop stop-opacity="1" stop-color="rgb(89.221191%, 98.782349%, 100%)" offset="0.351562"/><stop stop-opacity="1" stop-color="rgb(88.978577%, 98.754883%, 100%)" offset="0.359375"/><stop stop-opacity="1" stop-color="rgb(88.737488%, 98.727417%, 100%)" offset="0.367188"/><stop stop-opacity="1" stop-color="rgb(88.494873%, 98.699951%, 100%)" offset="0.375"/><stop stop-opacity="1" stop-color="rgb(88.252258%, 98.672485%, 100%)" offset="0.382812"/><stop stop-opacity="1" stop-color="rgb(88.011169%, 98.64502%, 100%)" offset="0.390625"/><stop stop-opacity="1" stop-color="rgb(87.768555%, 98.61908%, 100%)" offset="0.398437"/><stop stop-opacity="1" stop-color="rgb(87.52594%, 98.591614%, 100%)" offset="0.40625"/><stop stop-opacity="1" stop-color="rgb(87.283325%, 98.564148%, 100%)" offset="0.414062"/><stop stop-opacity="1" stop-color="rgb(87.042236%, 98.536682%, 100%)" offset="0.421875"/><stop stop-opacity="1" stop-color="rgb(86.799622%, 98.509216%, 100%)" offset="0.429687"/><stop stop-opacity="1" stop-color="rgb(86.557007%, 98.48175%, 100%)" offset="0.4375"/><stop stop-opacity="1" stop-color="rgb(86.314392%, 98.454285%, 100%)" offset="0.445312"/><stop stop-opacity="1" stop-color="rgb(86.073303%, 98.426819%, 100%)" offset="0.453125"/><stop stop-opacity="1" stop-color="rgb(85.830688%, 98.399353%, 100%)" offset="0.460937"/><stop stop-opacity="1" stop-color="rgb(85.588074%, 98.371887%, 100%)" offset="0.46875"/><stop stop-opacity="1" stop-color="rgb(85.346985%, 98.344421%, 100%)" offset="0.473169"/><stop stop-opacity="1" stop-color="rgb(85.22644%, 98.330688%, 100%)" offset="0.476562"/><stop stop-opacity="1" stop-color="rgb(85.10437%, 98.316956%, 100%)" offset="0.484375"/><stop stop-opacity="1" stop-color="rgb(84.861755%, 98.28949%, 100%)" offset="0.492188"/><stop stop-opacity="1" stop-color="rgb(84.619141%, 98.26355%, 100%)" offset="0.5"/><stop stop-opacity="1" stop-color="rgb(84.378052%, 98.236084%, 100%)" offset="0.507813"/><stop stop-opacity="1" stop-color="rgb(84.135437%, 98.208618%, 100%)" offset="0.515625"/><stop stop-opacity="1" stop-color="rgb(83.892822%, 98.181152%, 100%)" offset="0.523438"/><stop stop-opacity="1" stop-color="rgb(83.651733%, 98.153687%, 100%)" offset="0.526831"/><stop stop-opacity="1" stop-color="rgb(83.531189%, 98.139954%, 100%)" offset="0.53125"/><stop stop-opacity="1" stop-color="rgb(83.409119%, 98.126221%, 100%)" offset="0.539062"/><stop stop-opacity="1" stop-color="rgb(83.166504%, 98.098755%, 100%)" offset="0.546875"/><stop stop-opacity="1" stop-color="rgb(82.923889%, 98.071289%, 100%)" offset="0.554688"/><stop stop-opacity="1" stop-color="rgb(82.6828%, 98.043823%, 100%)" offset="0.5625"/><stop stop-opacity="1" stop-color="rgb(82.440186%, 98.016357%, 100%)" offset="0.570312"/><stop stop-opacity="1" stop-color="rgb(82.197571%, 97.988892%, 100%)" offset="0.578125"/><stop stop-opacity="1" stop-color="rgb(81.956482%, 97.961426%, 100%)" offset="0.585938"/><stop stop-opacity="1" stop-color="rgb(81.713867%, 97.935486%, 100%)" offset="0.59375"/><stop stop-opacity="1" stop-color="rgb(81.471252%, 97.90802%, 100%)" offset="0.601563"/><stop stop-opacity="1" stop-color="rgb(81.228638%, 97.880554%, 100%)" offset="0.609375"/><stop stop-opacity="1" stop-color="rgb(80.987549%, 97.853088%, 100%)" offset="0.617188"/><stop stop-opacity="1" stop-color="rgb(80.744934%, 97.825623%, 100%)" offset="0.625"/><stop stop-opacity="1" stop-color="rgb(80.502319%, 97.798157%, 100%)" offset="0.632812"/><stop stop-opacity="1" stop-color="rgb(80.259705%, 97.770691%, 100%)" offset="0.640625"/><stop stop-opacity="1" stop-color="rgb(80.018616%, 97.743225%, 100%)" offset="0.648437"/><stop stop-opacity="1" stop-color="rgb(79.776001%, 97.715759%, 100%)" offset="0.65625"/><stop stop-opacity="1" stop-color="rgb(79.533386%, 97.688293%, 100%)" offset="0.664062"/><stop stop-opacity="1" stop-color="rgb(79.292297%, 97.660828%, 100%)" offset="0.671875"/><stop stop-opacity="1" stop-color="rgb(79.049683%, 97.633362%, 100%)" offset="0.679688"/><stop stop-opacity="1" stop-color="rgb(78.807068%, 97.605896%, 100%)" offset="0.6875"/><stop stop-opacity="1" stop-color="rgb(78.564453%, 97.579956%, 100%)" offset="0.695312"/><stop stop-opacity="1" stop-color="rgb(78.323364%, 97.55249%, 100%)" offset="0.703125"/><stop stop-opacity="1" stop-color="rgb(78.08075%, 97.525024%, 100%)" offset="0.710938"/><stop stop-opacity="1" stop-color="rgb(77.838135%, 97.497559%, 100%)" offset="0.71875"/><stop stop-opacity="1" stop-color="rgb(77.597046%, 97.470093%, 100%)" offset="0.726562"/><stop stop-opacity="1" stop-color="rgb(77.354431%, 97.442627%, 100%)" offset="0.734375"/><stop stop-opacity="1" stop-color="rgb(77.111816%, 97.415161%, 100%)" offset="0.742187"/><stop stop-opacity="1" stop-color="rgb(76.869202%, 97.387695%, 100%)" offset="0.75"/><stop stop-opacity="1" stop-color="rgb(76.628113%, 97.360229%, 100%)" offset="0.757813"/><stop stop-opacity="1" stop-color="rgb(76.385498%, 97.332764%, 100%)" offset="0.765625"/><stop stop-opacity="1" stop-color="rgb(76.142883%, 97.305298%, 100%)" offset="0.773438"/><stop stop-opacity="1" stop-color="rgb(75.901794%, 97.277832%, 100%)" offset="0.78125"/><stop stop-opacity="1" stop-color="rgb(75.65918%, 97.251892%, 100%)" offset="0.789062"/><stop stop-opacity="1" stop-color="rgb(75.416565%, 97.224426%, 100%)" offset="0.796875"/><stop stop-opacity="1" stop-color="rgb(75.17395%, 97.19696%, 100%)" offset="0.804688"/><stop stop-opacity="1" stop-color="rgb(74.932861%, 97.169495%, 100%)" offset="0.8125"/><stop stop-opacity="1" stop-color="rgb(74.690247%, 97.142029%, 100%)" offset="0.820312"/><stop stop-opacity="1" stop-color="rgb(74.447632%, 97.114563%, 100%)" offset="0.828125"/><stop stop-opacity="1" stop-color="rgb(74.205017%, 97.087097%, 100%)" offset="0.835938"/><stop stop-opacity="1" stop-color="rgb(73.963928%, 97.059631%, 100%)" offset="0.84375"/><stop stop-opacity="1" stop-color="rgb(73.721313%, 97.032166%, 100%)" offset="0.851563"/><stop stop-opacity="1" stop-color="rgb(73.478699%, 97.0047%, 100%)" offset="0.859375"/><stop stop-opacity="1" stop-color="rgb(73.23761%, 96.977234%, 100%)" offset="0.867188"/><stop stop-opacity="1" stop-color="rgb(72.994995%, 96.949768%, 100%)" offset="0.875"/><stop stop-opacity="1" stop-color="rgb(72.75238%, 96.922302%, 100%)" offset="0.882812"/><stop stop-opacity="1" stop-color="rgb(72.509766%, 96.896362%, 100%)" offset="0.890625"/><stop stop-opacity="1" stop-color="rgb(72.268677%, 96.868896%, 100%)" offset="0.898437"/><stop stop-opacity="1" stop-color="rgb(72.026062%, 96.841431%, 100%)" offset="0.90625"/><stop stop-opacity="1" stop-color="rgb(71.783447%, 96.813965%, 100%)" offset="0.914062"/><stop stop-opacity="1" stop-color="rgb(71.542358%, 96.786499%, 100%)" offset="0.921875"/><stop stop-opacity="1" stop-color="rgb(71.299744%, 96.759033%, 100%)" offset="0.929688"/><stop stop-opacity="1" stop-color="rgb(71.057129%, 96.731567%, 100%)" offset="0.9375"/><stop stop-opacity="1" stop-color="rgb(70.814514%, 96.704102%, 100%)" offset="0.945312"/><stop stop-opacity="1" stop-color="rgb(70.573425%, 96.676636%, 100%)" offset="0.953125"/><stop stop-opacity="1" stop-color="rgb(70.330811%, 96.64917%, 100%)" offset="0.960938"/><stop stop-opacity="1" stop-color="rgb(70.088196%, 96.621704%, 100%)" offset="0.96875"/><stop stop-opacity="1" stop-color="rgb(69.847107%, 96.594238%, 100%)" offset="0.976562"/><stop stop-opacity="1" stop-color="rgb(69.604492%, 96.568298%, 100%)" offset="0.984375"/><stop stop-opacity="1" stop-color="rgb(69.361877%, 96.540833%, 100%)" offset="0.992187"/><stop stop-opacity="1" stop-color="rgb(69.119263%, 96.513367%, 100%)" offset="1"/></linearGradient><clipPath id="b1e7518517"><path d="M 26.367188 8 L 348.632812 8 L 348.632812 367 L 26.367188 367 Z M 26.367188 8 " clip-rule="nonzero"/></clipPath><clipPath id="db12e1f4c0"><path d="M 213.429688 15.085938 L 322.703125 78.664062 C 338.757812 88.003906 348.632812 105.175781 348.632812 123.75 L 348.632812 251.25 C 348.632812 269.824219 338.757812 286.996094 322.703125 296.335938 L 213.429688 359.914062 C 197.402344 369.238281 177.597656 369.238281 161.570312 359.914062 L 52.296875 296.335938 C 36.242188 286.996094 26.367188 269.824219 26.367188 251.25 L 26.367188 123.75 C 26.367188 105.175781 36.242188 88.003906 52.296875 78.664062 L 161.570312 15.085938 C 177.597656 5.761719 197.402344 5.761719 213.429688 15.085938 Z M 213.429688 15.085938 " clip-rule="nonzero"/></clipPath></defs><g clip-path="url(#5084614e0e)"><g clip-path="url(#2ea2edadcf)"><path fill="url(#2bf049a78d)" d="M 26.367188 8.089844 L 26.367188 366.90625 L 348.632812 366.90625 L 348.632812 8.089844 Z M 26.367188 8.089844 " fill-rule="nonzero"/></g></g><g clip-path="url(#b1e7518517)"><g clip-path="url(#db12e1f4c0)"><path stroke-linecap="butt" transform="matrix(0.75, 0, 0, 0.75, 26.36719, 0)" fill="none" stroke-linejoin="miter" d="M 249.416663 20.114583 L 395.11458 104.885417 C 416.52083 117.338542 429.687497 140.234375 429.687497 165 L 429.687497 335.000001 C 429.687497 359.765626 416.52083 382.661459 395.11458 395.114584 L 249.416663 479.885417 C 228.046872 492.317709 201.640622 492.317709 180.27083 479.885417 L 34.572913 395.114584 C 13.166663 382.661459 -0.00000361141 359.765626 -0.00000361141 335.000001 L -0.00000361141 165 C -0.00000361141 140.234375 13.166663 117.338542 34.572913 104.885417 L 180.27083 20.114583 C 201.640622 7.682292 228.046872 7.682292 249.416663 20.114583 Z M 249.416663 20.114583 " stroke="#159d99" stroke-width="50" stroke-opacity="1" stroke-miterlimit="4"/></g></g><g fill="#159d99" fill-opacity="1"><g transform="translate(86.058133, 251.454881)"><g><path d="M 33.828125 1.140625 C 23.742188 1.140625 16.25 -1.710938 11.34375 -7.421875 C 6.445312 -13.128906 4 -21.601562 4 -32.84375 L 4 -122.640625 L 27.84375 -122.640625 L 27.84375 -33.828125 C 27.84375 -29.929688 28.222656 -26.890625 28.984375 -24.703125 C 29.742188 -22.515625 31.359375 -21.421875 33.828125 -21.421875 C 36.304688 -21.421875 37.925781 -22.488281 38.6875 -24.625 C 39.445312 -26.769531 39.828125 -29.835938 39.828125 -33.828125 L 39.828125 -122.640625 L 63.671875 -122.640625 L 63.671875 -32.84375 C 63.671875 -21.601562 61.21875 -13.128906 56.3125 -7.421875 C 51.414062 -1.710938 43.921875 1.140625 33.828125 1.140625 Z M 33.828125 1.140625 "/></g></g></g><g fill="#159d99" fill-opacity="1"><g transform="translate(153.732022, 251.454881)"><g><path d="M 34.6875 1.140625 C 24.789062 1.140625 17.269531 -1.878906 12.125 -7.921875 C 6.988281 -13.960938 4.421875 -22.457031 4.421875 -33.40625 L 4.421875 -91.796875 C 4.421875 -102.359375 6.988281 -110.328125 12.125 -115.703125 C 17.269531 -121.085938 24.789062 -123.78125 34.6875 -123.78125 C 44.59375 -123.78125 52.113281 -121.085938 57.25 -115.703125 C 62.382812 -110.328125 64.953125 -102.359375 64.953125 -91.796875 L 64.953125 -33.40625 C 64.953125 -22.363281 62.382812 -13.84375 57.25 -7.84375 C 52.113281 -1.851562 44.59375 1.140625 34.6875 1.140625 Z M 34.6875 -21.421875 C 36.875 -21.421875 38.347656 -22.367188 39.109375 -24.265625 C 39.878906 -26.171875 40.265625 -28.835938 40.265625 -32.265625 L 40.265625 -92.21875 C 40.265625 -94.882812 39.90625 -97.050781 39.1875 -98.71875 C 38.476562 -100.382812 37.023438 -101.21875 34.828125 -101.21875 C 30.742188 -101.21875 28.703125 -98.125 28.703125 -91.9375 L 28.703125 -32.125 C 28.703125 -28.601562 29.128906 -25.9375 29.984375 -24.125 C 30.835938 -22.320312 32.40625 -21.421875 34.6875 -21.421875 Z M 34.6875 -21.421875 "/></g></g></g><g fill="#159d99" fill-opacity="1"><g transform="translate(223.119186, 251.454881)"><g><path d="M 34.546875 1.140625 C 23.410156 1.140625 15.367188 -1.617188 10.421875 -7.140625 C 5.472656 -12.660156 3 -21.554688 3 -33.828125 L 3 -45.828125 L 27.125 -45.828125 L 27.125 -30.546875 C 27.125 -24.460938 29.078125 -21.421875 32.984375 -21.421875 C 35.171875 -21.421875 36.691406 -22.0625 37.546875 -23.34375 C 38.398438 -24.625 38.828125 -26.789062 38.828125 -29.84375 C 38.828125 -33.832031 38.351562 -37.132812 37.40625 -39.75 C 36.457031 -42.375 35.242188 -44.566406 33.765625 -46.328125 C 32.285156 -48.085938 29.644531 -50.820312 25.84375 -54.53125 L 15.28125 -65.09375 C 7.09375 -73.09375 3 -81.945312 3 -91.65625 C 3 -102.125 5.398438 -110.09375 10.203125 -115.5625 C 15.015625 -121.039062 22.035156 -123.78125 31.265625 -123.78125 C 42.304688 -123.78125 50.253906 -120.851562 55.109375 -115 C 59.960938 -109.144531 62.390625 -99.984375 62.390625 -87.515625 L 37.40625 -87.515625 L 37.265625 -95.9375 C 37.265625 -97.550781 36.8125 -98.832031 35.90625 -99.78125 C 35 -100.738281 33.738281 -101.21875 32.125 -101.21875 C 30.21875 -101.21875 28.785156 -100.691406 27.828125 -99.640625 C 26.878906 -98.597656 26.40625 -97.175781 26.40625 -95.375 C 26.40625 -91.375 28.691406 -87.234375 33.265625 -82.953125 L 47.546875 -69.234375 C 50.867188 -66.003906 53.625 -62.9375 55.8125 -60.03125 C 58.007812 -57.125 59.773438 -53.695312 61.109375 -49.75 C 62.441406 -45.800781 63.109375 -41.113281 63.109375 -35.6875 C 63.109375 -23.601562 60.894531 -14.441406 56.46875 -8.203125 C 52.039062 -1.972656 44.734375 1.140625 34.546875 1.140625 Z M 34.546875 1.140625 "/></g></g></g></svg>